<?xml version="1.0" encoding="utf-8"?>
<!-- Generator: Adobe Illustrator 17.1.0, SVG Export Plug-In . SVG Version: 6.00 Build 0)  -->
<!DOCTYPE svg PUBLIC "-//W3C//DTD SVG 1.1//EN" "http://www.w3.org/Graphics/SVG/1.1/DTD/svg11.dtd">
<svg version="1.1" id="Layer_1" xmlns="http://www.w3.org/2000/svg" xmlns:xlink="http://www.w3.org/1999/xlink" x="0px" y="0px"
	 width="150px" height="60.1px" viewBox="405 249.9 150 60.1" style="enable-background:new 405 249.9 150 60.1;"
	 xml:space="preserve" preserveAspectRatio="XminYmin none">
<style type="text/css">
	.st0{fill:#1a1a10;}
	.st1{fill:none;}
</style>
<g id="humana">
</g>
<g id="humana_vitality">
</g>
<g id="jencare">
	<g>
		<g>
			<path class="st0" d="M433.2,260.6c-1.5,0.9-2.7,3.2-2.2,5.4c2.1-3.1,8.4-0.3,10.6-7.3c-1.4,1.1-3.3,1.5-4.1,1.3
				c3.5-1.4,5.4-6.5,2.3-10c0.9,4.1-4.3,4.5-8.4,5.2c-7.7,1.5-8.9,8.6-5.4,12.2C425.5,263.1,428.9,260.5,433.2,260.6L433.2,260.6z"
				/>
			<path class="st0" d="M431.3,285.1c0.3-3.6,0.3-6.9,1.1-9.2H426c0.8,2.3,0.9,5.6,1.1,9.2c0.3,4.4,1.1,17.1,1.1,17.1h2
				C430.2,302.3,431,289.6,431.3,285.1L431.3,285.1L431.3,285.1z M419.7,271.2c0,0,0.6,1.4,0.6,2.8h17.8c0-1.4,0.6-2.8,0.6-2.8h-8.4
				c1.1-1.9,3.9-4.9,9.7-4.9c6.3,0,13.4,5.1,13.4,14.2c0.1,13.6-14.1,23.2-24.2,29.6c-10-6.3-24.2-16-24.2-29.7
				c0-9.1,7.1-14.2,13.4-14.2c5.8,0,8.5,3.1,9.7,4.9L419.7,271.2L419.7,271.2L419.7,271.2z"/>
		</g>
		<path class="st1" d="M431.3,285.2c0.3-3.6,0.3-6.9,1.1-9.2H426c0.8,2.4,0.9,5.6,1.1,9.2c0.3,4.4,1.1,17.2,1.1,17.2h2
			C430.2,302.4,431,289.6,431.3,285.2L431.3,285.2z"/>
		<g>
			<path class="st0" d="M468.2,261l4.2,11.2h-2.6l-0.9-2.5h-4.2l-0.9,2.5h-2.5l4.3-11.2H468.2z M468.3,267.8l-1.4-4.1l0,0l-1.5,4.1
				H468.3z"/>
			<path class="st0" d="M475.3,264v1.1l0,0c0.3-0.4,0.7-0.7,1.1-1c0.4-0.2,0.9-0.3,1.4-0.3s1,0.1,1.4,0.3c0.4,0.2,0.7,0.5,0.9,1.1
				c0.3-0.3,0.6-0.7,1-0.9c0.4-0.3,0.9-0.4,1.5-0.4c0.4,0,0.8,0.1,1.2,0.1c0.4,0.1,0.7,0.3,0.9,0.5c0.3,0.2,0.5,0.5,0.6,0.9
				c0.1,0.4,0.2,0.8,0.2,1.3v5.5h-2.2v-4.6c0-0.3,0-0.5,0-0.8c0-0.3-0.1-0.5-0.2-0.6c-0.1-0.2-0.2-0.3-0.4-0.4
				c-0.2-0.1-0.4-0.1-0.7-0.1s-0.6,0.1-0.7,0.2c-0.2,0.1-0.3,0.3-0.5,0.5c-0.1,0.2-0.2,0.4-0.2,0.7c-0.1,0.3-0.1,0.5-0.1,0.7v4.5
				h-2.2v-4.5c0-0.3,0-0.5,0-0.7c0-0.3-0.1-0.5-0.1-0.7c-0.1-0.2-0.2-0.3-0.4-0.5c-0.2-0.1-0.5-0.2-0.8-0.2c-0.1,0-0.3,0-0.4,0.1
				c-0.2,0.1-0.3,0.1-0.5,0.3c-0.1,0.1-0.3,0.3-0.4,0.5c-0.1,0.3-0.2,0.6-0.2,0.9v4.7h-2.2V264H475.3z"/>
			<path class="st0" d="M489.8,270.2c0.3,0.3,0.8,0.5,1.5,0.5c0.5,0,0.9-0.1,1.1-0.3c0.3-0.2,0.5-0.5,0.6-0.7h1.9
				c-0.3,1-0.8,1.7-1.5,2.1c-0.7,0.4-1.5,0.6-2.3,0.6c-0.7,0-1.2-0.1-1.7-0.3c-0.5-0.2-0.9-0.5-1.3-0.9c-0.3-0.4-0.6-0.8-0.8-1.3
				c-0.2-0.5-0.3-1.1-0.3-1.7s0.1-1.2,0.3-1.7c0.2-0.5,0.5-1,0.9-1.3c0.3-0.4,0.8-0.7,1.3-0.9c0.5-0.2,1.1-0.3,1.7-0.3
				c0.7,0,1.3,0.1,1.8,0.4c0.5,0.3,0.9,0.6,1.3,1.1s0.6,0.9,0.7,1.5s0.2,1.2,0.1,1.8h-5.9C489.3,269.4,489.4,269.9,489.8,270.2z
				 M492.3,266c-0.3-0.3-0.7-0.5-1.2-0.5c-0.3,0-0.7,0.1-0.9,0.2c-0.3,0.1-0.4,0.3-0.5,0.5s-0.3,0.4-0.3,0.5
				c-0.1,0.2-0.1,0.4-0.1,0.5h3.6C492.8,266.7,492.6,266.2,492.3,266z"/>
			<path class="st0" d="M498.6,264v1.5l0,0c0.1-0.3,0.3-0.5,0.4-0.7c0.2-0.2,0.4-0.4,0.6-0.5c0.2-0.1,0.5-0.3,0.7-0.3
				c0.3-0.1,0.5-0.1,0.8-0.1c0.1,0,0.3,0,0.5,0.1v2c-0.1,0-0.2-0.1-0.4-0.1c-0.1,0-0.3,0-0.4,0c-0.4,0-0.7,0.1-1.1,0.2
				c-0.3,0.1-0.5,0.3-0.7,0.5c-0.2,0.3-0.3,0.5-0.4,0.8c-0.1,0.3-0.1,0.7-0.1,1v3.7h-2.2V264H498.6z"/>
			<path class="st0" d="M502.6,262.8v-1.9h2.2v1.9H502.6z M504.8,264v8.1h-2.2V264H504.8z"/>
			<path class="st0" d="M510.5,265.5c-0.3,0-0.7,0.1-0.9,0.3c-0.3,0.1-0.5,0.4-0.6,0.6c-0.1,0.3-0.3,0.5-0.3,0.9
				c-0.1,0.3-0.1,0.6-0.1,0.9c0,0.3,0,0.6,0.1,0.9c0.1,0.3,0.1,0.6,0.3,0.8c0.1,0.3,0.3,0.5,0.6,0.6c0.3,0.1,0.5,0.3,0.9,0.3
				c0.5,0,0.9-0.1,1.3-0.5c0.3-0.3,0.5-0.7,0.5-1.2h2.1c-0.1,1.1-0.5,1.9-1.3,2.5c-0.7,0.5-1.6,0.9-2.7,0.9c-0.6,0-1.2-0.1-1.7-0.3
				c-0.5-0.2-0.9-0.5-1.3-0.9c-0.3-0.4-0.7-0.8-0.9-1.3c-0.2-0.5-0.3-1.1-0.3-1.7c0-0.6,0.1-1.2,0.3-1.7c0.2-0.5,0.5-1,0.8-1.4
				c0.3-0.4,0.8-0.7,1.3-0.9c0.5-0.2,1.1-0.3,1.7-0.3c0.5,0,0.9,0.1,1.4,0.2c0.5,0.1,0.9,0.3,1.2,0.6s0.7,0.6,0.9,0.9
				c0.2,0.4,0.3,0.9,0.4,1.3h-2.2C512,266,511.5,265.5,510.5,265.5z"/>
			<path class="st0" d="M515.9,265.2c0.2-0.3,0.5-0.6,0.9-0.9c0.3-0.2,0.7-0.3,1.2-0.5c0.5-0.1,0.9-0.1,1.3-0.1c0.4,0,0.8,0,1.3,0.1
				c0.4,0.1,0.8,0.2,1.1,0.3c0.3,0.2,0.6,0.4,0.9,0.7c0.2,0.3,0.3,0.7,0.3,1.2v4.2c0,0.3,0,0.7,0.1,1.1c0.1,0.3,0.1,0.6,0.2,0.7
				h-2.3c-0.1-0.1-0.1-0.3-0.1-0.4c0-0.1-0.1-0.3-0.1-0.4c-0.3,0.4-0.8,0.6-1.3,0.8c-0.5,0.1-1,0.2-1.5,0.2c-0.4,0-0.7-0.1-1.1-0.1
				c-0.3-0.1-0.6-0.3-0.9-0.5c-0.3-0.2-0.5-0.5-0.6-0.7c-0.1-0.3-0.2-0.7-0.2-1.1c0-0.5,0.1-0.9,0.3-1.1c0.1-0.3,0.4-0.5,0.6-0.7
				c0.2-0.2,0.5-0.3,0.9-0.4c0.3-0.1,0.7-0.1,1-0.2c0.3-0.1,0.7-0.1,1-0.1c0.3,0,0.6-0.1,0.9-0.1s0.5-0.1,0.6-0.3s0.2-0.3,0.2-0.5
				s-0.1-0.4-0.1-0.6c-0.1-0.1-0.2-0.3-0.3-0.3c-0.1-0.1-0.3-0.1-0.5-0.1c-0.2,0-0.3-0.1-0.5-0.1c-0.5,0-0.8,0.1-1.1,0.3
				c-0.3,0.2-0.4,0.5-0.5,0.9h-2.2C515.6,266,515.7,265.6,515.9,265.2z M520.4,268.4c-0.1,0.1-0.3,0.1-0.5,0.1
				c-0.1,0-0.3,0.1-0.5,0.1c-0.2,0-0.3,0.1-0.5,0.1s-0.3,0.1-0.5,0.1c-0.1,0.1-0.3,0.1-0.4,0.2c-0.1,0.1-0.2,0.2-0.3,0.3
				c-0.1,0.1-0.1,0.3-0.1,0.5s0.1,0.4,0.1,0.5c0.1,0.1,0.2,0.3,0.3,0.3c0.1,0.1,0.3,0.1,0.5,0.1c0.2,0,0.3,0.1,0.5,0.1
				c0.5,0,0.8-0.1,1-0.2c0.3-0.1,0.4-0.3,0.5-0.5s0.2-0.4,0.2-0.6s0.1-0.4,0.1-0.5v-0.9C520.7,268.3,520.5,268.4,520.4,268.4z"/>
			<path class="st0" d="M526.8,264v1.1h0.1c0.3-0.5,0.7-0.8,1.1-1c0.5-0.2,0.9-0.3,1.4-0.3c0.6,0,1.1,0.1,1.5,0.3
				c0.4,0.1,0.7,0.4,0.9,0.7c0.2,0.3,0.4,0.7,0.5,1.1c0.1,0.4,0.1,0.9,0.1,1.4v5h-2.2v-4.6c0-0.7-0.1-1.2-0.3-1.5
				c-0.2-0.3-0.6-0.5-1.1-0.5c-0.6,0-1.1,0.2-1.3,0.5c-0.3,0.3-0.4,0.9-0.4,1.8v4.3h-2.2V264H526.8z"/>
		</g>
		<g>
			<path class="st0" d="M466,275.7v5.5h5.9v-5.5h3.2v14.5h-3.2V284H466v6.2h-3.2v-14.5H466z"/>
			<path class="st0" d="M480.7,287.7c0.4,0.4,1.1,0.6,1.9,0.6c0.6,0,1.1-0.1,1.5-0.5c0.4-0.3,0.7-0.6,0.8-0.9h2.5
				c-0.4,1.3-1,2.1-1.9,2.7c-0.9,0.5-1.9,0.8-3,0.8c-0.8,0-1.5-0.1-2.2-0.4c-0.7-0.3-1.2-0.7-1.7-1.1s-0.8-1.1-1.1-1.7
				c-0.3-0.7-0.4-1.4-0.4-2.2s0.1-1.5,0.4-2.2c0.3-0.7,0.6-1.3,1.1-1.7s1-0.9,1.7-1.1c0.7-0.3,1.4-0.4,2.2-0.4
				c0.9,0,1.7,0.2,2.3,0.5s1.2,0.8,1.6,1.4c0.4,0.6,0.7,1.3,0.9,2c0.2,0.7,0.3,1.5,0.2,2.3H480C480,286.6,480.2,287.3,480.7,287.7z
				 M483.9,282.2c-0.3-0.4-0.9-0.5-1.6-0.5c-0.5,0-0.9,0.1-1.1,0.2c-0.3,0.1-0.5,0.3-0.7,0.6c-0.2,0.2-0.3,0.5-0.4,0.7
				c-0.1,0.3-0.1,0.5-0.1,0.7h4.7C484.5,283.1,484.3,282.5,483.9,282.2z"/>
			<path class="st0" d="M489.6,281.3c0.3-0.5,0.7-0.8,1.1-1.1c0.5-0.3,1-0.5,1.5-0.6c0.6-0.1,1.1-0.2,1.7-0.2c0.5,0,1.1,0.1,1.6,0.1
				c0.5,0.1,1,0.2,1.5,0.5c0.5,0.2,0.8,0.5,1.1,0.9c0.3,0.4,0.4,0.9,0.4,1.5v5.5c0,0.5,0,0.9,0.1,1.3c0.1,0.4,0.1,0.7,0.3,1H496
				c-0.1-0.1-0.1-0.3-0.1-0.5c-0.1-0.2-0.1-0.3-0.1-0.5c-0.5,0.5-1,0.8-1.6,1c-0.6,0.2-1.3,0.3-1.9,0.3c-0.5,0-0.9-0.1-1.4-0.2
				c-0.4-0.1-0.8-0.3-1.1-0.5c-0.3-0.3-0.6-0.6-0.7-1c-0.2-0.4-0.3-0.9-0.3-1.4c0-0.6,0.1-1.1,0.3-1.5c0.2-0.4,0.5-0.7,0.8-0.9
				c0.3-0.2,0.7-0.4,1.1-0.5c0.4-0.1,0.9-0.2,1.3-0.3c0.4-0.1,0.9-0.1,1.3-0.1c0.4-0.1,0.8-0.1,1.1-0.2c0.3-0.1,0.6-0.2,0.8-0.3
				s0.3-0.4,0.3-0.7c0-0.3-0.1-0.5-0.1-0.7c-0.1-0.2-0.3-0.3-0.4-0.4c-0.2-0.1-0.3-0.2-0.6-0.2c-0.2-0.1-0.5-0.1-0.7-0.1
				c-0.5,0-1,0.1-1.3,0.3c-0.3,0.3-0.5,0.7-0.5,1.2h-2.9C489.1,282.3,489.3,281.7,489.6,281.3z M495.3,285.3
				c-0.2,0.1-0.4,0.1-0.6,0.1c-0.2,0.1-0.4,0.1-0.7,0.1c-0.2,0-0.5,0.1-0.7,0.1c-0.2,0.1-0.4,0.1-0.7,0.1c-0.2,0.1-0.4,0.1-0.5,0.3
				c-0.1,0.1-0.3,0.3-0.4,0.5c-0.1,0.2-0.1,0.4-0.1,0.7s0.1,0.5,0.1,0.7c0.1,0.2,0.2,0.3,0.4,0.4c0.1,0.1,0.3,0.2,0.5,0.2
				c0.2,0.1,0.5,0.1,0.7,0.1c0.5,0,1-0.1,1.3-0.3c0.3-0.2,0.5-0.4,0.7-0.7c0.1-0.3,0.3-0.5,0.3-0.8c0-0.3,0.1-0.5,0.1-0.7v-1.1
				C495.6,285.2,495.4,285.3,495.3,285.3z"/>
			<path class="st0" d="M503.6,279.7v1.9h0.1c0.1-0.3,0.3-0.6,0.5-0.9c0.2-0.3,0.5-0.5,0.8-0.7c0.3-0.2,0.6-0.3,0.9-0.5
				s0.7-0.1,1.1-0.1c0.2,0,0.4,0.1,0.6,0.1v2.7c-0.1,0-0.3-0.1-0.5-0.1s-0.4,0-0.5,0c-0.5,0-1,0.1-1.3,0.3s-0.7,0.4-0.9,0.7
				c-0.2,0.3-0.4,0.7-0.5,1.1c-0.1,0.4-0.1,0.9-0.1,1.3v4.7h-2.9v-10.6H503.6z"/>
			<path class="st0" d="M515.6,279.7v1.9h-2.1v5.2c0,0.5,0.1,0.8,0.3,1c0.1,0.1,0.5,0.3,1,0.3c0.1,0,0.3,0,0.5,0
				c0.1,0,0.3-0.1,0.4-0.1v2.2c-0.3,0.1-0.5,0.1-0.8,0.1s-0.6,0-0.9,0c-0.5,0-0.9,0-1.3-0.1c-0.4-0.1-0.7-0.2-1.1-0.3
				c-0.3-0.2-0.5-0.4-0.7-0.7c-0.2-0.3-0.3-0.7-0.3-1.3v-6.1h-1.7v-1.9h1.7v-3.1h2.9v3.1h2.1V279.7z"/>
		</g>
		<g>
			<path class="st0" d="M468.2,294.7l4.2,11.2h-2.6l-0.9-2.5h-4.2l-0.9,2.5h-2.5l4.3-11.2H468.2z M468.3,301.6l-1.4-4.1l0,0
				l-1.5,4.1H468.3z"/>
			<path class="st0" d="M475,303.9c0.1,0.2,0.2,0.3,0.4,0.4c0.1,0.1,0.3,0.2,0.5,0.3c0.2,0.1,0.4,0.1,0.7,0.1c0.1,0,0.3,0,0.5-0.1
				c0.2-0.1,0.3-0.1,0.5-0.2c0.1-0.1,0.3-0.2,0.3-0.3c0.1-0.1,0.1-0.3,0.1-0.5c0-0.3-0.2-0.6-0.7-0.7c-0.5-0.2-1.1-0.3-1.9-0.5
				c-0.3-0.1-0.7-0.1-0.9-0.3c-0.3-0.1-0.6-0.2-0.8-0.4c-0.3-0.1-0.5-0.4-0.6-0.6c-0.1-0.3-0.2-0.5-0.2-0.9c0-0.5,0.1-0.9,0.3-1.3
				c0.2-0.3,0.5-0.6,0.8-0.8c0.3-0.2,0.7-0.3,1.1-0.4c0.4-0.1,0.9-0.1,1.3-0.1c0.5,0,0.9,0.1,1.3,0.1c0.4,0.1,0.8,0.2,1.1,0.4
				c0.3,0.2,0.6,0.5,0.8,0.8c0.2,0.3,0.3,0.7,0.4,1.3h-2.1c0-0.4-0.2-0.7-0.5-0.9c-0.3-0.1-0.7-0.2-1.1-0.2c-0.1,0-0.3,0-0.4,0
				c-0.1,0-0.3,0.1-0.4,0.1c-0.1,0.1-0.2,0.1-0.3,0.2c-0.1,0.1-0.1,0.3-0.1,0.4c0,0.2,0.1,0.3,0.2,0.5c0.1,0.1,0.3,0.2,0.6,0.3
				c0.3,0.1,0.5,0.1,0.8,0.2c0.3,0.1,0.6,0.1,0.9,0.2c0.3,0.1,0.7,0.1,0.9,0.3c0.3,0.1,0.6,0.3,0.8,0.4c0.3,0.2,0.5,0.4,0.6,0.7
				c0.1,0.3,0.2,0.6,0.2,0.9c0,0.5-0.1,1-0.3,1.3s-0.5,0.7-0.9,0.9c-0.3,0.2-0.7,0.4-1.2,0.5c-0.5,0.1-0.9,0.1-1.3,0.1
				c-0.5,0-0.9-0.1-1.4-0.1c-0.5-0.1-0.9-0.3-1.2-0.5c-0.3-0.2-0.7-0.5-0.9-0.9c-0.2-0.3-0.3-0.8-0.4-1.3h2.1
				C474.9,303.6,474.9,303.8,475,303.9z"/>
			<path class="st0" d="M483.5,303.9c0.1,0.2,0.2,0.3,0.4,0.4c0.1,0.1,0.3,0.2,0.5,0.3c0.2,0.1,0.4,0.1,0.7,0.1c0.1,0,0.3,0,0.5-0.1
				c0.2-0.1,0.3-0.1,0.5-0.2c0.1-0.1,0.3-0.2,0.3-0.3c0.1-0.1,0.1-0.3,0.1-0.5c0-0.3-0.2-0.6-0.7-0.7c-0.5-0.2-1.1-0.3-1.9-0.5
				c-0.3-0.1-0.7-0.1-0.9-0.3c-0.3-0.1-0.6-0.2-0.8-0.4c-0.3-0.1-0.5-0.4-0.6-0.6c-0.1-0.3-0.2-0.5-0.2-0.9c0-0.5,0.1-0.9,0.3-1.3
				c0.2-0.3,0.5-0.6,0.8-0.8c0.3-0.2,0.7-0.3,1.1-0.4c0.4-0.1,0.9-0.1,1.3-0.1c0.5,0,0.9,0.1,1.3,0.1c0.4,0.1,0.8,0.2,1.1,0.4
				s0.6,0.5,0.8,0.8s0.3,0.7,0.4,1.3h-2.1c0-0.4-0.2-0.7-0.5-0.9c-0.3-0.1-0.7-0.2-1.1-0.2c-0.1,0-0.3,0-0.4,0s-0.3,0.1-0.4,0.1
				c-0.1,0.1-0.2,0.1-0.3,0.2c-0.1,0.1-0.1,0.3-0.1,0.4c0,0.2,0.1,0.3,0.2,0.5c0.1,0.1,0.3,0.2,0.6,0.3c0.3,0.1,0.5,0.1,0.8,0.2
				c0.3,0.1,0.6,0.1,0.9,0.2c0.3,0.1,0.7,0.1,0.9,0.3c0.3,0.1,0.6,0.3,0.8,0.4c0.3,0.2,0.5,0.4,0.6,0.7c0.1,0.3,0.2,0.6,0.2,0.9
				c0,0.5-0.1,1-0.3,1.3c-0.2,0.3-0.5,0.7-0.9,0.9c-0.3,0.2-0.7,0.4-1.2,0.5c-0.5,0.1-0.9,0.1-1.3,0.1s-0.9-0.1-1.4-0.1
				c-0.5-0.1-0.9-0.3-1.2-0.5c-0.3-0.2-0.7-0.5-0.9-0.9s-0.3-0.8-0.4-1.3h2.1C483.3,303.6,483.3,303.8,483.5,303.9z"/>
			<path class="st0" d="M490.1,300.1c0.2-0.5,0.5-1,0.9-1.3c0.3-0.4,0.8-0.7,1.3-0.9c0.5-0.2,1.1-0.3,1.7-0.3c0.7,0,1.2,0.1,1.7,0.3
				c0.5,0.2,0.9,0.5,1.3,0.9c0.3,0.4,0.7,0.8,0.9,1.3c0.2,0.5,0.3,1.1,0.3,1.8s-0.1,1.3-0.3,1.7c-0.2,0.5-0.5,1-0.9,1.3
				c-0.3,0.4-0.8,0.7-1.3,0.9c-0.5,0.2-1.1,0.3-1.7,0.3c-0.7,0-1.2-0.1-1.7-0.3c-0.5-0.2-0.9-0.5-1.3-0.9c-0.4-0.4-0.7-0.8-0.9-1.3
				c-0.2-0.5-0.3-1.1-0.3-1.7C489.8,301.2,489.9,300.6,490.1,300.1z M492.1,302.8c0.1,0.3,0.2,0.6,0.3,0.8c0.1,0.3,0.3,0.5,0.6,0.6
				c0.3,0.1,0.5,0.2,0.9,0.2c0.4,0,0.7-0.1,0.9-0.2c0.3-0.1,0.5-0.3,0.6-0.6s0.3-0.5,0.3-0.8c0.1-0.3,0.1-0.6,0.1-0.9s0-0.7-0.1-0.9
				c-0.1-0.3-0.2-0.6-0.3-0.9c-0.1-0.3-0.3-0.5-0.6-0.6c-0.3-0.1-0.6-0.2-0.9-0.2c-0.4,0-0.7,0.1-0.9,0.2c-0.3,0.1-0.5,0.3-0.6,0.6
				c-0.1,0.3-0.3,0.5-0.3,0.9c-0.1,0.3-0.1,0.7-0.1,0.9C492,302.2,492,302.5,492.1,302.8z"/>
			<path class="st0" d="M503.6,299.3c-0.3,0-0.7,0.1-0.9,0.3c-0.3,0.1-0.5,0.4-0.6,0.6c-0.1,0.3-0.3,0.5-0.3,0.9
				c-0.1,0.3-0.1,0.6-0.1,0.9c0,0.3,0,0.6,0.1,0.9c0.1,0.3,0.1,0.6,0.3,0.8c0.1,0.3,0.3,0.5,0.6,0.6s0.5,0.3,0.9,0.3
				c0.5,0,0.9-0.1,1.3-0.5c0.3-0.3,0.5-0.7,0.5-1.2h2.1c-0.1,1.1-0.5,1.9-1.3,2.5c-0.7,0.5-1.6,0.9-2.7,0.9c-0.6,0-1.2-0.1-1.7-0.3
				c-0.5-0.2-0.9-0.5-1.3-0.9c-0.3-0.4-0.7-0.8-0.9-1.3c-0.2-0.5-0.3-1.1-0.3-1.7s0.1-1.2,0.3-1.7c0.2-0.5,0.5-1,0.8-1.4
				c0.3-0.4,0.8-0.7,1.3-0.9c0.5-0.2,1.1-0.3,1.7-0.3c0.5,0,0.9,0.1,1.4,0.2s0.9,0.3,1.2,0.6c0.3,0.3,0.7,0.6,0.9,0.9
				c0.2,0.4,0.3,0.9,0.4,1.3h-2.3C505,299.8,504.5,299.3,503.6,299.3z"/>
			<path class="st0" d="M508.8,296.6v-1.9h2.2v1.9H508.8z M511,297.8v8.1h-2.2v-8.1H511z"/>
			<path class="st0" d="M513.1,299c0.2-0.3,0.5-0.6,0.9-0.9c0.3-0.2,0.7-0.3,1.2-0.5c0.5-0.1,0.9-0.1,1.3-0.1c0.4,0,0.8,0,1.3,0.1
				c0.4,0.1,0.8,0.2,1.1,0.3c0.3,0.2,0.6,0.4,0.9,0.7c0.2,0.3,0.3,0.7,0.3,1.2v4.2c0,0.4,0,0.7,0.1,1.1c0.1,0.3,0.1,0.6,0.2,0.7
				h-2.3c-0.1-0.1-0.1-0.3-0.1-0.4c0-0.1-0.1-0.3-0.1-0.4c-0.3,0.4-0.8,0.6-1.3,0.8c-0.5,0.1-1,0.2-1.5,0.2c-0.4,0-0.7-0.1-1.1-0.1
				c-0.3-0.1-0.6-0.3-0.9-0.5c-0.3-0.2-0.5-0.5-0.6-0.7c-0.1-0.3-0.2-0.7-0.2-1.1c0-0.5,0.1-0.9,0.3-1.1c0.1-0.3,0.4-0.5,0.6-0.7
				c0.3-0.2,0.5-0.3,0.9-0.4c0.3-0.1,0.7-0.1,1-0.2c0.3-0.1,0.7-0.1,1-0.1c0.3,0,0.6-0.1,0.9-0.1c0.3-0.1,0.5-0.1,0.6-0.3
				s0.2-0.3,0.2-0.5c0-0.3-0.1-0.4-0.1-0.6c-0.1-0.1-0.2-0.3-0.3-0.3c-0.1-0.1-0.3-0.1-0.5-0.1c-0.2,0-0.3-0.1-0.5-0.1
				c-0.5,0-0.8,0.1-1.1,0.3c-0.3,0.2-0.4,0.5-0.5,0.9h-2.2C512.7,299.8,512.9,299.4,513.1,299z M517.5,302.2
				c-0.1,0.1-0.3,0.1-0.5,0.1c-0.1,0-0.3,0.1-0.5,0.1c-0.2,0-0.3,0.1-0.5,0.1c-0.2,0-0.3,0.1-0.5,0.1c-0.1,0.1-0.3,0.1-0.4,0.2
				c-0.1,0.1-0.2,0.2-0.3,0.3c-0.1,0.1-0.1,0.3-0.1,0.5s0.1,0.3,0.1,0.5c0.1,0.1,0.2,0.3,0.3,0.3c0.1,0.1,0.3,0.1,0.5,0.1
				s0.3,0.1,0.5,0.1c0.5,0,0.8-0.1,1-0.2c0.3-0.1,0.4-0.3,0.5-0.5c0.1-0.2,0.2-0.4,0.2-0.6s0.1-0.4,0.1-0.5V302
				C517.7,302,517.6,302.1,517.5,302.2z"/>
			<path class="st0" d="M526.3,297.8v1.5h-1.7v4c0,0.4,0.1,0.6,0.2,0.7c0.1,0.1,0.4,0.2,0.7,0.2c0.1,0,0.3,0,0.3,0
				c0.1,0,0.2,0,0.3-0.1v1.7c-0.2,0-0.4,0.1-0.6,0.1c-0.2,0-0.5,0-0.7,0c-0.3,0-0.7,0-1-0.1c-0.3-0.1-0.6-0.1-0.8-0.3
				c-0.3-0.1-0.4-0.3-0.5-0.6c-0.1-0.3-0.2-0.6-0.2-1v-4.8h-1.3v-1.5h1.3v-2.4h2.2v2.5H526.3z"/>
			<path class="st0" d="M527.4,296.6v-1.9h2.2v1.9H527.4z M529.6,297.8v8.1h-2.2v-8.1H529.6z"/>
			<path class="st0" d="M531.5,300.1c0.2-0.5,0.5-1,0.9-1.3c0.3-0.4,0.8-0.7,1.3-0.9c0.5-0.2,1.1-0.3,1.7-0.3s1.2,0.1,1.7,0.3
				c0.5,0.2,0.9,0.5,1.3,0.9c0.3,0.4,0.7,0.8,0.9,1.3c0.2,0.5,0.3,1.1,0.3,1.8s-0.1,1.3-0.3,1.7c-0.2,0.5-0.5,1-0.9,1.3
				c-0.3,0.4-0.8,0.7-1.3,0.9c-0.5,0.2-1.1,0.3-1.7,0.3s-1.2-0.1-1.7-0.3c-0.5-0.2-0.9-0.5-1.3-0.9c-0.3-0.4-0.7-0.8-0.9-1.3
				c-0.2-0.5-0.3-1.1-0.3-1.7C531.2,301.2,531.3,300.6,531.5,300.1z M533.5,302.8c0.1,0.3,0.2,0.6,0.3,0.8c0.1,0.3,0.3,0.5,0.6,0.6
				c0.3,0.1,0.5,0.2,0.9,0.2c0.4,0,0.7-0.1,0.9-0.2c0.3-0.1,0.5-0.3,0.6-0.6c0.1-0.3,0.3-0.5,0.3-0.8c0.1-0.3,0.1-0.6,0.1-0.9
				s0-0.7-0.1-0.9c-0.1-0.3-0.2-0.6-0.3-0.9c-0.1-0.3-0.3-0.5-0.6-0.6c-0.3-0.1-0.6-0.2-0.9-0.2c-0.4,0-0.7,0.1-0.9,0.2
				c-0.3,0.1-0.5,0.3-0.6,0.6c-0.1,0.3-0.3,0.5-0.3,0.9s-0.1,0.7-0.1,0.9C533.4,302.2,533.4,302.5,533.5,302.8z"/>
			<path class="st0" d="M543.2,297.8v1.1h0.1c0.3-0.5,0.7-0.8,1.1-1c0.5-0.2,0.9-0.3,1.4-0.3c0.6,0,1.1,0.1,1.5,0.3
				c0.4,0.1,0.7,0.4,0.9,0.7c0.2,0.3,0.4,0.7,0.5,1.1c0.1,0.4,0.1,0.9,0.1,1.4v5h-2.2v-4.7c0-0.7-0.1-1.2-0.3-1.5s-0.6-0.5-1.1-0.5
				c-0.6,0-1.1,0.2-1.3,0.5s-0.4,0.9-0.4,1.8v4.3h-2.2v-8.1H543.2z"/>
		</g>
		<g>
			<path class="st0" d="M552.5,306c-1.5,0-2.5-1.1-2.5-2.5c0-1.5,1.1-2.5,2.5-2.5s2.5,1,2.5,2.5S553.9,306,552.5,306z M552.5,301.4
				c-1.1,0-1.9,0.9-1.9,2.1c0,1.1,0.7,2.1,1.9,2.1c1.1,0,1.9-0.9,1.9-2.1C554.5,302.3,553.7,301.4,552.5,301.4z M552.1,305h-0.5
				v-2.8h1.1c0.7,0,1,0.3,1,0.8s-0.3,0.7-0.7,0.7l0.8,1.2h-0.5l-0.7-1.2h-0.4V305L552.1,305z M552.6,303.4c0.3,0,0.7-0.1,0.7-0.5
				c0-0.3-0.3-0.4-0.6-0.4h-0.5v0.9H552.6z"/>
		</g>
	</g>
</g>
<g id="great_for_you">
</g>
<g id="dr._shep">
</g>
<g id="ge">
</g>
<g id="aha">
</g>
<g id="diamond">
</g>
<g id="brown_foreman">
</g>
<g id="masterbrand">
</g>
<g id="aristokraft">
</g>
<g id="decora">
</g>
<g id="gaither">
</g>
<g id="unbridled_eve">
</g>
<g id="papa_johns">
</g>
<g id="dr_jan">
</g>
<g id="lawn_pro">
</g>
<g id="goo">
</g>
<g id="b__x26__b">
</g>
<g id="mindy_smith">
</g>
<g id="tesseract">
</g>
<g id="grandparents.com">
</g>
<g id="ican">
</g>
<g id="my_well_being">
</g>
<g id="apple_patch">
</g>
</svg>
