<?xml version="1.0" encoding="utf-8"?>
<!-- Generator: Adobe Illustrator 19.2.1, SVG Export Plug-In . SVG Version: 6.00 Build 0)  -->
<svg version="1.1" id="Layer_1" xmlns="http://www.w3.org/2000/svg" xmlns:xlink="http://www.w3.org/1999/xlink" x="0px" y="0px"
	 viewBox="0 0 264.4 194.2" style="enable-background:new 0 0 264.4 194.2;" xml:space="preserve">
<style type="text/css">
	.st0{fill:#1a1a10;}
</style>
<g>
	<path class="st0" d="M72.2,111.7c-6.3-7.4-16.5-11.1-26.2-11.1c-25.1,0-42.4,20.8-42.4,45c0,24.3,17.7,45.2,42.7,45.2
		c9.9,0,20.3-3.8,25.6-12.2h0.3v9.4h30v-84.6h-30V111.7z M53.9,164.9c-12.2,0-19.3-8.2-19.3-19c0-10.4,7.1-19.1,19.3-19.1
		c12.2,0,19.3,8.7,19.3,19.1C73.2,156.6,66.1,164.9,53.9,164.9z"/>
	<rect x="121.6" y="51.2" class="st0" width="30" height="136.9"/>
	<polygon class="st0" points="201.7,78.1 171.6,78.1 171.6,103.5 161.9,103.5 161.9,128.2 171.6,128.2 171.6,188.1 201.7,188.1 
		201.7,128.2 218.6,128.2 218.6,103.5 201.7,103.5 	"/>
	<rect x="228.2" y="103.5" class="st0" width="30" height="84.6"/>
	<path class="st0" d="M94.8,64.8l39.6-50.2c1.1-1.5,3.4-1.5,4.6,0l41.5,50.1c0.5,0.7,1.4,1.1,2.3,1.1c2.3,0,4.9-2.6,3.5-4.5
		L139.6,6.2c-0.5-0.7-1.4-1.1-2.3-1.1L60.3,4.8c-0.9,0-1.7,0.4-2.2,1L3.6,61.4C2.1,63.3,3.4,66,5.8,66h86.7
		C93.4,66,94.2,65.5,94.8,64.8z"/>
	<path class="st0" d="M243.4,52.2c9.2-0.1,16.7-7.8,16.7-17c-0.1-9.2-7.8-16.8-17-16.7c-9.2,0.1-16.7,7.8-16.7,17
		C226.5,44.8,234.2,52.3,243.4,52.2z"/>
</g>
</svg>
