<?xml version="1.0" encoding="utf-8"?>
<!-- Generator: Adobe Illustrator 19.2.1, SVG Export Plug-In . SVG Version: 6.00 Build 0)  -->
<svg version="1.1" id="Layer_1" xmlns="http://www.w3.org/2000/svg" xmlns:xlink="http://www.w3.org/1999/xlink" x="0px" y="0px"
	 viewBox="0 0 418.5 264" style="enable-background:new 0 0 418.5 264;" xml:space="preserve">
<style type="text/css">
	.st0{stroke:#1a1a10;}
	.st1{fill:#1a1a10;}
</style>
<line class="st0" x1="208.1" y1="-120.1" x2="208.1" y2="-96.8"/>
<line class="st0" x1="208.1" y1="465.4" x2="208.1" y2="488.8"/>
<g>
	<path class="st1" d="M30.8,116.8c0,0,57.3-56.3,88.4-56.3c0,0,23.5-3.8,45.8,21c0,0,3.8,4.9,8,0.8c0,0,2.4-2.7-1.1-5.5l-14.6-12.1
		l36.7-35.9c0,0,14.5-15.7,32.8,0.6l73.7,58.6c0,0,3.4,2.9,5.3,1.3c0,0,2.5-2.1-1.1-5l-28.3-26.9c0,0,8.2-16.1,24.1-5
		c0,0,73.5,50,84,61.9l-96.4-0.1l0-9.5l-24.3,0v-7.1l-35.7,0l0-5.9l-47.8,0.1v13l-18.1-0.1l0,12.2L30.8,116.8z"/>
	<rect x="28.8" y="123.3" class="st1" width="360" height="5.4"/>
	<path class="st1" d="M112.9,216.7H73.6l-5.5,13.4H32.7l42.2-81.4h37.8l42.1,81.4h-36.3L112.9,216.7z M105.7,199.1l-12.4-29.3
		l-12.2,29.3H105.7z"/>
	<path class="st1" d="M278.7,148.1l22.6-0.2l0.3,29.9h59.2v-29.9l24.2,0.2v82.3h-23.3l-0.3-32.4h-59.5l-0.3,32.4h-22.9V148.1z"/>
	<path class="st1" d="M249.3,198c9.4,0,14.2-16.1,14.2-16.1l0.3-17c0-15.4-23-16.7-23-16.7h-75.9v82.5l22.7-0.3v-22.4l44.6,0.2
		c11.2,0.2,10.9,5.8,10.9,5.8v16.4l20.8,0.3l-0.3-19.8C263.5,203,249.3,198,249.3,198z M231,190.1l-43.5-0.2v-24.4h45.5
		c0,0,9.9-0.3,9.8,7.7l-0.2,8.2C242.7,181.5,243.6,190.1,231,190.1z"/>
</g>
</svg>
