<?xml version="1.0" encoding="utf-8"?>
<!-- Generator: Adobe Illustrator 17.1.0, SVG Export Plug-In . SVG Version: 6.00 Build 0)  -->
<!DOCTYPE svg PUBLIC "-//W3C//DTD SVG 1.1//EN" "http://www.w3.org/Graphics/SVG/1.1/DTD/svg11.dtd">
<svg version="1.1" id="Layer_1" xmlns="http://www.w3.org/2000/svg" xmlns:xlink="http://www.w3.org/1999/xlink" x="0px" y="0px"
	 width="150px" height="89px" viewBox="405 235.5 150 89" style="enable-background:new 405 235.5 150 89;" xml:space="preserve" preserveAspectRatio="XminYmin none">
<style type="text/css">
	.st0{fill:#1a1a10;}
</style>
<g id="humana">
</g>
<g id="humana_vitality">
</g>
<g id="jencare">
	<g>
		<path class="st0" d="M407,262.3v-26.8h9.9c4.3,0,7.8,1.2,7.8,6.9c0,3.1-1.5,5.3-4.5,5.9v0.1c4,0.6,5,3.1,5,6.8
			c0,6.8-5.9,7.1-8.3,7.1L407,262.3L407,262.3z M412.6,246.5h3.8c1.2,0,3-0.8,3-3.4c0-2-1.4-3.5-3.3-3.5h-3.5V246.5z M412.6,258.1
			h3.2c1.2,0,3.9,0,3.9-3.8c0-2.4-0.9-3.9-3.8-3.9h-3.3V258.1z"/>
		<path class="st0" d="M428.6,262.3v-26.8h14.6v4.2h-9v6.6h8.3v4.1h-8.3v7.8h9.3v4.2H428.6L428.6,262.3z"/>
		<path class="st0" d="M446.2,262.3v-26.8h7.6l7.1,18.6h0.1v-18.6h5.2v26.8h-7.4l-7.3-19.6h-0.1v19.6H446.2L446.2,262.3z"/>
		<path class="st0" d="M470.1,262.3v-26.8h7.6l7.1,18.6h0.1v-18.6h5.1v26.8h-7.4l-7.2-19.6h-0.1v19.6H470.1L470.1,262.3z"/>
		<path class="st0" d="M493.9,262.3v-26.8h14.6v4.2h-9v6.6h8.3v4.1h-8.3v7.8h9.3v4.2H493.9L493.9,262.3z"/>
		<path class="st0" d="M527.4,235.5v4.4h-6.2v22.3h-5.6V240h-6.2v-4.4H527.4z"/>
		<path class="st0" d="M545,235.5v4.4h-6.2v22.3h-5.6V240h-6.2v-4.4H545z"/>
		<path class="st0" d="M422,294.1c-2.1,2.1-4.6,2.6-7.4,2.6c-6.1,0-9.6-2.9-9.6-8.1c0-3.6,2.5-5.8,5.2-7.6c-1.4-1.8-3-4-3-6.7
			c0-3,3.6-5.2,8.1-5.2c2.6,0,6.8,1.2,6.8,5.2c0,3.5-2.4,5.2-4.5,7.2l4.2,5.4c0.5-1.8,0.6-2.8,0.6-5.3h4.5c0,2.8,0,6.2-1.8,9.2
			l4.1,5.5h-5.5L422,294.1z M413.3,284.3c-1.3,1.1-2.7,2.6-2.7,4.4c0,2.6,1.5,4.2,4.1,4.2c1.6,0,3.2-0.5,4.1-1.8L413.3,284.3z
			 M417.1,274.7c0-1.4-0.9-2.3-2.3-2.3c-1.2,0-2.4,0.9-2.4,2.1c0,1.5,1,2.8,2,3.9C415.7,277.5,417.1,276.3,417.1,274.7z"/>
		<path class="st0" d="M436.9,296.3v-26.8h10c4.3,0,7.8,1.2,7.8,6.9c0,3.1-1.5,5.3-4.5,5.9v0.1c4,0.6,5,3.1,5,6.8
			c0,6.8-5.9,7.1-8.3,7.1L436.9,296.3L436.9,296.3z M442.6,280.4h3.8c1.2,0,3-0.8,3-3.4c0-2-1.4-3.5-3.3-3.5h-3.5V280.4z
			 M442.6,292.2h3.2c1.2,0,3.9,0,3.9-3.8c0-2.4-0.9-3.9-3.8-3.9h-3.3V292.2z"/>
		<path class="st0" d="M458.1,296.3v-26.8h5.6v22.3h8.4v4.4H458.1z"/>
		<path class="st0" d="M472.8,282.9c0-7.1,0-13.8,9.2-13.8s9.2,6.7,9.2,13.8c0,7,0,13.8-9.2,13.8S472.8,289.9,472.8,282.9z
			 M485.6,282.9c0-6.8-0.4-9.8-3.6-9.8s-3.6,3-3.6,9.8c0,6.8,0.4,9.8,3.6,9.8C485.2,292.8,485.6,289.8,485.6,282.9z"/>
		<path class="st0" d="M494,282.9c0-7.1,0-13.8,9.2-13.8c9.2,0,9.2,6.7,9.2,13.8c0,7,0,13.8-9.2,13.8C494,296.7,494,289.9,494,282.9
			z M506.7,282.9c0-6.8-0.4-9.8-3.6-9.8s-3.6,3-3.6,9.8c0,6.8,0.4,9.8,3.6,9.8C506.4,292.8,506.7,289.8,506.7,282.9z"/>
		<path class="st0" d="M515.3,296.3v-26.8h9l4.2,18.2h0.1l4.4-18.2h8.7v26.8h-5.4v-20.7h-0.1l-5.1,20.7h-5.3l-4.8-20.7h-0.1v20.7
			H515.3z"/>
		<path class="st0" d="M406.8,324.1v-19.4h10v2.2h-7.5v6.2h7v2.2h-7v6.7h7.6v2.2L406.8,324.1L406.8,324.1z"/>
		<path class="st0" d="M428,304.7h2.5l-5.3,12v7.4h-2.4v-7.4l-5.2-12h2.8l3.8,9.4L428,304.7z"/>
		<path class="st0" d="M432.3,324.1v-19.4h10v2.2h-7.5v6.2h7v2.2h-7v6.7h7.7v2.2L432.3,324.1L432.3,324.1z"/>
		<path class="st0" d="M458.9,310.1c0-1.1-0.1-2.2-0.6-2.9c-0.5-0.6-1.7-0.8-2.2-0.8c-2.1,0-2.9,1.3-3,1.5s-0.6,0.7-0.6,4.1v5.1
			c0,4.7,1.6,5.3,3.5,5.3c0.8,0,3.1-0.3,3.1-4.1h2.6c0.1,6.1-4.3,6.1-5.4,6.1c-2.4,0-6.1-0.2-6.1-7.7v-5.4c0-5.4,2.4-7,6.2-7
			c3.9,0,5.3,2,5,5.7L458.9,310.1L458.9,310.1z"/>
		<path class="st0" d="M464.6,324.1v-19.4h10v2.2h-7.5v6.2h7v2.2h-7v6.7h7.7v2.2L464.6,324.1L464.6,324.1z"/>
		<path class="st0" d="M490.8,304.7v19.4h-3.4l-7.6-16.8h-0.1v16.8h-2.2v-19.4h3.5l7.5,16.6h0.1v-16.6H490.8z"/>
		<path class="st0" d="M505.6,304.7v2.2h-5.1v17.2h-2.5v-17.3h-5.1v-2.1H505.6z"/>
		<path class="st0" d="M507.4,324.1v-19.4h10v2.2h-7.5v6.2h7v2.2h-7v6.7h7.7v2.2L507.4,324.1L507.4,324.1z"/>
		<path class="st0" d="M522.6,315.2v8.9h-2.5v-19.4h6.7c3.5,0,4.6,2.4,4.6,4.8c0,2.3-1.3,4.1-3.6,4.4v0.1c2.3,0.4,3.1,1.1,3.2,5
			c0,0.8,0.3,3.9,0.7,5h-2.6c-0.7-1.4-0.5-3.9-0.8-6.4c-0.2-2.4-2.1-2.5-3-2.5L522.6,315.2L522.6,315.2z M522.6,313h3.8
			c1.8,0,2.7-1.6,2.7-3.3c0-1.4-0.7-3-2.6-3h-3.8L522.6,313L522.6,313z"/>
		<path class="st0" d="M536.4,318.3v0.6c0,2.7,1.7,3.5,3.3,3.5c2,0,3.5-0.8,3.5-3.2c0-4.3-8.7-3.9-8.7-9.7c0-3.5,2.5-5.2,5.7-5.2
			c3.6,0,5.5,1.7,5.3,5.6h-2.6c0-2.1-0.7-3.6-3-3.6c-1.5,0-3,0.8-3,2.9c0,4.3,8.7,3.7,8.7,9.8c0,4.1-2.9,5.4-6,5.4
			c-5.7,0.1-5.7-4.4-5.6-6.2L536.4,318.3L536.4,318.3z"/>
		<path class="st0" d="M555,309.4c0,2.3-1.8,4.1-4.1,4.1c-2.3,0-4.1-1.8-4.1-4.1s1.8-4.1,4.1-4.1C553.1,305.3,555,307.1,555,309.4z
			 M547.5,309.4c0,1.9,1.6,3.5,3.5,3.5c1.9,0,3.5-1.6,3.5-3.5c0-1.9-1.5-3.5-3.5-3.5C549,305.9,547.5,307.5,547.5,309.4z
			 M550.2,311.7h-0.8v-4.6h1.9c0.9,0,1.3,0.6,1.3,1.2s-0.4,1-1,1.1l0,0c0.6,0.1,0.8,0.3,0.8,1.2c0,0.2,0.1,0.9,0.2,1.2h-0.8
			c-0.2-0.3-0.1-0.9-0.2-1.6c-0.1-0.5-0.5-0.5-0.7-0.5h-0.8L550.2,311.7L550.2,311.7z M550.2,309.1h1c0.5,0,0.7-0.3,0.7-0.8
			c0-0.3-0.2-0.7-0.7-0.7h-1V309.1z"/>
	</g>
</g>
<g id="great_for_you">
</g>
<g id="dr._shep">
</g>
<g id="ge">
</g>
<g id="aha">
</g>
<g id="diamond">
</g>
<g id="brown_foreman">
</g>
<g id="masterbrand">
</g>
<g id="aristokraft">
</g>
<g id="decora">
</g>
<g id="gaither">
</g>
<g id="unbridled_eve">
</g>
<g id="papa_johns">
</g>
<g id="dr_jan">
</g>
<g id="lawn_pro">
</g>
<g id="goo">
</g>
<g id="b__x26__b">
</g>
<g id="mindy_smith">
</g>
<g id="tesseract">
</g>
<g id="grandparents.com">
</g>
<g id="ican">
</g>
<g id="my_well_being">
</g>
<g id="apple_patch">
</g>
</svg>
