<?xml version="1.0" encoding="utf-8"?>
<!-- Generator: Adobe Illustrator 17.1.0, SVG Export Plug-In . SVG Version: 6.00 Build 0)  -->
<!DOCTYPE svg PUBLIC "-//W3C//DTD SVG 1.1//EN" "http://www.w3.org/Graphics/SVG/1.1/DTD/svg11.dtd">
<svg version="1.1" id="Layer_1" xmlns="http://www.w3.org/2000/svg" xmlns:xlink="http://www.w3.org/1999/xlink" x="0px" y="0px"
	 viewBox="405.1 268.5 150 23" style="enable-background:new 405.1 268.5 150 23;"
	 xml:space="preserve" preserveAspectRatio="XminYmin none">
<style type="text/css">
	.st0{fill:#1a1a10;}
</style>
<g id="humana">
</g>
<g id="humana_vitality">
</g>
<g id="jencare">
	<g>
		<path class="st0" d="M415.7,268.5c-5.8,0-10.6,5.2-10.6,11.5c0,6.4,4.7,11.5,10.6,11.5c5.8,0,10.6-5.1,10.6-11.5
			C426.2,273.7,421.5,268.5,415.7,268.5z M412,276.4c-0.1,0.5-0.2,0.9-0.5,1.3c-0.2,0.3-0.5,0.5-0.6,0.7c-0.1,0.2-0.4,0.5-0.4,1.1
			c0,0.3,0.1,6.7,0.1,6.7h-0.6c0-0.3-0.1-6.5-0.1-6.7c0-0.9,0.3-1.3,0.5-1.5c0.2-0.3,0.4-0.5,0.7-0.8c0.2-0.2,0.3-0.4,0.3-0.8
			c0-0.3,0.1-2.3,0.1-3h0.6C412.1,274,412,276.1,412,276.4z M417.8,285.9c0,0.2-0.1,0.3-0.3,0.3c-0.2,0-3.4,0-3.6,0
			c-0.2,0-0.3-0.1-0.3-0.3c-0.1-0.2,0.2-0.3,0.3-0.3c0.2-0.1,0.9-0.2,1.1-0.2c0.2-0.1,0.4-0.2,0.4-0.4c0-0.2,0-4.9,0-5.6
			c0-0.8-0.3-1.2-0.9-1.8c-0.3-0.3-0.5-0.7-0.5-1.3c-0.1-0.3-0.1-1.9-0.1-2.6v-0.4h3.9v0.4c0,0.7-0.1,2.4-0.1,2.6
			c-0.1,0.5-0.2,0.9-0.5,1.3c-0.3,0.4-0.9,0.9-0.9,1.7c0,0.9,0.1,5.5,0.1,5.7c0,0.2,0.2,0.4,0.4,0.4c0.2,0,0.9,0.1,1.1,0.1
			C417.7,285.7,417.9,285.8,417.8,285.9z M421.3,286.2h-0.6c0-0.1,0.1-6.5,0.1-6.7c0-0.6-0.2-0.9-0.3-1.1c-0.1-0.2-0.4-0.5-0.6-0.7
			c-0.3-0.4-0.5-0.8-0.5-1.3c-0.1-0.3-0.1-2.4-0.1-3.1h0.6c0,0.7,0.1,2.8,0.1,3c0.1,0.5,0.1,0.7,0.3,0.8c0.3,0.3,0.5,0.5,0.7,0.8
			c0.2,0.2,0.5,0.7,0.5,1.5C421.4,279.7,421.3,285.9,421.3,286.2z"/>
		<path class="st0" d="M433,279.6c0-1.9,0-2.3,0-2.7c-0.1-0.4-0.1-0.6-0.6-0.7c-0.1,0-0.3,0-0.5,0c-0.1,0-0.2-0.1-0.2-0.1
			s0.1-0.1,0.3-0.1c0.7,0,1.5,0.1,1.7,0.1c0.6,0,1.1-0.1,1.6-0.1c2.3,0,2.7,1.3,2.7,1.9c0,1.1-0.6,1.7-1.3,2.2
			c1,0.4,2.3,1.3,2.3,2.8c0,1.4-1.1,2.8-3.4,2.8c-0.3,0-1.5-0.1-1.9-0.1c-0.3,0-1.1,0.1-1.6,0.1c-0.2,0-0.3-0.1-0.3-0.2
			c0-0.1,0.1-0.1,0.2-0.1c0.2,0,0.3-0.1,0.5-0.1c0.3-0.1,0.3-0.3,0.4-0.7c0.1-0.5,0.1-1.6,0.1-2.7L433,279.6L433,279.6z
			 M436.2,280.9c-0.3-0.2-0.5-0.3-1.1-0.3c-0.2,0-0.3,0-0.5,0c-0.1,0-0.1,0-0.1,0.1v3c0,0.9,0.1,1.1,0.5,1.3
			c0.3,0.1,0.7,0.2,0.9,0.2c0.6,0,1.5-0.3,1.5-1.7C437.4,282.6,437.2,281.5,436.2,280.9L436.2,280.9z M434.5,279.8
			c0,0.1,0.1,0.1,0.1,0.1c0.1,0.1,0.3,0.1,0.6,0.1c0.4,0,0.7-0.1,0.9-0.3c0.3-0.3,0.5-0.7,0.5-1.3c0-0.9-0.5-2-1.6-2
			c-0.2,0-0.3,0-0.4,0c-0.1,0.1-0.1,0.1-0.1,0.2L434.5,279.8L434.5,279.8z"/>
		<path class="st0" d="M441.6,279.6c0-1.9,0-2.3-0.1-2.7c0-0.4-0.1-0.6-0.5-0.7c-0.1,0-0.3,0-0.5,0c-0.1,0-0.2-0.1-0.2-0.1
			s0.1-0.1,0.3-0.1c0.7,0,1.5,0.1,1.7,0.1c0.4,0,1.4-0.1,1.8-0.1c0.8,0,1.7,0.1,2.4,0.5c0.4,0.3,0.9,0.9,0.9,1.8
			c0,0.9-0.4,1.8-1.7,2.9c1.2,1.4,2,2.6,2.8,3.4c0.7,0.7,1.2,0.8,1.4,0.9c0.2,0.1,0.3,0.1,0.4,0.1c0.1,0,0.1,0.1,0.1,0.1
			c0,0.1-0.1,0.1-0.2,0.1h-1.3c-0.7,0-1-0.1-1.4-0.3c-0.5-0.3-1-0.9-1.7-1.9c-0.5-0.7-1.1-1.6-1.3-1.7c-0.1-0.1-0.1-0.1-0.2-0.1
			h-1.1c-0.1,0-0.1,0-0.1,0.1v0.2c0,1.2,0,2.2,0.1,2.7c0.1,0.4,0.1,0.7,0.5,0.7c0.2,0,0.5,0.1,0.6,0.1c0.1,0,0.2,0.1,0.2,0.1
			c0,0.1-0.1,0.2-0.3,0.2c-0.7,0-1.7-0.1-1.9-0.1c-0.3,0-1,0.1-1.6,0.1c-0.2,0-0.3-0.1-0.3-0.2c0-0.1,0.1-0.1,0.2-0.1
			c0.2,0,0.4-0.1,0.5-0.1c0.3-0.1,0.3-0.3,0.4-0.7c0.1-0.5,0.1-1.6,0.1-2.7L441.6,279.6L441.6,279.6z M443.1,280.6
			c0,0.1,0.1,0.2,0.1,0.3c0.3,0.1,0.7,0.1,1,0.1c0.5,0,0.7-0.1,0.9-0.3c0.4-0.3,0.7-0.9,0.7-1.9c0-1.8-1.2-2.3-1.9-2.3
			c-0.3,0-0.6,0-0.7,0.1c-0.1,0-0.1,0.1-0.1,0.2V280.6L443.1,280.6z"/>
		<path class="st0" d="M449.9,280.7c0-2.2,1.4-5,5.3-5c3.2,0,5.2,1.9,5.2,4.8c0,2.9-2.1,5.3-5.3,5.3
			C451.3,285.8,449.9,283,449.9,280.7L449.9,280.7z M458.5,281c0-2.9-1.7-4.6-3.8-4.6c-1.5,0-3.1,0.8-3.1,4c0,2.7,1.5,4.8,3.9,4.8
			C456.5,285.1,458.5,284.7,458.5,281L458.5,281z"/>
		<path class="st0" d="M461.8,277.1c-0.1-0.5-0.3-0.7-0.5-0.9c-0.1-0.1-0.4-0.1-0.5-0.1c-0.1,0-0.2-0.1-0.2-0.1s0.1-0.1,0.3-0.1
			c0.7,0,1.4,0.1,1.5,0.1c0.1,0,0.7-0.1,1.5-0.1c0.2,0,0.3,0.1,0.3,0.1s-0.1,0.1-0.2,0.1c-0.1,0-0.3,0-0.3,0.1
			c-0.1,0.1-0.1,0.1-0.2,0.3c0,0.2,0.2,0.6,0.3,1.2c0.3,0.8,1.4,4.7,1.7,5.4h0.1l2.5-6.7c0.1-0.3,0.2-0.5,0.3-0.5
			c0.2,0,0.2,0.2,0.4,0.6l2.7,6.4h0.1c0.2-0.8,1.3-4.2,1.7-5.7c0.1-0.3,0.1-0.6,0.1-0.7c0-0.2-0.1-0.4-0.6-0.4
			c-0.1,0-0.2-0.1-0.2-0.1s0.1-0.1,0.3-0.1c0.7,0,1.2,0.1,1.3,0.1c0.1,0,0.6-0.1,1.1-0.1c0.1,0,0.2,0.1,0.2,0.1s-0.1,0.1-0.2,0.1
			c-0.1,0-0.3,0-0.5,0.1c-0.3,0.1-0.5,0.6-0.7,1.4c-0.6,1.6-1.9,5.7-2.6,7.6c-0.2,0.4-0.2,0.6-0.4,0.6c-0.1,0-0.2-0.2-0.4-0.6
			l-2.7-6.4h-0.1c-0.2,0.7-1.9,5.2-2.5,6.4c-0.3,0.5-0.3,0.7-0.5,0.7c-0.1,0-0.2-0.1-0.3-0.5L461.8,277.1L461.8,277.1z"/>
		<path class="st0" d="M477.2,283.9c0,1,0.2,1.3,0.5,1.4c0.2,0.1,0.5,0.1,0.7,0.1c0.1,0,0.2,0.1,0.2,0.1c0,0.1-0.1,0.1-0.3,0.1
			c-0.8,0-1.4-0.1-1.6-0.1c-0.1,0-0.7,0.1-1.4,0.1c-0.2,0-0.3-0.1-0.3-0.1c0-0.1,0.1-0.1,0.2-0.1c0.2,0,0.4,0,0.6-0.1
			c0.3-0.1,0.4-0.5,0.4-1.6l0.1-7.6c0-0.3,0.1-0.4,0.2-0.4c0.1,0,0.3,0.2,0.5,0.4c0.2,0.2,2.1,2.3,4,4.1c0.9,0.9,2.6,2.7,2.8,2.9
			h0.1l-0.1-5.8c0-0.7-0.1-1-0.4-1.1c-0.2-0.1-0.5-0.1-0.7-0.1c-0.1,0-0.2-0.1-0.2-0.1c0-0.1,0.2-0.1,0.3-0.1c0.7,0,1.3,0.1,1.6,0.1
			c0.1,0,0.6-0.1,1.3-0.1c0.2,0,0.3,0,0.3,0.1c0,0.1-0.1,0.1-0.2,0.1c-0.1,0-0.3,0-0.4,0.1c-0.3,0.1-0.5,0.4-0.5,1.1l-0.1,8.1
			c0,0.3-0.1,0.4-0.2,0.4c-0.2,0-0.3-0.1-0.5-0.3c-0.8-0.8-2.5-2.5-3.8-3.8c-1.4-1.4-2.8-3-3.1-3.2h-0.1L477.2,283.9L477.2,283.9z"
			/>
		<path class="st0" d="M487.4,281.1c0.5-0.9,0.6-1,1-1s0.8,0.1,1.7,0.1c0.9,0,1,0,1.2-0.3l0.2,0.1c-0.5,0.9-0.5,1-0.8,1
			c-0.8,0-1.8-0.1-2.6-0.1c-0.2,0-0.3,0-0.5,0.3L487.4,281.1L487.4,281.1z"/>
		<path class="st0" d="M496,281.9c0,1.3,0,2.2,0.1,2.7c0.1,0.4,0.1,0.7,0.5,0.7c0.2,0.1,0.5,0.1,0.6,0.1c0.2,0,0.3,0.1,0.3,0.1
			s-0.1,0.1-0.3,0.1c-0.8,0-1.6-0.1-1.9-0.1s-1.2,0.1-1.6,0.1c-0.2,0-0.3-0.1-0.3-0.1s0.1-0.1,0.2-0.1c0.2,0,0.3,0,0.5-0.1
			c0.3-0.1,0.3-0.3,0.4-0.7c0.1-0.5,0.1-1.5,0.1-2.7v-2.2c0-1.9,0-2.3,0-2.7c-0.1-0.4-0.1-0.6-0.5-0.7c-0.1-0.1-0.3-0.1-0.5-0.1
			s-0.3-0.1-0.3-0.1s0.1-0.1,0.3-0.1c0.7,0,1.5,0.1,1.9,0.1c0.5,0,3.1,0,3.4,0c0.3,0,0.4,0,0.5-0.1c0.1-0.1,0.1-0.1,0.2-0.1
			c0.1,0,0.1,0.1,0.1,0.1s-0.1,0.2-0.1,0.5c-0.1,0.2-0.1,0.9-0.1,1c0,0.1-0.1,0.2-0.1,0.2c-0.1,0-0.1-0.1-0.1-0.2s0-0.3-0.1-0.5
			c-0.1-0.2-0.3-0.4-0.8-0.4l-2-0.1c-0.1,0-0.1,0.1-0.1,0.2v3.2c0,0.1,0.1,0.1,0.1,0.1h1.6c0.2,0,0.4,0,0.6,0
			c0.3-0.1,0.4-0.1,0.5-0.3c0.1-0.1,0.1-0.1,0.2-0.1s0.1,0.1,0.1,0.1s-0.1,0.4-0.1,0.8c-0.1,0.3-0.1,0.8-0.1,0.9
			c0,0.1,0,0.2-0.1,0.2c-0.1,0-0.1-0.1-0.1-0.2c0-0.1-0.1-0.3-0.1-0.4c-0.1-0.2-0.3-0.4-0.7-0.5c-0.3-0.1-1.7-0.1-1.9-0.1
			c-0.1,0-0.1,0.1-0.1,0.1L496,281.9L496,281.9z"/>
		<path class="st0" d="M500.7,280.7c0-2.2,1.5-5,5.3-5c3.2,0,5.2,1.9,5.2,4.8c0,2.9-2.1,5.2-5.3,5.2
			C502.2,285.8,500.7,283,500.7,280.7L500.7,280.7z M509.4,281c0.1-2.9-1.6-4.6-3.7-4.6c-1.5,0-3.1,0.8-3.1,4c0,2.7,1.5,4.8,3.9,4.8
			C507.3,285.1,509.4,284.7,509.4,281L509.4,281z"/>
		<path class="st0" d="M513.7,279.6c0-1.9,0-2.3-0.1-2.7s-0.1-0.6-0.5-0.7c-0.1-0.1-0.3-0.1-0.5-0.1c-0.2,0-0.2-0.1-0.2-0.1
			s0.1-0.1,0.3-0.1c0.7,0,1.5,0.1,1.8,0.1c0.4,0,1.4-0.1,1.8-0.1c0.8,0,1.7,0.1,2.4,0.6c0.4,0.2,0.9,0.9,0.9,1.7
			c0,0.9-0.4,1.8-1.7,2.9c1.2,1.5,2,2.6,2.8,3.4c0.7,0.7,1.3,0.9,1.5,0.9c0.1,0.1,0.3,0.1,0.4,0.1c0.1,0,0.1,0.1,0.1,0.1
			c0,0.1-0.1,0.1-0.3,0.1h-1.2c-0.7,0-1-0.1-1.4-0.3c-0.5-0.3-1-0.9-1.7-1.9c-0.5-0.7-1.1-1.6-1.3-1.8c-0.1-0.1-0.1-0.1-0.2-0.1
			l-1.1-0.1c-0.1,0-0.1,0.1-0.1,0.1v0.2c0,1.2,0,2.2,0.1,2.7c0.1,0.4,0.1,0.7,0.5,0.7c0.2,0.1,0.5,0.1,0.6,0.1
			c0.1,0,0.2,0.1,0.2,0.1c0,0.1-0.1,0.1-0.3,0.1c-0.7,0-1.7-0.1-1.9-0.1c-0.3,0-1,0.1-1.6,0.1c-0.2,0-0.3-0.1-0.3-0.1
			c0-0.1,0.1-0.1,0.2-0.1c0.2,0,0.3,0,0.5-0.1c0.3-0.1,0.3-0.3,0.4-0.7c0.1-0.5,0.1-1.5,0.1-2.7V279.6L513.7,279.6z M515.2,280.6
			c0,0.2,0.1,0.2,0.1,0.3c0.3,0.1,0.7,0.1,0.9,0.1c0.5,0,0.7-0.1,0.9-0.2c0.4-0.3,0.8-0.9,0.8-1.9c0-1.8-1.2-2.3-2-2.3
			c-0.3,0-0.5,0-0.7,0.1c-0.1,0.1-0.1,0.1-0.1,0.2V280.6L515.2,280.6z"/>
		<path class="st0" d="M523.8,276c0.1-0.3,0.1-0.3,0.2-0.3c0.1,0,0.2,0.1,0.3,0.4l3.5,7.2l3.5-7.3c0.1-0.2,0.2-0.3,0.3-0.3
			c0.1,0,0.2,0.1,0.2,0.4l1.2,7.9c0.1,0.8,0.3,1.2,0.6,1.3c0.4,0.1,0.7,0.1,0.8,0.1c0.1,0,0.2,0.1,0.2,0.1s-0.2,0.1-0.3,0.1
			c-0.3,0-2.1-0.1-2.6-0.1c-0.3,0-0.4-0.1-0.4-0.1c0-0.1,0.1-0.1,0.1-0.2c0.1,0,0.1-0.2,0.1-0.5l-0.8-5.6h-0.1l-2.8,5.8
			c-0.3,0.6-0.4,0.7-0.5,0.7c-0.1,0-0.3-0.3-0.5-0.7c-0.3-0.6-1.3-2.5-1.5-2.9c-0.1-0.3-0.9-1.9-1.3-2.9h-0.1l-0.7,5.1
			c0,0.3,0,0.4,0,0.6c0,0.3,0.2,0.4,0.4,0.4c0.2,0.1,0.4,0.1,0.5,0.1c0.1,0,0.2,0.1,0.2,0.1s-0.1,0.1-0.3,0.1
			c-0.5,0-1.1-0.1-1.3-0.1c-0.3,0-0.9,0.1-1.3,0.1c-0.1,0-0.3-0.1-0.3-0.1s0.1-0.1,0.2-0.1c0.1,0,0.2,0,0.4-0.1
			c0.3-0.1,0.5-0.5,0.5-1L523.8,276L523.8,276z"/>
		<path class="st0" d="M537.3,282.2c-0.1,0-0.1,0.1-0.1,0.1l-0.7,1.8c-0.1,0.3-0.2,0.6-0.2,0.8c0,0.2,0.1,0.4,0.5,0.4h0.2
			c0.2,0,0.2,0.1,0.2,0.1c0,0.1-0.1,0.1-0.3,0.1c-0.4,0-0.9-0.1-1.3-0.1c-0.2,0-0.9,0.1-1.5,0.1c-0.2,0-0.3-0.1-0.3-0.1
			c0-0.1,0.1-0.1,0.2-0.1c0.1,0,0.3,0,0.4,0c0.6-0.1,0.8-0.5,1.1-1.2l3.2-8c0.2-0.4,0.3-0.5,0.4-0.5c0.1,0,0.2,0.1,0.3,0.4
			c0.3,0.7,2.4,5.9,3.1,7.9c0.5,1.1,0.9,1.3,1.2,1.4c0.2,0.1,0.4,0.1,0.5,0.1c0.1,0,0.2,0.1,0.2,0.1s-0.1,0.1-0.6,0.1
			c-0.5,0-1.4,0-2.4-0.1c-0.3,0-0.4,0-0.4-0.1s0.1-0.1,0.2-0.1c0.1,0,0.2-0.1,0.1-0.3l-1-2.7c-0.1-0.1-0.1-0.1-0.1-0.1L537.3,282.2
			L537.3,282.2z M539.9,281.6C540,281.6,540,281.6,539.9,281.6l-1.1-3.2c0-0.1-0.1-0.1-0.1-0.1c-0.1,0-0.1,0.1-0.1,0.1l-1.2,3.1
			c0,0.1,0,0.1,0.1,0.1H539.9L539.9,281.6z"/>
		<path class="st0" d="M546.5,283.9c0,1,0.2,1.3,0.5,1.4c0.2,0.1,0.5,0.1,0.7,0.1c0.1,0,0.2,0.1,0.2,0.1c0,0.1-0.1,0.1-0.3,0.1
			c-0.8,0-1.4-0.1-1.6-0.1c-0.1,0-0.7,0.1-1.4,0.1c-0.2,0-0.3,0-0.3-0.1c0-0.1,0.1-0.1,0.2-0.1c0.2,0,0.4,0,0.6-0.1
			c0.3-0.1,0.4-0.5,0.4-1.6l0.1-7.6c0-0.3,0.1-0.5,0.2-0.5c0.1,0,0.3,0.2,0.5,0.4c0.2,0.2,2.1,2.2,4,4.1c0.9,0.9,2.6,2.7,2.8,2.9
			h0.1l-0.1-5.7c0-0.8-0.1-1-0.4-1.2c-0.2-0.1-0.5-0.1-0.7-0.1c-0.1,0-0.2-0.1-0.2-0.1s0.2-0.1,0.4-0.1c0.7,0,1.3,0.1,1.5,0.1
			c0.1,0,0.6-0.1,1.3-0.1c0.2,0,0.3,0.1,0.3,0.1s-0.1,0.1-0.2,0.1s-0.3,0-0.4,0.1c-0.3,0.1-0.5,0.4-0.5,1.1l-0.1,8.1
			c0,0.3-0.1,0.4-0.2,0.4c-0.2,0-0.3-0.2-0.5-0.3c-0.8-0.8-2.5-2.5-3.8-3.8c-1.4-1.4-2.8-3-3.1-3.2h-0.1L546.5,283.9L546.5,283.9z"
			/>
	</g>
</g>
</svg>