<?xml version="1.0" encoding="utf-8"?>
<!-- Generator: Adobe Illustrator 17.1.0, SVG Export Plug-In . SVG Version: 6.00 Build 0)  -->
<!DOCTYPE svg PUBLIC "-//W3C//DTD SVG 1.1//EN" "http://www.w3.org/Graphics/SVG/1.1/DTD/svg11.dtd">
<svg version="1.1" id="Layer_1" xmlns="http://www.w3.org/2000/svg" xmlns:xlink="http://www.w3.org/1999/xlink" x="0px" y="0px"
	 width="150px" height="57.5px" viewBox="404.7 251.3 150 57.5" style="enable-background:new 404.7 251.3 150 57.5;"
	 xml:space="preserve" preserveAspectRatio="XminYmin none">
<style type="text/css">
	.st0{fill:#1a1a10;}
</style>
<g id="humana">
</g>
<g id="humana_vitality">
</g>
<g id="great_for_you">
</g>
<g id="dr._shep">
</g>
<g id="ge">
</g>
<g id="aha">
</g>
<g id="diamond">
</g>
<g id="brown_foreman">
</g>
<g id="masterbrand">
</g>
<g id="aristokraft">
</g>
<g id="decora">
</g>
<g id="gaither">
</g>
<g id="unbridled_eve">
</g>
<g id="papa_johns">
</g>
<g id="dr_jan">
</g>
<g id="lawn_pro">
</g>
<g id="goo">
</g>
<g id="b__x26__b">
</g>
<g id="mindy_smith">
</g>
<g id="tesseract">
</g>
<g id="grandparents.com">
</g>
<g id="ican">
</g>
<g id="my_well_being">
</g>
<g id="apple_patch">
</g>
<g>
	<path class="st0" d="M539.8,299.1c-0.8,0-1.5,0.7-1.5,1.5c0,0.9,0.7,1.5,1.5,1.5c0.8,0,1.5-0.7,1.5-1.5
		C541.4,299.8,540.7,299.1,539.8,299.1z M539.8,301.8c-0.6,0-1.1-0.5-1.1-1.1c0-0.7,0.4-1.1,1.1-1.1c0.6,0,1.1,0.5,1.1,1.1
		C541,301.3,540.5,301.8,539.8,301.8z"/>
	<path class="st0" d="M540,299.9h-0.8v1.7h0.3v-0.7h0.3l0.4,0.7h0.4l-0.3-0.7c0.3,0,0.4-0.1,0.4-0.4
		C540.7,300,540.5,299.9,540,299.9z M540,300.6h-0.4v-0.4h0.4c0.1,0,0.4,0,0.4,0.2C540.4,300.5,540.2,300.6,540,300.6z"/>
	<path class="st0" d="M522.2,285.9c0.3,0.3,1.2,0.1,2.6-0.8c0.4-0.2,2.2-1.5,2.8-1.9c1.2-0.6,3-2.4,11.8-6.6
		c0.1-0.1,0.3-0.3,0.3-0.4c-0.1-0.3-0.3-0.6-0.5-0.8c-4.2,0.3-9.5,2.7-11,3.3c-3,1.3-7.5,3.1-7.7,3.3c-0.4,0.3-0.4,1.1-0.3,1.6
		C520.5,284,521.7,285.6,522.2,285.9z"/>
	<path class="st0" d="M457.7,279.9c1.1-1.7,1.3-3.3,1.4-3.9c0.3-4.9-1.2-7-2.5-8.5c-1.3-1.5-2.8-3.4-5.2-4.3c-1-0.4-3-1.6-7-1.8
		c-0.4,0-5.8,0.1-6.1-0.1c0,0-0.1,0-0.2,0.1c1-2.6,2-5.3,2.2-6.8c0.1-0.6-0.1-1.4-0.4-1.9c-0.1-0.2-0.8-1.2-1.6-1.5
		c-0.5,0.2-0.8,0.7-0.9,1.4c0,0-1.7,5.2-3.2,9.5c-3.5,0.6-8.4,1.4-11.5,2.2c-0.4,0.2-7.8,1.7-8.6,1.8c-0.5,0.3-0.3,0.8-0.4,0.8
		c0.2,0.8,0.8,2.4,1.1,2.6c0.8,0.6,2.2,0.4,5.4-0.6c0.2-0.1,9.6-3,11.9-3.2c0.3,0,0.6-0.1,1-0.1c-0.5,1.3-0.8,2.2-0.8,2.2
		c0,0-1.1,2.2-2.3,4.8c0-0.1,0-0.2-0.1-0.1v0.1v0.1v0.1h0.1c-1.8,3.7-4,8.3-4.1,8.4c-1.7,3.3-2.8,6.6-2.9,7
		c-1.2,4.8-1.6,8.4-1.8,10.8c-5.7,2.6-11.6,5-14.8,6.2c-0.2,0.1-1.6,0.5-1.6,0.8c0,0.1,0.8,0.3,1.2,0.3c1.1,0,3.4-0.6,3.4-0.6
		c0.2-0.1,5.3-1.8,11.6-4.4c0,0.3,0,0.5,0,0.7c0.2,1.5,0.6,4.5,0.7,4.7c0.4,1.1,0.8,1.8,1.3,2c0,0,0.6,0,0.3-2c0-0.6,0-2.9,0.2-6.4
		c3-1.2,6.1-2.6,9.2-4.1c7.8-3.8,15.1-7.8,20.8-12.1C455.2,282.5,456.2,281.9,457.7,279.9z M429.9,272.7
		C429.9,272.7,429.9,272.7,429.9,272.7C429.9,272.7,429.9,272.7,429.9,272.7L429.9,272.7z M440.3,288.7c-0.1,0.1-8.8,5.4-9.6,5.7
		c-2,1-4.3,2.2-6.8,3.3c0-0.2,0-0.4,0.1-0.7c0.8-4.9,2-7.9,2.1-8.1c0.4-2.4,8.7-19.5,9.1-20.4c0.1-0.1,0.7-1.5,1.5-3.3
		c3.3-0.2,7.2-0.1,11.9,0.8c1.1,0.2,3.4,0.9,4.9,2c3.4,2.3,2.4,6.3,2.2,7.1C454,280.6,443,287,440.3,288.7z"/>
	<path class="st0" d="M554.6,295.1c-0.2-0.3-1-0.6-1.2-0.6c-1.5-0.2-3-0.3-4.5-0.3c-2.4-0.2-5.7,0.1-5.7,0c-0.3,0.1-1.9,0.1-5.4,0.5
		c-6.5,0.8-11.9,1.9-15.4,2.6c-2.5,0.4-4,0.7-4.3,0.6c0,0-0.6-0.1-1-0.6H517c-0.2-0.3-0.3-0.7-0.3-1.3c0.1-1.1,1.1-1.5,1.2-2.6
		c-0.1-0.8,0.2-1.3-0.8-2.1c-0.6-0.2-1.4,0.1-1.5,0.3c-1.8,2.5-4.3,4.5-5.9,5.7c-1,0.7-1.8,1-1.9,0.9c-0.1-0.1,0.1-0.5,0.4-0.9
		l-0.1,0c0.2-0.3,0.5-0.5,0.6-0.6c0.6-0.5,2.5-3.6,6.3-5.4c1.3-0.5,2.8-1.6,3.6-1.7c0.6-0.8,0.3-1.7-1-2.9c-0.6-0.7-1.9-0.3-2.3-0.2
		c-11.3,4.5-18.3,8.3-18.7,8.4c-0.2-0.1-0.4-0.2-0.4-0.5c0.3-0.5,2.6-4.1,2.9-4.7c0.4-0.4,0.6-1.1,0.7-1.8c-0.1-1.5-1.8-1.9-3.1-2.4
		c-1.1-0.5-3.1,0-3.8,0.2c-0.3,0-2.3,0.7-2.6,0.6c-0.6-0.3-0.7-1.2-1.5-1.3c-0.2,0-0.4-0.1-0.6-0.2c-0.9-0.3-0.8,0.4-1.3,0.8
		c-1.9,1.3-6.2,4.2-6.5,4.7c-2,1.5-3.6,2.7-5.6,4.1c-0.3,0.2-2.2,1.8-3.9,2.8l0.1,0c-0.9,0.4-1.7,0.8-2.3,0.7
		c-0.1,0-0.3-0.3-0.4-0.7h0c0-0.3,0-0.7,0.2-1.2c0.7-1.7,0.9-2,2.5-4.1c0.9-0.8,2.2-3.3,4.2-4.4c0.4,0.1,0.8,0.6,0.6,1.2
		c0.3,0.8-0.4,1.8,0.4,2.2c0.3,0.1,0.4,0.1,0.8,0c0.6,0,0.5-0.8,0.6-1.3c0.3-0.4,0.5-1.8,1.8-3.4c0.3-0.4,0.3-1,0.1-1.7
		c-0.1-0.8-1.1-1.3-2.2-1.7c-1.7-0.1-3.5,1-4.2,1.3c-0.3,0.2-2.4,1.5-2.5,1.5c-1.7,1-2,1.3-3.3,2.1c-2.5,1.9-8.8,7.6-11.2,9.5
		c-0.4,0.3-0.8,0.5-0.9,0.6c-0.6,0.3-0.9,0.2-1,0c-0.1-0.2-0.1-0.3-0.1-0.5c0.1-1,1.1-1.3,1.7-1.8c0,0,3.3-2.9,4.7-4.4
		c2.4-2.6,4.6-5.9,4.7-6.8c0.5-0.8-0.3-1.5-0.4-2.3c-0.3-0.5-0.6-1-1.3-0.8c-4.5,1.2-7.2,4.9-9,6.8c-1.3,1.9-2.9,4.7-3,6.4
		c0,1-0.6,1.8-1.9,2.9c-0.5,0.4-1,0.8-1.7,1.3c-0.5,0.6-3.4,2-3.3,2.9c0.3,0.4,0.4,1.3,2.2,1c1.7-0.9,3.8-2.8,4.3-3.2
		c0.3-0.3,0.4-0.4,0.9-0.9c1,2.3,2.5,3.1,3.2,3.2c1.3-0.2,3.8-2.3,6-4.3l0,0c2.3-2.2,4.4-4.2,4.7-4.2c0.2,0.1,0.1,0.4,0.1,0.6
		c-0.6,1.3-0.8,2.6-0.7,3.5h0c0.2,1.9,1.4,3,1.9,3.3c0.8,0.6,1.8,0.6,2.4,0.4c0.3-0.1,1.8-0.7,2.7-1.3c0.6-0.3,2.2-1.4,3.6-2.4h-0.1
		c0.9-0.7,1.7-1.3,2.2-1.7c0.3,0.3,0.3,1,0.3,1.7c0,0,0.5,2.2,2.3,3c0.8,0.2,1.1,0.4,2.1-0.1c0.9-0.4,1.7-1.4,2.7-3l-0.2,0
		c0.9-1.5,1.8-3.7,3-6.6c0.1-0.3,2.7-1.9,5.6-2.2c1-0.1,1.3,0.2,1.4,0.4c-1.3,2.5-1.7,3.1-3,5.1c-0.7,1.5-1.3,2.2-1.6,3.4
		c0,0-1.2,2.2,1.9,3.6c0.4,0.1,1.6-0.5,3-1.7c0.9-0.5,2.4-1.3,3.9-2h-0.1c0.7-0.4,1.4-0.7,2-1.1c1.8-0.9,3.8-2.1,4.3-2.5
		c0.5-0.1,0.8-0.5,1.5-0.3c0.1,0.8-0.4,0.8-1,1.6c-0.8,1-1.4,1.7-1.9,2.4h0c-0.9,1.2-1.3,2.2-0.9,3.4c0,0.3,0.7,1.3,1.7,1.7
		c1,0.3,2.9-1.2,4.8-2.8c0.8-0.7,1.6-1.4,2.7-2.4h0.1c0.3-0.3,0.6-0.6,0.9-0.9c0.3-0.1,0.4-0.1,0.5,0.3c0,0.2,0,0.4,0,0.6h0.1
		c0.1,0.9,0.6,1.6,0.9,2c0.6,0.9,1.7,2,3.3,2.1c1.5-0.1,3.2-0.3,5.2-0.6c0.4,0,12.7-2.7,26.1-3.4c0.2,0,0.4,0,0.6-0.1l0.6,0
		c1.2-0.1,2.6-0.4,3.2-0.8C554.8,296.1,554.7,295.6,554.6,295.1z M461.5,285.9c0.6,0.5-5.1,7-5.6,6.6
		C455.1,291.8,460.7,285.2,461.5,285.9z M482.8,296.2c-0.6,0.5-1,0.6-1.1,0.3c-0.1-0.3,1.7-3.7,3.3-5.4c0.3,0,0.5,0,0.6,0.3
		C485,293.2,484,294.9,482.8,296.2z"/>
</g>
</svg>
