<?xml version="1.0" encoding="utf-8"?>
<!-- Generator: Adobe Illustrator 17.1.0, SVG Export Plug-In . SVG Version: 6.00 Build 0)  -->
<!DOCTYPE svg PUBLIC "-//W3C//DTD SVG 1.1//EN" "http://www.w3.org/Graphics/SVG/1.1/DTD/svg11.dtd">
<svg version="1.1" id="Layer_1" xmlns="http://www.w3.org/2000/svg" xmlns:xlink="http://www.w3.org/1999/xlink" x="0px" y="0px"
	 width="150px" height="55.5px" viewBox="405.3 252.5 150 55.5" style="enable-background:new 405.3 252.5 150 55.5;"
	 xml:space="preserve" preserveAspectRatio="XminYmin none">
<style type="text/css">
	.st0{fill:#1a1a10;}
</style>
<g id="humana">
</g>
<g id="humana_vitality">
</g>
<g id="jencare">
	<g>
		<path class="st0" d="M420.3,294.3c-0.4-0.1-0.7-0.2-1-0.4c-0.4,0.1-0.7-0.1-1,0c-0.4-0.1-0.7-0.2-1-0.5c-0.5,0.4-1-0.5-1.5,0.1
			c-1.4,0.5-1.5,0.5-1.9-0.9c-1.4-5.2-2.7-10.4-3.3-15.8c-0.2-2.1-0.4-4.2-0.3-6.4c0.1-1.1,1-1.4,1.7-2.2c0.4,0.6,0.1,1.1-0.1,1.6
			c-0.5,2.1-0.1,4.2,0.2,6.2c0.6,3.9,1.3,7.7,2.3,11.5c0.7,2.8,1.9,4.9,5.4,4.9c2.5,0,5.1,0.2,7.5-0.4c4.9-1.2,6.9-4.5,5.5-9.4
			c-0.9-3.3-2.8-5.9-4.9-8.5c-2.3-2.8-5-5.2-7.8-7.5c-1.2-0.9-2.3-1.8-3.7-2.4c-0.3-0.3-0.7-0.3-1.1-0.4c-0.4-0.2-0.9-0.3-1.4-0.2
			c-0.2-0.2-0.4-0.2-0.7-0.2c-0.4,0-0.9,0-1.4,0c-0.2,0-0.4,0.1-0.6,0.2c-2.8,0.7-3.6,3.1-4.2,5.5c-0.2,0.7-0.2,1.4-0.4,2
			c-0.1,0.4-0.2,0.7-0.6,0.7c-0.4-0.1-0.6-0.4-0.6-0.7c-0.1-2.8,0.4-5.4,2.2-7.6c1.7-2.1,4.1-1.9,6.5-1.6c4,0.5,7.1,2.7,9.9,5.4
			c4.2,4,7.5,8.8,10.4,13.8c1.6,2.7,1,7.5-1,9.4c-1,1-2.3,1.9-3.8,2.3c-0.4,0.1-0.7,0-0.9,0.4c-0.8,0.1-1.5,0.7-2.3,0.6
			c-0.2-0.1-0.5-0.1-0.7,0.2c-0.2,0-0.4,0.1-0.7,0.1c-0.3-0.1-0.7-0.1-0.9,0.2c-0.3,0-0.6,0.1-0.9,0.1
			C422.1,294.4,421.2,294.3,420.3,294.3z"/>
		<path class="st0" d="M490.9,281.7c-1.9-0.6-3.8-0.7-5.6-1.6c-0.4,0.2-0.9-0.2-1.2,0c-0.5-0.1-0.9-0.2-1.4-0.2
			c-0.4-0.2-0.7-0.4-1.2-0.2c-0.1,0-0.2,0-0.2,0c-0.4-0.2-0.7-0.4-1.2-0.2c-0.7,0.1-1.4-0.4-2.1-0.3c-0.4-0.2-0.7-0.3-1.2-0.2
			c-0.2,0-0.3,0-0.5,0c-0.4-0.2-0.7-0.4-1.2-0.2c-0.2,0-0.5,0-0.7-0.1c-0.2-0.3-0.7-0.1-0.9-0.4c-0.1,0.1-0.2,0.2-0.3,0.2
			c-1.5-1.1-3.3-2-3.9-4c-0.7-1.9,0.3-4.4,2.3-6.1c2.5-2.1,5.6-3.3,8.6-4.3c3-0.9,6-1.9,9.1-2c1.7-0.1,3.2,0.6,4.7,1.4
			c0.7,0.4,0.9,1,1,1.8c0.4,2.4-1,3.9-2.5,5.3c-0.2,0.2-0.6,0.3-0.9,0.4c-0.3,0.1-0.7,0-0.9-0.4c-0.2-0.3,0.1-0.6,0.3-0.8
			c0.8-0.9,1.5-1.9,2.3-2.7c0.7-0.7,0.5-1.4,0-2c-0.7-0.9-1.7-1.2-2.8-1.1c-0.3-0.2-0.7-0.2-1-0.3c-0.7,0.1-1.4-0.2-1.9,0.3
			c-1.2,0.2-2.5,0.5-3.8,0.7c-0.5,0.1-1,0.1-1.4,0.4c-0.9,0.2-1.9,0.5-2.8,0.8c-0.4,0.1-0.7,0-0.9,0.4c-2.2,0.9-4.5,1.9-6.2,3.6
			c-1.2,1.2-1.8,2.9-1.5,4.7c0.1,0.7,0.7,1,1.4,1.4c2.2,1.1,4.5,1.5,6.8,2.1c3.5,0.9,7.1,0.9,10.6,1.4c3.3,0.5,6.1,1.9,7.5,5.1
			c0.6,1.2,0.6,2.3-0.4,3.5c-0.8,0.9-1.2,2.2-2.3,2.9c-1.4,1-2.7,2-4.4,2.4c-0.4,0.2-0.9,0.2-1.2,0.5c-0.3,0.4-0.7,0.1-1.1,0.2
			c-0.2-0.1-0.5-0.1-0.7,0.2c-0.4-0.1-0.7-0.1-1.1-0.2c-0.2,0.1-0.4,0.4-0.7,0.3c-1.2-0.2-2.4,0-3.6-0.1c-0.3,0-0.7,0-1,0
			c-0.4-0.4-1-0.2-1.5-0.4c-3.6-0.9-5.6-4-5.4-7.4c0.1-0.9,0-1.7,0-2.6c0-0.2,0-0.3,0-0.5c-0.1-0.8,0.4-1.5,1-1.4
			c0.8,0.1,0.7,0.9,0.6,1.5c-0.2,1.2-0.5,2.3-0.2,3.5c1,3.9,3.5,5.9,7.5,5.8c3.4-0.1,6.7-0.8,9.8-2.4c1.6-0.9,2.8-2,3.2-4
			c0.2-1.2-0.1-2.1-1-2.7c-0.9-0.6-1.8-1.2-2.8-1.5C491.7,281.7,491.3,281.7,490.9,281.7z"/>
		<path class="st0" d="M541.7,276.2c-0.2,0.1-0.4,0.2-0.6,0.3c-0.5,0.2-0.8,0.5-1,1c-1.3,2.3-1,4.9-0.9,7.4c0.1,1.7,0.2,3.3,0.4,5
			c0,0.2,0,0.4,0.2,0.5c0.4-0.2,0.2-0.6,0.2-0.8c0-2.3,0.1-4.7,0-7c0-0.7,0.2-1.2,0.7-1.6c0.2-0.2,0.5-0.5,0.9-0.1
			c0.2,0.3,0.9,0.2,0.6,1c-0.4,1.3-0.3,2.7-0.4,4c-0.4,6.4,0.6,12.6,2,18.8c0.2,0.8,0.2,1.5,0.1,2.3c-0.1,0.6-0.5,0.9-1,1
			c-0.6,0.1-0.4-0.6-0.5-0.9c-1.9-6-3.6-12-4.6-18.1c-0.6-3.4-1.1-6.8-0.1-10.2c0.8-2.7,2.4-4.2,4.8-4.4c3.5-0.3,6.2,0.9,8.5,3.6
			c1.7,2.1,3.1,4.4,4,7c0.7,2.3,0.1,4.5-1.5,6.4c-1.5,1.8-3.7,2.7-5.9,3.5c-0.4,0.1-0.9,0.2-1.2,0.4c-0.9,0.6-1.5,0.2-2-0.7
			c-0.2-0.3-0.5-0.6-0.1-0.9c0.3-0.4,0.7-0.4,1.2-0.1c0.4,0.4,0.8,0.3,1.3,0.1c1.9-0.8,3.6-1.8,4.9-3.2c2.7-2.8,2.1-6.9-0.1-9.4
			c-1.7-2-3.9-3.4-6.5-4.1c-0.6-0.2-1.2-0.4-1.7-0.6C542.8,276,542.3,275.9,541.7,276.2z"/>
		<path class="st0" d="M516.2,293.6c-0.1-3.6-0.2-7.3-0.7-10.9c-0.4-2.7-0.9-5.4-3.2-7.3c-0.5,0.1-1-0.4-1.4,0.2
			c-1.4,0.6-2.2,1.9-2.8,3.1c-2.3,4.6-4,9.4-5.6,14.3c-0.2,0.5-0.2,1-0.8,1.2c-0.4,0.3-0.7,0.2-1.1,0c-0.8-2.4-0.9-4.9-1.2-7.3
			c-0.4-4.7-0.8-9.4-1.1-14.1c-0.4-6.5-0.7-12.9-0.6-19.4c0-0.7,0.2-0.9,0.9-0.9c0.7,0,0.8,0.3,0.8,0.9c0,3.2-0.1,6.5,0.1,9.7
			c0.2,5.4,0.5,10.7,1,16.1c0.4,3.5,0.7,7,1,10.6c0,0.3-0.2,0.8,0.4,0.8c0.4,0,0.3-0.4,0.4-0.7c1-3.6,2-7.2,3.5-10.7
			c0.6-1.4,1.2-2.8,2.3-3.9c0.6-0.6,1.2-1,2-0.9c0.3,0.1,0.6,0.1,0.9,0c2.2-0.4,3.5,0.8,4.4,2.5c1,1.8,1.5,3.7,1.7,5.7
			c0.4,0.6,0.6,1.2,0.2,1.9c0,3-0.1,6.1-0.1,9.1C516.9,293.9,516.6,293.9,516.2,293.6z"/>
		<path class="st0" d="M525.8,276.2c-2,0.4-3.6,1.3-5.1,2.7c-0.4,0.4-0.6,0.8-0.7,1.2c-1.2,3.6-0.7,7.1,2.8,9.2
			c2.7,1.6,5.6,2.3,8.6,2.8c0.9,0.1,1.7,0.4,2.5,0.4c1.3-0.1,1.4,0.6,1.2,1.5c-0.3,0.2-0.6,0.2-0.9,0.1c-0.7,0-1.4-0.1-2.1,0.1
			c-0.2,0-0.3,0-0.5,0c-0.4-0.2-0.8,0.1-1.1-0.2c-0.3,0-0.6,0-1-0.1c-0.2-0.2-0.6-0.3-0.9-0.2c-0.1,0-0.2,0-0.2,0
			c-0.4-0.2-0.7-0.5-1.2-0.2c-4.8-1.4-8.3-4-9.6-9.1c-0.3-1-0.1-2,0-3.1c0.2-2.1,1.4-3.6,3.1-4.7c4.5-2.7,9.3-3.7,14.4-2
			c2,0.7,2.7,1.4,2.5,2.8c-0.1,1.2-1.1,1.8-1.9,2.3c-2,1.5-4,2.8-6.5,3.5c-0.4,0.1-0.8,0.3-1.2-0.1c-0.4,0.2-0.9,0.2-1.2,0.4
			c-0.2,0-0.5,0-0.7,0c-1-0.2-2-0.2-3,0c-0.4-1.1-0.4-1.1,0.7-1.2c4.4-0.2,8.2-2.1,11.5-4.8c0.7-0.6,0.6-0.9-0.2-1.1
			c-1.1-0.3-2.2-0.7-3.3-1c-1-0.3-2-0.3-3,0c-0.5,0.3-1,0.2-1.6,0.2C526.7,276,526,275.7,525.8,276.2z"/>
		<path class="st0" d="M443.1,294.3c-1-0.4-1.3-1.4-1.7-2.2c-2.6-5.2-4.4-10.7-6.3-16.2c-0.2-0.4,0-0.6,0.2-0.9
			c0.7-0.6,1-0.1,1.4,0.5c1,1.9,1.7,4,2.4,5.9c0.6,1.7,1.1,3.4,1.7,5.1c0.1,0.2,0.1,0.7,0.6,0.6c0.3-0.1,0.2-0.5,0.2-0.7
			c0.1-3.9,0.6-7.6,2.7-11c1-1.7,2.4-3,4.2-3.8c0.6-0.2,1-0.6,1.5,0.1c0.4,0.7-0.2,1-0.6,1.3c-3.2,2.5-5.3,5.7-6.2,9.6
			c-0.4,2,0.1,3.9,0.4,5.8c0.4,1.9,0.7,3.8,1,5.7C444,294.3,443.5,294.1,443.1,294.3z"/>
		<path class="st0" d="M451.1,294.3c-0.9,0-2-1-2-1.8c-0.1-1,0.8-1.2,1.4-1.5c0.7-0.3,0.7,0.4,0.9,0.7c0.2,0.3,0.4,0.7,0.6,1
			C452.6,293.8,452.2,294.3,451.1,294.3z"/>
		<path class="st0" d="M481.8,294.1c1.1-0.4,2.3-0.2,3.4-0.1c0.3,0.1,0.6,0,0.9-0.1c-0.1,0.1-0.1,0.3-0.1,0.3
			C484.5,294.3,483.1,294.6,481.8,294.1z"/>
		<path class="st0" d="M420.3,294.3c0.9-0.6,1.7-0.1,2.6,0C422.1,294.6,421.2,294.7,420.3,294.3z"/>
		<path class="st0" d="M517.5,281.4c0,1,0,2,0,3.1h-0.1h-0.1c-0.1-0.6-0.4-1.2-0.2-1.9C517.6,282.3,517.2,281.7,517.5,281.4z"/>
		<path class="st0" d="M528.6,275.6c0.2-0.6,0.7-0.2,1-0.2c0.6-0.1,1.3,0.1,1.9,0.1c0,0,0,0.1,0,0.1c0,0.1-0.1,0.1-0.1,0.1
			C530.6,275.6,529.6,275.6,528.6,275.6z"/>
		<path class="st0" d="M413.3,263.4c0.3,0,0.5,0.1,0.5,0.4c-0.9,0-1.7,0-2.5,0c0-0.2,0.1-0.4,0.2-0.4
			C412.1,263.6,412.7,263.6,413.3,263.4z"/>
		<path class="st0" d="M523,283.8c1-0.4,2-0.4,3,0C525,283.8,523.9,283.8,523,283.8z"/>
		<path class="st0" d="M541.7,276.2c0.6-0.7,1.1-0.6,1.6,0.1C542.8,276.2,542.3,276.2,541.7,276.2z"/>
		<path class="st0" d="M516.2,293.6c0.4,0,0.7,0,1.1,0C517,294.2,516.5,294.2,516.2,293.6z"/>
		<path class="st0" d="M487.6,263.8c0.6-0.7,1.4-0.3,2.1-0.4c0.1,0.1,0.1,0.1,0.1,0.1c0,0.1-0.1,0.1-0.1,0.1
			C489,263.7,488.3,263.8,487.6,263.8z"/>
		<path class="st0" d="M500.5,294.1c0.4,0,0.7,0,1.1,0C501.3,295,500.9,294.7,500.5,294.1z"/>
		<path class="st0" d="M482.5,265c0.3-0.7,0.9-0.5,1.4-0.4C483.4,264.9,482.9,264.9,482.5,265z"/>
		<path class="st0" d="M532.1,294.3c0.7-0.4,1.4-0.1,2.1-0.2c0.1,0.1,0.1,0.1,0.1,0.1c0,0.1-0.1,0.1-0.1,0.1
			C533.5,294.3,532.8,294.3,532.1,294.3z"/>
		<path class="st0" d="M415.6,293.5c0.4-0.8,1-0.1,1.5-0.1C416.7,293.9,416.1,293.3,415.6,293.5z"/>
		<path class="st0" d="M526.7,283.8c0.2-0.6,0.7-0.4,1.2-0.4C527.7,283.9,527.2,283.8,526.7,283.8z"/>
		<path class="st0" d="M534.2,294.3c0-0.1,0-0.1,0-0.2c0.3,0,0.6,0,0.9,0C535,294.8,534.6,294.4,534.2,294.3z"/>
		<path class="st0" d="M489.7,263.6c0-0.1,0-0.2,0-0.2c0.4,0.1,0.8-0.2,0.9,0.4C490.3,263.8,490,263.9,489.7,263.6z"/>
		<path class="st0" d="M481.5,279.6c0.5-0.4,0.9-0.2,1.2,0.2C482.3,279.8,481.8,279.8,481.5,279.6z"/>
		<path class="st0" d="M480,279.3c0.5-0.5,0.9-0.3,1.2,0.2C480.8,279.6,480.4,279.6,480,279.3z"/>
		<path class="st0" d="M476.8,278.9c0.5-0.4,0.9-0.2,1.2,0.2C477.6,279.1,477.1,279,476.8,278.9z"/>
		<path class="st0" d="M510.8,275.5c0.4-0.8,0.9-0.2,1.4-0.2C511.8,275.7,511.2,275.2,510.8,275.5z"/>
		<path class="st0" d="M475.2,278.6c0.5-0.4,0.9-0.3,1.2,0.2C475.9,278.9,475.5,278.8,475.2,278.6z"/>
		<path class="st0" d="M473.5,278.1c0.3,0.1,0.9-0.2,0.9,0.4C474.1,278.6,473.6,278.8,473.5,278.1z"/>
		<path class="st0" d="M415.2,264.1c0.6-0.2,0.9-0.1,1.2,0.4C415.9,264.4,415.6,264.2,415.2,264.1z"/>
		<path class="st0" d="M540.1,277.5c0.1-0.6,0.4-1,1-1C540.7,276.8,540.4,277.2,540.1,277.5z"/>
		<path class="st0" d="M423.9,294.3c0.2-0.4,0.6-0.6,0.9-0.2C424.5,294.4,424.2,294.3,423.9,294.3z"/>
		<path class="st0" d="M528.6,293.8c0.4-0.4,0.7-0.4,0.9,0.2C529.2,294.1,528.9,294,528.6,293.8z"/>
		<path class="st0" d="M479.3,293.6c0.6,0,1.1-0.2,1.5,0.4C480.3,293.9,479.7,294,479.3,293.6z"/>
		<path class="st0" d="M418.2,293.9c0.4-0.5,0.7-0.1,1,0C418.9,294.3,418.5,294.1,418.2,293.9z"/>
		<path class="st0" d="M484.1,280.1c0.4-0.6,0.9,0.1,1.2,0C484.9,280.5,484.5,280.2,484.1,280.1z"/>
		<path class="st0" d="M490.9,281.7c0.6-0.2,0.9-0.1,1.2,0.4C491.7,282,491.2,281.8,490.9,281.7z"/>
		<path class="st0" d="M487.1,294.1c0.1-0.6,0.4-0.6,0.7-0.2C487.6,294.1,487.4,294.1,487.1,294.1z"/>
		<path class="st0" d="M425.5,294.1c0.1-0.6,0.4-0.6,0.7-0.2C426,294.1,425.8,294.1,425.5,294.1z"/>
		<path class="st0" d="M527.2,293.6c0.5-0.4,0.9-0.2,1.2,0.2C528,293.8,527.6,293.7,527.2,293.6z"/>
		<path class="st0" d="M489,293.6c0.3-0.4,0.7-0.6,1.2-0.5C489.9,293.6,489.4,293.6,489,293.6z"/>
		<path class="st0" d="M525.8,276.2c0.2-0.7,0.8-0.3,1.2-0.4C526.7,276.2,526.2,276,525.8,276.2z"/>
		<path class="st0" d="M428.5,293.3c0.1-0.6,0.5-0.6,0.9-0.4C429.2,293.2,428.9,293.3,428.5,293.3z"/>
		<path class="st0" d="M443.1,294.3c0.4-0.4,0.9-0.1,1.4-0.2C444,294.6,443.5,294.3,443.1,294.3z"/>
		<path class="st0" d="M478.7,266.2c0.1-0.6,0.5-0.6,0.9-0.4C479.4,266,479,266,478.7,266.2z"/>
		<path class="st0" d="M530.5,294.1c0.4,0.1,0.8-0.2,1.1,0.2C531.2,294.3,530.8,294.4,530.5,294.1z"/>
		<path class="st0" d="M413.3,263.4c-0.6,0.3-1.2,0.3-1.9,0C412.1,263.4,412.7,263.4,413.3,263.4z"/>
	</g>
</g>
<g id="great_for_you">
</g>
<g id="dr._shep">
</g>
<g id="ge">
</g>
<g id="aha">
</g>
<g id="diamond">
</g>
<g id="brown_foreman">
</g>
<g id="masterbrand">
</g>
<g id="aristokraft">
</g>
<g id="decora">
</g>
<g id="gaither">
</g>
<g id="unbridled_eve">
</g>
<g id="papa_johns">
</g>
<g id="dr_jan">
</g>
<g id="lawn_pro">
</g>
<g id="goo">
</g>
<g id="b__x26__b">
</g>
<g id="mindy_smith">
</g>
<g id="tesseract">
</g>
<g id="grandparents.com">
</g>
<g id="ican">
</g>
<g id="my_well_being">
</g>
<g id="apple_patch">
</g>
</svg>
