<?xml version="1.0" encoding="utf-8"?>
<!-- Generator: Adobe Illustrator 19.2.1, SVG Export Plug-In . SVG Version: 6.00 Build 0)  -->
<svg version="1.1" id="Layer_1" xmlns="http://www.w3.org/2000/svg" xmlns:xlink="http://www.w3.org/1999/xlink" x="0px" y="0px"
	 viewBox="0 0 934 105.8" style="enable-background:new 0 0 934 105.8;" xml:space="preserve">
<style type="text/css">
	.st0{fill:#1a1a10;}
</style>
<g>
	<g>
		<path class="st0" d="M545,67.2v-1.4c0.1,0,0.2,0,0.3,0c0.1,0,0.2,0,0.4,0c1.8,0,2.8-2.6,2.8-7.7c0-1.3,0-2.3,0-3l0.1-5.5
			c0-1.2,0-2.3,0-3.5c0-1.1,0-2.4,0-3.9c0-1.2-0.2-2-0.7-2.5c-0.4-0.5-1.2-0.7-2.4-0.7h-0.2v-1.4c0.9,0,1.8,0.1,2.5,0.1
			s1.4,0.1,2,0.1c1.5,0,3.2-0.1,5-0.2s2.9-0.2,3.2-0.2c5.1,0,9.2,1.3,12.1,3.9s4.4,6.1,4.4,10.6c0,4.6-1.5,8.3-4.4,11.1
			c-3,2.8-6.9,4.2-11.9,4.2c-0.7,0-2.1-0.1-4-0.2c-1.9-0.1-3.5-0.2-4.7-0.2c-0.6,0-1.3,0-2.1,0S546,67.1,545,67.2z M552.4,64.7
			c1,0.2,2,0.4,3,0.5c1,0.1,1.9,0.2,2.9,0.2c3.9,0,6.9-1.1,8.9-3.2s3.1-5.2,3.1-9.1c0-4.2-1.1-7.5-3.3-9.9c-2.2-2.4-5.3-3.6-9.3-3.6
			c-0.8,0-1.6,0-2.5,0.1c-0.8,0.1-1.7,0.2-2.6,0.3c-0.1,5-0.1,9-0.2,11.9c0,2.9-0.1,5.3-0.1,7.2V64.7z"/>
		<path class="st0" d="M619.8,37.7c2.4,0.1,4.6,0.1,6.5,0.2c1.9,0,3.5,0.1,4.9,0.1c1.5,0,3.1,0,4.6-0.1s3.2-0.1,4.8-0.2
			c0,1,0.1,2.1,0.1,3.2c0.1,1.1,0.2,2.2,0.2,3.3l-1.4,0.1c-0.1-1.7-0.6-2.8-1.5-3.4c-0.9-0.6-2.9-0.9-5.9-0.9c-0.8,0-2.2,0-4.2,0.1
			c-0.4,0-0.7,0-0.9,0c0,1.7-0.1,3.7-0.1,6.1c-0.1,2.4-0.1,4-0.1,4.7h0.6c0.8,0,1.8,0,3,0c1.2,0,2,0,2.4,0c2,0,3.3-0.2,4-0.6
			s1-1.1,1-2.1l1.3,0.1c-0.1,0.9-0.2,1.6-0.2,2.4c0,0.7-0.1,1.4-0.1,2c0,0.4,0,1.1,0.1,2.3c0,0.4,0,0.8,0.1,1l-1.3,0V56
			c0-1.2-0.3-2-1-2.4c-0.7-0.4-2.3-0.6-4.8-0.6h-3.7h-1.5c0,0.7,0,1.6,0,2.8s0,2,0,2.6c0,0.9,0,1.9,0,2.8s0,2.1,0.1,3.5
			c0.7,0.1,1.5,0.1,2.3,0.2c0.9,0,1.8,0.1,2.9,0.1c3.5,0,5.7-0.3,6.8-1c1.1-0.7,2-2,2.6-3.9l1.5,0.5c-0.4,1.1-0.8,2.3-1.1,3.4
			c-0.3,1.1-0.6,2.2-0.8,3.3c-2.2-0.1-4.2-0.1-6-0.2c-1.9,0-3.5-0.1-5-0.1c-2.1,0-5.4,0.1-9.9,0.2l-0.7,0v-1.3c0.1,0,0.2,0,0.3,0
			c0.1,0,0.2,0,0.4,0c1.8,0,2.8-2.6,2.8-7.7c0-1.3,0-2.3,0-3l0.1-5.6c0-1.2,0-2.4,0-3.5c0-1.1,0-2.4,0-3.7c0-1.2-0.2-2-0.7-2.5
			c-0.4-0.5-1.2-0.7-2.4-0.7h-0.2V37.7z"/>
		<path class="st0" d="M687.6,37.7c0.6,0.1,1.3,0.1,1.9,0.1c0.6,0,1.2,0,1.8,0c0.4,0,1,0,1.5,0c0.6,0,1.2-0.1,1.9-0.1
			c0.2,0.5,0.4,0.9,0.7,1.4c0.3,0.5,0.7,1,1.2,1.6l17,20.2c0-2.1-0.1-4.9-0.1-8.3c-0.1-7.3-0.2-11.2-0.4-11.7
			c-0.2-0.6-0.5-1.1-0.9-1.3c-0.4-0.2-1.1-0.4-2.1-0.4h-0.6v-1.4c0.2,0,0.4,0,0.7,0c2,0.1,3.3,0.1,4.1,0.1c0.8,0,2.2,0,4.3-0.1
			c0.3,0,0.5,0,0.7,0l0,1.4c-0.1,0-0.2,0-0.3,0s-0.2,0-0.4,0c-1.8,0-2.8,2.6-2.8,7.7c0,1.3,0,2.3,0,3l-0.1,5.5c0,0.8,0,1.6-0.1,2.5
			c0,0.9,0,2,0,3.5c0,1.7,0,3,0.1,3.9c0,0.9,0.1,1.7,0.2,2.2h-2.3c-0.2-0.6-1.1-1.7-2.5-3.3l-0.2-0.2l-17.7-20.9v0.5
			c0.1,12.9,0.2,19.7,0.4,20.5c0.2,0.6,0.5,1.1,0.9,1.3c0.4,0.2,1.1,0.4,2,0.4h0.6v1.4c-0.2,0-0.5,0-0.9,0c-1.9-0.1-3.2-0.1-3.9-0.1
			c-0.7,0-1.4,0-2.2,0s-1.7,0.1-2.6,0.1v-1.4c0.1,0,0.2,0,0.3,0c0.1,0,0.2,0,0.4,0c1.8,0,2.8-2.6,2.8-7.7c0-1.3,0-2.3,0-3l0.1-5.5
			c0-1.2,0-2.3,0-3.5c0-1.1,0-2.4,0-3.9c0-1.2-0.2-2-0.7-2.5c-0.5-0.5-1.3-0.7-2.4-0.7h-0.6V37.7z"/>
		<path class="st0" d="M770.6,65.7h0.7c1,0,1.7-0.1,2.1-0.4c0.4-0.2,0.7-0.7,0.9-1.3c0.1-0.4,0.2-2,0.3-4.6c0-2.7,0.1-6.8,0.1-12.5
			v-6.6h-4.2c-2,0-3.4,0.3-4.1,0.8c-0.7,0.5-1.2,1.7-1.6,3.4l-1.3-0.3c0.3-1.2,0.5-2.4,0.6-3.5c0.1-1.2,0.2-2.3,0.2-3.4
			c0.4,0.3,1.2,0.4,2.5,0.6s3.5,0.2,6.6,0.2h5c4.2,0,6.9-0.1,8.1-0.2c1.2-0.1,2-0.3,2.5-0.6c0,0.1,0,0.4,0,0.7c0,0.3,0,0.5,0,0.7
			c0,0.9,0,1.8,0.1,2.7c0.1,0.9,0.2,1.9,0.3,2.9l-1.3,0.2c-0.2-1.6-0.6-2.6-1.3-3.2c-0.7-0.6-2.1-0.9-4.3-1h-3.9c0,0.8,0,1.9,0,3.3
			c0,3.8,0,6.3,0,7.6c0,4.9,0,8.2,0.1,9.9c0.1,1.7,0.2,2.8,0.3,3.2c0.2,0.5,0.5,0.8,0.9,1c0.4,0.2,1,0.3,1.9,0.3h0.7v1.4
			c-1.1-0.1-2.2-0.1-3.2-0.1s-1.9,0-2.7,0c-0.7,0-1.6,0-2.6,0s-2.1,0.1-3.3,0.1V65.7z"/>
		<path class="st0" d="M844,37.7h3.6c1.8,5.5,3.5,10.5,5.1,15s2.9,7.9,3.8,10.2c0.6,1.3,1,2.1,1.4,2.4s1,0.5,1.7,0.5h0.4v1.4
			c-1.1-0.1-2.1-0.1-2.9-0.1s-1.6,0-2.2,0c-0.8,0-1.6,0-2.5,0c-0.9,0-1.9,0.1-2.9,0.1v-1.4h0.4c1,0,1.6-0.1,2-0.3
			c0.4-0.2,0.5-0.6,0.5-1.3c0-0.2,0-0.5-0.1-0.7c-0.1-0.3-0.1-0.6-0.3-1l-2-6.3c-0.5,0-1.2,0-2.1,0c-1.7,0-2.7-0.1-3.2-0.1
			c-0.9,0-1.8,0-2.7,0c-0.8,0-1.7,0-2.6,0.1c-1,2.5-1.6,4.3-2,5.4c-0.4,1.1-0.5,1.9-0.5,2.4c0,0.7,0.2,1.1,0.5,1.4
			c0.4,0.3,1,0.4,1.9,0.4h0.6v1.4c-1-0.1-1.9-0.1-2.8-0.1c-0.9,0-1.7,0-2.3,0c-0.6,0-1.2,0-2.1,0s-1.7,0.1-2.7,0.1v-1.4
			c1,0,1.8-0.2,2.3-0.6c0.6-0.4,1.1-1,1.5-1.8c0.8-1.6,2.1-4.8,4.1-9.7S841.8,43.5,844,37.7z M844.9,41.6l-4.7,12.4
			c0.3,0,0.6,0,1.1,0c1.6,0,2.6,0.1,3.2,0.1c0.7,0,1.9,0,3.7-0.1c0.4,0,0.7,0,0.9,0L844.9,41.6z"/>
		<path class="st0" d="M905.6,37.6c1.5,0.1,2.6,0.1,3.4,0.2s1.4,0.1,1.8,0.1c0.9,0,1.8,0,2.6-0.1c0.9,0,1.7-0.1,2.6-0.2v1.4h-0.6
			c-1.1,0-1.8,0.4-2.2,1.1s-0.6,2.5-0.6,5.2v4.1l0.1,15.1c0.8,0,1.5,0.1,2.2,0.1c0.7,0,1.4,0,2,0c3.7,0,6.1-0.3,7.1-1
			c1.1-0.7,1.9-2,2.6-4l1.5,0.5c-0.4,1.2-0.8,2.3-1.1,3.5c-0.3,1.1-0.6,2.3-0.9,3.5c-2.3-0.1-4.4-0.1-6.3-0.2S916,67,914.3,67
			c-1.2,0-2.5,0-4,0.1c-1.5,0-3.2,0.1-5.2,0.2v-1.3c0.1,0,0.2,0,0.3,0c0.1,0,0.2,0,0.4,0c1.9,0,2.8-2.7,2.8-8c0-1.2,0-2.1,0-2.8
			l0-5.6c0-0.6,0-1.4,0-2.3c0-1,0-1.6,0-2c0-2.5-0.2-4.2-0.6-4.9c-0.4-0.8-1.2-1.1-2.4-1.1h-0.2V37.6z"/>
	</g>
	<g>
		<path class="st0" d="M6,65.8c0.1,0,0.2,0,0.3,0c0.1,0,0.2,0,0.4,0c1.8,0,2.8-2.6,2.8-7.7c0-1.3,0-2.3,0-3l0.1-5.6
			c0-1.2,0-2.4,0-3.5c0-1.1,0-2.4,0-3.7c0-1.2-0.2-2-0.7-2.5c-0.4-0.5-1.2-0.7-2.4-0.7H6.4v-1.4c0.9,0.1,1.8,0.1,2.7,0.1
			c0.9,0,1.8,0,2.6,0c0.9,0,2.1,0,3.4-0.1c1.4-0.1,2.3-0.1,2.7-0.1c2.8,0,5.1,0.7,6.9,2.2c1.8,1.5,2.7,3.4,2.7,5.6
			c0,1.7-0.5,3.2-1.4,4.5c-0.9,1.3-2.3,2.4-4.1,3.3l3.9,5.8c0.1,0.2,0.3,0.5,0.6,1c2.7,4.1,4.9,6.1,6.6,6.1h0.2v1.2
			c-0.2,0-0.5,0-0.9,0.1c-0.9,0.1-1.5,0.1-2,0.1c-1.5,0-2.6-0.2-3.5-0.6c-0.8-0.4-1.7-1.2-2.5-2.3c-0.1-0.2-0.9-1.4-2.3-3.7
			c-1.4-2.3-2.8-4.4-4.2-6.4c-0.5,0.1-1.1,0.1-1.7,0.1c-0.6,0-1.2,0-2,0h-1.2v6.3c0,2.1,0.2,3.4,0.6,3.9c0.4,0.5,1.3,0.8,2.5,0.8
			c0,0,0.1,0,0.2,0c0.1,0,0.1,0,0.2,0c0.1,0,0.1,0,0.1,0c0,0,0.1,0,0.1,0v1.4c-1-0.1-2-0.1-2.9-0.1s-1.9,0-2.9,0c-0.5,0-1.2,0-2.1,0
			s-2,0.1-3.1,0.1V65.8z M13.3,52.6c0.7,0.1,1.3,0.1,1.9,0.1c0.6,0,1.1,0,1.6,0c0.4,0,0.8,0,1.3,0c0.5,0,1-0.1,1.6-0.1
			c1.3-0.8,2.3-1.7,2.9-2.8s0.9-2.3,0.9-3.8c0-1.9-0.6-3.5-1.9-4.6c-1.2-1.2-2.9-1.7-5-1.7c-0.6,0-1.1,0-1.7,0.1
			c-0.5,0-1.1,0.1-1.6,0.2c0,1.7-0.1,3.5-0.1,5.3C13.3,47.1,13.3,49.6,13.3,52.6z"/>
		<path class="st0" d="M79,37.7c2.4,0.1,4.6,0.1,6.5,0.2c1.9,0,3.5,0.1,4.9,0.1c1.5,0,3.1,0,4.6-0.1s3.2-0.1,4.8-0.2
			c0,1,0.1,2.1,0.1,3.2c0.1,1.1,0.2,2.2,0.2,3.3l-1.4,0.1c-0.1-1.7-0.6-2.8-1.5-3.4c-0.9-0.6-2.9-0.9-5.9-0.9c-0.8,0-2.2,0-4.2,0.1
			c-0.4,0-0.7,0-0.9,0c0,1.7-0.1,3.7-0.1,6.1c-0.1,2.4-0.1,4-0.1,4.7h0.6c0.8,0,1.8,0,3,0c1.2,0,2,0,2.4,0c2,0,3.3-0.2,4-0.6
			s1-1.1,1-2.1l1.3,0.1c-0.1,0.9-0.2,1.6-0.2,2.4c0,0.7-0.1,1.4-0.1,2c0,0.4,0,1.1,0.1,2.3c0,0.4,0,0.8,0.1,1l-1.3,0V56
			c0-1.2-0.3-2-1-2.4c-0.7-0.4-2.3-0.6-4.8-0.6h-3.7h-1.5c0,0.7,0,1.6,0,2.8s0,2,0,2.6c0,0.9,0,1.9,0,2.8s0,2.1,0.1,3.5
			c0.7,0.1,1.5,0.1,2.3,0.2c0.9,0,1.8,0.1,2.9,0.1c3.5,0,5.7-0.3,6.8-1c1.1-0.7,2-2,2.6-3.9l1.5,0.5c-0.4,1.1-0.8,2.3-1.1,3.4
			c-0.3,1.1-0.6,2.2-0.8,3.3c-2.2-0.1-4.2-0.1-6-0.2c-1.9,0-3.5-0.1-5-0.1c-2.1,0-5.4,0.1-9.9,0.2l-0.7,0v-1.3c0.1,0,0.2,0,0.3,0
			c0.1,0,0.2,0,0.4,0c1.8,0,2.8-2.6,2.8-7.7c0-1.3,0-2.3,0-3l0.1-5.6c0-1.2,0-2.4,0-3.5c0-1.1,0-2.4,0-3.7c0-1.2-0.2-2-0.7-2.5
			c-0.4-0.5-1.2-0.7-2.4-0.7H79V37.7z"/>
		<path class="st0" d="M146.8,67.2v-1.4c0.1,0,0.2,0,0.3,0c0.1,0,0.2,0,0.4,0c1.8,0,2.8-2.6,2.8-7.7c0-1.3,0-2.3,0-3l0.1-5.5
			c0-1.2,0-2.3,0-3.5c0-1.1,0-2.4,0-3.9c0-1.2-0.2-2-0.7-2.5c-0.4-0.5-1.2-0.7-2.4-0.7h-0.2v-1.4c0.9,0,1.8,0.1,2.5,0.1
			c0.8,0,1.4,0.1,2,0.1c1.5,0,3.2-0.1,5-0.2s2.9-0.2,3.2-0.2c5.1,0,9.2,1.3,12.1,3.9c2.9,2.6,4.4,6.1,4.4,10.6
			c0,4.6-1.5,8.3-4.4,11.1s-6.9,4.2-11.9,4.2c-0.7,0-2.1-0.1-4-0.2c-1.9-0.1-3.5-0.2-4.7-0.2c-0.6,0-1.3,0-2.1,0
			C148.7,67.1,147.8,67.1,146.8,67.2z M154.2,64.7c1,0.2,2,0.4,3,0.5c1,0.1,1.9,0.2,2.9,0.2c3.9,0,6.9-1.1,8.9-3.2s3.1-5.2,3.1-9.1
			c0-4.2-1.1-7.5-3.3-9.9c-2.2-2.4-5.3-3.6-9.3-3.6c-0.8,0-1.6,0-2.5,0.1c-0.8,0.1-1.7,0.2-2.6,0.3c-0.1,5-0.1,9-0.2,11.9
			c0,2.9-0.1,5.3-0.1,7.2V64.7z"/>
		<path class="st0" d="M221.2,67.2v-1.4c0.1,0,0.2,0,0.3,0c0.1,0,0.2,0,0.4,0c1.8,0,2.8-2.6,2.8-7.7c0-1.3,0-2.3,0-3l0.1-5.5
			c0-1.2,0-2.3,0-3.5c0-1.1,0-2.4,0-3.9c0-1.2-0.2-2-0.7-2.5c-0.4-0.5-1.2-0.7-2.4-0.7h-0.2v-1.4c0.9,0,1.8,0.1,2.5,0.1
			c0.8,0,1.4,0.1,2,0.1c1.5,0,3.2-0.1,5-0.2s2.9-0.2,3.2-0.2c5.1,0,9.2,1.3,12.1,3.9c2.9,2.6,4.4,6.1,4.4,10.6
			c0,4.6-1.5,8.3-4.4,11.1s-6.9,4.2-11.9,4.2c-0.7,0-2.1-0.1-4-0.2c-1.9-0.1-3.5-0.2-4.7-0.2c-0.6,0-1.3,0-2.1,0
			C223.1,67.1,222.2,67.1,221.2,67.2z M228.5,64.7c1,0.2,2,0.4,3,0.5c1,0.1,1.9,0.2,2.9,0.2c3.9,0,6.9-1.1,8.9-3.2s3.1-5.2,3.1-9.1
			c0-4.2-1.1-7.5-3.3-9.9c-2.2-2.4-5.3-3.6-9.3-3.6c-0.8,0-1.6,0-2.5,0.1c-0.8,0.1-1.7,0.2-2.6,0.3c-0.1,5-0.1,9-0.2,11.9
			c0,2.9-0.1,5.3-0.1,7.2V64.7z"/>
		<path class="st0" d="M292.8,37.7c1,0.1,2,0.1,2.9,0.1c0.9,0,1.7,0,2.4,0c0.7,0,1.5,0,2.4,0c0.9,0,1.7-0.1,2.7-0.1v1.4h-0.3
			c-0.8,0-1.3,0.1-1.7,0.2s-0.6,0.4-0.6,0.7c0,0.3,0.3,1.1,1,2.2c0.2,0.3,0.3,0.6,0.4,0.7l5,8.9c2.3-3.6,4-6.4,5.1-8.4
			c1.1-2,1.7-3.1,1.7-3.4c0-0.3-0.2-0.6-0.5-0.7s-0.9-0.2-1.6-0.2h-0.4v-1.4c0.8,0.1,1.6,0.1,2.4,0.1c0.7,0,1.4,0,2,0
			c0.7,0,1.4,0,2.1,0c0.7,0,1.5-0.1,2.3-0.1v1.4c0,0-0.1,0-0.1,0s-0.1,0-0.2,0h-0.2c-1.2,0-2.8,1.6-4.8,4.7c-0.6,1-1.1,1.7-1.4,2.3
			l-5.2,8l0.1,7.4c0,1.9,0.2,3.1,0.7,3.6c0.4,0.5,1.2,0.7,2.5,0.7h0.7v1.4c-1.1-0.1-2.2-0.1-3.3-0.1c-1,0-1.9,0-2.8,0
			c-0.7,0-1.5,0-2.6,0s-2.1,0.1-3.3,0.1v-1.4c0.1,0,0.2,0,0.4,0c0.2,0,0.3,0,0.4,0c1.2,0,2-0.3,2.4-0.8c0.4-0.6,0.7-1.7,0.7-3.4
			l0.1-7.3l-6.7-11.3c-0.1-0.2-0.3-0.4-0.5-0.8c-1.2-2.1-2.3-3.1-3.3-3.1c-0.1,0-0.2,0-0.3,0s-0.3,0-0.4,0.1L292.8,37.7z"/>
	</g>
	<path class="st0" d="M477.4,36.8c1.2-1.4,2.1-2.8,2.7-4.2s1-2.8,1.2-4.1c0.2-1.4,0.1-2.6-0.1-3.9c-0.2-1.2-0.6-2.4-1.1-3.5
		c-0.5-1.1-1.1-2.1-1.8-3.1c-0.7-1-1.6-1.9-2.6-2.7c-1-0.8-2-1.5-3.2-2c-1.2-0.5-2.4-0.9-3.7-1.1c-1.3-0.2-2.8-0.2-4.2,0.1
		c-1.5,0.2-3,0.7-4.7,1.5c-1.6,0.7-3.3,1.7-5,3l-10,7.6l0.5,0.7c1.3-0.5,2.6-0.9,3.8-1.1c1.5-0.2,2.9-0.3,4.2-0.1
		c1.3,0.2,2.6,0.5,3.7,1.1c1.2,0.5,2.2,1.2,3.2,2c1,0.8,1.8,1.7,2.6,2.7c0.7,0.9,1.3,1.9,1.8,3.1c0.5,1.1,0.9,2.3,1.1,3.5
		c0.2,1.2,0.2,2.5,0.1,3.9c-0.2,1.4-0.6,2.7-1.2,4.1c-0.5,1.2-1.3,2.3-2.2,3.5l0.5,0.7l9.8-7.4C474.7,39.6,476.2,38.2,477.4,36.8z"
		/>
	<path class="st0" d="M477.4,67c1.2,1.4,2.1,2.8,2.7,4.2s1,2.8,1.2,4.1c0.2,1.4,0.1,2.6-0.1,3.9c-0.2,1.2-0.6,2.4-1.1,3.5
		c-0.5,1.1-1.1,2.1-1.8,3.1c-0.7,1-1.6,1.9-2.6,2.7c-1,0.8-2,1.5-3.2,2c-1.2,0.5-2.4,0.9-3.7,1.1c-1.3,0.2-2.8,0.2-4.2-0.1
		c-1.5-0.2-3-0.7-4.7-1.5c-1.6-0.7-3.3-1.7-5-3l-10-7.6l0.5-0.7c1.3,0.5,2.6,0.9,3.8,1.1c1.5,0.2,2.9,0.3,4.2,0.1
		c1.3-0.2,2.6-0.5,3.7-1.1c1.2-0.5,2.2-1.2,3.2-2c1-0.8,1.8-1.7,2.6-2.7c0.7-0.9,1.3-1.9,1.8-3.1c0.5-1.1,0.9-2.3,1.1-3.5
		c0.2-1.2,0.2-2.5,0.1-3.9c-0.2-1.4-0.6-2.7-1.2-4.1c-0.5-1.2-1.3-2.3-2.2-3.5l0.5-0.7l9.8,7.4C474.7,64.2,476.2,65.6,477.4,67z"/>
	<path class="st0" d="M468.3,51.6l17.1-12.1c0,0,5.3,4.4,5.3,12.1s-5.3,13.2-5.3,13.2L468.3,51.6z"/>
	<path class="st0" d="M434.5,27.4l-12.1-17.1c0,0,4.4-5.3,12.1-5.3c7.7,0,13.2,5.3,13.2,5.3L434.5,27.4z"/>
	<path class="st0" d="M392.6,36.8c-1.2-1.4-2.1-2.8-2.7-4.2s-1-2.8-1.2-4.1c-0.2-1.4-0.1-2.6,0.1-3.9c0.2-1.2,0.6-2.4,1.1-3.5
		c0.5-1.1,1.1-2.1,1.8-3.1c0.7-1,1.6-1.9,2.6-2.7c1-0.8,2-1.5,3.2-2c1.2-0.5,2.4-0.9,3.7-1.1c1.3-0.2,2.8-0.2,4.2,0.1
		c1.5,0.2,3,0.7,4.7,1.5c1.6,0.7,3.3,1.7,5,3l10,7.6l-0.5,0.7c-1.3-0.5-2.6-0.9-3.8-1.1c-1.5-0.2-2.9-0.3-4.2-0.1
		c-1.3,0.2-2.6,0.5-3.7,1.1c-1.2,0.5-2.2,1.2-3.2,2c-1,0.8-1.8,1.7-2.6,2.7c-0.7,0.9-1.3,1.9-1.8,3.1c-0.5,1.1-0.9,2.3-1.1,3.5
		s-0.2,2.5-0.1,3.9c0.2,1.4,0.6,2.7,1.2,4.1c0.5,1.2,1.3,2.3,2.2,3.5l-0.5,0.7L397,41C395.2,39.6,393.7,38.2,392.6,36.8z"/>
	<path class="st0" d="M392.6,67c-1.2,1.4-2.1,2.8-2.7,4.2s-1,2.8-1.2,4.1c-0.2,1.4-0.1,2.6,0.1,3.9c0.2,1.2,0.6,2.4,1.1,3.5
		c0.5,1.1,1.1,2.1,1.8,3.1c0.7,1,1.6,1.9,2.6,2.7s2,1.5,3.2,2c1.2,0.5,2.4,0.9,3.7,1.1c1.3,0.2,2.8,0.2,4.2-0.1
		c1.5-0.2,3-0.7,4.7-1.5c1.6-0.7,3.3-1.7,5-3l10-7.6l-0.5-0.7c-1.3,0.5-2.6,0.9-3.8,1.1c-1.5,0.2-2.9,0.3-4.2,0.1
		c-1.3-0.2-2.6-0.5-3.7-1.1c-1.2-0.5-2.2-1.2-3.2-2c-1-0.8-1.8-1.7-2.6-2.7c-0.7-0.9-1.3-1.9-1.8-3.1c-0.5-1.1-0.9-2.3-1.1-3.5
		s-0.2-2.5-0.1-3.9c0.2-1.4,0.6-2.7,1.2-4.1c0.5-1.2,1.3-2.3,2.2-3.5l-0.5-0.7l-9.8,7.4C395.2,64.2,393.7,65.6,392.6,67z"/>
	<path class="st0" d="M401.5,51.6l-17.1-12.1c0,0-5.3,4.4-5.3,12.1s5.3,13.2,5.3,13.2L401.5,51.6z"/>
	<path class="st0" d="M434.5,78.4l-12.1,17.1c0,0,4.4,5.3,12.1,5.3c7.7,0,13.2-5.3,13.2-5.3L434.5,78.4z"/>
	<path class="st0" d="M450.4,35.7c-5.8-6.4-9.5-3.1-15.5-3.1c-6,0-10.1-3.1-15.5,3.1c-3.6,4,0.7,16.3,0.7,16.3s-1,12.7-0.7,15.7
		c0.3,3,4.2,7.9,6.9,6c2.7-1.8,1-17.9,8.6-17.9c7.5,0,5.9,16.1,8.6,17.9c2.7,1.8,6.5-3,6.9-6c0.3-3-0.7-15.7-0.7-15.7
		S454.2,39.8,450.4,35.7z"/>
</g>
</svg>
