<?xml version="1.0" encoding="utf-8"?>
<!-- Generator: Adobe Illustrator 17.1.0, SVG Export Plug-In . SVG Version: 6.00 Build 0)  -->
<!DOCTYPE svg PUBLIC "-//W3C//DTD SVG 1.1//EN" "http://www.w3.org/Graphics/SVG/1.1/DTD/svg11.dtd">
<svg version="1.1" id="Layer_1" xmlns="http://www.w3.org/2000/svg" xmlns:xlink="http://www.w3.org/1999/xlink" x="0px" y="0px"
	 width="150px" height="17.1px" viewBox="405 271.4 150 17.1" style="enable-background:new 405 271.4 150 17.1;"
	 xml:space="preserve" preserveAspectRatio="XminYmin none">
<style type="text/css">
	.st0{fill:#1a1a10;}
</style>
<g id="humana">
</g>
<g id="humana_vitality">
</g>
<g id="jencare">
	<path class="st0" d="M413.6,279.9h6.3v0.5c0,1.1-0.1,2.2-0.4,3c-0.3,0.8-0.7,1.6-1.3,2.3c-1.4,1.6-3.2,2.4-5.4,2.4
		c-2.2,0-4-0.8-5.5-2.3c-1.5-1.5-2.3-3.4-2.3-5.6c0-2.2,0.8-4.1,2.3-5.6c1.6-1.6,3.4-2.3,5.7-2.3c1.2,0,2.3,0.2,3.3,0.7
		c1,0.5,2,1.3,2.9,2.4l-1.7,1.6c-1.3-1.7-2.8-2.5-4.6-2.5c-1.6,0-3,0.6-4.1,1.7c-1.1,1.1-1.6,2.5-1.6,4.1c0,1.7,0.6,3.1,1.8,4.2
		c1.1,1,2.4,1.5,3.7,1.5c1.1,0,2.1-0.4,3.1-1.1c0.9-0.8,1.4-1.7,1.5-2.8h-3.8C413.6,282.1,413.6,279.9,413.6,279.9z"/>
	<path class="st0" d="M431.1,284.1h-6.5l-1.7,3.7h-2.5l7.6-16.2l7.3,16.2h-2.5L431.1,284.1z M430.2,282l-2.3-5.2l-2.4,5.2H430.2z"/>
	<path class="st0" d="M439.4,272.6v15.3h-2.3v-15.3H439.4z"/>
	<path class="st0" d="M447.3,274.8v13.1H445v-13.1h-3.5v-2.2h9.3v2.2H447.3z"/>
	<path class="st0" d="M455.2,278.6h6.6v-6h2.3v15.3h-2.3v-7.1h-6.6v7.1h-2.3v-15.3h2.3V278.6z"/>
	<path class="st0" d="M476.1,274.8H470v3.7h5.9v2.2H470v5.1h6.1v2.2h-8.4v-15.3h8.4V274.8z"/>
	<path class="st0" d="M484.3,281.3l4.7,6.5h-2.8l-4.4-6.3h-0.4v6.3h-2.3v-15.3h2.7c2,0,3.5,0.4,4.4,1.1c1,0.8,1.5,2,1.5,3.3
		c0,1.1-0.3,2-0.9,2.8C486.1,280.6,485.3,281.1,484.3,281.3z M481.4,279.6h0.7c2.2,0,3.3-0.8,3.3-2.5c0-1.6-1.1-2.3-3.2-2.3h-0.8
		V279.6z"/>
	<path class="st0" d="M497.2,276.9c0.8,0,1.6,0.3,2.2,1c0.6,0.6,0.9,1.4,0.9,2.3c0,0.9-0.3,1.7-0.9,2.3c-0.6,0.6-1.3,0.9-2.2,0.9
		c-0.9,0-1.6-0.3-2.2-0.9c-0.6-0.6-0.9-1.4-0.9-2.3c0-0.9,0.3-1.7,0.9-2.3C495.6,277.2,496.3,276.9,497.2,276.9z"/>
	<path class="st0" d="M517.9,273.4v2.7c-1.3-1.1-2.7-1.7-4.1-1.7c-1.6,0-2.9,0.6-4,1.7c-1.1,1.1-1.6,2.5-1.6,4.1
		c0,1.6,0.5,2.9,1.6,4c1.1,1.1,2.4,1.7,4,1.7c0.8,0,1.5-0.1,2.1-0.4c0.3-0.1,0.6-0.3,1-0.5c0.3-0.2,0.7-0.5,1.1-0.8v2.8
		c-1.3,0.7-2.7,1.1-4.1,1.1c-2.2,0-4-0.8-5.6-2.3c-1.5-1.5-2.3-3.4-2.3-5.6c0-1.9,0.6-3.7,1.9-5.2c1.6-1.9,3.6-2.8,6.1-2.8
		C515.3,272.3,516.6,272.7,517.9,273.4z"/>
	<path class="st0" d="M519.9,280.2c0-2.1,0.8-4,2.4-5.5c1.6-1.5,3.5-2.3,5.6-2.3c2.2,0,4,0.8,5.6,2.3c1.6,1.6,2.3,3.4,2.3,5.6
		s-0.8,4-2.4,5.6s-3.5,2.3-5.7,2.3c-2,0-3.7-0.7-5.3-2.1C520.8,284.6,519.9,282.6,519.9,280.2z M522.2,280.2c0,1.7,0.6,3.1,1.7,4.2
		c1.1,1.1,2.4,1.6,3.9,1.6c1.6,0,2.9-0.6,4-1.7c1.1-1.1,1.7-2.5,1.7-4.1c0-1.6-0.6-3-1.6-4.1c-1.1-1.1-2.4-1.7-4-1.7
		c-1.6,0-2.9,0.6-4,1.7C522.8,277.2,522.2,278.6,522.2,280.2z"/>
	<path class="st0" d="M538.2,287.9l3.2-16.4l5.2,11.9l5.4-11.9l2.9,16.4h-2.4l-1.5-9.2l-4.5,9.9l-4.4-9.9l-1.6,9.2H538.2z"/>
</g>
<g id="great_for_you">
</g>
<g id="dr._shep">
</g>
<g id="ge">
</g>
<g id="aha">
</g>
<g id="diamond">
</g>
<g id="brown_foreman">
</g>
<g id="masterbrand">
</g>
<g id="aristokraft">
</g>
<g id="decora">
</g>
<g id="gaither">
</g>
<g id="unbridled_eve">
</g>
<g id="papa_johns">
</g>
<g id="dr_jan">
</g>
<g id="lawn_pro">
</g>
<g id="goo">
</g>
<g id="b__x26__b">
</g>
<g id="mindy_smith">
</g>
<g id="tesseract">
</g>
<g id="grandparents.com">
</g>
<g id="ican">
</g>
<g id="my_well_being">
</g>
<g id="apple_patch">
</g>
</svg>
