<?xml version="1.0" encoding="utf-8"?>
<!-- Generator: Adobe Illustrator 17.1.0, SVG Export Plug-In . SVG Version: 6.00 Build 0)  -->
<!DOCTYPE svg PUBLIC "-//W3C//DTD SVG 1.1//EN" "http://www.w3.org/Graphics/SVG/1.1/DTD/svg11.dtd">
<svg version="1.1" id="Layer_1" xmlns="http://www.w3.org/2000/svg" xmlns:xlink="http://www.w3.org/1999/xlink" x="0px" y="0px"
	 width="91px" height="91px" viewBox="434.5 234.5 91 91" style="enable-background:new 434.5 234.5 91 91;" xml:space="preserve" preserveAspectRatio="XminYmin none">
<style type="text/css">
	.st0{fill:#1a1a10;}
</style>
<g id="humana">
</g>
<g id="humana_vitality">
</g>
<g id="jencare">
	<g>
		<path class="st0" d="M480,325.5c-25.1,0-45.5-20.3-45.5-45.5c0-25.1,20.4-45.5,45.5-45.5s45.5,20.4,45.5,45.5
			C525.5,305.2,505.1,325.5,480,325.5z M480,236.6c-24,0-43.4,19.4-43.4,43.4c0,24,19.4,43.4,43.4,43.4s43.4-19.4,43.4-43.4
			C523.4,256.1,504,236.6,480,236.6z M518.5,292.9c0,0-0.1,0.1-0.2,0c-0.1,0-0.1-0.1-0.1-0.2c0-0.1,1.5-4.5,1.5-9.7
			c0-5.6-2.2-9-5.2-9c-1.7,0-3,1.2-3,3.1c0,3.4,4.1,3.6,4.1,11.1c0,3-0.6,6-1.6,9.1c-4.8,15.9-19.6,23.2-34.1,23.2
			c-6.7,0-11.4-1.4-12.8-2c-0.1,0-0.1-0.1-0.1-0.2s0.1-0.1,0.2-0.1c0.6,0.2,4.7,1.5,9.7,1.5c5.6,0,8.8-2.2,8.8-5.1
			c0-1.7-1.4-3.1-3.1-3.1c-3.4,0-3.6,4.2-10.9,4.2c-3.1,0-6-0.6-9.2-1.6c-15.7-4.9-23.2-19.5-23.1-34.2c0-7.1,2-12.7,2-12.8
			c0,0,0.1-0.1,0.2,0c0.1,0,0.1,0.1,0.1,0.2c-0.2,0.5-1.5,4.5-1.5,9.6c0,5.6,2.2,8.8,5.2,8.8c1.6,0,3-1.2,3-3
			c0-3.4-4.1-3.7-4.1-11.1c0-3.1,0.6-6,1.6-9.2c4.9-15.6,19.6-22.9,34.1-23c6.8-0.1,12.6,1.9,12.8,2.1c0,0,0.1,0.1,0,0.2
			c0,0.1-0.1,0.1-0.2,0.1s-3.9-1.6-9.7-1.6c-5.5,0-8.8,2.2-8.8,5.2c0,1.6,1.2,3,3.1,3c3.4,0,3.6-4.1,10.9-4.1c3.1,0,6,0.6,9.2,1.6
			c15.9,4.9,23.1,19.7,23.2,34.1C520.6,287.4,518.6,292.9,518.5,292.9z M496.9,282.1c-4.2,0-7.6,3.1-7.6,7c0,3.1,1.9,5.7,4.4,5.7
			c0.9,0,1.7-0.5,1.7-1.6c0-1.6-2.1-2-2-4.4c0.1-1.6,1.6-2.7,3.1-2.7c3,0,4.4,2.9,4.4,6c-0.1,4.7-3.5,7.9-7.6,7.9
			c-5.3,0-8.7-5.1-8.7-10.5c0-8.1,5.3-11.2,8.1-11.9c0,0,7.3,1.3,7-1.9c-0.1-1.4-2.2-1.9-3.6-2c-1.7-0.1-3.3,0.5-3.3,0.5
			c-0.9-0.4-1.5-1.3-1.8-2.3c5.2-3.9,8.8-7.7,8.8-11.9c0-2.2-1.5-4.2-4.4-4.2c-5.2,0-9.1,6.6-9.1,12.4c0,1,0,2,0.2,2.9
			c-3.2,2.4-5.8,3.8-10.1,6.6c0-0.5,0.1-2,0.5-3.8c1.5-1.6,3.5-4,3.5-6c0-0.9-0.5-1.6-1.5-1.6c-2.5,0-4.4,3.7-5,6.5
			c-1.1,1.4-3.4,3.1-5.3,3.1c-1.5,0-2-1.4-2.1-1.9c4.8-1.6,10.7-8.2,10.7-14.2c0-1.2-0.5-4-4.2-4c-5.7,0-10.4,8.5-10.4,15
			c-2,0-2.7-2.1-2.7-3.7c0-1.6,0.6-3.2,0.6-3.7s-0.2-1.1-1-1.1c-1.9,0-3,2.5-3,5.5c0.1,4,2.7,6.6,6.3,6.8c0.5,2.4,2.6,4.7,5.3,4.7
			c1.6,0,3.6-0.5,5.1-1.7c-0.1,0.9-0.2,1.6-0.4,2.4c-5.6,2.9-9.6,5-13.2,8.2c-2.9,2.6-4.5,6.2-4.5,9c0,3.7,2.4,7.3,7.3,7.3
			c5.8,0,10.2-4.7,12.3-11.1c1-3,1.4-7.4,1.6-11.4c5.8-3.2,8.5-5.2,11.5-7.3c0.4,0.6,0.7,1.1,1.2,1.5c-2.6,1.4-8.9,5.3-8.9,14.5
			c0,6.6,4.4,13.9,13.1,13.9c7.2,0,12.1-6,12.1-11.6C505.4,287,502.4,282.1,496.9,282.1z M462.2,299.8c-1.9,0.1-3.1-1.1-3.1-3.1
			c0-5.5,7.5-10.6,13.1-13.3C471.3,290.8,468.7,299.5,462.2,299.8z M466.4,270.1c0-4.1,4.1-12,6.6-11.2
			C476,259.8,470.6,267.8,466.4,270.1z M490.2,268.2c0-5.2,3.5-10.2,5.5-9.2C497.8,260,494,264.8,490.2,268.2z"/>
	</g>
</g>
<g id="great_for_you">
</g>
<g id="dr._shep">
</g>
<g id="ge">
</g>
<g id="aha">
</g>
<g id="diamond">
</g>
<g id="brown_foreman">
</g>
<g id="masterbrand">
</g>
<g id="aristokraft">
</g>
<g id="decora">
</g>
<g id="gaither">
</g>
<g id="unbridled_eve">
</g>
<g id="papa_johns">
</g>
<g id="dr_jan">
</g>
<g id="lawn_pro">
</g>
<g id="goo">
</g>
<g id="b__x26__b">
</g>
<g id="mindy_smith">
</g>
<g id="tesseract">
</g>
<g id="grandparents.com">
</g>
<g id="ican">
</g>
<g id="my_well_being">
</g>
<g id="apple_patch">
</g>
</svg>
