<?xml version="1.0" encoding="utf-8"?>
<!-- Generator: Adobe Illustrator 19.2.1, SVG Export Plug-In . SVG Version: 6.00 Build 0)  -->
<svg version="1.1" id="Layer_1" xmlns="http://www.w3.org/2000/svg" xmlns:xlink="http://www.w3.org/1999/xlink" x="0px" y="0px"
	 viewBox="0 0 91 91" style="enable-background:new 0 0 91 91;" xml:space="preserve">
<style type="text/css">
	.st0{fill:#1a1a10;}
</style>
<g id="humana">
</g>
<g id="humana_vitality">
</g>
<g id="jencare">
	<g>
		<path class="st0" d="M45.5,91C20.4,91,0,70.7,0,45.5C0,20.4,20.4,0,45.5,0S91,20.4,91,45.5C91,70.7,70.6,91,45.5,91z M45.5,2.1
			c-24,0-43.4,19.4-43.4,43.4s19.4,43.4,43.4,43.4s43.4-19.4,43.4-43.4C88.9,21.6,69.5,2.1,45.5,2.1z M84,58.4c0,0-0.1,0.1-0.2,0
			c-0.1,0-0.1-0.1-0.1-0.2s1.5-4.5,1.5-9.7c0-5.6-2.2-9-5.2-9c-1.7,0-3,1.2-3,3.1c0,3.4,4.1,3.6,4.1,11.1c0,3-0.6,6-1.6,9.1
			C74.7,78.7,59.9,86,45.4,86c-6.7,0-11.4-1.4-12.8-2c-0.1,0-0.1-0.1-0.1-0.2s0.1-0.1,0.2-0.1c0.6,0.2,4.7,1.5,9.7,1.5
			c5.6,0,8.8-2.2,8.8-5.1c0-1.7-1.4-3.1-3.1-3.1c-3.4,0-3.6,4.2-10.9,4.2c-3.1,0-6-0.6-9.2-1.6C12.3,74.7,4.8,60.1,4.9,45.4
			c0-7.1,2-12.7,2-12.8c0,0,0.1-0.1,0.2,0c0.1,0,0.1,0.1,0.1,0.2c-0.2,0.5-1.5,4.5-1.5,9.6c0,5.6,2.2,8.8,5.2,8.8c1.6,0,3-1.2,3-3
			c0-3.4-4.1-3.7-4.1-11.1c0-3.1,0.6-6,1.6-9.2C16.3,12.3,31,5,45.5,4.9C52.3,4.8,58.1,6.8,58.3,7c0,0,0.1,0.1,0,0.2
			c0,0.1-0.1,0.1-0.2,0.1s-3.9-1.6-9.7-1.6c-5.5,0-8.8,2.2-8.8,5.2c0,1.6,1.2,3,3.1,3c3.4,0,3.6-4.1,10.9-4.1c3.1,0,6,0.6,9.2,1.6
			C78.7,16.3,85.9,31.1,86,45.5C86.1,52.9,84.1,58.4,84,58.4z M62.4,47.6c-4.2,0-7.6,3.1-7.6,7c0,3.1,1.9,5.7,4.4,5.7
			c0.9,0,1.7-0.5,1.7-1.6c0-1.6-2.1-2-2-4.4c0.1-1.6,1.6-2.7,3.1-2.7c3,0,4.4,2.9,4.4,6c-0.1,4.7-3.5,7.9-7.6,7.9
			c-5.3,0-8.7-5.1-8.7-10.5c0-8.1,5.3-11.2,8.1-11.9c0,0,7.3,1.3,7-1.9c-0.1-1.4-2.2-1.9-3.6-2c-1.7-0.1-3.3,0.5-3.3,0.5
			c-0.9-0.4-1.5-1.3-1.8-2.3c5.2-3.9,8.8-7.7,8.8-11.9c0-2.2-1.5-4.2-4.4-4.2c-5.2,0-9.1,6.6-9.1,12.4c0,1,0,2,0.2,2.9
			c-3.2,2.4-5.8,3.8-10.1,6.6c0-0.5,0.1-2,0.5-3.8c1.5-1.6,3.5-4,3.5-6c0-0.9-0.5-1.6-1.5-1.6c-2.5,0-4.4,3.7-5,6.5
			c-1.1,1.4-3.4,3.1-5.3,3.1c-1.5,0-2-1.4-2.1-1.9c4.8-1.6,10.7-8.2,10.7-14.2c0-1.2-0.5-4-4.2-4c-5.7,0-10.4,8.5-10.4,15
			c-2,0-2.7-2.1-2.7-3.7s0.6-3.2,0.6-3.7s-0.2-1.1-1-1.1c-1.9,0-3,2.5-3,5.5c0.1,4,2.7,6.6,6.3,6.8c0.5,2.4,2.6,4.7,5.3,4.7
			c1.6,0,3.6-0.5,5.1-1.7c-0.1,0.9-0.2,1.6-0.4,2.4c-5.6,2.9-9.6,5-13.2,8.2c-2.9,2.6-4.5,6.2-4.5,9c0,3.7,2.4,7.3,7.3,7.3
			c5.8,0,10.2-4.7,12.3-11.1c1-3,1.4-7.4,1.6-11.4c5.8-3.2,8.5-5.2,11.5-7.3c0.4,0.6,0.7,1.1,1.2,1.5c-2.6,1.4-8.9,5.3-8.9,14.5
			c0,6.6,4.4,13.9,13.1,13.9c7.2,0,12.1-6,12.1-11.6C70.9,52.5,67.9,47.6,62.4,47.6z M27.7,65.3c-1.9,0.1-3.1-1.1-3.1-3.1
			c0-5.5,7.5-10.6,13.1-13.3C36.8,56.3,34.2,65,27.7,65.3z M31.9,35.6c0-4.1,4.1-12,6.6-11.2C41.5,25.3,36.1,33.3,31.9,35.6z
			 M55.7,33.7c0-5.2,3.5-10.2,5.5-9.2C63.3,25.5,59.5,30.3,55.7,33.7z"/>
	</g>
</g>
<g id="great_for_you">
</g>
<g id="dr._shep">
</g>
<g id="ge">
</g>
<g id="aha">
</g>
<g id="diamond">
</g>
<g id="brown_foreman">
</g>
<g id="masterbrand">
</g>
<g id="aristokraft">
</g>
<g id="decora">
</g>
<g id="gaither">
</g>
<g id="unbridled_eve">
</g>
<g id="papa_johns">
</g>
<g id="dr_jan">
</g>
<g id="lawn_pro">
</g>
<g id="goo">
</g>
<g id="b__x26__b">
</g>
<g id="mindy_smith">
</g>
<g id="tesseract">
</g>
<g id="grandparents.com">
</g>
<g id="ican">
</g>
<g id="my_well_being">
</g>
<g id="apple_patch">
</g>
</svg>
