<?xml version="1.0" encoding="utf-8"?>
<!-- Generator: Adobe Illustrator 19.2.1, SVG Export Plug-In . SVG Version: 6.00 Build 0)  -->
<svg version="1.1" id="Layer_1" xmlns="http://www.w3.org/2000/svg" xmlns:xlink="http://www.w3.org/1999/xlink" x="0px" y="0px"
	 viewBox="0 0 150 20.4" style="enable-background:new 0 0 150 20.4;" xml:space="preserve">
<style type="text/css">
	.st0{fill:#1a1a10;}
</style>
<g id="humana">
</g>
<g id="humana_vitality">
</g>
<g id="jencare">
	<g>
		<path class="st0" d="M146.4,15.8c0-0.9,0.7-1.6,1.6-1.6s1.6,0.7,1.6,1.6s-0.7,1.6-1.6,1.6S146.4,16.8,146.4,15.8z M148,17.8
			c1.1,0,2-0.8,2-2c0-1.1-0.9-2-2-2s-2,0.8-2,2S146.9,17.8,148,17.8z M147.6,16h0.4l0.6,1h0.4l-0.6-1c0.3,0,0.6-0.2,0.6-0.6
			s-0.3-0.6-0.8-0.6h-0.9V17h0.3V16z M147.6,15.7V15h0.5c0.2,0,0.5,0,0.5,0.3s-0.2,0.4-0.5,0.4L147.6,15.7L147.6,15.7z"/>
		<path class="st0" d="M14.9,11c-1.1,0-1.5,0.5-1.5,1.8V17c-1.5,0.9-3.7,1.8-5.5,1.8c-5.4,0-7.9-4-7.9-9.4c0-5.2,3.2-9,7.7-9
			c2.2,0,3.9,1,4.6,1c0.3,0,0.5-0.1,0.6-0.4h0.5v5.2h-0.8C12,3.3,10.4,1.6,8.2,1.6c-3,0-5.1,3.2-5.1,7.7c0,4.6,2.2,8.1,5.1,8.1
			c0.8,0,1.7-0.3,2.3-0.7v-3.9c0-1.4-0.5-1.7-2.6-1.8V9.9h7L14.9,11L14.9,11z"/>
		<path class="st0" d="M36.9,14.6c0,1.4,0.3,1.8,1.7,1.8v0.9h-4.1v-0.9h0.1c1,0,1.3-0.5,1.3-1.4V4.6c-0.4-0.3-0.8-0.5-1.4-0.5V3.2
			H38l6.9,9.6V6c0-1.6-0.2-1.9-1.6-1.9h-0.2V3.2h4.4v0.9h-0.2c-1,0-1.4,0.3-1.4,1.2v12.1H45L36.9,6.1L36.9,14.6L36.9,14.6z"/>
		<path class="st0" d="M48.4,3.3c0.9-0.1,2-0.1,2.7-0.2C51.9,3,52.6,3,53.4,3c3.4,0,5,0.6,6.2,2.2C60.5,6.4,61,8,61,9.9
			c0,2.1-0.7,3.9-1.6,5.1s-2.3,2.3-5.7,2.3h-5.4v-0.9c1.1,0,1.6-0.3,1.6-1.6V6.2c0-1.6-0.3-2-1.6-2V3.3H48.4z M52.3,14.7
			c0,1.5,0.2,1.7,1.5,1.7c3.8,0,4.8-3.5,4.8-6.2c0-1.9-0.5-3.6-1.2-4.6c-0.8-1.1-2-1.6-3.7-1.6c-0.5,0-0.8,0-1.3,0.1L52.3,14.7
			L52.3,14.7z"/>
		<g>
			<path class="st0" d="M71,0.2c4.4,0,7.6,3.7,7.6,9c0,5-2.9,9.5-8,9.5c-4.9,0-7.7-4.2-7.7-8.9C62.9,4.2,66.2,0.2,71,0.2z M71,17.5
				c3,0,4.3-3.4,4.3-7.3c0-4.5-1.7-8.8-4.9-8.8c-2.7,0-4.4,2.8-4.4,7C66,13.9,68.1,17.5,71,17.5z"/>
			<path class="st0" d="M86.5,17.3h-8.3v-0.9h0.3c1.1,0,1.4-0.5,1.4-1.6v-9c0-1.3-0.6-1.6-1.3-1.6h-0.3V3.3H84v0.9h-0.5
				c-0.9,0-1.2,0.5-1.2,1.6v9.3c0,0.8,0.2,1,0.8,1h1.4c1.1,0,1.5-0.7,2.6-2.7h0.7L86.5,17.3z"/>
			<path class="st0" d="M95,4.5h-3.3v5.1h2.4c0.9,0,1.3-0.4,1.3-1.6h0.7v4.5h-0.7c0-1.2-0.2-1.6-1.5-1.6h-2.1V15
				c0,1,0.1,1.2,0.6,1.2h2.5c1.1,0,1.6-0.4,2-2.3h0.6l-0.2,3.5h-9.8v-0.9h0.7c1,0,1.3-0.5,1.3-1.6v-9c0-1.2-0.3-1.7-1.5-1.7h-0.2
				V3.3h9L97,6.6h-0.6C96,5,95.8,4.5,95,4.5z"/>
		</g>
		<path class="st0" d="M18.9,14.8c0,1.2,0.4,1.7,1.3,1.7h0.5v0.9h-5.8v-0.9h0.3c1,0,1.5-0.3,1.5-1.7V5.9c0-1.1-0.2-1.7-1.4-1.7h-0.4
			V3.3c0.8-0.1,1.5-0.1,2.2-0.2c1-0.1,2.2-0.2,2.8-0.2c2.5,0,3.8,0.4,4.7,1.5C25.2,5.1,25.4,6,25.4,7c0,1.7-0.9,3.1-2.5,3.6
			c1.1,1.2,3.4,5.9,4.6,7.5c0.7,0.9,1.2,1.2,2.2,1.3v0.9c-0.4,0-0.5,0-1,0c-2.1,0-3-0.4-3.7-1.5c-0.8-1.1-3.5-6.4-4.6-7.6h-1.5V14.8
			L18.9,14.8z M18.9,10.4h0.7c2,0,3.2-0.8,3.2-3.2c0-2.4-1.4-3.2-3-3.2h-0.9V10.4L18.9,10.4z"/>
		<path class="st0" d="M33.9,14.4L30.6,3.3l0,0l0,0h-3.5v0.9c0.3,0,0.6,0.1,0.9,0.2l-2.4,8.8l0.7,1.6l0.7-2.7h3.7l0.8,2.6
			c0.3,1.1,0.2,1.7-0.8,1.7h-0.6v0.9h5.5v-0.9C34.8,16.4,34.4,15.9,33.9,14.4z M27.4,10.9l1.4-5.3l1.6,5.3H27.4z"/>
		<path class="st0" d="M106.8,0c4.4,0,7.6,3.7,7.6,9c0,5-2.9,9.6-8,9.6c-4.9,0-7.7-4.2-7.7-8.9C98.7,4.1,102.1,0,106.8,0z
			 M106.9,17.4c3,0,4.3-3.4,4.3-7.3c0-4.6-1.7-8.8-4.9-8.8c-2.7,0-4.5,2.8-4.5,7.1C101.8,13.7,103.9,17.4,106.9,17.4z"/>
		<path class="st0" d="M118.6,14.7c0,1.3,0.4,1.7,1.5,1.7h0.5v0.9h-5.8v-0.9h0.2c0.9,0,1.2-0.3,1.2-1.3V5.4c0-1-0.2-1.3-1.2-1.3
			h-0.4V3.2c0.7,0,1.6-0.2,2.7-0.2c1.1-0.1,2.2-0.1,2.7-0.1c3.3,0,4.7,2.1,4.7,4.4c0,2.6-1.7,4.3-4.3,4.3c-0.6,0-1.2-0.1-1.9-0.2
			L118.6,14.7L118.6,14.7z M118.6,10.4c0.4,0.1,0.7,0.2,1.2,0.2c1.6,0,2.5-1.2,2.5-3.4c0-2.1-0.9-3.3-2.5-3.3c-0.4,0-0.8,0-1.2,0.2
			V10.4L118.6,10.4z"/>
		<path class="st0" d="M128.8,14.8c0,1.2,0.4,1.7,1.3,1.7h0.5v0.9h-5.9v-0.9h0.3c1,0,1.5-0.3,1.5-1.7v-9c0-1.1-0.2-1.7-1.4-1.7h-0.4
			V3.2c0.8-0.1,1.5-0.1,2.2-0.2c1-0.1,2.2-0.2,2.8-0.2c2.5,0,3.9,0.4,4.7,1.6c0.6,0.7,0.8,1.6,0.8,2.6c0,1.7-0.9,3.1-2.5,3.7
			c1.1,1.2,3.4,5.9,4.6,7.6c0.7,0.9,1.2,1.2,2.2,1.3v0.9c-0.4,0-0.5,0-1.1,0c-2.1,0-3-0.4-3.8-1.5s-3.5-6.4-4.6-7.7h-1.3v3.5H128.8z
			 M128.8,10.4h0.7c2.1,0,3.2-0.8,3.2-3.3c0-2.4-1.4-3.3-3-3.3h-0.9V10.4z"/>
		<path class="st0" d="M142.8,14.8c0,1.1,0.2,1.7,1.5,1.7h0.2v0.9h-5.8v-0.9h0.4c1,0,1.3-0.6,1.3-1.6v-3.2l-3.7-6.5
			c-0.5-0.9-0.7-1.1-1.5-1.1h-0.1V3.2h5.5v0.9h-0.2c-1,0-1.1,0.5-0.8,1.2l2.7,4.8l2-4.1c0.4-0.9,0.6-1.8-0.6-1.8h-0.2v-1h4v0.9
			c-1,0.1-1.3,0.3-1.9,1.6l-2.9,6L142.8,14.8L142.8,14.8z"/>
	</g>
</g>
<g id="great_for_you">
</g>
<g id="dr._shep">
</g>
<g id="ge">
</g>
<g id="aha">
</g>
<g id="diamond">
</g>
<g id="brown_foreman">
</g>
<g id="masterbrand">
</g>
<g id="aristokraft">
</g>
<g id="decora">
</g>
<g id="gaither">
</g>
<g id="unbridled_eve">
</g>
<g id="papa_johns">
</g>
<g id="dr_jan">
</g>
<g id="lawn_pro">
</g>
<g id="goo">
</g>
<g id="b__x26__b">
</g>
<g id="mindy_smith">
</g>
<g id="tesseract">
</g>
<g id="grandparents.com">
</g>
<g id="ican">
</g>
<g id="my_well_being">
</g>
<g id="apple_patch">
</g>
</svg>
