<?xml version="1.0" encoding="utf-8"?>
<!-- Generator: Adobe Illustrator 17.1.0, SVG Export Plug-In . SVG Version: 6.00 Build 0)  -->
<!DOCTYPE svg PUBLIC "-//W3C//DTD SVG 1.1//EN" "http://www.w3.org/Graphics/SVG/1.1/DTD/svg11.dtd">
<svg version="1.1" id="Layer_1" xmlns="http://www.w3.org/2000/svg" xmlns:xlink="http://www.w3.org/1999/xlink" x="0px" y="0px"
	 width="150px" height="20.4px" viewBox="405.1 269.8 150 20.4" style="enable-background:new 405.1 269.8 150 20.4;"
	 xml:space="preserve" preserveAspectRatio="XminYmin none">
<style type="text/css">
	.st0{fill:#1a1a10;}
</style>
<g id="humana">
</g>
<g id="humana_vitality">
</g>
<g id="jencare">
	<g>
		<path class="st0" d="M551.5,285.6c0-0.9,0.7-1.6,1.6-1.6s1.6,0.7,1.6,1.6c0,0.9-0.7,1.6-1.6,1.6S551.5,286.6,551.5,285.6z
			 M553.1,287.6c1.1,0,2-0.8,2-2c0-1.1-0.9-2-2-2c-1.1,0-2,0.8-2,2S552,287.6,553.1,287.6z M552.7,285.8h0.4l0.6,1h0.4l-0.6-1
			c0.3,0,0.6-0.2,0.6-0.6c0-0.4-0.3-0.6-0.8-0.6h-0.9v2.2h0.3V285.8z M552.7,285.5v-0.7h0.5c0.2,0,0.5,0,0.5,0.3
			c0,0.3-0.2,0.4-0.5,0.4H552.7z"/>
		<path class="st0" d="M420,280.8c-1.1,0-1.5,0.5-1.5,1.8v4.2c-1.5,0.9-3.7,1.8-5.5,1.8c-5.4,0-7.9-4-7.9-9.4c0-5.2,3.2-9,7.7-9
			c2.2,0,3.9,1,4.6,1c0.3,0,0.5-0.1,0.6-0.4h0.5v5.2h-0.8c-0.6-2.9-2.2-4.6-4.4-4.6c-3,0-5.1,3.2-5.1,7.7c0,4.6,2.2,8.1,5.1,8.1
			c0.8,0,1.7-0.3,2.3-0.7v-3.9c0-1.4-0.5-1.7-2.6-1.8v-1.1h7V280.8z"/>
		<path class="st0" d="M442,284.4c0,1.4,0.3,1.8,1.7,1.8v0.9h-4.1v-0.9h0.1c1,0,1.3-0.5,1.3-1.4v-10.4c-0.4-0.3-0.8-0.5-1.4-0.5
			v-0.9h3.5l6.9,9.6v-6.8c0-1.6-0.2-1.9-1.6-1.9h-0.2v-0.9h4.4v0.9h-0.2c-1,0-1.4,0.3-1.4,1.2v12.1h-0.9l-8.1-11.3L442,284.4
			L442,284.4z"/>
		<path class="st0" d="M453.5,273.1c0.9-0.1,2-0.1,2.7-0.2c0.8-0.1,1.5-0.1,2.3-0.1c3.4,0,5,0.6,6.2,2.2c0.9,1.2,1.4,2.8,1.4,4.7
			c0,2.1-0.7,3.9-1.6,5.1c-0.9,1.2-2.3,2.3-5.7,2.3h-5.4v-0.9c1.1,0,1.6-0.3,1.6-1.6V276c0-1.6-0.3-2-1.6-2V273.1L453.5,273.1z
			 M457.4,284.5c0,1.5,0.2,1.7,1.5,1.7c3.8,0,4.8-3.5,4.8-6.2c0-1.9-0.5-3.6-1.2-4.6c-0.8-1.1-2-1.6-3.7-1.6c-0.5,0-0.8,0-1.3,0.1
			V284.5z"/>
		<g>
			<path class="st0" d="M476.1,270c4.4,0,7.6,3.7,7.6,9c0,5-2.9,9.5-8,9.5c-4.9,0-7.7-4.2-7.7-8.9C468,274,471.3,270,476.1,270z
				 M476.1,287.3c3,0,4.3-3.4,4.3-7.3c0-4.5-1.7-8.8-4.9-8.8c-2.7,0-4.4,2.8-4.4,7C471.1,283.7,473.2,287.3,476.1,287.3z"/>
			<path class="st0" d="M491.6,287.1h-8.3v-0.9h0.3c1.1,0,1.4-0.5,1.4-1.6v-9c0-1.3-0.6-1.6-1.3-1.6h-0.3v-0.9h5.7v0.9h-0.5
				c-0.9,0-1.2,0.5-1.2,1.6v9.3c0,0.8,0.2,1,0.8,1h1.4c1.1,0,1.5-0.7,2.6-2.7h0.7L491.6,287.1z"/>
			<path class="st0" d="M500.1,274.3h-3.3v5.1h2.4c0.9,0,1.3-0.4,1.3-1.6h0.7v4.5h-0.7c0-1.2-0.2-1.6-1.5-1.6h-2.1v4.1
				c0,1,0.1,1.2,0.6,1.2h2.5c1.1,0,1.6-0.4,2-2.3h0.6l-0.2,3.5h-9.8v-0.9h0.7c1,0,1.3-0.5,1.3-1.6v-9c0-1.2-0.3-1.7-1.5-1.7h-0.2
				v-0.9h9l0.2,3.3h-0.6C501.1,274.8,500.9,274.3,500.1,274.3z"/>
		</g>
		<path class="st0" d="M424,284.6c0,1.2,0.4,1.7,1.3,1.7h0.5v0.9H420v-0.9h0.3c1,0,1.5-0.3,1.5-1.7v-8.9c0-1.1-0.2-1.7-1.4-1.7H420
			v-0.9c0.8-0.1,1.5-0.1,2.2-0.2c1-0.1,2.2-0.2,2.8-0.2c2.5,0,3.8,0.4,4.7,1.5c0.6,0.7,0.8,1.6,0.8,2.6c0,1.7-0.9,3.1-2.5,3.6
			c1.1,1.2,3.4,5.9,4.6,7.5c0.7,0.9,1.2,1.2,2.2,1.3v0.9c-0.4,0-0.5,0-1,0c-2.1,0-3-0.4-3.7-1.5c-0.8-1.1-3.5-6.4-4.6-7.6H424V284.6
			L424,284.6z M424,280.2h0.7c2,0,3.2-0.8,3.2-3.2c0-2.4-1.4-3.2-3-3.2H424L424,280.2L424,280.2z"/>
		<path class="st0" d="M439,284.2l-3.3-11.1l0,0l0,0h-3.5v0.9c0.3,0,0.6,0.1,0.9,0.2l-2.4,8.8l0.7,1.6l0.7-2.7h3.7l0.8,2.6
			c0.3,1.1,0.2,1.7-0.8,1.7h-0.6v0.9h5.5v-0.9C439.9,286.2,439.5,285.7,439,284.2z M432.5,280.7l1.4-5.3l1.6,5.3H432.5z"/>
		<path class="st0" d="M511.9,269.8c4.4,0,7.6,3.7,7.6,9c0,5-2.9,9.6-8,9.6c-4.9,0-7.7-4.2-7.7-8.9
			C503.8,273.9,507.2,269.8,511.9,269.8z M512,287.2c3,0,4.3-3.4,4.3-7.3c0-4.6-1.7-8.8-4.9-8.8c-2.7,0-4.5,2.8-4.5,7.1
			C506.9,283.5,509,287.2,512,287.2z"/>
		<path class="st0" d="M523.7,284.5c0,1.3,0.4,1.7,1.5,1.7h0.5v0.9h-5.8v-0.9h0.2c0.9,0,1.2-0.3,1.2-1.3v-9.7c0-1-0.2-1.3-1.2-1.3
			h-0.4V273c0.7,0,1.6-0.2,2.7-0.2c1.1-0.1,2.2-0.1,2.7-0.1c3.3,0,4.7,2.1,4.7,4.4c0,2.6-1.7,4.3-4.3,4.3c-0.6,0-1.2-0.1-1.9-0.2
			L523.7,284.5L523.7,284.5z M523.7,280.2c0.4,0.1,0.7,0.2,1.2,0.2c1.6,0,2.5-1.2,2.5-3.4c0-2.1-0.9-3.3-2.5-3.3
			c-0.4,0-0.8,0-1.2,0.2L523.7,280.2L523.7,280.2z"/>
		<path class="st0" d="M533.9,284.6c0,1.2,0.4,1.7,1.3,1.7h0.5v0.9h-5.9v-0.9h0.3c1,0,1.5-0.3,1.5-1.7v-9c0-1.1-0.2-1.7-1.4-1.7
			h-0.4V273c0.8-0.1,1.5-0.1,2.2-0.2c1-0.1,2.2-0.2,2.8-0.2c2.5,0,3.9,0.4,4.7,1.6c0.6,0.7,0.8,1.6,0.8,2.6c0,1.7-0.9,3.1-2.5,3.7
			c1.1,1.2,3.4,5.9,4.6,7.6c0.7,0.9,1.2,1.2,2.2,1.3v0.9c-0.4,0-0.5,0-1.1,0c-2.1,0-3-0.4-3.8-1.5c-0.8-1.1-3.5-6.4-4.6-7.7h-1.3
			V284.6L533.9,284.6z M533.9,280.2h0.7c2.1,0,3.2-0.8,3.2-3.3c0-2.4-1.4-3.3-3-3.3h-0.9V280.2z"/>
		<path class="st0" d="M547.9,284.6c0,1.1,0.2,1.7,1.5,1.7h0.2v0.9h-5.8v-0.9h0.4c1,0,1.3-0.6,1.3-1.6v-3.2l-3.7-6.5
			c-0.5-0.9-0.7-1.1-1.5-1.1h-0.1V273h5.5v0.9h-0.2c-1,0-1.1,0.5-0.8,1.2l2.7,4.8l2-4.1c0.4-0.9,0.6-1.8-0.6-1.8h-0.2V273h4v0.9
			c-1,0.1-1.3,0.3-1.9,1.6l-2.9,6L547.9,284.6L547.9,284.6z"/>
	</g>
</g>
<g id="great_for_you">
</g>
<g id="dr._shep">
</g>
<g id="ge">
</g>
<g id="aha">
</g>
<g id="diamond">
</g>
<g id="brown_foreman">
</g>
<g id="masterbrand">
</g>
<g id="aristokraft">
</g>
<g id="decora">
</g>
<g id="gaither">
</g>
<g id="unbridled_eve">
</g>
<g id="papa_johns">
</g>
<g id="dr_jan">
</g>
<g id="lawn_pro">
</g>
<g id="goo">
</g>
<g id="b__x26__b">
</g>
<g id="mindy_smith">
</g>
<g id="tesseract">
</g>
<g id="grandparents.com">
</g>
<g id="ican">
</g>
<g id="my_well_being">
</g>
<g id="apple_patch">
</g>
</svg>
