<?xml version="1.0" encoding="utf-8"?>
<!-- Generator: Adobe Illustrator 17.1.0, SVG Export Plug-In . SVG Version: 6.00 Build 0)  -->
<!DOCTYPE svg PUBLIC "-//W3C//DTD SVG 1.1//EN" "http://www.w3.org/Graphics/SVG/1.1/DTD/svg11.dtd">
<svg version="1.1" id="Layer_1" xmlns="http://www.w3.org/2000/svg" xmlns:xlink="http://www.w3.org/1999/xlink" x="0px" y="0px"
	 width="150px" height="36.2px" viewBox="405.1 261.6 150 36.2" style="enable-background:new 405.1 261.6 150 36.2;"
	 xml:space="preserve" preserveAspectRatio="XminYmin none">
<style type="text/css">
	.st0{fill:#1a1a10;}
</style>
<g id="humana">
	<g>
		<path class="st0" d="M523,265.1c1.2-0.6,1.6,0.7,2.1,1.5c0.2,0.4-5.2,10.6-3.2,13.1c1-0.9,4.3-5.2,5.1-5.2c2.7,0,0.4,6.3,2.3,6.3
			c0.3,0,0.8-0.3,1.3-0.4c0.4,0.5-1.5,1.2-2.7,1.2c-1.8,0-1.7-2.9-2.2-4.6c-1.1,1.2-2.8,4.4-4.7,4.4c-0.6,0-1.3-0.5-1.5-0.8
			c-0.4,0.2-1.7,1.3-2.5,1.3c-1,0-2.5-0.9-2.4-2.3c-0.1,0.5-1.4,1.9-2.9,1.9c-0.7,0-1.9-0.4-1.9-1.6c0-3.1,1.5-4.5,2.8-6.1
			c-1.3,0.8-3.8-1-4.1,2.9c0,0-0.6,2.4-0.8,3.5c-0.1,0.5-0.4,1.5-1.6,1.5c-0.4-0.3-0.3-1.2-0.3-1.5c0.1-1.9,2.6-16.2,4.9-16.2
			c0.6,0,0.9,1.4,0.9,1.6c-0.1,1.8-1.3,4.9-1.5,6.3c0.1,0.1,3.5,0.2,3.8,0.2s3.3,0.2,3.3,1.3c0,0.4-0.3,0.5-0.8,0.8
			c-3.9,1-4.4,4.7-3.9,5.5c0.4,0.1,3.8-4.3,4.1-4.3c0.7,0,1.7,1.3,1.7,1.5c0,0.4-0.8,2.3-0.8,2.7c-0.2,1.5,1.9,0.5,1.9,0.5
			c0.1-0.4-0.2,0.2-0.1-2.1v-0.3c0-1,0.3-2.5,0.5-3.6C519.9,273.7,521.2,268.3,523,265.1 M503.4,273c0.6,0.1,1.4,0.8,1.4,1.7
			c0,0.4-0.9,4.6-0.9,4.9c0,0.4,0,0.3,0.1,0.4c0.1-0.1,0.1,1.8-1.5,1.8c-0.8,0-1.1-0.6-1.4-1.6C501.2,279,501.4,275.3,503.4,273
			 M527.4,268.7c1.2,0,2,1.9,2,2.1c0,0.5-0.8,1.1-1.1,1.1c-1.2,0-1.7-1.9-1.7-2.4C526.7,269.1,527.1,268.7,527.4,268.7 M504.4,268.6
			c0.9,0,2.1,2.1,2.1,2.6s-0.5,0.8-0.9,0.8c-1,0-2.1-1.1-2.1-2.3C503.5,269,503.8,268.6,504.4,268.6 M508.4,261.7
			c-1.5,0.2-7.4,8.5-10.9,19.6c-0.2,0.6-1.7,0.6-2.4,0.3c-0.6-0.7-0.5-1.9-0.7-2.7c0,0-0.8-9-0.3-12.3c0.1-0.7,0.6-1.2,0.8-1.2
			c1,0.4,1.1,1.9,1.1,2.5c0.1,1.3-0.4,5.5,0.7,9.7c1.5-3.7,4.7-10.6,7.9-14C505.8,262.4,508.4,261.3,508.4,261.7 M540.1,282.4
			c-1.5,0.6-4,2.6-5.9,5.4c-2.1,3.2-3.3,7.3-1,7.9c0.8,0.2,1.8-0.3,2.7-1.4c0.9-1,1.7-2.5,2.5-5.2
			C539.1,287.5,539.6,285,540.1,282.4 M534.6,265.8c1.1,0.2,1.7,0.6,1.7,1.5c0,0.4-1.3,4.2-2,6c0.8,0.1,1.7,0.2,2.6,0.6
			c0.2-0.4,0.8-1.1,1.5-1.7c0.2,0.2,0.3,0.1,0.3,0.5c0,1.2-2.1,5.9-0.8,6c1,0.2,4.5-5.9,6.5-8.8h0.5c0.4,0.6,0.6,2.6,0.5,2.9
			c-0.2,0.4-0.4,0.8-0.6,1.1c-0.4,1.2-1,3.2-1.7,5.4c4.1-1.6,8.3-2,12-1.6c0,0.4-0.3,2.2-0.5,2.5c-0.6,1-3.8-1.9-12,0.8
			c-0.8,2.9-1.8,5.9-2.3,7.7c-1,3.1-2.7,5.4-2.8,5.6c-0.7,1-3.3,3.9-5.5,3.5c-1.5-0.2-3.1-2-2.2-5.2c2.4-8.4,10.6-12.1,10.6-12.1
			l0.3-0.1c0.1-0.5,0.2-1,0.3-1.5c-1,0.7-2.4,1.4-3.1,1.4c-1.5,0-2.3-0.9-2.3-2.4c0-1.2,0.1-1.4,0.6-2.7c-0.3,0.1-1.7,0.2-1.7,0.1
			c-0.6,0.4-1.9,3.3-1.8,5.2c0,0.4-1.3,1.7-1.6,1.6c-0.2-1.4,0-3.9,0-4.3c0-0.4,0.4-2.1,0.4-2.5c0-0.4-0.8-0.7-1.2-1.1
			c0.2-1,1-0.5,1.6-1C531.8,273,533.1,268.4,534.6,265.8 M427.8,269.3c-0.2,0-0.4,0.2-0.4,0.5v9.5c-0.7,0.2-1.5,0.2-2.2,0.2
			c-1.7,0-2.2-0.6-2.2-2.4v-7.4c0-0.3-0.2-0.5-0.4-0.5H420v7.8c0,3.7,1.9,4.9,5.1,4.9c2.5,0,5-0.7,5.2-0.8v-11.9H427.8z
			 M466.1,281.9c0.2,0,0.4-0.2,0.4-0.5v-9.6c0.7-0.2,1.5-0.2,2.2-0.2c1.7,0,2.2,0.6,2.2,2.4v7.4c0,0.3,0.2,0.5,0.4,0.5h2.5v-7.9
			c0-3.7-1.9-4.9-5.1-4.9c-2.5,0-5,0.7-5.2,0.8v12L466.1,281.9L466.1,281.9z M456.1,269c-3.2,0-5.3,1.8-5.3,5.5v1.9
			c0,4.2,2.2,5.5,4.6,5.5c1.2,0,2.4-0.8,2.8-1.4v0.8c0,0.2,0.2,0.4,0.4,0.4c0,0,2.4,0,2.5,0v-12.1C461.1,269.8,458.7,269,456.1,269z
			 M458.2,278.8c-0.5,0.4-1,0.8-2.1,0.8c-1.7,0-2.3-1-2.3-3.1v-1.7c0-2.5,0.9-3.1,2.3-3.1c1.2,0,1.9,0.1,2.1,0.2V278.8z M481.2,269
			c-3.2,0-5.3,1.8-5.3,5.5v1.9c0,4.2,2.2,5.5,4.6,5.5c1.2,0,2.4-0.8,2.8-1.4v0.8c0,0.2,0.2,0.4,0.4,0.4c0,0,2.4,0,2.5,0v-12.1
			C486.3,269.8,483.9,269,481.2,269z M483.4,278.8c-0.5,0.4-1,0.8-2.1,0.8c-1.7,0-2.3-1-2.3-3.1v-1.7c0-2.5,0.9-3.1,2.3-3.1
			c1.2,0,1.9,0.1,2.1,0.2V278.8z M405.1,281.8c0.4,0,2.6,0,2.6,0c0.2,0,0.4-0.2,0.4-0.4v-6.9h4.9c0.8,0,1.4,0.6,1.4,1.3v5.6
			c0,0.2,0.2,0.4,0.4,0.4c0,0,2.5,0,2.7,0c0,0,0-16.3,0-16.5h-2.7c-0.2,0-0.4,0.2-0.4,0.4v6.2h-5.1c-0.7,0-1.2-0.6-1.2-1.2v-5
			c0-0.2-0.2-0.4-0.4-0.4h-2.6C405.1,265.5,405.1,281.8,405.1,281.8z M444.2,269c-1.4,0-2.7,0.6-3.3,1c-0.9-0.7-2.1-1-3.7-1
			c-2.3,0-4.2,0.7-4.5,0.8v12h2.5c0.2,0,0.4-0.2,0.4-0.5v-9.6c0.5-0.2,1-0.2,1.5-0.2c1.7,0,2.1,0.7,2.1,2.4v7.4
			c0,0.2,0.2,0.5,0.4,0.5h2.1c0.3,0,0.4-0.2,0.4-0.5v-9.2c0.4-0.4,1.1-0.6,1.7-0.6c1.3,0,1.9,0.6,1.9,2.2v7.6c0,0.2,0.2,0.5,0.4,0.5
			c0,0,2.3,0,2.5,0v-8.5C448.8,270.2,446.7,269,444.2,269z"/>
		<g>
			<path class="st0" d="M548.5,270.9c0,0.6-0.4,1-1,1c-0.6,0-1-0.4-1-1s0.4-1,1-1C548.1,269.9,548.5,270.4,548.5,270.9z
				 M546.6,270.9c0,0.5,0.4,0.9,0.8,0.9c0.5,0,0.8-0.4,0.8-0.9s-0.4-0.9-0.8-0.9C547,270,546.6,270.4,546.6,270.9z M547.3,271v0.4
				c0,0,0,0-0.1,0l0,0c0,0-0.1,0-0.1,0v-1h0.3c0.2,0,0.3,0,0.4,0.1c0,0,0.1,0.1,0.1,0.2c0,0.1,0,0.2-0.1,0.2c0,0-0.1,0.1-0.2,0.1
				c0.1,0.2,0.2,0.3,0.2,0.4c0,0,0,0,0,0l0,0c0,0-0.1,0-0.1,0c-0.1-0.1-0.2-0.2-0.2-0.4L547.3,271L547.3,271z M547.3,270.9h0.2
				c0.1,0,0.2,0,0.2-0.1c0,0,0.1-0.1,0.1-0.2c0-0.1,0-0.1-0.1-0.2c0,0-0.1,0-0.2,0h-0.1L547.3,270.9L547.3,270.9z"/>
		</g>
	</g>
</g>
<g id="humana_vitality">
</g>
<g id="jencare">
</g>
<g id="great_for_you">
</g>
<g id="dr._shep">
</g>
<g id="ge">
</g>
<g id="aha">
</g>
<g id="diamond">
</g>
<g id="brown_foreman">
</g>
<g id="masterbrand">
</g>
<g id="aristokraft">
</g>
<g id="decora">
</g>
<g id="gaither">
</g>
<g id="unbridled_eve">
</g>
<g id="papa_johns">
</g>
<g id="dr_jan">
</g>
<g id="lawn_pro">
</g>
<g id="goo">
</g>
<g id="b__x26__b">
</g>
<g id="mindy_smith">
</g>
<g id="tesseract">
</g>
<g id="grandparents.com">
</g>
<g id="ican">
</g>
<g id="my_well_being">
</g>
<g id="apple_patch">
</g>
</svg>
