<?xml version="1.0" encoding="utf-8"?>
<!-- Generator: Adobe Illustrator 17.1.0, SVG Export Plug-In . SVG Version: 6.00 Build 0)  -->
<!DOCTYPE svg PUBLIC "-//W3C//DTD SVG 1.1//EN" "http://www.w3.org/Graphics/SVG/1.1/DTD/svg11.dtd">
<svg version="1.1" id="Layer_1" xmlns="http://www.w3.org/2000/svg" xmlns:xlink="http://www.w3.org/1999/xlink" x="0px" y="0px"
	 width="150px" height="29.1px" viewBox="405 265.4 150 29.1" style="enable-background:new 405 265.4 150 29.1;"
	 xml:space="preserve" preserveAspectRatio="XminYmin none">
<style type="text/css">
	.st0{fill:#1a1a10;}
</style>
<g id="humana">
	<g>
		<path class="st0" d="M555,291.9c0,1.5-1.1,2.7-2.6,2.7c-1.5,0-2.6-1.2-2.6-2.7c0-1.5,1.1-2.7,2.6-2.7
			C553.9,289.2,555,290.4,555,291.9z M550.4,291.9c0,1.3,0.9,2.2,2,2.2s2-1,2-2.2c0-1.3-0.9-2.2-2-2.2S550.4,290.6,550.4,291.9z
			 M552.3,290.4c0.7,0,1.1,0.2,1.1,0.8c0,0.4-0.2,0.7-0.6,0.9l0.1,0.3c0.1,0.2,0.3,0.5,0.5,0.8c0.1,0.1-0.1,0.1-0.2,0.1h-0.1
			c-0.1,0-0.2-0.1-0.3-0.1c-0.1-0.2-0.3-0.4-0.4-0.6l-0.3-0.4h-0.4v1c0,0-0.1,0.1-0.1,0.1h-0.2c-0.1,0-0.1-0.1-0.1-0.1v-2.8H552.3
			L552.3,290.4z M552,291.8h0.4c0.4,0,0.6-0.2,0.6-0.4c0-0.4-0.4-0.4-0.6-0.4H552V291.8L552,291.8z M444.6,272.3
			c-0.4,0-0.8,0.4-0.8,0.8v16.6c-1.3,0.3-2.5,0.4-3.8,0.4c-2.9,0-3.9-1.1-3.9-4.2v-12.8c0-0.6-0.4-0.8-0.8-0.8h-4.4v13.7
			c0,6.4,3.4,8.5,8.9,8.5c4.4,0,8.7-1.3,9.1-1.3v-20.9H444.6z M511.4,294.3c0.4,0,0.8-0.4,0.8-0.8v-16.7c1.3-0.3,2.5-0.4,3.8-0.4
			c2.9,0,3.9,1.1,3.9,4.2v13c0,0.6,0.4,0.8,0.8,0.8h4.4v-13.9c0-6.4-3.4-8.5-8.9-8.5c-4.4,0-8.7,1.3-9.1,1.3v21H511.4z M493.9,272
			c-5.6,0-9.2,3.1-9.2,9.6v3.3c0,7.3,3.9,9.6,8,9.6c2,0,4.2-1.4,4.9-2.4v1.3c0,0.4,0.3,0.8,0.8,0.8c0,0,4.2,0,4.4,0v-21
			C502.8,273.2,498.5,272,493.9,272z M497.6,288.9c-0.9,0.8-1.7,1.3-3.7,1.4c-2.9,0-4.1-1.8-4.1-5.5v-3c0-4.3,1.6-5.5,4.1-5.5
			c2.1,0,3.2,0.1,3.7,0.3V288.9z M537.9,272c-5.6,0-9.2,3.1-9.2,9.6v3.3c0,7.3,3.9,9.6,8,9.6c2,0,4.2-1.4,4.9-2.4v1.3
			c0,0.4,0.3,0.8,0.8,0.8c0,0,4.2,0,4.4,0v-21C546.7,273.2,542.4,272,537.9,272z M541.6,288.9c-0.9,0.8-1.7,1.3-3.7,1.4
			c-2.9,0-4.1-1.8-4.1-5.5v-3c0-4.3,1.6-5.5,4.1-5.5c2.1,0,3.2,0.1,3.7,0.3V288.9z M405,294.3c0.8,0,4.6,0,4.6,0
			c0.4,0,0.8-0.4,0.8-0.8v-12.2h8.5c1.4,0,2.5,1.1,2.5,2.3v9.9c0,0.4,0.4,0.8,0.8,0.8c0,0,4.4,0,4.6,0c0,0,0-28.6,0-28.9h-4.6
			c-0.4,0-0.8,0.4-0.8,0.7V277h-8.8c-1.2,0-2.1-1-2.1-2v-8.8c0-0.3-0.3-0.7-0.8-0.7H405C405,265.7,405,294.3,405,294.3z M473.3,272
			c-2.5,0-4.8,1-5.8,1.7c-1.5-1.2-3.7-1.7-6.4-1.7c-4.1,0-7.4,1.3-7.9,1.5v20.8h4.4c0.4,0,0.8-0.4,0.8-0.8v-16.8
			c0.9-0.3,1.8-0.4,2.5-0.4c3,0,3.7,1.2,3.7,4.2v13c0,0.4,0.3,0.8,0.8,0.8h3.6c0.5,0,0.8-0.4,0.8-0.8v-16.2c0.8-0.7,2-1.1,3-1.1
			c2.3,0,3.2,1.1,3.2,3.9v13.3c0,0.4,0.3,0.8,0.8,0.8c0,0,4,0,4.4,0v-14.9C481.2,273.9,477.6,272,473.3,272z"/>
	</g>
</g>
<g id="humana_vitality">
</g>
<g id="jencare">
</g>
<g id="great_for_you">
</g>
<g id="dr._shep">
</g>
<g id="ge">
</g>
<g id="aha">
</g>
<g id="diamond">
</g>
<g id="brown_foreman">
</g>
<g id="masterbrand">
</g>
<g id="aristokraft">
</g>
<g id="decora">
</g>
<g id="gaither">
</g>
<g id="unbridled_eve">
</g>
<g id="papa_johns">
</g>
<g id="dr_jan">
</g>
<g id="lawn_pro">
</g>
<g id="goo">
</g>
<g id="b__x26__b">
</g>
<g id="mindy_smith">
</g>
<g id="tesseract">
</g>
<g id="grandparents.com">
</g>
<g id="ican">
</g>
<g id="my_well_being">
</g>
<g id="apple_patch">
</g>
</svg>
