<?xml version="1.0" encoding="utf-8"?>
<!-- Generator: Adobe Illustrator 17.1.0, SVG Export Plug-In . SVG Version: 6.00 Build 0)  -->
<!DOCTYPE svg PUBLIC "-//W3C//DTD SVG 1.1//EN" "http://www.w3.org/Graphics/SVG/1.1/DTD/svg11.dtd">
<svg version="1.1" id="Layer_1" xmlns="http://www.w3.org/2000/svg" xmlns:xlink="http://www.w3.org/1999/xlink" x="0px" y="0px"
	 width="150px" height="27px" viewBox="405 266.5 150 27" style="enable-background:new 405 266.5 150 27;" xml:space="preserve" preserveAspectRatio="XminYmin none">
<style type="text/css">
	.st0{fill:#1a1a10;}
</style>
<g id="humana">
</g>
<g id="humana_vitality">
</g>
<g id="jencare">
	<g>
		<path class="st0" d="M406.8,290.2L406.8,290.2c0-0.5-0.2-0.7-0.7-0.7c-0.3,0-0.6,0.1-0.8,0.3l-0.2-0.3c0.2-0.2,0.6-0.4,1.1-0.4
			s1,0.3,1,0.9v1.2c0,0.2,0,0.4,0,0.6h-0.3c0-0.1,0-0.3,0-0.4l0,0c-0.2,0.4-0.5,0.5-0.9,0.5c-0.5,0-0.9-0.3-0.9-0.8
			c0-0.9,1-0.9,1.6-0.9H406.8L406.8,290.2z M406.6,290.5c-0.4,0-1.2,0-1.2,0.6c0,0.4,0.3,0.5,0.6,0.5c0.5,0,0.8-0.4,0.8-0.9v-0.2
			H406.6z"/>
		<path class="st0" d="M411.6,289.8c-0.1-0.2-0.4-0.4-0.7-0.4c-0.6,0-1,0.4-1,1c0,0.6,0.4,1.1,1,1c0.3,0,0.5-0.1,0.7-0.4l0.3,0.2
			c-0.3,0.3-0.6,0.4-1,0.4c-0.9,0-1.4-0.6-1.4-1.4c0-0.8,0.5-1.4,1.4-1.4c0.4,0,0.7,0.1,1,0.4L411.6,289.8z"/>
		<path class="st0" d="M412.4,287.5h0.4v2.1l0,0c0.2-0.3,0.5-0.5,0.9-0.5c0.7,0,1,0.4,1,1v1.7h-0.4v-1.5c0-0.6-0.2-0.9-0.7-0.9
			c-0.1,0-0.8,0.1-0.8,1v1.4h-0.4L412.4,287.5L412.4,287.5z"/>
		<path class="st0" d="M417.3,290.2L417.3,290.2c0-0.5-0.2-0.7-0.7-0.7c-0.3,0-0.6,0.1-0.8,0.3l-0.2-0.3c0.2-0.2,0.6-0.4,1.1-0.4
			s1,0.3,1,0.9v1.2c0,0.2,0,0.4,0.1,0.6h-0.4c0-0.1,0-0.3,0-0.4l0,0c-0.2,0.4-0.5,0.5-0.9,0.5c-0.5,0-0.9-0.3-0.9-0.8
			c0-0.9,1-0.9,1.6-0.9H417.3L417.3,290.2z M417.1,290.5c-0.4,0-1.2,0-1.2,0.6c0,0.4,0.3,0.5,0.6,0.5c0.5,0,0.8-0.4,0.8-0.9v-0.2
			H417.1z"/>
		<path class="st0" d="M418.5,289.2h0.4v0.4l0,0c0.2-0.4,0.7-0.5,1-0.5c0.8,0,1.4,0.6,1.4,1.4c0,0.8-0.6,1.4-1.4,1.4
			c-0.4,0-0.8-0.1-1-0.5l0,0v2h-0.4V289.2z M419.9,289.5c-0.6,0-1,0.4-1,1c0,0.6,0.4,1,1,1c0.6,0,1-0.4,1-1
			C420.9,289.9,420.5,289.5,419.9,289.5z"/>
		<path class="st0" d="M423.3,289.5h-0.8v1.6c0,0.4,0.1,0.5,0.4,0.5c0.1,0,0.3,0,0.4-0.1l0,0.4c-0.1,0.1-0.3,0.1-0.5,0.1
			c-0.3,0-0.7-0.1-0.7-0.7v-1.7h-0.6v-0.3h0.6v-0.7h0.4v0.7h0.8C423.3,289.2,423.3,289.5,423.3,289.5z"/>
		<path class="st0" d="M424.1,290.6c0.1,0.5,0.4,1,1,1c0.4,0,0.7-0.2,0.8-0.4l0.3,0.2c-0.3,0.4-0.7,0.6-1.1,0.6
			c-0.8,0-1.4-0.6-1.4-1.4c0-0.8,0.6-1.4,1.3-1.4c0.8,0,1.3,0.6,1.3,1.3v0.2H424.1L424.1,290.6z M425.9,290.3c0-0.5-0.3-0.8-0.9-0.8
			c-0.5,0-0.9,0.4-0.9,0.8H425.9z"/>
		<path class="st0" d="M427,290c0-0.2,0-0.4,0-0.8h0.4v0.5l0,0c0.1-0.3,0.4-0.6,0.8-0.6c0.1,0,0.2,0,0.3,0l-0.1,0.4
			c-0.1,0-0.1,0-0.2,0c-0.6,0-0.8,0.5-0.8,0.8v1.5H427V290L427,290z"/>
		<path class="st0" d="M431.7,291.9c-0.8,0-1.4-0.6-1.4-1.4c0-0.8,0.6-1.4,1.4-1.4c0.8,0,1.4,0.6,1.4,1.4
			C433.1,291.3,432.6,291.9,431.7,291.9z M431.7,289.5c-0.6,0-1,0.4-1,1c0,0.6,0.4,1,1,1c0.6,0,1-0.4,1-1
			C432.7,289.9,432.3,289.5,431.7,289.5z"/>
		<path class="st0" d="M435,289.5h-0.6v2.3h-0.4v-2.3h-0.6v-0.3h0.6v-0.7c0-0.7,0.4-1,0.9-1c0.1,0,0.2,0,0.3,0l-0.1,0.3
			c-0.1,0-0.2,0-0.3,0c-0.4,0-0.5,0.3-0.5,0.7v0.7h0.6L435,289.5L435,289.5z"/>
		<path class="st0" d="M438.5,289.5h-0.8v1.6c0,0.4,0.1,0.5,0.4,0.5c0.1,0,0.3,0,0.4-0.1l0,0.4c-0.1,0.1-0.3,0.1-0.5,0.1
			c-0.3,0-0.7-0.1-0.7-0.7v-1.7h-0.6v-0.3h0.6v-0.7h0.4v0.7h0.8L438.5,289.5L438.5,289.5z"/>
		<path class="st0" d="M439,287.5h0.4v2.1l0,0c0.1-0.3,0.5-0.5,0.9-0.5c0.7,0,1,0.4,1,1v1.7h-0.4v-1.5c0-0.6-0.2-0.9-0.7-0.9
			c-0.1,0-0.8,0.1-0.8,1v1.4H439V287.5L439,287.5z"/>
		<path class="st0" d="M442.4,290.6c0.1,0.5,0.4,1,1,1c0.4,0,0.7-0.2,0.8-0.4l0.3,0.2c-0.3,0.4-0.7,0.6-1.1,0.6
			c-0.8,0-1.4-0.6-1.4-1.4c0-0.8,0.6-1.4,1.3-1.4c0.8,0,1.3,0.6,1.3,1.3v0.2H442.4L442.4,290.6z M444.2,290.3c0-0.5-0.3-0.8-0.9-0.8
			c-0.5,0-0.9,0.4-0.9,0.8H444.2z"/>
		<path class="st0" d="M447.4,291.8H447v-4h0.4V291.8z"/>
		<path class="st0" d="M448.7,289.2c0,0.1,0,0.3,0,0.4l0,0c0.2-0.3,0.5-0.5,0.9-0.5c0.7,0,1,0.4,1,1v1.7h-0.4v-1.5
			c0-0.6-0.2-0.9-0.7-0.9c-0.1,0-0.8,0.1-0.8,1v1.4h-0.4v-2.1c0-0.1,0-0.4,0-0.6H448.7z"/>
		<path class="st0" d="M452.9,289.5h-0.8v1.6c0,0.4,0.1,0.5,0.4,0.5c0.1,0,0.3,0,0.4-0.1l0,0.4c-0.1,0.1-0.3,0.1-0.5,0.1
			c-0.3,0-0.7-0.1-0.7-0.7v-1.7h-0.6v-0.3h0.6v-0.7h0.4v0.7h0.8L452.9,289.5L452.9,289.5z"/>
		<path class="st0" d="M453.6,290.6c0.1,0.5,0.4,1,1,1c0.4,0,0.7-0.2,0.8-0.4l0.3,0.2c-0.3,0.4-0.7,0.6-1.1,0.6
			c-0.8,0-1.4-0.6-1.4-1.4c0-0.8,0.6-1.4,1.3-1.4c0.8,0,1.3,0.6,1.3,1.3v0.2H453.6L453.6,290.6z M455.4,290.3c0-0.5-0.3-0.8-0.9-0.8
			c-0.5,0-0.9,0.4-0.9,0.8H455.4z"/>
		<path class="st0" d="M456.6,290c0-0.2,0-0.4,0-0.8h0.4v0.5l0,0c0.1-0.3,0.4-0.6,0.8-0.6c0.1,0,0.2,0,0.3,0l-0.1,0.4
			c-0.1,0-0.1,0-0.2,0c-0.6,0-0.8,0.5-0.8,0.8v1.5h-0.4L456.6,290L456.6,290z"/>
		<path class="st0" d="M458.9,289.2c0,0.1,0,0.3,0,0.4l0,0c0.2-0.3,0.5-0.5,0.9-0.5c0.7,0,1,0.4,1,1v1.7h-0.4v-1.5
			c0-0.6-0.1-0.9-0.7-0.9c-0.1,0-0.8,0.1-0.8,1v1.4h-0.4v-2.1c0-0.1,0-0.4,0-0.6H458.9z"/>
		<path class="st0" d="M463.4,290.2L463.4,290.2c0-0.5-0.2-0.7-0.7-0.7c-0.3,0-0.6,0.1-0.8,0.3l-0.2-0.3c0.2-0.2,0.6-0.4,1.1-0.4
			s1,0.3,1,0.9v1.2c0,0.2,0,0.4,0.1,0.6h-0.4c0-0.1,0-0.3,0-0.4l0,0c-0.2,0.4-0.5,0.5-0.9,0.5c-0.5,0-0.9-0.3-0.9-0.8
			c0-0.9,1-0.9,1.6-0.9H463.4L463.4,290.2z M463.2,290.5c-0.4,0-1.2,0-1.2,0.6c0,0.4,0.3,0.5,0.6,0.5c0.5,0,0.8-0.4,0.8-0.9v-0.2
			H463.2z"/>
		<path class="st0" d="M466,289.5h-0.8v1.6c0,0.4,0.1,0.5,0.4,0.5c0.1,0,0.3,0,0.4-0.1l0,0.4c-0.1,0.1-0.3,0.1-0.5,0.1
			c-0.3,0-0.7-0.1-0.7-0.7v-1.7h-0.6v-0.3h0.6v-0.7h0.4v0.7h0.8L466,289.5L466,289.5z"/>
		<path class="st0" d="M466.8,288.4c-0.1,0-0.3-0.1-0.3-0.3c0-0.1,0.1-0.3,0.3-0.3c0.1,0,0.3,0.1,0.3,0.3
			C467,288.3,466.9,288.4,466.8,288.4z M466.9,291.8h-0.4v-2.7h0.4V291.8z"/>
		<path class="st0" d="M469.1,291.9c-0.8,0-1.4-0.6-1.4-1.4c0-0.8,0.6-1.4,1.4-1.4c0.8,0,1.4,0.6,1.4,1.4
			C470.5,291.3,470,291.9,469.1,291.9z M469.1,289.5c-0.6,0-1,0.4-1,1c0,0.6,0.4,1,1,1c0.6,0,1-0.4,1-1
			C470.1,289.9,469.8,289.5,469.1,289.5z"/>
		<path class="st0" d="M471.6,289.2c0,0.1,0,0.3,0,0.4l0,0c0.1-0.3,0.5-0.5,0.9-0.5c0.7,0,1,0.4,1,1v1.7h-0.4v-1.5
			c0-0.6-0.2-0.9-0.7-0.9c-0.1,0-0.8,0.1-0.8,1v1.4h-0.4v-2.1c0-0.1,0-0.4,0-0.6H471.6z"/>
		<path class="st0" d="M476.1,290.2L476.1,290.2c0-0.5-0.2-0.7-0.7-0.7c-0.3,0-0.6,0.1-0.8,0.3l-0.2-0.3c0.2-0.2,0.6-0.4,1.1-0.4
			s1,0.3,1,0.9v1.2c0,0.2,0,0.4,0.1,0.6h-0.4c0-0.1,0-0.3,0-0.4l0,0c-0.2,0.4-0.5,0.5-0.9,0.5c-0.5,0-0.9-0.3-0.9-0.8
			c0-0.9,1-0.9,1.6-0.9H476.1L476.1,290.2z M475.9,290.5c-0.4,0-1.2,0-1.2,0.6c0,0.4,0.3,0.5,0.6,0.5c0.5,0,0.8-0.4,0.8-0.9v-0.2
			H475.9z"/>
		<path class="st0" d="M477.8,291.8h-0.4v-4.3h0.4V291.8z"/>
		<path class="st0" d="M483.7,291.2c-0.3,0.4-0.8,0.7-1.5,0.7c-1.2,0-2.1-0.9-2.1-2.1c0-1.2,0.9-2.1,2.1-2.1c0.5,0,1,0.2,1.4,0.6
			l-0.4,0.3c-0.1-0.3-0.6-0.5-1-0.5c-1,0-1.6,0.8-1.6,1.7c0,0.9,0.6,1.7,1.6,1.7c0.4,0,0.8-0.1,1.1-0.6L483.7,291.2z"/>
		<path class="st0" d="M484.5,290.6c0.1,0.5,0.4,1,1,1c0.4,0,0.7-0.2,0.8-0.4l0.3,0.2c-0.3,0.4-0.7,0.6-1.1,0.6
			c-0.8,0-1.4-0.6-1.4-1.4c0-0.8,0.6-1.4,1.3-1.4c0.8,0,1.3,0.6,1.3,1.3v0.2H484.5L484.5,290.6z M486.3,290.3c0-0.5-0.3-0.8-0.9-0.8
			c-0.5,0-0.9,0.4-0.9,0.8H486.3z"/>
		<path class="st0" d="M488.8,289.8c-0.1-0.2-0.3-0.4-0.6-0.4s-0.5,0.1-0.5,0.4c0,0.2,0.2,0.3,0.5,0.4l0.4,0.1
			c0.4,0.1,0.7,0.4,0.7,0.7c0,0.6-0.5,0.8-1,0.8c-0.4,0-0.8-0.1-1-0.5l0.3-0.2c0.1,0.2,0.4,0.4,0.7,0.4c0.3,0,0.6-0.1,0.6-0.4
			c0-0.3-0.2-0.4-0.5-0.4l-0.4-0.1c-0.2-0.1-0.7-0.2-0.7-0.7c0-0.5,0.5-0.8,1-0.8c0.4,0,0.7,0.1,0.9,0.5L488.8,289.8z"/>
		<path class="st0" d="M491.5,290.2L491.5,290.2c0-0.5-0.2-0.7-0.7-0.7c-0.3,0-0.6,0.1-0.8,0.3l-0.2-0.3c0.2-0.2,0.6-0.4,1.1-0.4
			s1,0.3,1,0.9v1.2c0,0.2,0,0.4,0.1,0.6h-0.4c0-0.1,0-0.3,0-0.4l0,0c-0.2,0.4-0.5,0.5-0.9,0.5c-0.5,0-0.9-0.3-0.9-0.8
			c0-0.9,1-0.9,1.6-0.9H491.5L491.5,290.2z M491.3,290.5c-0.4,0-1.2,0-1.2,0.6c0,0.4,0.3,0.5,0.6,0.5c0.5,0,0.8-0.4,0.8-0.9v-0.2
			H491.3z"/>
		<path class="st0" d="M492.8,290c0-0.2,0-0.4,0-0.8h0.4v0.5l0,0c0.1-0.3,0.4-0.6,0.8-0.6c0.1,0,0.2,0,0.3,0l-0.1,0.4
			c-0.1,0-0.1,0-0.2,0c-0.6,0-0.8,0.5-0.8,0.8v1.5h-0.4L492.8,290L492.8,290z"/>
		<path class="st0" d="M494.8,290.6c0.1,0.5,0.4,1,1,1c0.4,0,0.7-0.2,0.8-0.4l0.3,0.2c-0.3,0.4-0.7,0.6-1.1,0.6
			c-0.8,0-1.4-0.6-1.4-1.4c0-0.8,0.6-1.4,1.3-1.4c0.8,0,1.3,0.6,1.3,1.3v0.2H494.8L494.8,290.6z M496.6,290.3c0-0.5-0.3-0.8-0.9-0.8
			c-0.5,0-0.9,0.4-0.9,0.8H496.6z"/>
		<path class="st0" d="M499.4,290.2L499.4,290.2c0-0.5-0.2-0.7-0.7-0.7c-0.3,0-0.6,0.1-0.8,0.3l-0.2-0.3c0.2-0.2,0.6-0.4,1.1-0.4
			s1,0.3,1,0.9v1.2c0,0.2,0,0.4,0.1,0.6h-0.4c0-0.1,0-0.3,0-0.4l0,0c-0.2,0.4-0.5,0.5-0.9,0.5c-0.5,0-0.9-0.3-0.9-0.8
			c0-0.9,1-0.9,1.6-0.9H499.4L499.4,290.2z M499.2,290.5c-0.4,0-1.2,0-1.2,0.6c0,0.4,0.3,0.5,0.6,0.5c0.5,0,0.8-0.4,0.8-0.9v-0.2
			H499.2z"/>
		<path class="st0" d="M501,289.2c0,0.1,0,0.3,0,0.4l0,0c0.1-0.3,0.5-0.5,0.9-0.5c0.7,0,1,0.4,1,1v1.7h-0.4v-1.5
			c0-0.6-0.2-0.9-0.7-0.9c-0.1,0-0.8,0.1-0.8,1v1.4h-0.4v-2.1c0-0.1,0-0.4,0-0.6H501z"/>
		<path class="st0" d="M505.5,291.8H505l1.7-4h0.4l1.7,4h-0.5l-0.4-1h-2.1L505.5,291.8z M506,290.4h1.7l-0.9-2.1L506,290.4z"/>
		<path class="st0" d="M509.3,289.2l0.6,2.2l0,0l0.7-2.2h0.4l0.7,2.2l0,0l0.6-2.2h0.4l-0.8,2.7h-0.4l-0.7-2.2l0,0l-0.7,2.2h-0.4
			l-0.8-2.7H509.3z"/>
		<path class="st0" d="M515,290.2L515,290.2c0-0.5-0.2-0.7-0.7-0.7c-0.3,0-0.6,0.1-0.8,0.3l-0.2-0.3c0.2-0.2,0.6-0.4,1.1-0.4
			c0.5,0,1,0.3,1,0.9v1.2c0,0.2,0,0.4,0,0.6H515c0-0.1,0-0.3,0-0.4l0,0c-0.2,0.4-0.5,0.5-0.9,0.5c-0.5,0-0.9-0.3-0.9-0.8
			c0-0.9,1-0.9,1.6-0.9H515L515,290.2z M514.8,290.5c-0.4,0-1.2,0-1.2,0.6c0,0.4,0.3,0.5,0.6,0.5c0.5,0,0.8-0.4,0.8-0.9v-0.2H514.8z
			"/>
		<path class="st0" d="M516.2,290c0-0.2,0-0.4,0-0.8h0.4v0.5l0,0c0.1-0.3,0.4-0.6,0.8-0.6c0.1,0,0.2,0,0.3,0l-0.1,0.4
			c-0.1,0-0.1,0-0.2,0c-0.6,0-0.8,0.5-0.8,0.8v1.5h-0.4L516.2,290L516.2,290z"/>
		<path class="st0" d="M518.2,290.6c0,0.5,0.4,1,1,1c0.4,0,0.7-0.2,0.8-0.4l0.3,0.2c-0.3,0.4-0.7,0.6-1.1,0.6
			c-0.8,0-1.4-0.6-1.4-1.4c0-0.8,0.6-1.4,1.3-1.4c0.8,0,1.3,0.6,1.3,1.3v0.2H518.2L518.2,290.6z M520,290.3c0-0.5-0.3-0.8-0.9-0.8
			c-0.5,0-0.9,0.4-0.9,0.8H520z"/>
		<path class="st0" d="M521.5,289.2c0,0.1,0,0.3,0,0.4l0,0c0.2-0.3,0.5-0.5,0.9-0.5c0.7,0,1,0.4,1,1v1.7h-0.4v-1.5
			c0-0.6-0.2-0.9-0.7-0.9c-0.1,0-0.8,0.1-0.8,1v1.4h-0.4v-2.1c0-0.1,0-0.4,0-0.6H521.5z"/>
		<path class="st0" d="M524.6,290.6c0.1,0.5,0.4,1,1,1c0.4,0,0.7-0.2,0.8-0.4l0.3,0.2c-0.3,0.4-0.7,0.6-1.1,0.6
			c-0.8,0-1.4-0.6-1.4-1.4c0-0.8,0.6-1.4,1.3-1.4c0.8,0,1.3,0.6,1.3,1.3v0.2H524.6L524.6,290.6z M526.4,290.3c0-0.5-0.3-0.8-0.9-0.8
			c-0.5,0-0.9,0.4-0.9,0.8H526.4z"/>
		<path class="st0" d="M528.9,289.8c-0.1-0.2-0.3-0.4-0.6-0.4s-0.5,0.1-0.5,0.4c0,0.2,0.2,0.3,0.5,0.4l0.4,0.1
			c0.4,0.1,0.7,0.4,0.7,0.7c0,0.6-0.5,0.8-1,0.8c-0.4,0-0.8-0.1-1-0.5l0.3-0.2c0.1,0.2,0.4,0.4,0.7,0.4s0.6-0.1,0.6-0.4
			c0-0.3-0.2-0.4-0.5-0.4l-0.4-0.1c-0.2-0.1-0.7-0.2-0.7-0.7c0-0.5,0.5-0.8,1-0.8c0.4,0,0.7,0.1,0.9,0.5L528.9,289.8z"/>
		<path class="st0" d="M531.3,289.8c-0.1-0.2-0.3-0.4-0.6-0.4c-0.3,0-0.5,0.1-0.5,0.4c0,0.2,0.2,0.3,0.5,0.4l0.4,0.1
			c0.4,0.1,0.7,0.4,0.7,0.7c0,0.6-0.5,0.8-1,0.8c-0.4,0-0.8-0.1-1-0.5l0.3-0.2c0.1,0.2,0.4,0.4,0.7,0.4c0.3,0,0.6-0.1,0.6-0.4
			c0-0.3-0.2-0.4-0.5-0.4l-0.4-0.1c-0.2-0.1-0.7-0.2-0.7-0.7c0-0.5,0.5-0.8,1-0.8c0.4,0,0.7,0.1,0.9,0.5L531.3,289.8z"/>
		<path class="st0" d="M536.9,291.2L536.9,291.2v-3.4h0.4v4h-0.5l-2.4-3.4l0,0v3.4H534v-4h0.5L536.9,291.2z"/>
		<path class="st0" d="M538.5,290.6c0.1,0.5,0.4,1,1,1c0.4,0,0.7-0.2,0.8-0.4l0.3,0.2c-0.3,0.4-0.7,0.6-1.1,0.6
			c-0.8,0-1.4-0.6-1.4-1.4c0-0.8,0.6-1.4,1.3-1.4c0.8,0,1.3,0.6,1.3,1.3v0.2H538.5L538.5,290.6z M540.4,290.3c0-0.5-0.3-0.8-0.9-0.8
			c-0.5,0-0.9,0.4-0.9,0.8H540.4z"/>
		<path class="st0" d="M542.8,289.5H542v1.6c0,0.4,0.1,0.5,0.4,0.5c0.1,0,0.3,0,0.4-0.1l0,0.4c-0.1,0.1-0.3,0.1-0.5,0.1
			c-0.3,0-0.7-0.1-0.7-0.7v-1.7h-0.6v-0.3h0.6v-0.7h0.4v0.7h0.8V289.5L542.8,289.5z"/>
		<path class="st0" d="M543.4,289.2l0.6,2.2l0,0l0.7-2.2h0.4l0.7,2.2l0,0l0.6-2.2h0.4l-0.8,2.7h-0.4l-0.7-2.2l0,0l-0.7,2.2h-0.4
			l-0.8-2.7H543.4z"/>
		<path class="st0" d="M548.7,291.9c-0.8,0-1.4-0.6-1.4-1.4c0-0.8,0.6-1.4,1.4-1.4c0.8,0,1.4,0.6,1.4,1.4
			C550.1,291.3,549.5,291.9,548.7,291.9z M548.7,289.5c-0.6,0-1,0.4-1,1c0,0.6,0.4,1,1,1c0.6,0,1-0.4,1-1
			C549.7,289.9,549.3,289.5,548.7,289.5z"/>
		<path class="st0" d="M550.8,290c0-0.2,0-0.4,0-0.8h0.4v0.5l0,0c0.1-0.3,0.4-0.6,0.8-0.6c0.1,0,0.2,0,0.3,0l-0.1,0.4
			c-0.1,0-0.1,0-0.2,0c-0.6,0-0.8,0.5-0.8,0.8v1.5h-0.4L550.8,290L550.8,290z"/>
		<path class="st0" d="M553,290.4l1.3-1.2h0.6l-1.3,1.2l1.5,1.4h-0.6L553,290.4l0,1.5h-0.4v-4.3h0.4L553,290.4L553,290.4z"/>
	</g>
	<g>
		<path class="st0" d="M406,283v-15.8h3V283C409,283,406,283,406,283z"/>
		<path class="st0" d="M413.8,278.3c0,1.8,0.8,2.2,2,2.2c1.2,0,2-0.5,2-2.2v-1h3v0.7c0,3.9-2.1,5.3-5,5.3s-5-1.4-5-5.3v-5.7
			c0-3.9,2.1-5.3,5-5.3s5,1.4,5,5.3v0h-3v-0.4c0-1.8-0.8-2.2-2-2.2c-1.2,0-2,0.5-2,2.2C413.8,271.9,413.8,278.3,413.8,278.3z"/>
		<path class="st0" d="M421.3,283l3.9-15.8h3.9l3.8,15.8H430l-0.8-3.3H425l-0.9,3.3H421.3z M425.6,277h3l-1.5-6.4h0L425.6,277z"/>
		<path class="st0" d="M434.3,283v-15.8h3.3l4.2,9.4h0v-9.4h2.8V283h-2.9l-4.6-10.2h0V283C437,283,434.3,283,434.3,283z"/>
		<path class="st0" d="M452.5,275.4c0-3.1,1.6-4.5,4.4-4.5c2.8,0,4.4,1.3,4.4,4.5v3.3c0,3.1-1.6,4.5-4.4,4.5c-2.8,0-4.4-1.3-4.4-4.5
			V275.4z M455.2,279.4c0,0.9,0.7,1.4,1.6,1.4s1.6-0.5,1.6-1.4v-4.8c0-0.9-0.7-1.4-1.6-1.4s-1.6,0.5-1.6,1.4V279.4z"/>
		<path class="st0" d="M468.3,269.4h-0.8c-0.7,0-0.9,0.4-0.9,1v1.2h1.6v2.2h-1.6v9.2h-2.8v-9.2h-1.3v-2.2h1.3v-1.1
			c0-2.8,1.2-3.5,3.2-3.5c0.4,0,0.9,0.1,1.3,0.1V269.4z"/>
		<path class="st0" d="M475.9,283v-15.8h3v13.1h4.9v2.7L475.9,283L475.9,283z"/>
		<path class="st0" d="M485.4,275.4c0-3.1,1.6-4.5,4.4-4.5c2.8,0,4.4,1.3,4.4,4.5v3.3c0,3.1-1.6,4.5-4.4,4.5c-2.8,0-4.4-1.3-4.4-4.5
			V275.4z M488.1,279.4c0,0.9,0.7,1.4,1.6,1.4s1.6-0.5,1.6-1.4v-4.8c0-0.9-0.7-1.4-1.6-1.4s-1.6,0.5-1.6,1.4V279.4z"/>
		<path class="st0" d="M504,271.1V283h-2.7v-1.3c-1,0.9-1.9,1.6-3.1,1.6c-1.7,0-2.6-0.9-2.6-3.1v-9.1h2.8v8.8c0,0.8,0.3,1.3,1,1.3
			c0.6,0,1.2-0.5,1.8-1.1v-9H504z"/>
		<path class="st0" d="M506.1,269v-2.5h2.8v2.5H506.1z M508.9,271.1V283h-2.8v-11.9H508.9z"/>
		<path class="st0" d="M516.3,274.7c-0.4-1.1-1.1-1.6-1.9-1.6c-0.6,0-1.1,0.4-1.1,1.1c0,1.9,5.4,1.9,5.4,5.5c0,2.4-1.7,3.6-4,3.6
			c-1.7,0-3.1-0.4-4.5-3.4l2.5-0.7c0.2,1.1,0.9,1.9,2,1.9c0.8,0,1.3-0.4,1.3-1c0-2.3-5.4-1.7-5.4-5.8c0-2.2,1.8-3.3,3.8-3.3
			c2.1,0,3.5,1.2,4.2,3L516.3,274.7z"/>
		<path class="st0" d="M524.3,278.8L524.3,278.8l1.9-7.7h2.8l-3.2,11.9h-2.7l-3.2-11.9h2.8L524.3,278.8z"/>
		<path class="st0" d="M530.4,269v-2.5h2.8v2.5H530.4z M533.2,271.1V283h-2.8v-11.9H533.2z"/>
		<path class="st0" d="M535.6,267.2h2.8V283h-2.8V267.2z"/>
		<path class="st0" d="M540.8,267.2h2.8V283h-2.8V267.2z"/>
		<path class="st0" d="M548.3,277.7v1.6c0,1.2,0.7,1.7,1.6,1.7c1.2,0,1.6-0.7,1.6-1.7h2.8c-0.1,2.5-1.6,3.9-4.4,3.9
			c-2.6,0-4.4-1.6-4.4-4.2v-3.9c0-2.6,1.8-4.2,4.4-4.2c2.6,0,4.4,1.6,4.4,4v2.8H548.3z M551.5,275.5v-0.7c0-1-0.5-1.7-1.6-1.7
			s-1.6,0.7-1.6,1.7v0.7C548.3,275.5,551.5,275.5,551.5,275.5z"/>
	</g>
</g>
<g id="great_for_you">
</g>
<g id="dr._shep">
</g>
<g id="ge">
</g>
<g id="aha">
</g>
<g id="diamond">
</g>
<g id="brown_foreman">
</g>
<g id="masterbrand">
</g>
<g id="aristokraft">
</g>
<g id="decora">
</g>
<g id="gaither">
</g>
<g id="unbridled_eve">
</g>
<g id="papa_johns">
</g>
<g id="dr_jan">
</g>
<g id="lawn_pro">
</g>
<g id="goo">
</g>
<g id="b__x26__b">
</g>
<g id="mindy_smith">
</g>
<g id="tesseract">
</g>
<g id="grandparents.com">
</g>
<g id="ican">
</g>
<g id="my_well_being">
</g>
<g id="apple_patch">
</g>
</svg>
