<?xml version="1.0" encoding="utf-8"?>
<!-- Generator: Adobe Illustrator 17.1.0, SVG Export Plug-In . SVG Version: 6.00 Build 0)  -->
<!DOCTYPE svg PUBLIC "-//W3C//DTD SVG 1.1//EN" "http://www.w3.org/Graphics/SVG/1.1/DTD/svg11.dtd">
<svg version="1.1" id="Layer_1" xmlns="http://www.w3.org/2000/svg" xmlns:xlink="http://www.w3.org/1999/xlink" x="0px" y="0px"
	 width="150px" height="44.5px" viewBox="405.2 257.8 150 44.5" style="enable-background:new 405.2 257.8 150 44.5;"
	 xml:space="preserve" preserveAspectRatio="XminYmin none">
<style type="text/css">
	.st0{fill:#1a1a10;}
</style>
<g id="humana">
</g>
<g id="humana_vitality">
</g>
<g id="jencare">
	<g>
		<g>
			<polygon class="st0" points="439.9,290.3 440.6,290.3 443,293.7 443,293.7 443,290.3 443.6,290.3 443.6,294.5 442.8,294.5 
				440.5,291 440.5,291 440.5,294.5 439.9,294.5 			"/>
			<polygon class="st0" points="444.8,290.3 447.5,290.3 447.5,290.8 445.4,290.8 445.4,292 447.4,292 447.4,292.6 445.4,292.6 
				445.4,294 447.7,294 447.7,294.5 444.8,294.5 			"/>
			<g>
				<path class="st0" d="M454.1,292.1v2.1c-0.1,0-0.2,0.1-0.3,0.1s-0.2,0.1-0.4,0.1c-0.1,0-0.3,0-0.4,0.1c-0.1,0-0.3,0-0.4,0
					c-0.3,0-0.7,0-0.9-0.2c-0.3-0.1-0.5-0.3-0.7-0.5c-0.2-0.2-0.3-0.4-0.4-0.7c-0.1-0.2-0.1-0.5-0.1-0.8s0-0.6,0.1-0.9
					c0.1-0.2,0.2-0.5,0.4-0.7c0.2-0.2,0.4-0.3,0.7-0.4c0.2-0.1,0.5-0.1,0.9-0.1c0.4,0,0.7,0,0.9,0.1c0.2,0.1,0.4,0.2,0.6,0.4
					l-0.4,0.4c-0.2-0.1-0.3-0.3-0.5-0.3c-0.2,0-0.4-0.1-0.6-0.1c-0.2,0-0.4,0-0.6,0.1c-0.2,0.1-0.3,0.2-0.5,0.3s-0.2,0.3-0.3,0.5
					c-0.1,0.2-0.1,0.4-0.1,0.6c0,0.2,0,0.4,0.1,0.6c0.1,0.2,0.2,0.4,0.3,0.5s0.3,0.2,0.5,0.3c0.2,0.1,0.4,0.1,0.6,0.1
					c0.2,0,0.4,0,0.6,0c0.2,0,0.3-0.1,0.4-0.1v-1.2h-0.9v-0.5H454.1z"/>
				<polygon class="st0" points="455.2,290.3 455.8,290.3 455.8,292 458,292 458,290.3 458.6,290.3 458.6,294.5 458,294.5 
					458,292.5 455.8,292.5 455.8,294.5 455.2,294.5 				"/>
				<path class="st0" d="M459.8,290.3h1.5c0.2,0,0.3,0,0.5,0c0.1,0,0.3,0.1,0.4,0.2s0.2,0.2,0.2,0.3c0,0.1,0.1,0.3,0.1,0.4
					c0,0.2,0,0.4-0.2,0.6s-0.3,0.2-0.5,0.3l0,0c0.1,0,0.2,0,0.3,0.1c0.1,0,0.2,0.1,0.3,0.2s0.1,0.2,0.2,0.3c0,0.1,0,0.2,0,0.4
					c0,0.2,0,0.3-0.1,0.5c-0.1,0.1-0.2,0.2-0.3,0.3c-0.1,0.1-0.3,0.2-0.5,0.2c-0.2,0-0.4,0.1-0.6,0.1h-1.4L459.8,290.3L459.8,290.3z
					 M460.4,292h0.8c0.1,0,0.2,0,0.3,0c0.1,0,0.2,0,0.2-0.1c0,0,0.1-0.1,0.1-0.2c0-0.1,0-0.2,0-0.3c0-0.1,0-0.3-0.1-0.4
					c-0.1-0.1-0.3-0.2-0.5-0.2h-0.9V292L460.4,292z M460.4,294h0.8c0.1,0,0.2,0,0.3,0c0.1,0,0.2,0,0.3-0.1c0.1,0,0.1-0.1,0.2-0.2
					c0-0.1,0.1-0.2,0.1-0.3c0-0.2-0.1-0.4-0.2-0.5c-0.1-0.1-0.4-0.2-0.6-0.2h-0.8L460.4,294L460.4,294z"/>
				<path class="st0" d="M465.7,294.6c-0.3,0-0.6,0-0.9-0.1c-0.2-0.1-0.5-0.2-0.7-0.4c-0.2-0.2-0.3-0.4-0.4-0.7
					c-0.1-0.2-0.1-0.5-0.1-0.9c0-0.3,0-0.6,0.1-0.9c0.1-0.2,0.2-0.5,0.4-0.7c0.2-0.2,0.4-0.3,0.7-0.4c0.2-0.1,0.5-0.1,0.9-0.1
					c0.3,0,0.6,0,0.9,0.1c0.2,0.1,0.5,0.2,0.7,0.4c0.2,0.2,0.3,0.4,0.4,0.7c0.1,0.2,0.1,0.5,0.1,0.9c0,0.3,0,0.6-0.1,0.9
					c-0.1,0.2-0.2,0.5-0.4,0.7c-0.2,0.2-0.4,0.3-0.7,0.4C466.3,294.5,466,294.6,465.7,294.6 M465.7,294.1c0.2,0,0.4,0,0.6-0.1
					c0.2-0.1,0.3-0.2,0.5-0.3s0.2-0.3,0.3-0.5c0.1-0.2,0.1-0.4,0.1-0.6c0-0.2,0-0.4-0.1-0.6c-0.1-0.2-0.2-0.4-0.3-0.5
					s-0.3-0.3-0.5-0.3c-0.2-0.1-0.4-0.1-0.6-0.1c-0.2,0-0.4,0-0.6,0.1c-0.2,0.1-0.3,0.2-0.5,0.3s-0.2,0.3-0.3,0.5
					c-0.1,0.2-0.1,0.4-0.1,0.6c0,0.2,0,0.4,0.1,0.6c0.1,0.2,0.2,0.4,0.3,0.5s0.3,0.2,0.5,0.3C465.2,294,465.4,294.1,465.7,294.1"/>
				<path class="st0" d="M468.9,290.3h1.5c0.2,0,0.5,0,0.7,0.1c0.2,0,0.3,0.1,0.4,0.3c0.1,0.1,0.1,0.2,0.2,0.4c0,0.1,0,0.3,0,0.4
					c0,0.1,0,0.2,0,0.4c0,0.1-0.1,0.2-0.2,0.3s-0.2,0.2-0.3,0.2s-0.3,0.1-0.4,0.1l1.2,1.9h-0.7l-1.1-1.9h-0.6v1.9h-0.6L468.9,290.3
					L468.9,290.3z M469.4,292.1h0.7c0.1,0,0.2,0,0.3,0c0.1,0,0.2,0,0.3-0.1c0.1,0,0.1-0.1,0.2-0.2s0.1-0.2,0.1-0.3s0-0.2-0.1-0.3
					c0-0.1-0.1-0.1-0.2-0.2c-0.1,0-0.2-0.1-0.3-0.1c-0.1,0-0.2,0-0.3,0h-0.7V292.1z"/>
				<polygon class="st0" points="472.7,290.3 473.3,290.3 473.3,292 475.4,292 475.4,290.3 476,290.3 476,294.5 475.4,294.5 
					475.4,292.5 473.3,292.5 473.3,294.5 472.7,294.5 				"/>
				<path class="st0" d="M479.2,294.6c-0.3,0-0.6,0-0.9-0.1c-0.2-0.1-0.5-0.2-0.7-0.4c-0.2-0.2-0.3-0.4-0.4-0.7
					c-0.1-0.2-0.1-0.5-0.1-0.9c0-0.3,0-0.6,0.1-0.9c0.1-0.2,0.2-0.5,0.4-0.7c0.2-0.2,0.4-0.3,0.7-0.4c0.2-0.1,0.5-0.1,0.9-0.1
					c0.3,0,0.6,0,0.9,0.1c0.2,0.1,0.5,0.2,0.7,0.4c0.2,0.2,0.3,0.4,0.4,0.7c0.1,0.2,0.1,0.5,0.1,0.9c0,0.3,0,0.6-0.1,0.9
					c-0.1,0.2-0.2,0.5-0.4,0.7c-0.2,0.2-0.4,0.3-0.7,0.4C479.8,294.5,479.5,294.6,479.2,294.6 M479.2,294.1c0.2,0,0.4,0,0.6-0.1
					c0.2-0.1,0.3-0.2,0.5-0.3s0.2-0.3,0.3-0.5c0.1-0.2,0.1-0.4,0.1-0.6c0-0.2,0-0.4-0.1-0.6c-0.1-0.2-0.2-0.4-0.3-0.5
					s-0.3-0.3-0.5-0.3c-0.2-0.1-0.4-0.1-0.6-0.1s-0.4,0-0.6,0.1c-0.2,0.1-0.3,0.2-0.5,0.3s-0.2,0.3-0.3,0.5s-0.1,0.4-0.1,0.6
					c0,0.2,0,0.4,0.1,0.6c0.1,0.2,0.2,0.4,0.3,0.5s0.3,0.2,0.5,0.3C478.7,294,478.9,294.1,479.2,294.1"/>
				<path class="st0" d="M484.3,294.6c-0.3,0-0.6,0-0.9-0.1c-0.2-0.1-0.5-0.2-0.7-0.4c-0.2-0.2-0.3-0.4-0.4-0.7
					c-0.1-0.2-0.1-0.5-0.1-0.9c0-0.3,0-0.6,0.1-0.9c0.1-0.2,0.2-0.5,0.4-0.7c0.2-0.2,0.4-0.3,0.7-0.4c0.2-0.1,0.5-0.1,0.9-0.1
					c0.3,0,0.6,0,0.9,0.1c0.2,0.1,0.5,0.2,0.7,0.4c0.2,0.2,0.3,0.4,0.4,0.7c0.1,0.2,0.1,0.5,0.1,0.9c0,0.3,0,0.6-0.1,0.9
					c-0.1,0.2-0.2,0.5-0.4,0.7c-0.2,0.2-0.4,0.3-0.7,0.4C484.9,294.5,484.6,294.6,484.3,294.6 M484.3,294.1c0.2,0,0.4,0,0.6-0.1
					c0.2-0.1,0.3-0.2,0.5-0.3s0.2-0.3,0.3-0.5c0.1-0.2,0.1-0.4,0.1-0.6c0-0.2,0-0.4-0.1-0.6c-0.1-0.2-0.2-0.4-0.3-0.5
					s-0.3-0.3-0.5-0.3c-0.2-0.1-0.4-0.1-0.6-0.1c-0.2,0-0.4,0-0.6,0.1c-0.2,0.1-0.3,0.2-0.5,0.3s-0.2,0.3-0.3,0.5s-0.1,0.4-0.1,0.6
					c0,0.2,0,0.4,0.1,0.6c0.1,0.2,0.2,0.4,0.3,0.5s0.3,0.2,0.5,0.3C483.8,294,484.1,294.1,484.3,294.1"/>
				<path class="st0" d="M487.4,290.3h1.5c0.3,0,0.5,0,0.8,0.1c0.2,0,0.4,0.1,0.6,0.2s0.3,0.2,0.4,0.4c0.1,0.1,0.2,0.3,0.2,0.4
					c0,0.1,0.1,0.3,0.1,0.4c0,0.1,0,0.3,0,0.4c0,0.2,0,0.5-0.1,0.8c-0.1,0.2-0.2,0.5-0.4,0.7c-0.2,0.2-0.4,0.3-0.7,0.5
					c-0.3,0.1-0.6,0.2-1,0.2h-1.4V290.3L487.4,290.3z M488,294h0.7c0.2,0,0.5,0,0.7-0.1c0.2,0,0.4-0.1,0.6-0.3
					c0.1-0.1,0.3-0.3,0.4-0.5c0.1-0.2,0.1-0.4,0.1-0.7c0-0.1,0-0.3,0-0.5c0-0.2-0.1-0.3-0.2-0.5c-0.1-0.1-0.3-0.3-0.5-0.4
					c-0.2-0.1-0.5-0.1-0.8-0.1h-0.8L488,294L488,294z"/>
				<polygon class="st0" points="493.8,290.3 494.7,290.3 496.1,293.5 496.1,293.5 497.4,290.3 498.2,290.3 498.2,294.5 
					497.7,294.5 497.7,291 497.7,291 496.3,294.5 495.9,294.5 494.4,291 494.4,291 494.4,294.5 493.8,294.5 				"/>
				<polygon class="st0" points="499.5,290.3 502.2,290.3 502.2,290.8 500,290.8 500,292 502.1,292 502.1,292.6 500,292.6 500,294 
					502.3,294 502.3,294.5 499.5,294.5 				"/>
				<path class="st0" d="M503.1,290.3h1.5c0.3,0,0.5,0,0.8,0.1s0.4,0.1,0.6,0.2c0.2,0.1,0.3,0.2,0.4,0.4s0.2,0.3,0.2,0.4
					s0.1,0.3,0.1,0.4s0,0.3,0,0.4c0,0.2,0,0.5-0.1,0.8s-0.2,0.5-0.4,0.7c-0.2,0.2-0.4,0.3-0.7,0.5c-0.3,0.1-0.6,0.2-1,0.2h-1.4
					V290.3z M503.7,294h0.7c0.2,0,0.5,0,0.7-0.1c0.2,0,0.4-0.1,0.6-0.3c0.1-0.1,0.3-0.3,0.4-0.5c0.1-0.2,0.1-0.4,0.1-0.7
					c0-0.1,0-0.3,0-0.5s-0.1-0.3-0.2-0.5c-0.1-0.1-0.3-0.3-0.5-0.4c-0.2-0.1-0.5-0.1-0.8-0.1h-0.8L503.7,294L503.7,294z"/>
				<rect x="507.8" y="290.3" class="st0" width="0.6" height="4.3"/>
				<path class="st0" d="M512.6,291.2c-0.1-0.1-0.2-0.3-0.4-0.3c-0.2-0.1-0.4-0.1-0.5-0.1c-0.2,0-0.4,0-0.6,0.1
					c-0.2,0.1-0.3,0.2-0.5,0.3c-0.1,0.1-0.2,0.3-0.3,0.5c-0.1,0.2-0.1,0.4-0.1,0.7c0,0.2,0,0.4,0.1,0.6c0,0.2,0.2,0.4,0.3,0.5
					c0.1,0.1,0.3,0.2,0.5,0.3c0.2,0.1,0.4,0.1,0.6,0.1c0.2,0,0.4,0,0.6-0.1c0.2-0.1,0.3-0.2,0.4-0.4l0.5,0.3c0,0-0.1,0.1-0.1,0.2
					c-0.1,0.1-0.2,0.1-0.3,0.2c-0.1,0.1-0.3,0.1-0.5,0.2s-0.4,0.1-0.6,0.1c-0.3,0-0.6,0-0.9-0.2c-0.2-0.1-0.5-0.3-0.7-0.5
					c-0.2-0.2-0.3-0.4-0.4-0.7s-0.1-0.5-0.1-0.8c0-0.3,0-0.6,0.1-0.9c0.1-0.3,0.2-0.5,0.4-0.7c0.2-0.2,0.4-0.3,0.7-0.4
					c0.2-0.1,0.6-0.1,0.9-0.1s0.5,0,0.8,0.1c0.2,0.1,0.5,0.3,0.6,0.5L512.6,291.2z"/>
				<path class="st0" d="M515.4,290.3h0.5l1.8,4.3H517l-0.4-1h-2l-0.4,1h-0.7L515.4,290.3z M516.4,292.9l-0.8-1.9l0,0l-0.8,1.9
					H516.4z"/>
				<polygon class="st0" points="518.4,290.3 518.9,290.3 518.9,294 520.9,294 520.9,294.5 518.4,294.5 				"/>
				<path class="st0" d="M526.4,291.2c-0.1-0.1-0.2-0.3-0.4-0.3c-0.2-0.1-0.4-0.1-0.5-0.1c-0.2,0-0.4,0-0.6,0.1
					c-0.2,0.1-0.3,0.2-0.5,0.3c-0.1,0.1-0.2,0.3-0.3,0.5c-0.1,0.2-0.1,0.4-0.1,0.7c0,0.2,0,0.4,0.1,0.6c0,0.2,0.2,0.4,0.3,0.5
					c0.1,0.1,0.3,0.2,0.5,0.3c0.2,0.1,0.4,0.1,0.6,0.1c0.2,0,0.4,0,0.6-0.1c0.2-0.1,0.3-0.2,0.4-0.4l0.5,0.3c0,0-0.1,0.1-0.1,0.2
					c-0.1,0.1-0.2,0.1-0.3,0.2c-0.1,0.1-0.3,0.1-0.5,0.2s-0.4,0.1-0.6,0.1c-0.3,0-0.6,0-0.9-0.2c-0.2-0.1-0.5-0.3-0.7-0.5
					c-0.2-0.2-0.3-0.4-0.4-0.7c-0.1-0.2-0.1-0.5-0.1-0.8c0-0.3,0-0.6,0.1-0.9c0.1-0.3,0.2-0.5,0.4-0.7c0.2-0.2,0.4-0.3,0.7-0.4
					c0.2-0.1,0.6-0.1,0.9-0.1s0.5,0,0.8,0.1c0.2,0.1,0.5,0.3,0.6,0.5L526.4,291.2z"/>
				<polygon class="st0" points="527.8,290.3 530.6,290.3 530.6,290.8 528.4,290.8 528.4,292 530.4,292 530.4,292.6 528.4,292.6 
					528.4,294 530.7,294 530.7,294.5 527.8,294.5 				"/>
				<polygon class="st0" points="531.6,290.3 532.3,290.3 534.7,293.7 534.7,293.7 534.7,290.3 535.3,290.3 535.3,294.5 
					534.6,294.5 532.2,291 532.2,291 532.2,294.5 531.6,294.5 				"/>
				<polygon class="st0" points="537.4,290.8 536.1,290.8 536.1,290.3 539.4,290.3 539.4,290.8 538,290.8 538,294.5 537.4,294.5 
									"/>
				<polygon class="st0" points="540.1,290.3 542.8,290.3 542.8,290.8 540.7,290.8 540.7,292 542.7,292 542.7,292.6 540.7,292.6 
					540.7,294 542.9,294 542.9,294.5 540.1,294.5 				"/>
				<path class="st0" d="M543.9,290.3h1.5c0.2,0,0.5,0,0.7,0.1s0.3,0.1,0.4,0.3c0.1,0.1,0.1,0.2,0.2,0.4c0,0.1,0,0.3,0,0.4
					c0,0.1,0,0.2,0,0.4c0,0.1-0.1,0.2-0.2,0.3s-0.2,0.2-0.3,0.2c-0.1,0-0.3,0.1-0.4,0.1l1.2,1.9h-0.7l-1.1-1.9h-0.6v1.9h-0.6
					L543.9,290.3L543.9,290.3z M544.5,292.1h0.7c0.1,0,0.2,0,0.3,0c0.1,0,0.2,0,0.3-0.1c0.1,0,0.1-0.1,0.2-0.2s0.1-0.2,0.1-0.3
					s0-0.2-0.1-0.3s-0.1-0.1-0.2-0.2c-0.1,0-0.2-0.1-0.3-0.1s-0.2,0-0.3,0h-0.7V292.1z"/>
				<path class="st0" d="M547.8,293.6c0.1,0.1,0.2,0.2,0.4,0.3c0.1,0,0.3,0.1,0.5,0.1c0.1,0,0.2,0,0.3,0c0.1,0,0.2-0.1,0.2-0.1
					c0.1,0,0.1-0.1,0.2-0.2c0-0.1,0.1-0.2,0.1-0.3c0-0.1,0-0.3-0.1-0.4c-0.1-0.1-0.2-0.1-0.4-0.2c-0.1,0-0.3-0.1-0.5-0.1
					c-0.2,0-0.3-0.1-0.5-0.2s-0.3-0.2-0.4-0.4c-0.1-0.1-0.1-0.4-0.1-0.6c0-0.1,0-0.2,0.1-0.4s0.1-0.2,0.2-0.4
					c0.1-0.1,0.2-0.2,0.4-0.3c0.2-0.1,0.4-0.1,0.6-0.1s0.4,0,0.6,0.1c0.2,0,0.4,0.2,0.5,0.4l-0.4,0.4c0-0.1-0.2-0.2-0.3-0.2
					c-0.1,0-0.3-0.1-0.4-0.1s-0.3,0-0.4,0c-0.1,0-0.2,0.1-0.2,0.1c0,0-0.1,0.1-0.1,0.2c0,0.1,0,0.1,0,0.2c0,0.2,0,0.3,0.1,0.4
					c0.1,0.1,0.2,0.2,0.4,0.2c0.1,0,0.3,0.1,0.5,0.1s0.3,0.1,0.5,0.2c0.1,0.1,0.3,0.2,0.4,0.3s0.1,0.3,0.1,0.6c0,0.2,0,0.4-0.1,0.5
					c-0.1,0.1-0.2,0.3-0.3,0.4c-0.1,0.1-0.3,0.2-0.4,0.2c-0.2,0-0.3,0.1-0.6,0.1s-0.5,0-0.8-0.1c-0.2-0.1-0.4-0.2-0.6-0.4
					L547.8,293.6z"/>
				<path class="st0" d="M551.4,285c0-1.1,0.8-2,1.9-2s1.9,0.8,1.9,2c0,1.1-0.8,2-1.9,2S551.4,286.2,551.4,285 M554.7,285
					c0-0.9-0.6-1.6-1.5-1.6s-1.5,0.6-1.5,1.6c0,0.9,0.6,1.6,1.5,1.6S554.7,286,554.7,285 M552.5,284h0.7c0.4,0,0.8,0.1,0.8,0.6
					c0,0.2-0.1,0.4-0.3,0.5l0.4,0.8h-0.4l-0.3-0.7H553v0.7h-0.4L552.5,284L552.5,284z M553.2,285c0.2,0,0.4-0.1,0.4-0.3
					c0-0.2-0.1-0.3-0.4-0.3h-0.3v0.6L553.2,285L553.2,285z"/>
				<path class="st0" d="M454.6,285.1L454.6,285.1C454.5,285.1,454.5,285.1,454.6,285.1"/>
				<path class="st0" d="M546.7,281.5h3.2c-0.4,1.8-1.4,3.2-2.7,4.1c-1.3,1-3,1.5-5,1.5c-2.4,0-4.3-0.8-5.7-2.4
					c-1.4-1.5-2-3.7-2-6.6c0-2.7,0.6-4.8,2-6.4c1.4-1.6,3.3-2.4,5.7-2.4c2.6,0,4.6,0.7,5.9,2.3c1.4,1.6,2,3.8,2,6.6v0.4v0.2v0.4
					h-11.1c0,1.3,0.3,2.3,0.9,2.9c0.5,0.7,1.4,1,2.5,1c0.7,0,1.3-0.1,1.8-0.4c0.4-0.2,0.9-0.9,1.2-1.1
					C545.9,281.5,546.3,281.5,546.7,281.5 M539.1,276.5h6.5c-0.1-1.1-0.4-2-0.9-2.6c-0.5-0.6-1.3-0.9-2.4-0.9
					c-0.9,0-1.7,0.3-2.3,0.9C539.5,274.5,539.2,275.4,539.1,276.5"/>
				<path class="st0" d="M466.3,281.5h3.2c-0.4,1.8-1.4,3.2-2.7,4.1c-1.3,1-3,1.5-5,1.5c-2.4,0-4.3-0.8-5.7-2.4
					c-1.4-1.5-2-3.7-2-6.6c0-2.7,0.6-4.8,2-6.4c1.4-1.6,3.3-2.4,5.7-2.4c2.6,0,4.6,0.7,5.9,2.3c1.4,1.6,2,3.8,2,6.6v0.4v0.2v0.4
					h-11.1c0,1.3,0.3,2.3,0.9,2.9c0.5,0.7,1.4,1,2.5,1c0.7,0,1.3-0.1,1.8-0.4c0.4-0.2,0.9-0.9,1.2-1.1
					C465.3,281.5,465.7,281.5,466.3,281.5 M458.6,276.5h6.5c-0.1-1.1-0.4-2-0.9-2.6c-0.5-0.6-1.3-0.9-2.4-0.9
					c-0.9,0-1.7,0.3-2.3,0.9C459,274.5,458.7,275.4,458.6,276.5"/>
				<path class="st0" d="M486,286.7h-2.2c-0.6,0-1.1-0.2-1.6-0.6c-0.4-0.4-0.6-0.9-0.6-1.6v-8.7c0-1-0.3-1.8-0.9-2.2
					c-0.6-0.4-1.3-0.7-2.1-0.7c-0.7,0-1.4,0.2-2,0.7s-0.9,1.2-0.9,2.2v10.8h-4.5v-9.9c0-2.9,0.7-4.8,2.3-5.8c1.5-1,3.2-1.5,5-1.6
					c1.9,0,3.6,0.5,5.1,1.5c1.6,1,2.4,3,2.4,5.9V286.7L486,286.7z"/>
				<path class="st0" d="M520.2,286c-0.9,0.5-1.8,0.8-2.8,0.9c-1,0.1-1.9,0.1-2.7,0.1c-1.5,0-2.9-0.4-4-1.2s-1.7-2.2-1.7-4.1
					c0-1.8,0.5-3.1,1.6-3.8c1-0.7,2.4-1.3,4-1.5c0,0,0.9-0.1,1.8-0.2c1.9-0.2,2.8-0.8,2.8-1.7c0-0.6-0.3-1-1-1.2
					c-0.6-0.2-1.3-0.3-1.8-0.3c-0.6,0-1.1,0.1-1.6,0.2s-0.8,0.5-1,0.9h-4.3c0.1-1.3,0.7-2.4,1.8-3.3c1.1-1,2.8-1.5,4.9-1.5
					c2.4,0,4.2,0.4,5.3,1.2c1.2,0.8,1.8,2,1.8,3.6v5.8c0,1.7-0.3,3-0.9,4C521.8,284.9,521,285.5,520.2,286 M519.2,278.1
					c-0.6,0.3-1.4,0.6-2.5,0.8l-1.5,0.3c-0.7,0.2-1.3,0.3-1.7,0.8c-0.3,0.4-0.4,0.9-0.4,1.4c0,0.6,0.2,1.1,0.6,1.5
					c0.4,0.3,0.9,0.5,1.7,0.5c1.2,0,2.1-0.3,2.8-1c0.7-0.7,1-1.6,1-2.8L519.2,278.1L519.2,278.1z"/>
				<path class="st0" d="M524.5,286.7v-8.4c0-1.7,0.2-3.1,0.7-4.3s1.2-2.1,2.1-2.8c0.8-0.6,1.8-1.1,2.9-1.4c1.1-0.3,2.3-0.4,3.4-0.4
					h0.3h0.3v4.7h-1.5c-1.3,0-2.2,0.3-2.8,0.9c-0.6,0.6-0.9,1.6-0.9,2.9v9L524.5,286.7L524.5,286.7z"/>
				<path class="st0" d="M452.6,265.6v-1.4c0,0-7.6,0-7.6,0h-0.1v2.6v2.1h3c0,3,0.1,6.2,0,9.1c-0.1,2.2-1.2,3.4-3.4,3.8
					c-1.5,0.2-3,0.3-4.5,0.4v4.8c2.1-0.2,3.5-0.2,5.6-0.6c4.4-0.8,6.9-3.7,7.1-7.9C452.7,274,452.6,270,452.6,265.6"/>
			</g>
			<g>
				<path class="st0" d="M493.3,275.5c0-5.1,2.5-8,7-8c0.3,0,0.6,0,0.9,0c0.2,0,0.4,0,0.7,0.1h0.1c0.1,0,2.6,0.4,3,0.8
					c0.3,0.5,1,0.6,1.9,0.6h0.2v-3.5c-1.9-0.9-3.8-1.4-7.1-1.4c-7.4,0-12.2,4.6-12.2,11.5c0,7,4.5,11.4,11.8,11.4
					c3.1,0,5.8-0.7,7.8-2.1v-3.5H506c-1.3,1.2-3,2.3-6.1,2.3C495.5,283.8,493.3,281.1,493.3,275.5"/>
				<path class="st0" d="M414.2,286.7c7.4,2.8,16.3-0.8,19.1-8.3s-0.9-15.7-9-18.7c-1.6-0.6-3.2-0.9-4.8-0.9l0.4-1
					c2.3-0.2,4.7,0,7,0.9c9.6,3.6,13.4,13.1,10.4,21.1c-3.1,8.1-12.2,12.8-21.7,9.3c-2.3-0.8-4.3-2.2-5.9-3.9l0.4-1
					C411.1,285.2,412.6,286.1,414.2,286.7"/>
			</g>
			<g>
				<path class="st0" d="M415.1,269.6c1.4,0,2.5-1.1,2.5-2.5s-1.1-2.5-2.5-2.5s-2.5,1.1-2.5,2.5S413.7,269.6,415.1,269.6"/>
				<path class="st0" d="M428.3,269.6c1.4,0,2.5-1.1,2.5-2.5s-1.1-2.5-2.5-2.5s-2.5,1.1-2.5,2.5S426.9,269.6,428.3,269.6
					 M428.3,265.2c1.1,0,1.9,0.9,1.9,1.9c0,1-0.9,1.9-1.9,1.9c-1.1,0-1.9-0.9-1.9-1.9C426.4,266.1,427.3,265.2,428.3,265.2"/>
				<path class="st0" d="M428.3,270.4c-1,0-2-0.5-2.6-1.3l-0.9,0.7l-3.1,2.6l-4.3-3.4c-0.6,0.8-1.5,1.3-2.6,1.3c-1,0-2-0.5-2.6-1.3
					c-0.7,0.8-1.7,1.5-1.7,4.2c0,5,3.1,8.3,7.6,9.8l0.1,0v-6.8l3.3,1.1l3.3-1v6.8l0,0l0.1,0c3.3-1.1,5.8-3.1,6.9-6
					c0.4-1.1,0.7-2.4,0.7-3.8c0-1.4-0.3-2.3-0.7-3c-0.3-0.5-0.7-0.8-1-1.2C430.3,269.9,429.4,270.4,428.3,270.4 M428.3,270.9
					c0.4,0,0.9-0.1,1.3-0.2c0,0.2,0,0.4,0,0.7c0,0.7-1,1.2-1.3,1.3c-0.3-0.1-1.3-0.6-1.3-1.3c0-0.2,0-0.4,0-0.7
					C427.4,270.8,427.9,270.9,428.3,270.9 M431.9,271.7c0.1,0.4,0.1,0.9,0.1,1.5c0,0.6,0,1.2-0.1,1.8c-0.2,1.5-0.9,2.9-1.8,4.1
					c-1.1,1.3-2.7,2.4-4.7,3.2v-6.1v-0.7l-0.1,0l0.1-0.1l-0.5-0.4l-2.7-2.1l2.7-2.3l0.8-0.7c0.2,0.2,0.5,0.4,0.8,0.6
					c0,0.3,0,0.7,0,0.9c0,1,1.1,1.6,1.5,1.8v2.9c0,0.3-0.2,0.5-0.5,0.5c-0.3,0-0.5-0.2-0.5-0.5v-0.9c0.2-0.1,0.4-0.4,0.4-0.7
					c0-0.4-0.3-0.7-0.7-0.7c-0.4,0-0.7,0.3-0.7,0.7c0,0.3,0.2,0.6,0.4,0.7v0.9c0,0.6,0.5,1.1,1.1,1.1s1.1-0.5,1.1-1.1v-2.9
					c0.4-0.2,1.5-0.8,1.5-1.8c0-0.3,0-0.6,0-0.9c0.2-0.1,0.5-0.3,0.7-0.5C431.3,270.3,431.7,270.8,431.9,271.7"/>
				<path class="st0" d="M424.4,283.7c0,0-1.1,1-4,1h0.4c-6.5,0-11.7-5.2-11.7-11.7c0-6.3,4.4-11.4,11.1-11.7c2.9,0,4,1,4,1h0.6V262
					v-0.8c-1.7-0.8-3.6-1.3-5.6-1.3c-8.3,0-14,6.1-14,13.2s5.7,13.2,14,13.2c2,0,3.9-0.5,5.6-1.3l0,0h0.2v-1.2H424.4z"/>
				<rect x="439.5" y="299.7" class="st0" width="28.1" height="0.3"/>
				<rect x="522.5" y="299.7" class="st0" width="27.7" height="0.3"/>
				<path class="st0" d="M471.4,297.7h-0.3l-1.5,3.3h0.4l0.4-0.8h1.8l0.4,0.8h0.4L471.4,297.7z M471.3,298.1l0.7,1.7h-1.5
					L471.3,298.1z"/>
				<path class="st0" d="M477.4,300.5c-0.1,0-0.1,0.1-0.2,0.1c-0.1,0-0.2,0-0.2,0.1c-0.1,0-0.2,0-0.3,0c-0.2,0-0.4,0-0.6-0.1
					c-0.2-0.1-0.3-0.2-0.4-0.3c-0.1-0.1-0.2-0.3-0.3-0.4c0-0.1-0.1-0.3-0.1-0.5c0-0.2,0-0.3,0.1-0.5c0-0.1,0.1-0.3,0.3-0.4
					c0.1-0.1,0.3-0.2,0.4-0.3c0.2-0.1,0.4-0.1,0.6-0.1c0.1,0,0.2,0,0.3,0c0.1,0,0.2,0,0.2,0.1c0.1,0,0.1,0.1,0.2,0.1
					c0,0,0.1,0.1,0.1,0.1l0.3-0.2c-0.1-0.2-0.3-0.3-0.5-0.4c-0.2-0.1-0.4-0.1-0.6-0.1c-0.2,0-0.5,0-0.7,0.1
					c-0.2,0.1-0.4,0.2-0.6,0.3c-0.1,0.1-0.3,0.3-0.4,0.5s-0.1,0.4-0.1,0.7s0,0.5,0.1,0.7s0.2,0.4,0.4,0.5c0.1,0.1,0.3,0.2,0.6,0.3
					c0.2,0.1,0.4,0.1,0.7,0.1c0.1,0,0.3,0,0.4,0c0.1,0,0.2,0,0.3-0.1c0.1,0,0.2-0.1,0.3-0.2c0.1,0,0.1-0.1,0.2-0.2l-0.3-0.2
					C477.6,300.4,477.5,300.4,477.4,300.5"/>
				<path class="st0" d="M478.5,301h0.3v-1.1c0-0.2,0-0.3,0.1-0.4s0.1-0.2,0.2-0.2c0.1,0,0.1-0.1,0.2-0.1s0.1,0,0.1,0
					c0.2,0,0.4,0,0.5,0.2c0.1,0.1,0.1,0.3,0.1,0.5v1.2h0.3v-1.4c0-0.2,0-0.5-0.2-0.6c-0.1-0.1-0.3-0.2-0.6-0.2c-0.1,0-0.1,0-0.2,0
					c-0.1,0-0.1,0-0.2,0.1c0,0-0.1,0.1-0.2,0.1c0,0-0.1,0.1-0.1,0.1l0,0v-1.6v-0.1h-0.3v0.1L478.5,301L478.5,301z"/>
				<path class="st0" d="M482.9,300.6c-0.1,0.1-0.3,0.1-0.4,0.1c-0.1,0-0.2,0-0.3,0c-0.1,0-0.2-0.1-0.2-0.1c-0.1,0-0.1-0.1-0.2-0.2
					c0-0.1,0-0.2-0.1-0.3h1.9v-0.1c0-0.1,0-0.3,0-0.4c0-0.1-0.1-0.2-0.2-0.3c-0.1-0.1-0.2-0.2-0.3-0.2c-0.1,0-0.3-0.1-0.4-0.1
					s-0.3,0-0.4,0.1s-0.2,0.1-0.3,0.2c-0.1,0.1-0.2,0.2-0.2,0.3c0,0.1-0.1,0.3-0.1,0.4s0,0.3,0.1,0.4c0,0.1,0.1,0.2,0.2,0.3
					c0.1,0.1,0.2,0.2,0.4,0.2s0.3,0.1,0.5,0.1c0.2,0,0.3,0,0.5-0.1c0.1,0,0.3-0.2,0.4-0.3l-0.2-0.2
					C483.1,300.5,483,300.6,482.9,300.6 M481.7,299.5c0-0.1,0.1-0.1,0.2-0.2c0,0,0.1-0.1,0.2-0.1s0.2,0,0.3,0c0.2,0,0.4,0,0.5,0.2
					s0.2,0.3,0.2,0.5h-1.5C481.6,299.6,481.6,299.5,481.7,299.5"/>
				<path class="st0" d="M486.2,299.6c0-0.2,0-0.5-0.2-0.6s-0.3-0.2-0.6-0.2c-0.1,0-0.1,0-0.2,0c-0.1,0-0.1,0-0.2,0.1
					c0,0-0.1,0.1-0.2,0.1c0,0-0.1,0.1-0.1,0.1l0,0c0,0,0-0.1,0-0.2c0,0,0-0.1,0-0.2h-0.3c0,0.1,0,0.1,0,0.2c0,0.1,0,0.1,0,0.2v1.7
					h0.3v-1.1c0-0.2,0-0.3,0.1-0.4c0-0.1,0.1-0.2,0.2-0.2s0.1-0.1,0.2-0.1c0.1,0,0.1,0,0.1,0c0.2,0,0.4,0,0.5,0.2s0.1,0.3,0.1,0.5
					v1.2h0.3L486.2,299.6L486.2,299.6z"/>
				<polygon class="st0" points="490.6,297.7 490,297.7 488.9,300.4 487.7,297.7 487.2,297.7 487.2,301 487.5,301 487.5,298.1 
					487.5,298.1 488.8,301 489,301 490.2,298.1 490.2,298.1 490.2,301 490.6,301 				"/>
				<path class="st0" d="M493.1,300.6c-0.1,0.1-0.3,0.1-0.4,0.1c-0.1,0-0.2,0-0.3,0c-0.1,0-0.2-0.1-0.2-0.1c-0.1,0-0.1-0.1-0.2-0.2
					c0-0.1,0-0.2-0.1-0.3h1.9v-0.1c0-0.1,0-0.3,0-0.4c0-0.1-0.1-0.2-0.2-0.3c-0.1-0.1-0.2-0.2-0.3-0.2s-0.3-0.1-0.4-0.1
					s-0.3,0-0.4,0.1c-0.1,0-0.2,0.1-0.3,0.2c-0.1,0.1-0.2,0.2-0.2,0.3s-0.1,0.3-0.1,0.4s0,0.3,0.1,0.4c0,0.1,0.1,0.2,0.2,0.3
					s0.2,0.2,0.4,0.2s0.3,0.1,0.5,0.1c0.2,0,0.3,0,0.5-0.1c0.1,0,0.3-0.2,0.4-0.3l-0.2-0.2C493.3,300.5,493.2,300.6,493.1,300.6
					 M491.9,299.5c0-0.1,0.1-0.1,0.2-0.2c0,0,0.1-0.1,0.2-0.1c0.1,0,0.2,0,0.3,0c0.2,0,0.4,0,0.5,0.2s0.2,0.3,0.2,0.5h-1.6
					C491.8,299.6,491.8,299.5,491.9,299.5"/>
				<path class="st0" d="M496.4,299.2c0,0-0.1-0.1-0.2-0.2c0,0-0.1-0.1-0.2-0.1c-0.1,0-0.1,0-0.2,0c-0.1,0-0.1,0-0.2,0
					c-0.2,0-0.3,0-0.5,0.1c-0.1,0-0.3,0.1-0.4,0.2c-0.1,0.1-0.2,0.2-0.2,0.3c0,0.1-0.1,0.3-0.1,0.4s0,0.3,0.1,0.4
					c0,0.1,0.1,0.2,0.2,0.3c0.1,0.1,0.2,0.2,0.4,0.2c0.1,0,0.3,0.1,0.5,0.1c0.1,0,0.1,0,0.2,0c0.1,0,0.1,0,0.2,0
					c0.1,0,0.1-0.1,0.2-0.1c0,0,0.1-0.1,0.2-0.2l0,0v0.3h0.3v-3.4v-0.1h-0.3v0.1V299.2L496.4,299.2z M496.4,299.9c0,0.1,0,0.2,0,0.3
					c0,0.1-0.1,0.2-0.2,0.3s-0.2,0.1-0.3,0.2c-0.1,0-0.2,0-0.3,0c-0.1,0-0.2,0-0.3,0c-0.1,0-0.2-0.1-0.3-0.2
					c-0.1-0.1-0.1-0.1-0.2-0.3c0-0.1,0-0.2,0-0.3c0-0.1,0-0.2,0-0.3s0.1-0.2,0.2-0.3c0.1-0.1,0.1-0.1,0.3-0.2c0.1,0,0.2,0,0.3,0
					c0.1,0,0.2,0,0.3,0c0.1,0,0.2,0.1,0.3,0.2c0.1,0.1,0.1,0.1,0.2,0.3C496.4,299.6,496.4,299.8,496.4,299.9"/>
				<path class="st0" d="M501.5,300.5c-0.1,0-0.1,0.1-0.2,0.1c-0.1,0-0.2,0-0.2,0.1c-0.1,0-0.2,0-0.3,0c-0.2,0-0.4,0-0.6-0.1
					c-0.2-0.1-0.3-0.2-0.4-0.3c-0.1-0.1-0.2-0.3-0.3-0.4c0-0.1-0.1-0.3-0.1-0.5c0-0.2,0-0.3,0.1-0.5c0-0.1,0.1-0.3,0.3-0.4
					c0.1-0.1,0.3-0.2,0.4-0.3c0.2-0.1,0.4-0.1,0.6-0.1c0.1,0,0.2,0,0.3,0c0.1,0,0.2,0,0.2,0.1c0.1,0,0.1,0.1,0.2,0.1
					c0,0,0.1,0.1,0.1,0.1l0.3-0.2c-0.1-0.2-0.3-0.3-0.5-0.4c-0.2-0.1-0.4-0.1-0.6-0.1c-0.2,0-0.5,0-0.7,0.1
					c-0.2,0.1-0.4,0.2-0.6,0.3c-0.1,0.1-0.3,0.3-0.4,0.5s-0.1,0.4-0.1,0.7s0,0.5,0.1,0.7s0.2,0.4,0.4,0.5c0.1,0.1,0.3,0.2,0.6,0.3
					c0.2,0.1,0.4,0.1,0.7,0.1c0.1,0,0.3,0,0.4,0c0.1,0,0.2,0,0.3-0.1c0.1,0,0.2-0.1,0.3-0.2c0.1,0,0.1-0.1,0.2-0.2l-0.3-0.2
					C501.6,300.4,501.6,300.4,501.5,300.5"/>
				<path class="st0" d="M504.9,299.9c0-0.1,0-0.3-0.1-0.4c0-0.1-0.1-0.2-0.2-0.3c-0.1-0.1-0.2-0.2-0.4-0.2s-0.3-0.1-0.5-0.1
					c-0.2,0-0.3,0-0.5,0.1s-0.3,0.1-0.4,0.2c-0.1,0.1-0.2,0.2-0.2,0.3s-0.1,0.3-0.1,0.4s0,0.3,0.1,0.4c0,0.1,0.1,0.2,0.2,0.3
					s0.2,0.2,0.4,0.2s0.3,0.1,0.5,0.1c0.2,0,0.3,0,0.5-0.1s0.3-0.1,0.4-0.2c0.1-0.1,0.2-0.2,0.2-0.3
					C504.9,300.2,504.9,300,504.9,299.9 M504.3,300.5c-0.1,0.1-0.1,0.1-0.2,0.2c-0.1,0-0.2,0-0.3,0c-0.1,0-0.2,0-0.3,0
					c-0.1,0-0.2-0.1-0.2-0.2s-0.1-0.1-0.1-0.3c0-0.1,0-0.2,0-0.3c0-0.1,0-0.2,0-0.3s0.1-0.2,0.1-0.3c0-0.1,0.1-0.1,0.2-0.2
					c0.1,0,0.2,0,0.3,0c0.1,0,0.2,0,0.3,0c0.1,0,0.2,0.1,0.2,0.2c0.1,0.1,0.1,0.1,0.2,0.3c0,0.1,0,0.2,0,0.3c0,0.1,0,0.2,0,0.3
					S504.4,300.4,504.3,300.5"/>
				<path class="st0" d="M508.8,299c-0.1-0.1-0.3-0.2-0.6-0.2c-0.1,0-0.3,0-0.4,0.1c-0.1,0.1-0.2,0.2-0.3,0.3c0-0.1-0.1-0.1-0.1-0.2
					c0,0-0.1-0.1-0.2-0.1c0,0-0.1,0-0.2,0c0,0-0.1,0-0.2,0c-0.1,0-0.3,0-0.4,0.1c-0.1,0-0.2,0.1-0.3,0.3l0,0v-0.3h-0.3
					c0,0.1,0,0.1,0,0.2s0,0.1,0,0.2v1.7h0.3v-1.1c0-0.2,0-0.3,0.1-0.4c0-0.1,0.1-0.2,0.2-0.2c0.1,0,0.1-0.1,0.2-0.1c0,0,0.1,0,0.1,0
					c0.2,0,0.4,0,0.4,0.2c0.1,0.1,0.1,0.3,0.1,0.5v1.3h0.3v-1.3c0-0.1,0-0.2,0-0.3c0-0.1,0-0.2,0.1-0.2s0.1-0.1,0.2-0.2
					c0.1,0,0.2,0,0.3,0c0.2,0,0.4,0,0.4,0.2c0.1,0.1,0.1,0.3,0.1,0.5v1.3h0.3v-1.4C509,299.3,508.9,299.1,508.8,299"/>
				<path class="st0" d="M510.2,300.6c0,0,0.1,0.1,0.2,0.2c0,0,0.1,0.1,0.2,0.1c0.1,0,0.1,0,0.2,0c0.1,0,0.1,0,0.2,0
					c0.2,0,0.3,0,0.5-0.1c0.1,0,0.3-0.1,0.4-0.2c0.1-0.1,0.2-0.2,0.2-0.3c0-0.1,0.1-0.3,0.1-0.4s0-0.3-0.1-0.4
					c0-0.1-0.1-0.2-0.2-0.3c-0.1-0.1-0.2-0.2-0.4-0.2c-0.1,0-0.3-0.1-0.5-0.1c-0.1,0-0.1,0-0.2,0c-0.1,0-0.1,0-0.2,0
					c-0.1,0-0.1,0.1-0.2,0.1c0,0-0.1,0.1-0.2,0.2l0,0v-0.3h-0.3v3.5l0,0h0.3l0,0V300.6L510.2,300.6z M510.2,299.9c0-0.1,0-0.2,0-0.3
					s0.1-0.2,0.2-0.3c0.1-0.1,0.2-0.1,0.3-0.2c0.1,0,0.2,0,0.3,0c0.1,0,0.2,0,0.3,0c0.1,0,0.2,0.1,0.2,0.2c0.1,0.1,0.1,0.1,0.2,0.3
					c0,0.1,0,0.2,0,0.3c0,0.1,0,0.2,0,0.3s-0.1,0.2-0.2,0.3s-0.1,0.1-0.2,0.2c-0.1,0-0.2,0-0.3,0c-0.1,0-0.2,0-0.3,0
					c-0.1,0-0.2-0.1-0.3-0.2c-0.1-0.1-0.1-0.1-0.2-0.3C510.2,300.1,510.2,300,510.2,299.9"/>
				<path class="st0" d="M514.8,300.5v-1c0-0.1,0-0.2,0-0.3s-0.1-0.2-0.2-0.2c-0.1,0-0.1-0.1-0.2-0.1c-0.1,0-0.2,0-0.3,0
					c-0.4,0-0.7,0.1-1,0.3l0.2,0.2c0.2-0.1,0.4-0.2,0.7-0.2c0.4,0,0.6,0.2,0.6,0.5v0h-0.1c-0.1,0-0.3,0-0.4,0c-0.1,0-0.3,0-0.4,0.1
					c-0.1,0-0.2,0.1-0.3,0.2c-0.1,0.1-0.1,0.2-0.1,0.4c0,0.1,0,0.2,0,0.3c0,0.1,0.1,0.1,0.2,0.2c0,0,0.1,0.1,0.2,0.1
					c0.1,0,0.2,0,0.3,0c0.2,0,0.3,0,0.5-0.1c0.1,0,0.2-0.1,0.3-0.3l0,0c0,0,0,0.1,0,0.2c0,0,0,0.1,0,0.1h0.3c0,0,0-0.1,0-0.2
					C514.8,300.7,514.8,300.6,514.8,300.5 M514.5,300.3c0,0.1,0,0.1-0.1,0.2c0,0-0.1,0.1-0.2,0.1c-0.1,0-0.2,0-0.3,0
					c0,0-0.1,0-0.2,0s-0.1,0-0.2,0c0,0-0.1,0-0.1-0.1c0,0,0-0.1,0-0.2c0-0.1,0-0.2,0.1-0.2c0.1,0,0.2-0.1,0.3-0.1c0.1,0,0.2,0,0.3,0
					c0.1,0,0.2,0,0.3,0h0.1v0.1C514.5,300.1,514.5,300.2,514.5,300.3"/>
				<path class="st0" d="M517.6,299.6c0-0.2,0-0.5-0.2-0.6c-0.1-0.1-0.3-0.2-0.6-0.2c-0.1,0-0.1,0-0.2,0c-0.1,0-0.1,0-0.2,0.1
					c0,0-0.1,0.1-0.2,0.1c0,0-0.1,0.1-0.1,0.1l0,0c0,0,0-0.1,0-0.2c0,0,0-0.1,0-0.2h-0.3c0,0.1,0,0.1,0,0.2c0,0.1,0,0.1,0,0.2v1.7
					h0.3v-1.1c0-0.2,0-0.3,0.1-0.4s0.1-0.2,0.2-0.2c0.1,0,0.1-0.1,0.2-0.1c0.1,0,0.1,0,0.1,0c0.2,0,0.4,0,0.5,0.2s0.1,0.3,0.1,0.5
					v1.2h0.3L517.6,299.6L517.6,299.6z"/>
				<path class="st0" d="M520.5,298.8h-0.4l-0.7,1.8l-0.7-1.8h-0.4l0.9,2.2l-0.1,0.4c0,0.1-0.1,0.2-0.1,0.3c0,0-0.1,0.1-0.2,0.1
					c-0.1,0-0.2,0-0.2,0l0,0.3c0,0,0.1,0,0.1,0c0,0,0.1,0,0.1,0c0.2,0,0.3,0,0.4-0.1s0.2-0.2,0.2-0.4L520.5,298.8z"/>
			</g>
		</g>
		<rect x="448.7" y="290.3" class="st0" width="0.6" height="4.2"/>
	</g>
</g>
<g id="great_for_you">
</g>
<g id="dr._shep">
</g>
<g id="ge">
</g>
<g id="aha">
</g>
<g id="diamond">
</g>
<g id="brown_foreman">
</g>
<g id="masterbrand">
</g>
<g id="aristokraft">
</g>
<g id="decora">
</g>
<g id="gaither">
</g>
<g id="unbridled_eve">
</g>
<g id="papa_johns">
</g>
<g id="dr_jan">
</g>
<g id="lawn_pro">
</g>
<g id="goo">
</g>
<g id="b__x26__b">
</g>
<g id="mindy_smith">
</g>
<g id="tesseract">
</g>
<g id="grandparents.com">
</g>
<g id="ican">
</g>
<g id="my_well_being">
</g>
<g id="apple_patch">
</g>
</svg>
