<?xml version="1.0" encoding="utf-8"?>
<!-- Generator: Adobe Illustrator 17.1.0, SVG Export Plug-In . SVG Version: 6.00 Build 0)  -->
<!DOCTYPE svg PUBLIC "-//W3C//DTD SVG 1.1//EN" "http://www.w3.org/Graphics/SVG/1.1/DTD/svg11.dtd">
<svg version="1.1" id="Layer_1" xmlns="http://www.w3.org/2000/svg" xmlns:xlink="http://www.w3.org/1999/xlink" x="0px" y="0px"
	 width="150px" height="81.8px" viewBox="405 239.1 150 81.8" style="enable-background:new 405 239.1 150 81.8;"
	 xml:space="preserve" preserveAspectRatio="XminYmin none">
<style type="text/css">
	.st0{fill:#1a1a10;}
	.st1{fill:none;}
</style>
<g id="humana">
</g>
<g id="humana_vitality">
</g>
<g id="jencare">
	<g>
		<g>
			<path class="st0" d="M436.1,271.9v-13.5h-4.6c0,5.4-0.9,9.2-6.9,9.2h-5.4v-22.2c0-1.3,0.7-2,1.9-2h3.1v-4.3H405v4.4h3.1
				c1.3,0,1.9,0.7,1.9,2v20.1c0,1.3-0.7,2-1.9,2h-3v4.4L436.1,271.9L436.1,271.9z"/>
		</g>
		<g>
			<path class="st0" d="M451.3,246.5L451.3,246.5l3.6,10.6h-7.2L451.3,246.5z M448.3,239.2l-8.3,24.7c-1,3-1.6,3.7-3.5,3.7H435v4.4
				h14.5v-4.4h-1.5c-1.4,0-3.1-0.2-3.1-0.9s0.2-1.5,0.7-3.2l0.6-2h10.1l1,3.5c0.2,0.7,0.3,1.3,0.3,1.8c0,0.5-1.3,0.7-2.7,0.7h-1.5
				v4.4h18v-4.4h-1.6c-1.7,0-2.5-0.7-3.5-3.7l-8.3-24.7H448.3z"/>
		</g>
		<g>
			<path class="st0" d="M464.7,243.5h0.6c1.5,0,2.5,1.3,3.6,5.1l6.5,23.3h9.2l3.9-13.8h0.1l3.7,13.8h9.2l6.5-24.8
				c0.8-2.9,1.9-3.5,3.5-3.5h0.6v-4.4H500v4.4h2.2c0.5,0,1.3,0.4,1.3,1.1c0,0.8-0.3,1.9-0.5,2.9l-4,16.1h-0.1l-4.2-16.2
				c-0.2-0.8-0.6-2-0.6-2.7c0-1,0.5-1.3,1.5-1.3h2.2v-4.3H482v4.4h1c1.3,0,2.1,1,2.5,2.6l0.9,2.9l-4.4,15.2H482l-4.5-16.8
				c-0.2-0.8-0.6-2-0.6-2.7c0-1,0.5-1.3,1.5-1.3h1.4v-4.3h-15V243.5z"/>
		</g>
		<g>
			<path class="st0" d="M527.7,239.2h-15.9v4.4h3.1c1.3,0,1.9,0.7,1.9,2v20.1c0,1.3-0.7,2-1.9,2h-3v4.4h15.3v-4.4h-3.1
				c-1.3,0-1.9-0.7-1.9-2v-18.1h0.1l13.7,24.4h10v-26.5c0-1.3,0.7-2,1.9-2h3v-4.3h-15.2v4.4h3c1.3,0,1.9,0.7,1.9,2v16.3h-0.2
				L527.7,239.2z"/>
		</g>
	</g>
	<g>
		<polygon class="st0" points="427.9,245.7 429.6,245.7 429.6,240.5 432.1,240.5 432.1,239.2 425.5,239.2 425.5,240.5 427.9,240.5 
					"/>
	</g>
	<g>
		<path class="st0" d="M432.6,245.7h1.6v-2.4c0-1,0.6-1.5,1.4-1.5c0.7,0,1.1,0.4,1.1,1v2.8h1.6v-3.3c0-1.5-1.3-1.7-2.1-1.7
			c-0.9,0-1.7,0.5-1.9,0.8l0,0v-2.5h-1.6L432.6,245.7L432.6,245.7z"/>
	</g>
	<g>
		<path class="st0" d="M440.5,242.7L440.5,242.7c0-0.2,0.3-1.1,1.5-1.1c1.2,0,1.5,0.8,1.5,1.1l0,0H440.5z M443.4,244.3
			c-0.3,0.5-0.7,0.6-1.4,0.6c-1.1,0-1.5-0.7-1.5-1.2l0,0h4.7v-0.2c0-1.8-1-2.9-3.2-2.9c-1.9,0-3.3,0.8-3.3,2.6
			c0,1.8,1.3,2.6,3.3,2.6c1.5,0,2.5-0.5,3.1-1.6C445.1,244.3,443.4,244.3,443.4,244.3z"/>
	</g>
	<g>
		<path class="st0" d="M405,316h5.5v-16.5h20.8c11.9,0,18.5-4,18.5-11.5c0-8.3-7.8-11.4-16.1-11.4H405V316z M410.5,280.5h22.5
			c6.4,0,10.8,1.7,10.8,7.6c0,4.5-2.7,7.7-12,7.7h-21.4V280.5z"/>
	</g>
	<g>
		<path class="st0" d="M454.5,280.5h24c5.1,0,11,1.1,11,6.9c0,6-5.5,7.6-11.5,7.6h-23.5V280.5z M449,316h5.5v-17.3H476
			c9.2,0,12.8,2.3,13,9.3c0.1,4.3,0.5,7.2,1.5,8h6c-1.3-0.9-1.7-5.6-1.9-8.2c-0.4-6.5-1.9-10-9.5-10.9v-0.1c7-1.2,10.5-5.4,10.5-9.5
			c0-8.3-8.3-10.6-17.4-10.6H449V316z"/>
	</g>
	<g>
		<path class="st0" d="M498.9,296.4c0-11.8,11.3-16.9,23.1-16.9c11.7,0,23.1,5.1,23.1,16.9s-11.3,16.9-23.1,16.9
			S498.9,308.2,498.9,296.4 M492.9,296.4c0,13.9,13.8,20.6,29.1,20.6c15.3,0,29.1-6.8,29.1-20.6c0-13.9-13.8-20.6-29.1-20.6
			C506.7,275.7,492.9,282.5,492.9,296.4"/>
	</g>
	<g>
		<line class="st1" x1="405" y1="320.5" x2="551" y2="320.5"/>
		<rect x="405" y="320" class="st0" width="146" height="0.9"/>
	</g>
	<g>
		<path class="st0" d="M551.1,282.4c-1.8,0-3.2-1.5-3.2-3.3c0-1.8,1.4-3.3,3.2-3.3s3.2,1.5,3.2,3.3
			C554.3,280.9,552.8,282.4,551.1,282.4 M551.1,283c2.2,0,3.9-1.7,3.9-3.9c0-2.2-1.8-3.9-3.9-3.9c-2.2,0-4,1.7-4,3.9
			C547.1,281.3,548.9,283,551.1,283 M550.3,277.4h0.9c0.7,0,1,0.2,1,0.6c0,0.6-0.4,0.7-1.2,0.7h-0.7V277.4z M550.3,279.4h0.7l1.2,2
			h0.8l-1.3-2c0.5-0.1,1.1-0.5,1.1-1.3c0-0.9-0.5-1.3-1.5-1.3h-1.7v4.6h0.7V279.4z"/>
	</g>
</g>
<g id="great_for_you">
</g>
<g id="dr._shep">
</g>
<g id="ge">
</g>
<g id="aha">
</g>
<g id="diamond">
</g>
<g id="brown_foreman">
</g>
<g id="masterbrand">
</g>
<g id="aristokraft">
</g>
<g id="decora">
</g>
<g id="gaither">
</g>
<g id="unbridled_eve">
</g>
<g id="papa_johns">
</g>
<g id="dr_jan">
</g>
<g id="lawn_pro">
</g>
<g id="goo">
</g>
<g id="b__x26__b">
</g>
<g id="mindy_smith">
</g>
<g id="tesseract">
</g>
<g id="grandparents.com">
</g>
<g id="ican">
</g>
<g id="my_well_being">
</g>
<g id="apple_patch">
</g>
</svg>
