<?xml version="1.0" encoding="utf-8"?>
<!-- Generator: Adobe Illustrator 17.1.0, SVG Export Plug-In . SVG Version: 6.00 Build 0)  -->
<!DOCTYPE svg PUBLIC "-//W3C//DTD SVG 1.1//EN" "http://www.w3.org/Graphics/SVG/1.1/DTD/svg11.dtd">
<svg version="1.1" id="Layer_1" xmlns="http://www.w3.org/2000/svg" xmlns:xlink="http://www.w3.org/1999/xlink" x="0px" y="0px"
	 width="150px" height="99.3px" viewBox="405 230.3 150 99.3" style="enable-background:new 405 230.3 150 99.3;"
	 xml:space="preserve" preserveAspectRatio="XminYmin none">
<style type="text/css">
	.st0{fill:#1a1a10;}
</style>
<g id="humana">
</g>
<g id="humana_vitality">
</g>
<g id="jencare">
	<g>
		<path class="st0" d="M405,231.4h9.3v43.7h6.2v10.5H405V231.4z"/>
		<path class="st0" d="M421.7,231.4h9.3v54.2h-9.3V231.4z"/>
		<path class="st0" d="M433,231.4h15.7v10.9h-6.4v9.9h5.4v10.5h-5.4v22.8H433V231.4z"/>
		<path class="st0" d="M449.9,231.4h15.7v10.9h-6.4v9.9h6v10.5h-6v11.9h7v10.9h-16.2V231.4z"/>
		<path class="st0" d="M475.5,231.4l2.2,37.5h0.1l2.5-37.5h9.7l2.6,37.5h0.1l2.2-37.4h9.1l-4.2,54.2H488l-2.5-31.3h-0.1l-2.8,31.3
			h-11.8l-4.2-54.3H475.5z"/>
		<path class="st0" d="M505,231.4h9.3v54.2H505V231.4z"/>
		<path class="st0" d="M516,265.9h8.7v8.7c0,1.8,0.2,3.5,1.5,3.5c1.7,0,1.8-2.8,1.8-5v-2.3c0-9.9-12-8.6-12-24.1v-3
			c0-9.8,4-13.5,10.2-13.5c8.7,0,10.3,6.1,10.3,11.9v5.1h-8.4v-4.5c0-3.4-1-3.9-1.8-3.9c-0.9,0-1.5,0.9-1.5,3.5v2.3
			c0,7.8,12.4,7.8,12.4,23.7v4.2c0,11-4.4,13.9-10.8,13.9c-8.8,0-10.2-6.4-10.2-14.1v-6.6H516z"/>
		<path class="st0" d="M538.8,231.4h15.7v10.9H548v9.9h6v10.5h-6v11.9h7v10.9h-16.2V231.4z"/>
	</g>
	<g>
		<path class="st0" d="M439.8,307.5l-0.1-0.6c0-0.4,0.1-0.9,0.6-1.4c0.4-0.4,0.9-0.8,1.3-1c0.9-0.3,1.8-0.7,2.6-1
			c0.9-0.3,1.8-0.6,2.5-0.7c1.2-0.1,2.2-0.1,2.8,0c0.9,0.2,1.4,0.9,1.5,1.9c0.1,1.4-0.7,3-2.5,4.7c-0.9,0.8-1.7,1.5-2.5,2.3
			c0.3,0.1,0.8,0.2,1.4,0.2c1.2,0.1,2.1,0.3,2.4,0.3c1.1,0.3,1.7,1,1.8,2c0.1,0.7-0.1,1.3-0.6,1.9c-0.9,1.1-2.2,2.2-3.9,3.1
			c-1.5,0.8-3.1,1.4-4.6,1.9c-0.4,0.1-0.8,0.2-1.2,0.3c-0.4,0.1-0.8,0.2-1.1,0.2c-0.6,0.1-1.1,0-1.5-0.1c-0.4-0.1-0.8-0.3-1-0.6
			c-0.6,0-0.7-0.2-0.7-0.6c0-0.2,0-0.6,0.1-1c0.6,0.2,1.1,0.4,1.7,0.8c0.6,0.2,1.2,0.3,1.8,0.2c0.2,0,0.3,0,0.4-0.1
			c1.1-0.2,2.2-0.7,3.4-1.2c1-0.4,2-1.1,3.2-1.9c0.4-0.3,0.9-0.7,1.3-1.1c0.6-0.6,0.9-1.1,0.8-1.4c0-0.4-0.4-0.8-1.3-1.1
			c-0.6-0.2-1.1-0.2-1.7-0.2c-0.4,0-0.9,0-1.2,0c-1.5,0.2-2.8,0.8-3.6,1.8c-0.8,0.9-1.3,2.3-1.7,4c-0.1,0-0.4,0-0.8,0
			c-0.3,0-0.7,0-0.9,0c-0.1-1.1,0.2-2.6,1.2-4.7c0.7-1.3,1-2.3,1.2-2.8c0.1-0.3,0.4-1,0.9-2c0.8-1.5,1-2.6,1-3.4c0-0.1,0-0.3,0-0.3
			c-0.3,0.1-0.8,0.4-1.3,1c-0.6,0.4-1.1,0.8-1.4,1L439.8,307.5z M443.6,311.2c0.3-0.1,0.7-0.2,1-0.6c0.3-0.2,0.7-0.6,1-0.8
			c0.7-0.4,1.3-1.1,2.1-2c1-1.1,1.4-2,1.3-2.6c0-0.4-0.3-0.8-0.9-1c-0.4-0.1-0.9-0.2-1.4-0.1c-0.4,0-0.9,0.2-1.4,0.4
			c-0.3,0.1-0.8,0.3-1.3,0.8c0.2,0.3,0.3,0.8,0.4,1.1c0,0.4-0.2,1.5-0.9,3.3c-0.3,0.9-0.4,1.5-0.3,2.1L443.6,311.2z"/>
		<path class="st0" d="M465.4,306.9c0.2,0.2,0.3,0.4,0.4,0.7c0,0.3-0.1,0.9-0.6,1.5c-0.2,0.4-0.6,0.9-0.8,1.3
			c-0.2,0.6-0.6,1.1-1,1.9c-1.2,2-1.9,3-1.9,3.1c-0.3,0.6-0.8,1.1-1.1,1.8c-0.1,0.3-0.2,0.7-0.2,0.9c0,0.2,0.1,0.6,0.3,0.9
			c-1.2,0.4-2.2,1.4-3.2,3c-0.3,0.7-1,2-2,4c-0.4,1-0.9,1.9-1.3,2.9c-0.2,0.6-0.4,0.8-0.8,0.9c-0.1,0-0.3,0-0.7-0.2
			c-0.3-0.1-0.7-0.2-0.9-0.4c0.2-0.6,0.4-1.1,0.9-1.8c1.2-1.9,1.9-3,2-3.1c0.7-0.9,1.2-1.7,1.5-2.2c0.3-0.6,0.6-1,0.4-1.2
			c0-0.6-0.2-0.9-0.7-0.9s-0.9,0-1.3,0c-0.9-0.1-1.5-0.8-2.1-1.8c-0.4-0.8-0.7-1.9-0.9-3.3c-0.1-0.9-0.1-1.7-0.1-2.5
			c0-0.6,0-1.2,0.1-2c0.7-0.1,1.1,0.1,1.4,0.6c0.2,0.3,0.4,0.9,0.6,1.7c0,0.2,0,0.8,0.1,1.5c0,0.8,0.1,1.3,0.1,1.8
			c0.1,1.1,0.4,1.9,0.8,2.3c0.6,0.7,1.4,0.9,2.5,0.8c0.8-0.1,1.5-0.9,2.3-2.3c0.2-0.4,0.6-1.1,1-2c1-2.3,1.5-3.6,1.8-4.2
			c0.8-1.7,1.5-2.9,2.4-3.8L465.4,306.9z"/>
		<path class="st0" d="M472.3,316.6c0.1,0.2,0.1,0.6,0.2,0.8c0.1,0.2,0.3,0.4,0.8,0.4c0.4,0.1,1,0.1,1.7,0c0.8-0.1,1.7-0.3,2.5-0.7
			c0.4-0.2,1.2-0.4,2.2-1c2.6-1.2,4.7-2.4,6.3-3.8c1.2-1.1,2.1-2.2,2.5-3.4c0.1-0.3,0.3-0.7,0.4-1.1c0.2-0.6,0.3-1.1,0.2-1.5
			c0-0.3-0.1-0.7-0.3-1.2c-0.3-0.8-0.9-1.4-1.8-2.1c-0.7-0.6-1.4-1-2.4-1.4c-1.7-0.8-3.1-1.3-4.3-1.7c-1.7-0.4-3.2-0.7-4.5-0.6
			c-1,0.1-1.8,0.1-2.3,0s-0.9-0.2-0.9-0.6c0-0.1,0-0.2,0.1-0.3c0.1-0.1,0.2-0.2,0.3-0.4c0.2-0.2,0.6-0.3,1-0.3c0.6-0.1,1.2,0,2,0.1
			c0.6,0.1,1.2,0.2,1.8,0.3c2.9,0.2,5.5,1,8.1,2.4c2.9,1.7,4.4,3.5,4.7,5.8c0.1,0.7,0,1.4-0.1,2.1c-0.2,0.8-0.4,1.4-1,2.3
			s-1.3,1.8-2.4,2.6c-0.9,0.7-2,1.3-3.2,2.1c-1.2,0.7-2.2,1.2-2.8,1.4c-1.1,0.6-2.2,1-3.1,1.3c-1,0.3-2,0.6-3,0.7
			c-0.4,0-0.9,0.1-1.4,0.1s-1.1-0.1-1.5-0.4c-0.6-0.3-0.8-0.7-0.9-1.1c0-0.2,0-0.6,0.2-0.8c0.2-0.2,0.4-0.4,0.9-0.7L472.3,316.6z
			 M483.6,302.4l0.1,0.6c0.1,0.6-0.1,1.5-0.9,3c-0.2,0.3-0.4,0.9-0.8,1.5c-0.6,0.9-0.9,1.5-1.2,2c-0.6,0.9-0.9,1.7-1,2.3
			c-0.1,0.6-0.2,1-0.3,1.5c-0.2,0.6-0.6,0.9-0.9,0.9c-0.2,0-0.4,0-0.7-0.2c-0.2-0.1-0.4-0.3-0.4-0.7c0-0.3,0.1-0.8,0.6-1.4
			c0.6-0.8,1.1-1.7,1.7-2.4c0.4-1.3,1-2.8,1.4-4.2c0.7-1.7,1.4-2.8,2.3-3.3L483.6,302.4z"/>
		<path class="st0" d="M496.3,303.7c0.2,0.7,0.3,1.2,0.6,1.9c0.2,0.4,0.6,0.7,1.2,0.7c0.2,0,0.4-0.1,0.7-0.1
			c0.2-0.1,0.6-0.1,0.9-0.1c0.9-0.1,1.8,0,2.3,0.2c0.8,0.3,1.3,0.9,1.5,1.8c-1.5-0.3-3.1-0.6-4.5-0.9c-0.3,0-0.7,0.1-1,0.3
			c-0.3,0.1-0.6,0.4-0.9,0.8c-0.6,0.7-1,1.4-1.3,2.2c-0.3,0.8-0.4,1.7-0.6,2.5c-0.1,1.1-0.4,2-0.8,2.4c-0.4,0.6-1.2,1-2.3,1.1
			c0-0.9,0.3-1.9,1.1-3.3s1.2-2.6,1.3-3.4c0-0.3,0-1.2,0-2.9s0.3-2.6,1.2-3.2L496.3,303.7z"/>
		<path class="st0" d="M503.1,313.7c-0.1,0.2-0.3,0.3-0.6,0.4c-0.3,0-0.6,0.1-0.7,0.2c-0.1,0.1-0.2,0.2-0.4,0.4
			c-0.2,0.2-0.3,0.3-0.4,0.3s-0.2,0-0.3-0.1s-0.2-0.2-0.4-0.6c-0.1-0.3-0.2-0.6-0.3-0.8c0-0.3,0.1-0.7,0.3-0.9
			c0.2-0.2,0.7-0.3,1.1-0.3c0.2,0,0.6,0,0.9,0c0.3,0,0.7,0.1,1,0.1c0,0.1,0,0.1,0,0.2C503.2,313.2,503.1,313.6,503.1,313.7z"/>
		<path class="st0" d="M529.7,291c0.2,0.2,0.3,0.4,0.3,0.6c0,0.2-0.1,0.6-0.3,0.9c-0.2,0.3-0.6,0.6-0.9,0.8
			c-0.3,0.2-0.7,0.3-0.8,0.4c-0.1,0-0.3-0.1-0.6-0.3c-0.2-0.2-0.4-0.3-0.6-0.4c-0.3-0.1-0.7-0.2-0.9-0.2c-0.2,0-0.4,0.1-0.6,0.3
			c-0.1,0.2-0.2,0.4-0.3,0.9c-0.2,1.2-0.4,2.9-0.7,5c-0.2,1.7-0.3,3.3-0.4,5c-0.2,1.9-0.6,3.5-0.9,5c-0.3,1.4-0.8,2.3-1.1,2.8
			s-0.9,0.8-1.4,0.8c-0.1,0-0.2,0-0.4,0c-1.8-0.1-3.5-0.7-5.1-1.7c-1.9-1.1-2.9-2.5-3.1-4.2l0.4-0.6c0.1,0,0.1,0,0.2,0.1
			c0.1,0.1,0.2,0.1,0.3,0.1c0.6,1.2,0.9,2,1.1,2.3c0.3,0.4,0.8,0.8,1.3,1.1c0.6,0.3,1.2,0.7,1.8,0.8c0.6,0.2,1.2,0.2,1.8,0.1
			c0.7-0.1,1.2-0.3,1.7-0.7c0.4-0.4,0.9-1,1.1-1.8c0.4-1.1,0.7-2.3,0.8-3.4c0.1-1.1,0.1-2.2,0-3.4c-0.1-0.8-0.1-1.7-0.1-2.8
			c0-0.6,0.1-1.2,0.1-1.8c0-0.1,0.1-0.6,0.2-1c0.1-0.6,0.1-0.9,0.1-1.1c-0.2-0.7-0.7-0.9-1.4-0.8c-0.7,0.1-1.4,0.4-2.5,1
			c-0.6,0.3-1,0.6-1.2,0.7s-0.4,0.2-0.7,0.3c-0.3,0.1-0.6,0.2-0.8,0.2c-0.4,0-0.8,0-1-0.3c-0.2-0.2-0.4-0.6-0.4-0.8
			c0-0.3,0.1-0.7,0.4-0.9c0.1-0.1,0.4-0.3,1-0.7c0.2-0.1,0.2-0.2,0.2-0.3s0.1-0.2,0.2-0.2l0.6-0.1v0.2l0.3,0.2h0.2l0.2-0.3h0.2
			c0.4,0,0.9-0.1,1.3-0.2c0.7-0.2,1.2-0.3,1.5-0.3c2.5-0.6,4.1-0.9,4.4-1c0.7-0.2,1.5-0.4,2.6-0.9c0.3,0.1,0.6,0.1,0.7,0.1
			C529.4,290.9,529.6,291,529.7,291z"/>
		<path class="st0" d="M539.7,300.9c0.1,0.7,0,1.4-0.1,2.2c-0.1,0.8-0.4,1.5-0.8,2.2c-0.3,0.7-0.6,1-0.6,1.1
			c-0.2,0.6-0.3,1.1-0.3,1.7c0,0.2,0.1,0.4,0.2,0.8c0.2,0.8,0.7,1.2,1.2,1.3c0.7,0,1.3,0.1,2,0.1c-0.1,0.4-0.3,0.9-0.6,1.1
			s-0.4,0.3-0.8,0.4c-0.7,0.1-1.3-0.3-2.2-1.1c-0.7-0.7-1.3-1.3-1.8-2.1c-1.4,0.9-2.4,1.4-2.8,1.7c-1.4,0.8-2.6,1.2-3.5,1.3
			c-0.7,0.1-1.2,0-1.7-0.3c-0.4-0.3-0.8-0.9-0.9-1.8c-0.2-2.3,0.8-4.6,3.2-6.7c1.9-1.8,4.2-3.1,6.8-4c0.4,0,1,0.2,1.5,0.7
			C539.3,300,539.5,300.4,539.7,300.9z M539.1,300.6c-0.1-0.2-0.4-0.3-0.7-0.4c-0.3,0-0.7-0.1-1.1,0c-0.2,0-0.4,0.1-0.7,0.1
			c-0.2,0-0.3,0.1-0.6,0.1c-0.9,0.1-1.9,0.6-2.9,1.4c-0.4,0.4-1.2,1.2-2.3,2.4c-0.6,0.7-1.1,1.3-1.5,2c-0.7,1.1-0.9,1.9-0.9,2.5
			c0.1,0.7,0.4,1,1.1,1.2c0.3,0.1,0.8,0.1,1.1,0.1c0.8-0.1,1.7-0.4,2.6-1.1c0.8-0.6,1.5-1.1,2.1-1.9c0.2-0.2,0.7-1.2,1.3-2.9
			c0.4-1.1,1.2-1.8,2.1-1.9c0.1-0.1,0.1-0.4,0.1-0.7c0-0.3,0.1-0.6,0-0.8C539.2,300.9,539.1,300.8,539.1,300.6z"/>
		<path class="st0" d="M541.4,309.8l-0.3-0.2c0-0.1,0-0.2,0-0.6s0.1-0.4,0.1-0.6c0.1-0.4,0.3-0.9,0.7-1.4c0.9-1.5,1.3-2.3,1.3-2.3
			c0.6-1,1.2-2.1,1.8-3.2c0.1-0.7,0.3-1.1,0.4-1.4c0.2-0.7,0.4-1,0.7-1c0.2-0.1,0.3-0.1,0.4-0.1s0.1,0,0.1,0c0.2,0,0.4,0,0.6,0.1
			c0.1,0.1,0.2,0.3,0.2,0.6c0,0.3,0,0.7-0.1,1.1c-0.1,0.4-0.2,0.9-0.3,1.3c0.1-0.1,0.9-0.7,2.5-1.7c1.2-0.8,2.1-1.2,2.9-1.3
			c0.4,0,0.9,0,1.2,0.2c0.4,0.2,0.8,0.6,1,1.1c0.1,0.1,0.2,0.3,0.2,0.6c0.1,0.2,0.1,0.4,0.1,0.7c0.1,0.8-0.2,1.9-0.8,3.2
			c-0.4,1-0.7,1.5-0.8,1.9l-0.4,0.6c0,0.2,0,0.3,0.1,0.6c0.1,0.1,0.2,0.2,0.2,0.3c0,0.1,0,0.3-0.2,0.6c-0.2,0.3-0.4,0.4-0.9,0.4
			c-0.3,0-0.6,0-0.9-0.1c-0.2-0.1-0.4-0.3-0.4-0.6c-0.1-0.6,0.1-1.4,0.8-2.4c0.9-1.3,1.3-2.2,1.4-2.3c0.1-0.4,0.1-0.8,0.1-1.1
			c0-0.4-0.2-0.8-0.6-1c-0.3-0.2-0.7-0.3-1.1-0.2c-0.2,0-0.3,0.1-0.6,0.1c-1.2,0.4-2.3,1.3-3.5,2.6c-0.9,1.2-1.8,2.3-2.8,3.5
			c-1.1,1.3-2.2,2.1-3.3,2.4L541.4,309.8z"/>
	</g>
</g>
<g id="great_for_you">
</g>
<g id="dr._shep">
</g>
<g id="ge">
</g>
<g id="aha">
</g>
<g id="diamond">
</g>
<g id="brown_foreman">
</g>
<g id="masterbrand">
</g>
<g id="aristokraft">
</g>
<g id="decora">
</g>
<g id="gaither">
</g>
<g id="unbridled_eve">
</g>
<g id="papa_johns">
</g>
<g id="dr_jan">
</g>
<g id="lawn_pro">
</g>
<g id="goo">
</g>
<g id="b__x26__b">
</g>
<g id="mindy_smith">
</g>
<g id="tesseract">
</g>
<g id="grandparents.com">
</g>
<g id="ican">
</g>
<g id="my_well_being">
</g>
<g id="apple_patch">
</g>
</svg>
