<?xml version="1.0" encoding="utf-8"?>
<!-- Generator: Adobe Illustrator 19.2.1, SVG Export Plug-In . SVG Version: 6.00 Build 0)  -->
<svg version="1.1" xmlns="http://www.w3.org/2000/svg" xmlns:xlink="http://www.w3.org/1999/xlink" x="0px" y="0px"
	 viewBox="0 0 263.1 193.8" style="enable-background:new 0 0 263.1 193.8;" xml:space="preserve">
<style type="text/css">
	.st0{fill:#1a1a10;}
</style>
<g id="Bk_Wordmark">
	<g>
		<g>
			<path class="st0" d="M86.7,166.9l0,13.3l-0.4-0.5c-4.8-5.6-9.8-11.5-9.9-11.6l-0.1-0.1c-0.4-0.4-0.9-1-1.8-1l-3.2,0l0,21.8l4.9,0
				l0-13.6c7.1,8.4,10.5,12.4,10.6,12.5c0.4,0.5,1.1,1.1,2.2,1.1h2.6l0-21.8H86.7z"/>
			<path class="st0" d="M254.4,167l0,13.3l-0.4-0.5c-4.8-5.7-9.8-11.5-9.9-11.6L244,168c-0.4-0.4-0.9-1-1.8-1l-3.2,0l0,21.8l4.9,0
				l0-13.6c7.6,8.9,10.5,12.4,10.6,12.5c0.4,0.5,1.1,1.1,2.2,1.1l2.6,0l0-21.8H254.4z"/>
			<rect x="42.7" y="166.9" class="st0" width="4.9" height="21.8"/>
			<path class="st0" d="M178.5,177.6c-0.1-6.3-5.2-11-11.9-11c-6.7,0-12,5-12,11.3c0,6.4,5.1,11.2,11.9,11.2c6.6,0,11.9-4.8,12-11
				C178.6,177.9,178.6,177.7,178.5,177.6z M166.6,184.7c-4,0-7-2.9-7-6.9c0-3.8,3-6.7,6.9-6.7c4,0,7,2.9,7,6.9
				C173.5,181.8,170.5,184.7,166.6,184.7z"/>
			<polygon class="st0" points="206.1,184.3 206.1,167 201.2,167 201.2,188.7 217.9,188.8 217.9,184.3 			"/>
			<g>
				<path class="st0" d="M20.5,188.7l-16.7,0l0-21.8h4.9l0,17.4l11.8,0V188.7z"/>
			</g>
		</g>
		<path class="st0" d="M130.7,181.4l-0.9,0.8c-1.7,1.5-3.3,2.5-5.9,2.5c-3.9,0-6.9-3-6.9-6.9c0-3.9,3-6.8,6.9-6.8
			c2.2,0,3.9,0.7,5.8,2.4l0.9,0.8l3.4-3.4L133,170c-2-1.8-4.5-3.4-9.1-3.4c-6.7,0-12,5-12,11.3c0,6.4,5.1,11.2,11.9,11.2
			c4.7,0,7.4-1.9,9.4-3.8l0.9-0.9L130.7,181.4z"/>
	</g>
</g>
<g id="Bk_Vert_Star">
	<path class="st0" d="M149.1,60.4c0-2.4,0-2.3-0.1-3.2c0,0,0,0,0,0c-0.3-22.8-3.2-41.6-4.6-50c-0.6-3.5-0.8-3.8-4.5-4.4
		c-1.9-0.3-3.5-0.5-5.1-0.6v0l0,0c-1.4-0.1-3.3-0.1-3.3-0.1s-1.9,0-3.3,0.1l0,0v0c-1.6,0.1-3.3,0.3-5.1,0.6c-3.7,0.5-4,0.9-4.5,4.4
		c-1.4,8.5-4.3,27.3-4.6,50c0,0,0,0,0,0c0,0.9,0,0.8-0.1,3.2c0,2.4,0,2.3,0.1,3.2c0,0,0,0,0,0c0.3,22.8,3.2,41.6,4.6,50
		c0.6,3.5,0.8,3.8,4.5,4.4c1.7,0.2,3.2,0.4,4.6,0.5c0,0,0,0,0,0c1.4,0.1,3.8,0.1,3.8,0.1s2.3,0,3.8-0.1c0,0,0,0,0,0
		c1.4-0.1,3-0.3,4.6-0.5c3.7-0.5,4-0.9,4.5-4.4c1.4-8.5,4.3-27.3,4.6-50c0,0,0,0,0,0C149.1,62.7,149.1,62.8,149.1,60.4z M134.8,4.7
		c0.4,2.1,0.5,2.7,0.6,3.8c0.1,0.6,0.2,0.7,0.5,0.7l0,0c0.4,0,0.8,0.1,1.2,0.1c2.2,0.3,3,0.4,3.6,3.3c0.5,2.2,4.2,20.4,4.6,43.8l0,0
		c0,0,0,0.1,0,0.2c0,0.4,0.2,0.5,0.6,0.7c0.8,0.3,1.1,0.4,1.6,0.6c0.2,0.1,0.4,0.3,0.5,0.8c-1.9-0.1-5.7-0.4-8.1-0.6
		c-4.8-0.3-5.2-1.5-5.2-5c0-1.7-0.3-30.9-1-49.4C134.8,3.9,134.8,4.7,134.8,4.7z M122.4,12.6c0.6-2.9,1.4-3,3.6-3.3
		c0.4-0.1,0.8-0.1,1.2-0.1l0,0c0.3,0,0.4-0.1,0.5-0.7c0.2-1.1,0.3-1.7,0.6-3.8c0,0,0.1-0.8,1-1c-0.7,18.5-1,47.8-1,49.4
		c0,3.6-0.4,4.8-5.2,5c-2.4,0.1-5.9,0.4-8.1,0.6c0.2-0.5,0.3-0.7,0.5-0.8c0.5-0.2,0.8-0.3,1.6-0.6c0.4-0.2,0.7-0.3,0.6-0.7
		c0-0.1,0-0.1,0-0.2l0,0C118.2,33,121.9,14.8,122.4,12.6z M128.3,116.1c-0.4-2.1-0.5-2.7-0.6-3.8c-0.1-0.6-0.2-0.7-0.5-0.7l0,0
		c-0.4,0-0.8-0.1-1.2-0.1c-2.2-0.3-3-0.4-3.6-3.3c-0.5-2.2-4.2-20.4-4.6-43.8l0,0c0,0,0-0.1,0-0.2c0-0.4-0.2-0.5-0.6-0.7
		c-0.8-0.3-1.1-0.4-1.6-0.6c-0.2-0.1-0.4-0.3-0.5-0.8c2.4,0.2,5.8,0.4,8.1,0.6c4.8,0.3,5.2,1.5,5.2,5c0,1.7,0.3,31.1,1,49.4
		C128.3,117,128.3,116.1,128.3,116.1z M140.7,108.2c-0.6,2.9-1.4,3-3.6,3.3c-0.4,0.1-0.8,0.1-1.2,0.1l0,0c-0.3,0-0.4,0.1-0.5,0.7
		c-0.2,1.1-0.3,1.7-0.6,3.8c0,0-0.1,0.8-1,1c0.7-18.2,1-47.7,1-49.4c0-3.6,0.4-4.8,5.2-5c2.3-0.1,5.7-0.4,8.1-0.6
		c-0.2,0.5-0.3,0.7-0.5,0.8c-0.5,0.2-0.8,0.3-1.6,0.6c-0.4,0.2-0.7,0.3-0.6,0.7c0,0.1,0,0.1,0,0.2l0,0
		C144.9,87.8,141.2,106.1,140.7,108.2z"/>
</g>
</svg>
