<?xml version="1.0" encoding="utf-8"?>
<!-- Generator: Adobe Illustrator 17.1.0, SVG Export Plug-In . SVG Version: 6.00 Build 0)  -->
<!DOCTYPE svg PUBLIC "-//W3C//DTD SVG 1.1//EN" "http://www.w3.org/Graphics/SVG/1.1/DTD/svg11.dtd">
<svg version="1.1" id="Layer_1" xmlns="http://www.w3.org/2000/svg" xmlns:xlink="http://www.w3.org/1999/xlink" x="0px" y="0px"
	 width="153px" height="33.3px" viewBox="403.5 262.3 153 33.3" style="enable-background:new 403.5 262.3 153 33.3;"
	 xml:space="preserve" preserveAspectRatio="XminYmin none">
<style type="text/css">
	.st0{fill:#1a1a10;}
	.st1{fill:none;stroke:#FFFFFF;stroke-width:3;stroke-miterlimit:3.8636;}
</style>
<g id="humana">
</g>
<g id="humana_vitality">
</g>
<g id="jencare">
	<g>
		<g>
			<polygon class="st0" points="403.5,279.6 408.6,279.6 408.6,268.5 408.6,268.5 411.6,279.6 415.5,279.6 418.6,268.5 418.6,268.5 
				418.6,279.6 423.6,279.6 423.6,262.3 416.1,262.3 413.6,272.5 413.5,272.5 411.1,262.3 403.5,262.3 			"/>
			<path class="st0" d="M433.4,275.1c-0.1,1.3-1,1.9-2.1,1.9c-0.9,0-1.6-0.6-1.6-1.2c0-0.8,0.6-1.1,1.7-1.3c0.7-0.1,1.4-0.3,2-0.6
				L433.4,275.1L433.4,275.1z M438.2,271.7c0-2.4,0-4.9-6.3-4.9c-3.1,0-6.6,0.6-6.8,4.1h4.7c0-0.5,0.3-1.3,1.9-1.3
				c0.8,0,1.7,0.3,1.7,1.2c0,0.8-0.7,1-1.4,1.1c-2.6,0.5-7.5,0.3-7.5,4.3c0,2.7,2.1,3.8,4.7,3.8c1.6,0,3.2-0.4,4.2-1.5h0
				c0,0.4,0,0.8,0.2,1.2h5.1c-0.6-0.8-0.6-1.9-0.6-2.8L438.2,271.7L438.2,271.7z"/>
			<path class="st0" d="M452.2,270.7c-0.1-3.2-3.6-4-6.4-4c-2.7,0-6.2,0.8-6.2,4c0,2.2,1.6,3.3,5.4,4c2.3,0.4,2.8,0.6,2.8,1.3
				s-1,1-1.7,1c-0.6,0-1.1-0.1-1.3-0.4c-0.4-0.3-0.6-0.7-0.6-1.1h-4.8c0.1,3.3,3.5,4.4,6.6,4.4c3.2,0,6.7-1,6.7-4.4
				c0-2-1.5-3-3.1-3.5c-1.7-0.5-3.6-0.6-4.4-1c-0.3-0.1-0.6-0.3-0.6-0.6c0-0.8,0.8-1,1.5-1c0.4,0,0.8,0.1,1.1,0.4
				c0.3,0.2,0.6,0.5,0.6,1L452.2,270.7L452.2,270.7z"/>
			<path class="st0" d="M459,263.2h-4.9v3.8h-2.2v3h2.2v6c0,3.4,2.3,3.7,4.4,3.7c1,0,2.2-0.1,3.1-0.1V276c-0.4,0-0.7,0.1-1.1,0.1
				c-1.2,0-1.5-0.5-1.5-1.7V270h2.6v-3H459V263.2z"/>
			<path class="st0" d="M466.5,271.9c0.2-1.3,1.1-2.1,2.6-2.1c1.3,0,2.2,1,2.2,2.1H466.5z M476.2,274.4c0-4.9-2.3-7.7-7.5-7.7
				c-4.2,0-7,3-7,6.6c0,4.2,3.2,6.6,7.4,6.6c3,0,5.8-1.3,6.8-4h-4.7c-0.4,0.6-1.3,0.9-2.1,0.9c-1.6,0-2.4-1-2.6-2.4L476.2,274.4
				L476.2,274.4z"/>
			<path class="st0" d="M476.8,279.6h4.9v-4.9c0-2.7,1-3.8,3-3.8c1,0,1.4,0.1,1.9,0.3v-4.2c-0.5-0.1-1-0.2-1.4-0.2
				c-1.8,0-2.8,0.8-3.6,2.3h0v-2h-4.7V279.6L476.8,279.6z"/>
			<path class="st0" d="M492.5,272.3h3.4c1.3,0,1.9,0.6,1.9,1.6c0,1.3-1,1.7-2.1,1.7h-3.1L492.5,272.3L492.5,272.3z M487.2,279.6
				h9.8c3,0,6-1.8,6-5.3c0-2.5-1.4-3.8-3-4.3c1.3-0.7,2.1-1.7,2.1-3.4c0-1.8-1-4.3-5.5-4.3h-9.5V279.6z M492.5,266.4h2.8
				c1.1,0,1.8,0.3,1.8,1.2c0,1.1-0.7,1.4-1.8,1.4h-2.8V266.4z"/>
			<path class="st0" d="M503.7,279.6h4.9v-4.9c0-2.7,1-3.8,3-3.8c1,0,1.4,0.1,1.9,0.3v-4.2c-0.5-0.1-1-0.2-1.4-0.2
				c-1.8,0-2.8,0.8-3.6,2.3h0v-2h-4.7V279.6z"/>
			<path class="st0" d="M521.6,275.1c-0.1,1.3-1,1.9-2.1,1.9c-0.9,0-1.6-0.6-1.6-1.2c0-0.8,0.6-1.1,1.7-1.3c0.7-0.1,1.4-0.3,2-0.6
				L521.6,275.1L521.6,275.1z M526.5,271.7c0-2.4,0-4.9-6.3-4.9c-3.1,0-6.6,0.6-6.8,4.1h4.7c0-0.5,0.3-1.3,1.9-1.3
				c0.8,0,1.7,0.3,1.7,1.2c0,0.8-0.7,1-1.4,1.1c-2.6,0.5-7.5,0.3-7.5,4.3c0,2.7,2.1,3.8,4.7,3.8c1.6,0,3.2-0.4,4.2-1.5h0
				c0,0.4,0,0.8,0.2,1.2h5.1c-0.6-0.8-0.6-1.9-0.6-2.8L526.5,271.7L526.5,271.7z"/>
			<path class="st0" d="M527.7,279.6h5V273c0-2,1.1-2.4,2-2.4c1.5,0,1.7,1,1.7,2.5v6.6h5V271c0-2.9-2.2-4.3-4.5-4.3
				c-2,0-3.4,0.7-4.3,1.9h0V267h-4.8V279.6L527.7,279.6z"/>
			<path class="st0" d="M556.5,262.3h-5v6.1h0c-0.8-1.1-2.1-1.7-3.6-1.7c-4.4,0-5.6,3.6-5.6,6.5c0,3.1,1.8,6.6,5.5,6.6
				c2.5,0,3.2-0.9,3.9-1.7h0v1.4h4.8V262.3z M551.7,273.3c0,1.5-0.4,3.1-2.2,3.1c-1.8,0-2.2-1.6-2.2-3.1s0.4-3.1,2.2-3.1
				C551.2,270.2,551.7,271.8,551.7,273.3z"/>
		</g>
		<g>
			<path class="st0" d="M409.8,287.4c-0.1-1.3-1.2-2.1-2.5-2.1c-1.8,0-2.9,1.3-2.9,3.1c0,1.7,1.1,3,2.9,3c1.4,0,2.4-0.9,2.5-2.4
				h-1.2c-0.1,0.8-0.5,1.3-1.3,1.3c-1.1,0-1.6-1-1.6-1.9c0-1,0.4-2,1.6-2c0.6,0,1.2,0.4,1.3,1L409.8,287.4L409.8,287.4z"/>
			<path class="st0" d="M422.1,289.6c0,0.2,0,1-0.9,1c-0.4,0-0.7-0.1-0.7-0.5s0.3-0.5,0.7-0.6c0.4-0.1,0.8-0.1,1-0.2
				C422.1,289.2,422.1,289.6,422.1,289.6z M420.6,288.3c0-0.5,0.3-0.6,0.8-0.6c0.4,0,0.7,0.1,0.7,0.6c0,0.5-0.7,0.5-1.4,0.6
				c-0.7,0.1-1.4,0.3-1.4,1.3c0,0.8,0.6,1.3,1.4,1.3c0.5,0,1.1-0.1,1.4-0.5c0,0.1,0,0.3,0.1,0.4h1.2c-0.1-0.2-0.1-0.6-0.1-0.9v-2.2
				c0-1-1-1.2-1.8-1.2c-1,0-1.9,0.3-2,1.4H420.6L420.6,288.3z"/>
			<path class="st0" d="M433,291.2h1.1v-0.5l0,0c0.2,0.5,0.8,0.6,1.4,0.6c0.8,0,1.7-0.7,1.7-2.2c0-1.5-0.9-2.2-1.7-2.2
				c-0.5,0-1,0.2-1.3,0.6l0,0v-2.1H433V291.2z M436.1,289.1c0,0.7-0.3,1.3-1,1.3c-0.7,0-1-0.6-1-1.3s0.3-1.3,1-1.3
				C435.8,287.8,436.1,288.4,436.1,289.1z"/>
			<path class="st0" d="M446.9,291.2h1.2V287h-1.2V291.2z M448,285.4h-1.2v1h1.2V285.4z"/>
			<path class="st0" d="M457.8,291.2h1.2V289c0-0.8,0.3-1.2,0.9-1.2c0.5,0,0.7,0.4,0.7,1v2.4h1.2v-2.6c0-1-0.3-1.7-1.5-1.7
				c-0.5,0-1,0.2-1.3,0.7h0V287h-1.1L457.8,291.2L457.8,291.2z"/>
			<path class="st0" d="M475.4,289.4c0.1-1.3-0.6-2.5-2-2.5c-1.3,0-2.2,1-2.2,2.2c0,1.3,0.8,2.2,2.2,2.2c1,0,1.6-0.4,2-1.4h-1
				c-0.1,0.2-0.5,0.5-0.9,0.5c-0.6,0-1-0.3-1-1.1L475.4,289.4L475.4,289.4z M472.4,288.7c0-0.3,0.2-0.9,1-0.9c0.6,0,0.8,0.3,0.9,0.9
				H472.4z"/>
			<path class="st0" d="M486.5,285.8h-1.2v1.3h-0.7v0.7h0.7v2.5c0,0.8,0.6,1,1.3,1c0.2,0,0.5,0,0.7,0v-0.9c-0.1,0-0.2,0-0.4,0
				c-0.4,0-0.5-0.1-0.5-0.5v-2h0.8V287h-0.8L486.5,285.8L486.5,285.8z"/>
			<path class="st0" d="M496.5,289.8c0,1.1,1,1.5,2,1.5c1,0,1.9-0.4,1.9-1.4c0-0.8-0.7-1-1.3-1.2c-0.7-0.1-1.3-0.2-1.3-0.6
				c0-0.4,0.4-0.4,0.6-0.4c0.4,0,0.7,0.1,0.8,0.6h1.1c-0.1-1-0.9-1.3-1.8-1.3c-0.9,0-1.8,0.3-1.8,1.3c0,0.7,0.7,1,1.3,1.1
				c0.8,0.2,1.3,0.3,1.3,0.6c0,0.4-0.4,0.5-0.7,0.5c-0.5,0-0.9-0.2-0.9-0.7H496.5L496.5,289.8z"/>
			<path class="st0" d="M501.8,291.2h0.6c0,0.4-0.2,0.7-0.6,0.8v0.6c0.7-0.1,1.3-0.6,1.3-1.3V290h-1.3L501.8,291.2L501.8,291.2z"/>
			<rect x="524.2" y="285.4" class="st0" width="1.3" height="5.8"/>
			<path class="st0" d="M536.1,291.2h1.2V289c0-0.8,0.3-1.2,0.9-1.2c0.5,0,0.7,0.4,0.7,1v2.4h1.2v-2.6c0-1-0.3-1.7-1.5-1.7
				c-0.5,0-1,0.2-1.3,0.7h0V287h-1.1L536.1,291.2L536.1,291.2z"/>
			<path class="st0" d="M553.5,288.5c-0.1-1.1-1-1.6-2-1.6c-1.4,0-2.2,1-2.2,2.3c0,1.3,0.8,2.2,2.1,2.2c1.1,0,1.9-0.6,2-1.7h-1.1
				c-0.1,0.5-0.4,0.8-0.9,0.8c-0.7,0-1-0.7-1-1.3c0-0.6,0.2-1.4,1-1.4c0.5,0,0.8,0.2,0.8,0.7L553.5,288.5L553.5,288.5z"/>
			<rect x="555" y="290" class="st0" width="1.3" height="1.2"/>
		</g>
		<line class="st1" x1="403.8" y1="294.1" x2="556.4" y2="294.1"/>
		<line class="st1" x1="403.8" y1="283" x2="556.4" y2="283"/>
	</g>
</g>
<g id="great_for_you">
</g>
<g id="dr._shep">
</g>
<g id="ge">
</g>
<g id="aha">
</g>
<g id="diamond">
</g>
<g id="brown_foreman">
</g>
<g id="masterbrand">
</g>
<g id="aristokraft">
</g>
<g id="decora">
</g>
<g id="gaither">
</g>
<g id="unbridled_eve">
</g>
<g id="papa_johns">
</g>
<g id="dr_jan">
</g>
<g id="lawn_pro">
</g>
<g id="goo">
</g>
<g id="b__x26__b">
</g>
<g id="mindy_smith">
</g>
<g id="tesseract">
</g>
<g id="grandparents.com">
</g>
<g id="ican">
</g>
<g id="my_well_being">
</g>
<g id="apple_patch">
</g>
</svg>
