<svg id="Layer_1" data-name="Layer 1" xmlns="http://www.w3.org/2000/svg" viewBox="0 0 545.33 99"><defs><style>.cls-1{fill:#1a1a10;}</style></defs><title>med-center</title><path class="cls-1" d="M161.19,79.57V77.73l2.7-.35,0.81-.86V52.08l-0.57-.64-3-.26v-1.8h9.56v1.21l8.46,22.59,8.55-22.41V49.38h9.62v1.8l-2.83.26-0.55.64V76.87l0.55,0.64,2.83,0.22v1.85H186.59V77.73l3-.22,0.44-.64V51.49L179.34,79.57H177.4L167.14,52V76.52L168,77.38l2.75,0.35v1.85h-9.51Z" transform="translate(-4.8 -5.07)"/><path class="cls-1" d="M217.91,74.8v2.48a16.7,16.7,0,0,1-4.16,2,14.31,14.31,0,0,1-4.33.68,9.33,9.33,0,0,1-7.25-3.07,11.43,11.43,0,0,1-2.78-8,11.77,11.77,0,0,1,2.92-8.25,9.68,9.68,0,0,1,7.49-3.2,7.65,7.65,0,0,1,5.93,2.38,9.23,9.23,0,0,1,2.19,6.49q0,0.55,0,.83a4.27,4.27,0,0,1-.05.55H203.26v0.51a10.21,10.21,0,0,0,2,6.71,6.8,6.8,0,0,0,5.52,2.47,9.61,9.61,0,0,0,3.33-.64A18.61,18.61,0,0,0,217.91,74.8Zm-4-9v-0.7a6.36,6.36,0,0,0-1.2-4.16,4.26,4.26,0,0,0-3.48-1.45,5.09,5.09,0,0,0-3.88,1.78,7.24,7.24,0,0,0-1.83,4.52h10.39Z" transform="translate(-4.8 -5.07)"/><path class="cls-1" d="M236.52,49.47h-3.45V48.06l5.49-1.6h1.69V77L241,77.73l2.15,0.22v1.63h-6.66V77.24a13.5,13.5,0,0,1-3.43,2.07,9.43,9.43,0,0,1-3.49.66,7.74,7.74,0,0,1-6.23-3,11.46,11.46,0,0,1-2.45-7.57,12,12,0,0,1,3.22-8.69,11.14,11.14,0,0,1,8.38-3.33,14.8,14.8,0,0,1,1.91.13q1,0.13,2.09.37V49.47Zm0,26.1V60.13q-1.23-.35-2.21-0.54a9.46,9.46,0,0,0-1.75-.19A6.89,6.89,0,0,0,227,62a10.17,10.17,0,0,0-2.12,6.72,9.58,9.58,0,0,0,1.83,6.17,6,6,0,0,0,4.91,2.29,8,8,0,0,0,2.41-.38A11.06,11.06,0,0,0,236.52,75.57Z" transform="translate(-4.8 -5.07)"/><path class="cls-1" d="M251.14,57.71h1.76V77l0.77,0.73,2.42,0.22v1.63H246V77.95l2.37-.22,0.77-.73V60.72H246V59.31Zm0.18-10a2.51,2.51,0,0,1,1.86.77,2.54,2.54,0,0,1,.76,1.85,2.46,2.46,0,0,1-.76,1.82,2.55,2.55,0,0,1-1.86.75,2.52,2.52,0,0,1-1.83-.75,2.46,2.46,0,0,1-.76-1.82,2.53,2.53,0,0,1,.76-1.86A2.5,2.5,0,0,1,251.32,47.71Z" transform="translate(-4.8 -5.07)"/><path class="cls-1" d="M274.94,77.68a17.4,17.4,0,0,1-3.71,1.65,12.44,12.44,0,0,1-3.6.55,9.44,9.44,0,0,1-7.35-3.07,11.59,11.59,0,0,1-2.78-8.1,11.35,11.35,0,0,1,3-8.12,10.11,10.11,0,0,1,7.7-3.13,8.85,8.85,0,0,1,4.94,1.2,3.69,3.69,0,0,1,1.8,3.22,2.31,2.31,0,0,1-.68,1.74,2.51,2.51,0,0,1-1.82.66,3.06,3.06,0,0,1-1-.18,4.65,4.65,0,0,1-1-.51V59.91a5,5,0,0,0-1.08-.47,3.79,3.79,0,0,0-1.1-.17,5.66,5.66,0,0,0-4.8,2.49,11.07,11.07,0,0,0-1.81,6.65,9.52,9.52,0,0,0,2.05,6.47,7,7,0,0,0,5.59,2.36,9,9,0,0,0,2.88-.47,11.75,11.75,0,0,0,2.83-1.44v2.35Z" transform="translate(-4.8 -5.07)"/><path class="cls-1" d="M290.74,77a20.44,20.44,0,0,1-4,2.21,9.3,9.3,0,0,1-3.39.71,5.42,5.42,0,0,1-5.76-5.76A5.23,5.23,0,0,1,280,69.6q2.36-1.65,10.78-3.67V64.5q0-2.83-.92-3.93a4,4,0,0,0-3.21-1.1,8.18,8.18,0,0,0-1.69.18,11,11,0,0,0-1.74.53v3.78h-3.1a1.58,1.58,0,0,1-1.11-.3,1.54,1.54,0,0,1-.3-1.09q0-2.2,2.54-3.65a13.12,13.12,0,0,1,6.56-1.45q3.54,0,5.14,1.54t1.6,4.94V77l0.77,0.73,2.37,0.22v1.63h-6.33Zm0-1.52V67.51q-5.65,1.56-7.42,2.86a4,4,0,0,0-1.77,3.41,3.68,3.68,0,0,0,1,2.69,3.5,3.5,0,0,0,2.63,1,7.16,7.16,0,0,0,2.43-.51A21.77,21.77,0,0,0,290.74,75.44Z" transform="translate(-4.8 -5.07)"/><path class="cls-1" d="M300,79.57V77.95l2.66-.22,0.77-.73V49.47H300V48.06l5.49-1.6h1.71V77L308,77.73l2.57,0.22v1.63H300Z" transform="translate(-4.8 -5.07)"/><path class="cls-1" d="M350.41,78.54a29.31,29.31,0,0,1-4.53,1.18,26.17,26.17,0,0,1-4.55.41,17.86,17.86,0,0,1-4.15-.46,13.79,13.79,0,0,1-3.52-1.34,14.88,14.88,0,0,1-5.7-5.77,16.28,16.28,0,0,1-2.08-8.1q0-7,4.3-11.33t11.33-4.3a25.09,25.09,0,0,1,4.25.38,35,35,0,0,1,4.65,1.15v6.92h-2.5l-0.68-4.09-0.59-.81a13.33,13.33,0,0,0-2.53-.88,11,11,0,0,0-2.5-.29,10.12,10.12,0,0,0-8.09,3.47q-3,3.47-3,9.45,0,6.35,3.12,10a10.8,10.8,0,0,0,8.64,3.61,13.43,13.43,0,0,0,1.94-.14,12.87,12.87,0,0,0,2-.45l0.7-.7,1.1-5h2.42v7.12Z" transform="translate(-4.8 -5.07)"/><path class="cls-1" d="M372.07,74.8v2.48a16.7,16.7,0,0,1-4.16,2,14.31,14.31,0,0,1-4.33.68,9.33,9.33,0,0,1-7.25-3.07,11.43,11.43,0,0,1-2.78-8,11.77,11.77,0,0,1,2.92-8.25,9.68,9.68,0,0,1,7.49-3.2,7.65,7.65,0,0,1,5.93,2.38,9.23,9.23,0,0,1,2.19,6.49q0,0.55,0,.83a4.27,4.27,0,0,1-.05.55H357.42v0.51a10.21,10.21,0,0,0,2,6.71A6.8,6.8,0,0,0,365,77.42a9.61,9.61,0,0,0,3.33-.64A18.61,18.61,0,0,0,372.07,74.8Zm-4-9v-0.7a6.36,6.36,0,0,0-1.2-4.16,4.26,4.26,0,0,0-3.48-1.45,5.09,5.09,0,0,0-3.88,1.78,7.24,7.24,0,0,0-1.83,4.52H368Z" transform="translate(-4.8 -5.07)"/><path class="cls-1" d="M374.93,79.57V77.95l2.44-.22,0.77-.73V60.72h-3.21V59.31l5.23-1.6h1.71v2.46a33.36,33.36,0,0,1,4.35-2.1,8.58,8.58,0,0,1,2.9-.6,5.71,5.71,0,0,1,4.5,1.76,7.45,7.45,0,0,1,1.56,5.1V77L396,77.73l2.42,0.22v1.63h-9.84V77.95l2.15-.22,0.77-.73V65.09a5,5,0,0,0-1-3.58,4.81,4.81,0,0,0-3.5-1.05,8.43,8.43,0,0,0-2.33.36,15.24,15.24,0,0,0-2.7,1.11V77l0.77,0.73,2.15,0.22v1.63h-9.87Z" transform="translate(-4.8 -5.07)"/><path class="cls-1" d="M401.81,60.63H399V59.23l3-1.3,1.93-4.2h1.67v4.79h6.86v2.11h-6.86V72.5q0,2.92.81,3.92a3.59,3.59,0,0,0,2.92,1,13.44,13.44,0,0,0,1.5-.09,13.63,13.63,0,0,0,1.62-.29v1.67a22.71,22.71,0,0,1-3,.74,17.26,17.26,0,0,1-2.88.25,5.3,5.3,0,0,1-3.64-1q-1-1-1-3.57V60.63Z" transform="translate(-4.8 -5.07)"/><path class="cls-1" d="M432.06,74.8v2.48a16.7,16.7,0,0,1-4.16,2,14.31,14.31,0,0,1-4.33.68,9.33,9.33,0,0,1-7.25-3.07,11.43,11.43,0,0,1-2.78-8,11.77,11.77,0,0,1,2.92-8.25,9.68,9.68,0,0,1,7.49-3.2,7.65,7.65,0,0,1,5.93,2.38,9.23,9.23,0,0,1,2.19,6.49q0,0.55,0,.83a4.27,4.27,0,0,1-.05.55H417.4v0.51a10.21,10.21,0,0,0,2,6.71A6.8,6.8,0,0,0,425,77.42a9.61,9.61,0,0,0,3.33-.64A18.61,18.61,0,0,0,432.06,74.8Zm-4-9v-0.7a6.36,6.36,0,0,0-1.2-4.16,4.26,4.26,0,0,0-3.48-1.45,5.09,5.09,0,0,0-3.88,1.78,7.24,7.24,0,0,0-1.83,4.52H428Z" transform="translate(-4.8 -5.07)"/><path class="cls-1" d="M434.92,79.57V77.95l2.4-.22,0.77-.73V60.72h-3.16V59.31l5.23-1.6h1.71v4.22q1.1-1.12,2.3-2.21t2.52-2.14a1.93,1.93,0,0,1,.43-0.09l0.69,0a6.35,6.35,0,0,1,1.34.14,7.26,7.26,0,0,1,1.36.45v3.87h-1.43a2.89,2.89,0,0,0-2.31-1.08,4.13,4.13,0,0,0-2.27.8,13.42,13.42,0,0,0-2.63,2.49V77l0.77,0.73,3.14,0.22v1.63H434.92Z" transform="translate(-4.8 -5.07)"/><path class="cls-1" d="M464.76,79.57V77.73l2.55-.22,0.77-.64V52.08l-0.77-.64-2.55-.26v-1.8h21.55V56h-2.53l-0.64-3.82-0.62-.68H472.12V62.83h7.38l0.64-.64,0.44-3.27h2.13v9.91h-2.13l-0.44-3.25-0.64-.68h-7.38V77.51h12.06l0.64-.73,0.77-4.55h2.33v7.34H464.76Z" transform="translate(-4.8 -5.07)"/><path class="cls-1" d="M490.73,79.57V77.73l2.7-.35,0.81-.86V52.08l-0.57-.64-3-.26v-1.8h9.56v1.21l8.46,22.59,8.55-22.41V49.38h9.62v1.8l-2.83.26-0.55.64V76.87L524,77.51l2.83,0.22v1.85H516.13V77.73l3-.22,0.44-.64V51.49L508.88,79.57h-1.93L496.69,52V76.52l0.81,0.86,2.75,0.35v1.85h-9.51Z" transform="translate(-4.8 -5.07)"/><path class="cls-1" d="M530.38,78.67V70.76H533l0.53,5.16,0.59,0.77a8.92,8.92,0,0,0,2.26.77,13.67,13.67,0,0,0,2.77.26,7.77,7.77,0,0,0,5-1.46A4.78,4.78,0,0,0,546,72.32q0-3.45-6.46-6.2l-1.08-.46q-4.61-2-6.11-3.72a6.59,6.59,0,0,1-1.49-4.47,7.76,7.76,0,0,1,2.85-6.25,11.37,11.37,0,0,1,7.55-2.38,22.88,22.88,0,0,1,3.79.32,27.44,27.44,0,0,1,3.88,1v7h-2.35l-0.68-4.28L545.23,52a6.94,6.94,0,0,0-1.87-.71,9.9,9.9,0,0,0-2.2-.23,6.48,6.48,0,0,0-4.46,1.46,5,5,0,0,0-1.65,4,4.18,4.18,0,0,0,1.15,3,17.32,17.32,0,0,0,5.15,2.89l1.12,0.44a17,17,0,0,1,5.67,3.25,6.33,6.33,0,0,1,1.48,2.22,7.37,7.37,0,0,1,.49,2.72,7.93,7.93,0,0,1-3.19,6.56,13.35,13.35,0,0,1-8.46,2.49,25,25,0,0,1-4.43-.37A16.38,16.38,0,0,1,530.38,78.67Z" transform="translate(-4.8 -5.07)"/><path class="cls-1" d="M69.3,49.26V48.39l1.26-.16,0.38-.4V36.41l-0.27-.3L69.28,36V35.15h4.46v0.56l4,10.55,4-10.47V35.15h4.5V36l-1.32.12-0.26.3V48l0.26,0.3,1.32,0.1v0.86h-5V48.39l1.39-.1,0.21-.3V36.14l-5,13.12h-0.9l-4.79-12.9V47.83l0.38,0.4,1.28,0.16v0.86H69.3Z" transform="translate(-4.8 -5.07)"/><path class="cls-1" d="M87.7,49.26V48.39l1.19-.1,0.36-.3V36.41l-0.36-.3L87.7,36V35.15H97.77v3.07H96.59l-0.3-1.79L96,36.12H91.14v5.32h3.45l0.3-.3,0.21-1.53h1v4.63h-1l-0.21-1.52-0.3-.32H91.14v5.89h5.64l0.3-.34,0.36-2.12h1.09v3.43H87.7Z" transform="translate(-4.8 -5.07)"/><path class="cls-1" d="M105.18,35.15A8.23,8.23,0,0,1,110.9,37a6.66,6.66,0,0,1,2,5.2,7.92,7.92,0,0,1-.66,3.32,6.28,6.28,0,0,1-2,2.44,5.88,5.88,0,0,1-2.08,1,12.47,12.47,0,0,1-3,.3H100V48.39l1.19-.1,0.36-.3V36.41l-0.36-.3L100,36V35.15h5.18Zm-1.75,1V48.29h1.66a5.62,5.62,0,0,0,4.3-1.51,6.49,6.49,0,0,0,1.42-4.58,6.48,6.48,0,0,0-1.41-4.57,5.64,5.64,0,0,0-4.31-1.5h-1.66Z" transform="translate(-4.8 -5.07)"/><path class="cls-1" d="M63.72,69.75a13.73,13.73,0,0,1-2.11.55,12.24,12.24,0,0,1-2.12.19,8.34,8.34,0,0,1-1.94-.22,6.44,6.44,0,0,1-1.64-.63A7,7,0,0,1,53.24,67a7.6,7.6,0,0,1-1-3.78,6.89,6.89,0,0,1,7.3-7.3,11.71,11.71,0,0,1,2,.18,16.28,16.28,0,0,1,2.17.54v3.23H62.55l-0.32-1.91L62,57.53a6.19,6.19,0,0,0-1.18-.41A5.17,5.17,0,0,0,59.61,57a4.73,4.73,0,0,0-3.78,1.62A6.54,6.54,0,0,0,54.43,63a6.89,6.89,0,0,0,1.46,4.66,5,5,0,0,0,4,1.69,6.2,6.2,0,0,0,.91-0.07,6,6,0,0,0,.92-0.21l0.33-.33,0.51-2.34h1.13v3.33Z" transform="translate(-4.8 -5.07)"/><path class="cls-1" d="M65.36,70.23V69.37l1.19-.1,0.36-.3V57.39l-0.36-.3L65.36,57V56.13H75.43V59.2H74.25L74,57.41l-0.29-.32H68.8v5.32h3.45l0.3-.3,0.21-1.53h1v4.63h-1l-0.21-1.52-0.3-.32H68.8v5.89h5.64l0.3-.34,0.36-2.12h1.09v3.43H65.36Z" transform="translate(-4.8 -5.07)"/><path class="cls-1" d="M77.62,70.23V69.37l1.28-.16,0.38-.4V57.39l-0.38-.3L77.56,57V56.13h4v0.52l7.17,10.77V57.53l-0.38-.38L87,57V56.13h4.41V57l-1.26.19-0.38.38v12.7H88.43l-8-11.94V68.8l0.38,0.4,1.26,0.16v0.86H77.62Z" transform="translate(-4.8 -5.07)"/><path class="cls-1" d="M92.74,56.13h11.88v3.23h-1.16l-0.29-2-0.3-.32H99.65V69l0.35,0.3,1.42,0.1v0.86H95.93V69.37l1.41-.1,0.36-.3V57.09H94.48l-0.3.32-0.3,2H92.74V56.13Z" transform="translate(-4.8 -5.07)"/><path class="cls-1" d="M106,70.23V69.37l1.19-.1,0.36-.3V57.39l-0.36-.3L106,57V56.13H116V59.2h-1.18l-0.3-1.79-0.29-.32h-4.87v5.32h3.45l0.3-.3,0.21-1.53h1v4.63h-1l-0.21-1.52-0.3-.32h-3.45v5.89H115l0.3-.34,0.36-2.12h1.09v3.43H106Z" transform="translate(-4.8 -5.07)"/><path class="cls-1" d="M118.27,56.13h5.36a6.38,6.38,0,0,1,3.82.93,3.32,3.32,0,0,1,1.24,2.85,3.08,3.08,0,0,1-.85,2.24,4.92,4.92,0,0,1-2.55,1.25,4.74,4.74,0,0,1,1.32.56,2.61,2.61,0,0,1,.84.86,5.59,5.59,0,0,1,.6,1.66,11.69,11.69,0,0,0,.39,1.45,2.11,2.11,0,0,0,.87,1.18,4,4,0,0,0,1.86.31h0.18v0.8q-0.47.09-.87,0.14a6.65,6.65,0,0,1-.76,0,4.56,4.56,0,0,1-1.25-.15,2.31,2.31,0,0,1-.88-0.46,5.18,5.18,0,0,1-1.24-2.57q-0.18-.69-0.3-1a3.35,3.35,0,0,0-1.13-1.78,3.83,3.83,0,0,0-2.16-.49l-1,0h-0.07v5l0.36,0.3,1.2,0.1v0.86h-5V69.37l1.19-.1,0.36-.3V57.39l-0.36-.3L118.27,57V56.13Zm3.44,1v5.85l0.61,0h0.55a4.66,4.66,0,0,0,2.84-.69,2.61,2.61,0,0,0,.89-2.2,2.7,2.7,0,0,0-.91-2.27,4.87,4.87,0,0,0-3-.71h-1Z" transform="translate(-4.8 -5.07)"/><path class="cls-1" d="M51.6,77.1h5.1v0.84l-1.3.12-0.36.3v5h7.24v-5l-0.36-.3-1.3-.12V77.1h5.11v0.84l-1.2.12-0.36.3V89.94l0.36,0.3,1.2,0.1v0.86H60.61V90.34l1.3-.1,0.36-.3V84.29H55v5.66l0.36,0.3,1.3,0.1v0.86H51.6V90.34l1.19-.1,0.36-.3V78.36l-0.36-.3-1.19-.12V77.1Z" transform="translate(-4.8 -5.07)"/><path class="cls-1" d="M67.25,91.21V90.34l1.19-.1,0.36-.3V78.36l-0.36-.3-1.19-.12V77.1H77.32v3.07H76.14l-0.3-1.79-0.29-.32H70.69v5.32h3.45l0.3-.3,0.21-1.53h1v4.63h-1l-0.21-1.52-0.3-.32H70.69v5.89h5.64l0.3-.34L77,87.78h1.09v3.43H67.25Z" transform="translate(-4.8 -5.07)"/><path class="cls-1" d="M85.26,76.93h1.39l5,13.16,1.26,0.26v0.86H88.17V90.34l1.3-.1,0.15-.3-1.52-4h-5l-1.5,4,0.22,0.3,1.37,0.1v0.86H79.12V90.34l1.21-.26Zm0.33,2.21L83.51,85h4.24Z" transform="translate(-4.8 -5.07)"/><path class="cls-1" d="M94,91.21V90.34l1.32-.1,0.36-.3V78.36l-0.36-.3L94,77.94V77.1h5.13v0.84l-1.2.12-0.36.3V90.24h4.75l0.3-.34,0.36-2.52H104v3.83H94Z" transform="translate(-4.8 -5.07)"/><path class="cls-1" d="M103.57,77.1h11.88v3.23h-1.16l-0.29-2-0.3-.32h-3.21V89.94l0.35,0.3,1.42,0.1v0.86h-5.49V90.34l1.41-.1,0.36-.3V78.07h-3.21l-0.3.32-0.3,2h-1.15V77.1Z" transform="translate(-4.8 -5.07)"/><path class="cls-1" d="M116.8,77.1h5.1v0.84l-1.3.12-0.36.3v5h7.24v-5l-0.36-.3-1.3-.12V77.1h5.11v0.84l-1.2.12-0.36.3V89.94l0.36,0.3,1.2,0.1v0.86h-5.11V90.34l1.3-.1,0.36-.3V84.29h-7.24v5.66l0.36,0.3,1.3,0.1v0.86h-5.1V90.34l1.19-.1,0.36-.3V78.36l-0.36-.3-1.19-.12V77.1Z" transform="translate(-4.8 -5.07)"/><rect class="cls-1" x="142.3" y="12.4" width="1.06" height="86.6"/><path class="cls-1" d="M18.05,29H29.41c1,0,1,0,1-1q0-10.94,0-21.88c0-1,0-1,1-1s1.89-.06,2.83-0.08,0.83,0,.83.82q0,11,0,22.06c0,0.2,0,.39,0,0.59a0.43,0.43,0,0,0,.52.53c0.81,0,1.62,0,2.42,0H58.52c0.91,0,.91,0,0.91.91s0,1.73,0,2.6,0,0.79-.8.79H40.3c-1.52,0-3,0-4.55,0a0.58,0.58,0,0,0-.7.72c0,5.22,0,10.45,0,15.67,0,0.18,0,.35,0,0.53s-0.11.46-.42,0.26l-3.91-2.45a0.88,0.88,0,0,1-.3-0.9q0-6.39,0-12.77c0-.18,0-0.36,0-0.53a0.44,0.44,0,0,0-.53-0.53H6.71c-1,0-1,0-1-1q0-1.21,0-2.42c0-.86,0-0.86.84-0.86H18.05Z" transform="translate(-4.8 -5.07)"/><path class="cls-1" d="M17.35,36.27h9.82c1,0,1.34.43,1.07,1.42a4.78,4.78,0,0,1-2,2.51,8.62,8.62,0,0,1-5.14,1.68c-0.45,0-.91,0-1.36,0a0.42,0.42,0,0,0-.31.75,4,4,0,0,0,.77.64c2.2,1.5,4.58,2.71,6.83,4.13q8.32,5.26,16.79,10.28c0.91,0.54,1.84,1.08,2.72,1.67a2,2,0,0,1,.61,2.89,5.29,5.29,0,0,1-1.69,1.62c-1.39.95-2.94,1.61-4.37,2.47a23.93,23.93,0,0,0-2.66,1.75,0.65,0.65,0,0,1-.85,0c-1.66-.94-1.75-1.11-1.55-3a0.92,0.92,0,0,1,.5-0.68c1.12-.77,2.24-1.54,3.35-2.32,0.72-.51.72-0.75,0-1.27-1.84-1.29-3.87-2.28-5.81-3.42-6.19-3.62-12.43-7.17-18.66-10.72C12.72,45.17,10,43.6,7.3,42,6.85,41.77,6.42,41.5,6,41.2a2.36,2.36,0,0,1-1-3,2.63,2.63,0,0,1,2.63-1.9h9.76Z" transform="translate(-4.8 -5.07)"/><path class="cls-1" d="M48.81,36c3.37,0,6.74,0,10.11,0a2,2,0,0,1,2,1.26,2.2,2.2,0,0,1-.29,2.49,6.64,6.64,0,0,1-1.56,1.35c-3.3,2.15-6.77,4-10.13,6.09C46,49,43,50.74,40,52.56a1.86,1.86,0,0,1-2.34,0c-1.58-1.08-1.59-1-1.62-2.93a1.2,1.2,0,0,1,.62-1.15c2.73-1.77,5.39-3.64,8.19-5.3a2.13,2.13,0,0,0,.8-0.69c0.25-.41.1-0.69-0.37-0.7s-1.06,0-1.6,0a8.31,8.31,0,0,1-6.1-2.93A2.81,2.81,0,0,1,37.12,38a1.47,1.47,0,0,1,1.35-2C41.92,36.08,45.37,36,48.81,36Z" transform="translate(-4.8 -5.07)"/><path class="cls-1" d="M29.46,57.65a1.69,1.69,0,0,1-1.15,2.11c-0.72.36-1.43,0.75-2.12,1.17s-0.75.69-.05,1.18c2.36,1.65,4.83,3.12,7.3,4.6s5,3,7.46,4.56a10.8,10.8,0,0,1,1.65,1.24,1.32,1.32,0,0,1,.19,1.95,3.54,3.54,0,0,1-.73.77,26.27,26.27,0,0,1-5.35,3.11c-0.44.21-.63,0.09-0.6-0.39a3.5,3.5,0,0,0,0-.65A1.84,1.84,0,0,1,37,75.36c1-.65.88-1.37-0.11-1.94-5.19-3-10.46-5.91-15.57-9.07a7.45,7.45,0,0,1-1.35-1,2.12,2.12,0,0,1,.25-3.55c1.34-.94,2.74-1.79,4.12-2.66,0.86-.55,1.75-1.07,2.61-1.62a1,1,0,0,1,1.29,0,1,1,0,0,0,.25.16A1.53,1.53,0,0,1,29.46,57.65Z" transform="translate(-4.8 -5.07)"/><path class="cls-1" d="M46.31,85.84l-2.23-.49A35.58,35.58,0,0,1,33.79,81c-2.62-1.56-5.29-3.06-7.92-4.6a9.44,9.44,0,0,1-2-1.5A1.28,1.28,0,0,1,23.7,73,8.57,8.57,0,0,1,26,71.08c0.23-.15.47-0.29,0.71-0.42,1.47-.84,1.47-0.84,2.82.16a0.78,0.78,0,0,1,.21.2,3.38,3.38,0,0,1-.35,2.57c-0.87.71-.83,1,0.15,1.7,1.75,1.26,3.66,2.25,5.49,3.37q5.31,3.26,10.6,6.56A1.34,1.34,0,0,1,46.31,85.84Z" transform="translate(-4.8 -5.07)"/><path class="cls-1" d="M30.89,87q0-2.81,0-5.62c0-.76.06-0.8,0.7-0.44,1,0.58,2.05,1.17,3.09,1.74a0.85,0.85,0,0,1,.5.84q0,4.61,0,9.22a0.56,0.56,0,0,1-.68.69q-1.48,0-3,0a0.57,0.57,0,0,1-.68-0.7c0-1.91,0-3.82,0-5.73h0Z" transform="translate(-4.8 -5.07)"/><path class="cls-1" d="M35.05,62.83c0,1,0,1.93,0,2.89,0,0.42-.16.49-0.5,0.28L30.9,63.73A0.73,0.73,0,0,1,30.53,63c0-1.87,0-3.74,0-5.61,0-.54.21-0.54,0.61-0.32,1.2,0.68,2.38,1.38,3.53,2.15a0.78,0.78,0,0,1,.39.73C35,60.94,35.05,61.88,35.05,62.83Z" transform="translate(-4.8 -5.07)"/><path class="cls-1" d="M35.17,75.67q0,0.68,0,1.36c0,0.33-.12.44-0.43,0.26C33.47,76.57,32.2,75.85,31,75a0.74,0.74,0,0,1-.34-0.65q0-1.3,0-2.6c0-.48.19-0.54,0.58-0.3,1.13,0.71,2.27,1.42,3.42,2.1a0.92,0.92,0,0,1,.52,1c0,0.37,0,.75,0,1.12h0Z" transform="translate(-4.8 -5.07)"/><path class="cls-1" d="M20.13,86.1a0.63,0.63,0,0,1,.38-0.38l8.88-4.94c0.61-.34.69-0.3,0.68,0.42,0,2,.36,1.62-1.59,2.38a76.74,76.74,0,0,1-8,2.47A3.27,3.27,0,0,1,20.13,86.1Z" transform="translate(-4.8 -5.07)"/></svg>