<?xml version="1.0" encoding="utf-8"?>
<!-- Generator: Adobe Illustrator 17.1.0, SVG Export Plug-In . SVG Version: 6.00 Build 0)  -->
<!DOCTYPE svg PUBLIC "-//W3C//DTD SVG 1.1//EN" "http://www.w3.org/Graphics/SVG/1.1/DTD/svg11.dtd">
<svg version="1.1" id="Layer_1" xmlns="http://www.w3.org/2000/svg" xmlns:xlink="http://www.w3.org/1999/xlink" x="0px" y="0px"
	 width="150px" height="29px" viewBox="405 265.5 150 29" style="enable-background:new 405 265.5 150 29;" xml:space="preserve" preserveAspectRatio="XminYmin none">
<style type="text/css">
	.st0{fill:#1a1a10;}
</style>
<g id="humana">
</g>
<g id="humana_vitality">
</g>
<g id="jencare">
	<g>
		<path class="st0" d="M433.4,282.2c-0.1,0.1-0.2,0.2-0.5,0.3c-1.3,0.5-2.4,0.8-3.6,0.8c-0.6,0-1.5-0.1-2.8-0.4
			c-0.5-0.1-1-0.4-1.4-1c-0.2-0.3-0.5-0.7-1-1.5c-0.3-0.5-0.5-1-0.5-1.5c0-0.6,0.1-1.4,0.2-2.5c0.1-0.6,0.1-0.9,0.1-1
			c0-0.3-0.1-0.5-0.2-0.8c0,0-0.1,0-0.1,0h0c-0.2,0.2-0.5,0.7-0.9,1.5c-0.5,1.1-0.7,1.7-0.8,1.7c-1.2,2.1-2.2,3.2-3.2,3.2
			c-0.5,0-0.7-0.4-0.7-1.2c0-0.7,0.2-1.6,0.5-2.7c0.5-1.8,0.8-2.7,0.8-2.7l0.8-3.4c0.3-1.2,0.4-1.8,0.4-1.9c0-0.4-0.1-0.6-0.2-0.6
			c-0.4,0-1.1,1.1-2.3,3.2c-0.7,1.4-1.4,2.7-2,4.1c-0.2,0.4-0.5,1-0.9,1.7c-0.2,0.4-0.4,0.9-0.8,1.6c-0.2,0.3-0.5,0.6-0.9,0.9
			s-0.8,0.4-1.1,0.4c-0.5,0-0.7-0.3-0.7-0.8c0-0.3,0.1-1,0.3-2c0.3-1.4,0.5-2.5,0.8-3.3c0-0.1,0.2-0.7,0.6-1.9
			c0.3-0.8,0.4-1.5,0.4-1.9c0-0.3-0.1-0.5-0.3-0.5c-0.2,0-0.7,0.4-1.5,1.1c-0.9,0.8-1.5,1.3-1.6,1.4c-0.3,0.2-0.8,0.5-1.5,0.8
			c-0.5,0.3-1,0.7-1.5,1c-0.6,0.5-1.2,0.6-1.8,0.6c-0.2,0-0.4,0-0.5-0.1c-0.2-0.1-0.3-0.2-0.3-0.4c0-0.4,0.4-0.7,1.2-0.9
			c0.1,0,0.7-0.1,1.6-0.3c0.5-0.1,1.1-0.4,1.7-0.7c0.5-0.4,1-0.8,1.4-1.2c0.8-0.6,1.7-1.5,2.9-2.6c0.5-0.6,1-1.2,1.5-1.8
			c0.6-0.7,1.3-1.1,1.9-1.1c0.3,0,0.4,0.2,0.4,0.5c0,0.1-0.1,0.5-0.4,1.2c-0.2,0.4-0.3,0.8-0.5,1.2c-1,2.9-1.5,4.6-1.5,5.3
			c0,0.4,0.1,0.6,0.2,0.6c0,0,0.2-0.2,0.4-0.5c0.3-0.5,0.8-1.4,1.4-2.5c2.4-3.9,4.3-5.8,5.6-5.8c0.1,0,0.3,0,0.4,0.1
			c0.2,0.2,0.3,0.5,0.3,0.7c0,0.1-0.1,0.5-0.3,1.1c-0.2,0.8-0.4,1.2-0.4,1.3c-0.1,0.5-0.3,1.2-0.5,2.2c-0.2,0.6-0.4,1.1-0.5,1.7
			c-0.2,0.8-0.3,1.3-0.3,1.7c0,0.1,0,0.2,0,0.3c0,0.1,0,0.3,0,0.3c0,0,0,0.1,0,0.1c0,0,0,0,0.1,0c0.2,0,0.6-0.5,1.1-1.5
			c0.3-0.6,0.6-1.3,0.9-1.9c0.3-0.4,0.6-0.9,1.1-1.6c0.3-0.5,0.7-1.1,1.3-1.9c0.3-0.3,0.7-0.8,1.3-1.5c0.3-0.4,0.6-0.7,0.9-1.1
			c0.4-0.4,0.8-0.6,1.2-0.6c0.3,0,0.5,0.2,0.5,0.5c0,0.2-0.2,0.6-0.5,1.2c-0.5,0.7-0.7,1.1-0.8,1.2c-0.1,0.1-0.4,1-1,2.6
			c-0.3,0.7-0.5,1.6-0.7,2.7c-0.2,1.1-0.4,2.1-0.4,2.8c0,0.8,0.1,1.5,0.3,2.3c0.2,1,0.6,1.6,1,2l0.8,0.6c0.4,0.3,0.9,0.5,1.4,0.6h1
			C432.4,282,433.3,282.1,433.4,282.2z"/>
		<path class="st0" d="M444.1,281.3c-0.4,0.4-1.1,0.8-2.2,1.2c-1,0.3-1.8,0.5-2.5,0.5c-0.9,0-1.6-0.1-1.9-0.4c0,0-0.4-0.4-1.1-1
			c-0.5-0.5-0.9-0.8-1.1-0.8c-0.2,0-0.4,0.2-0.6,0.5c-0.4,0.4-0.7,0.7-1,0.9c-0.5,0.3-1.1,0.5-1.8,0.5c-0.3,0-0.5-0.1-0.5-0.2
			c0-0.1,0.3-0.2,0.6-0.4c0.5-0.2,0.7-0.4,0.7-0.4c0.4-0.3,1.3-1.5,2.7-3.6c0.4-0.9,0.9-1.8,1.3-2.8c0.6-1.3,1.3-1.9,1.9-1.9
			c0.2,0,0.3,0.3,0.3,0.9c0,0.4,0,0.9-0.1,1.5c-0.1,0.8-0.2,1.3-0.3,1.5c-0.1,0.7-0.1,1.1-0.1,1.2c0,0.7,0.3,1.4,1,2.1
			c0.7,0.7,1.4,1,2.1,1c0.2,0,0.6-0.1,1.1-0.2c0.5-0.1,0.8-0.2,1.1-0.2c0.1,0,0.2,0,0.3,0c0.1,0,0.2,0,0.3,0
			C444.2,281.1,444.1,281.2,444.1,281.3z M441.5,268.5c0,0.4-0.2,0.7-0.5,0.9c-0.4,0.3-0.7,0.4-1.2,0.4c-0.3,0-0.6-0.1-0.9-0.2
			c-0.3-0.2-0.5-0.4-0.5-0.7c0-0.4,0.2-0.7,0.5-1c0.4-0.3,0.7-0.4,1.1-0.4c0.4,0,0.7,0.1,0.9,0.2
			C441.4,267.9,441.5,268.2,441.5,268.5z"/>
		<path class="st0" d="M458.3,281.3c0,0.3-0.3,0.6-0.8,0.9c-0.7,0.5-1.1,0.7-1.2,0.8c-0.3,0.2-0.8,0.3-1.4,0.4
			c-0.7,0.1-1.2,0.2-1.5,0.2c-0.7,0-1.4-0.3-2.3-1c-0.8-0.7-1.3-1.3-1.5-2c-0.1-0.6-0.3-1.5-0.5-2.8c-0.1-0.5-0.3-0.7-0.5-0.7
			c-0.3,0-0.7,0.5-1.3,1.6c-0.9,1.8-1.4,2.8-1.4,2.9c-0.6,1.1-1.3,1.6-1.9,1.6c-0.4,0-0.7-0.3-0.7-0.9c0-0.6-0.1-1.6-0.1-2.8
			c0-0.2-0.1-0.6-0.1-1.3c-0.1-0.5-0.1-0.9-0.1-1.2c0-0.6,0.2-1.2,0.5-1.9c0.4-0.8,0.8-1.2,1.3-1.2c0.4,0,0.6,0.4,0.6,1.1
			c0,0.7,0,1.4,0.1,2.1c0,0.7,0.2,1.1,0.4,1.1c0.2,0,0.6-0.4,1.3-1.3c1-1.2,1.6-2,2-2.3c0.8-0.8,1.5-1.3,2.1-1.3
			c0.1,0,0.2,0.1,0.4,0.2c0.1,0.1,0.2,0.3,0.2,0.4l0,3.2c0,0.6,0.3,1.3,0.8,2c0.6,0.8,1,1.4,1.2,1.5c0.5,0.5,1,0.7,1.7,0.7
			c0.3,0,0.7,0,1.2-0.1c0.5-0.1,0.9-0.1,1.2-0.1C458.1,281,458.2,281.1,458.3,281.3z"/>
		<path class="st0" d="M470.6,281.1c0,0.6-0.3,1.1-0.8,1.4c-0.5,0.4-1.1,0.6-1.7,0.6c-0.5,0-1-0.1-1.5-0.3c-0.5-0.2-1-0.5-1.3-0.8
			c0,0-0.3-0.4-0.7-1.2c-0.4-0.5-0.6-0.8-0.9-0.8c-0.2,0-0.6,0.3-1.2,0.9c-0.7,0.8-1.3,1.4-1.7,1.6c-0.8,0.6-1.6,0.9-2.4,0.9
			c-0.5,0-0.9-0.3-1.2-0.7c-0.2-0.4-0.3-0.9-0.3-1.5c0-2.5,1-4.6,3.1-6.3c0.6-0.5,1.5-0.8,2.8-0.8c0.7,0,1.2-0.3,1.3-0.8
			c0.1-0.5,0.2-1.4,0.4-2.4c0.2-1.2,0.5-2.4,1-3.5c0.1-0.3,0.1-0.5,0.2-0.7c0.1-0.4,0.2-0.6,0.4-0.6c0.2-0.2,0.6-0.3,1.1-0.3
			c0.4,0,0.6,0.1,0.6,0.2c0,0.4-0.1,1.2-0.3,2.2c-0.3,1.2-0.4,1.9-0.5,2.1c-0.1,1-0.3,1.9-0.4,2.9c-0.1,1.2-0.2,2.1-0.2,2.9
			c0,0.7,0.2,1.6,0.7,3c0.5,1.5,1,2.3,1.5,2.3c0.3,0,0.8-0.1,1.6-0.3C470.4,280.8,470.6,280.8,470.6,281.1z M463.5,277.8
			c0-0.6-0.3-1.1-0.7-1.5c-0.5-0.4-1.1-0.6-1.7-0.6c-0.9,0-1.5,0.5-2,1.5c-0.4,0.8-0.6,1.7-0.6,2.6c0,1.3,0.4,1.9,1.3,1.9
			c0.7,0,1.5-0.5,2.4-1.4C463,279.4,463.5,278.6,463.5,277.8z"/>
		<path class="st0" d="M472.8,294.5c-0.5,0-1.2-0.2-1.9-0.6c-0.6-0.4-1.1-0.8-1.5-1.4c-0.3-0.4-0.5-0.9-0.5-1.4c0-0.3,0.1-0.6,0.2-1
			c0.1-0.5,0.3-0.7,0.5-0.9c0.1,0,0.3,0.4,0.6,1.2c0.3,0.8,0.5,1.2,0.6,1.4c0.7,1,1.6,1.5,2.7,1.5c0.8,0,1.4-0.4,1.9-1.2
			c0.2-0.4,0.4-1.2,0.6-2.3c0.1-0.8,0.2-1.6,0.2-2.3c0-0.4-0.1-1.4-0.4-3.3c-0.1-0.8-0.2-1.4-0.2-1.6c-0.2-0.8-0.5-1.2-0.8-1.2
			c-0.2,0-0.6,0.3-1.2,0.8c-0.6,0.5-1.1,0.8-1.4,0.8c-1.1,0-1.6-0.6-1.6-1.7c0-0.9,0.3-1.8,0.7-2.7s0.7-1.4,0.7-1.6
			c0-0.8-0.4-1.2-1.1-1.2c-1.4,0-2.4,0.3-3.2,0.8c-0.8,0.6-1.4,1-1.7,1.1c0,0-0.1-0.1-0.1-0.1c0-0.1,0-0.2,0.1-0.3
			c0.5-0.6,1.1-1,1.8-1.4c0.6-0.3,1.3-0.6,2-0.9c1.1-0.5,1.9-0.7,2.4-0.7c1.1,0,1.6,0.4,1.6,1.1c0,0.3-0.2,0.8-0.7,1.5
			c-0.5,0.7-0.7,1.6-0.7,2.5c0,1.2,0.3,1.7,1,1.7c0.2,0,0.4-0.1,0.6-0.2c0.2-0.1,0.4-0.3,0.5-0.4l1.5-2.4c0.2-0.2,0.4-0.2,0.6-0.2
			c0.4,0,0.6,0.4,0.8,1c0,0.5,0.1,1,0.2,1.5c0.1,0.6,0.3,1.3,0.5,1.9c0.2,0.7,0.2,1.4,0.2,1.9c0,1.6-0.2,3.4-0.7,5.4
			c-0.2,0.8-0.8,1.9-1.9,3.2C474.9,293.9,473.9,294.5,472.8,294.5z"/>
		<path class="st0" d="M500.4,280.2c0,1.2-1,2.1-3.1,2.6c-1.4,0.4-2.9,0.5-4.5,0.5c-1.1,0-2-0.1-2.7-0.2c-1.3-0.3-2.1-0.5-2.4-0.6
			c-0.9-0.3-1.6-0.8-2.1-1.4c-0.2-0.3-0.3-0.5-0.3-0.7c0-0.2,0.1-0.2,0.4-0.2c0.3,0,1,0.4,2.2,1c1,0.6,2.5,1.1,4.6,1.4
			c0.5,0.1,0.9,0.1,1.2,0.1c0.8,0,1.5-0.2,2.3-0.5c0.9-0.4,1.4-0.9,1.4-1.6c0-0.9-0.8-1.8-2.3-2.8c-0.5-0.3-1.6-0.9-3.6-1.8
			c-0.5-0.3-0.9-0.5-1.2-0.6c-0.5-0.3-0.9-0.5-1.1-0.8c-0.5-0.5-0.7-1.1-0.7-1.7c0-0.6,0.2-1.2,0.6-1.8c0.8-1.2,1.9-2,3.4-2.4
			c0.8-0.2,2.2-0.3,4.2-0.3c1.9,0,2.9,0.6,2.9,1.8c0,0.3-0.1,0.6-0.3,0.9c-0.2,0.4-0.4,0.6-0.7,0.6c-0.3,0-0.6-0.2-0.9-0.7
			c-0.5-0.7-0.8-1.1-0.9-1.3c-0.5-0.5-1.1-0.7-1.8-0.7c-1,0-1.9,0.3-2.5,0.8c-0.7,0.6-1.1,1.4-1.1,2.4c0,1.1,0.7,2,2,2.7l4.8,2.5
			C499.6,278.5,500.4,279.3,500.4,280.2z"/>
		<path class="st0" d="M520.5,281.5c0,0,0.1,0.1,0.1,0.1c0,0.1-0.1,0.3-0.2,0.5c-0.8,0.9-1.8,1.4-3.1,1.4c-0.4,0-0.7,0-0.9-0.1
			c-0.5-0.1-1.1-0.4-1.6-0.7c-0.6-0.4-1-0.9-1.1-1.4c-0.1-0.6-0.2-1.6-0.4-2.9c-0.1-0.5-0.3-0.8-0.5-0.8c-0.4,0-0.8,0.4-1.3,1.2
			c-0.4,0.7-0.9,1.5-1.3,2.3c-0.6,0.8-1.1,1.2-1.7,1.2c0,0-0.1,0-0.3,0c-0.3-0.2-0.5-0.5-0.5-0.8c0-0.1,0-0.5,0.1-1.1
			c0.1-1.1,0.1-1.9,0.1-2.4c0-0.4-0.1-0.7-0.2-0.8c0,0-0.1,0-0.1,0c-0.2,0-0.4,0.1-0.6,0.3c-0.1,0.1-0.2,0.4-0.5,0.8
			c-0.2,0.4-0.5,1-0.9,1.8c-0.9,1.6-1.3,2.4-1.4,2.6c-0.8,1.2-1.4,1.7-2.1,1.7c0,0-0.1,0-0.2,0c-0.4-0.2-0.6-0.8-0.6-1.7
			c0-0.5,0-1.8,0.1-4.1c0-1,0-1.5,0-1.6c0-0.7,0.2-1.3,0.3-1.5c0.3-0.5,0.6-0.8,0.9-0.8c0.4,0,0.7,0.3,0.9,0.8l-0.2,3.9
			c0,0.2,0,0.4,0.1,0.5c0.1,0.2,0.2,0.3,0.4,0.3c0.3,0,0.7-0.4,1.2-1.3c0.3-0.6,0.6-1.2,1-1.7c0,0,0.5-0.6,1.5-1.7
			c0.9-1.1,1.7-1.6,2.1-1.6c0.4,0,0.5,0.4,0.5,1.1c0,0.3,0,0.8-0.1,1.4c-0.1,0.6-0.1,1.1-0.1,1.4c0,0.4,0.1,0.6,0.3,0.6
			c0.4,0,1.2-0.6,2.4-2c1.2-1.3,2-2,2.4-2c0.3,0,0.4,0.2,0.5,0.6l0.3,3.2c0.2,2.1,1.5,3.2,3.9,3.2c0.1,0,0.2,0,0.3,0
			C520.2,281.5,520.3,281.5,520.5,281.5C520.4,281.4,520.4,281.4,520.5,281.5z"/>
		<path class="st0" d="M530.7,281.3c-0.4,0.4-1.1,0.8-2.2,1.2c-1,0.3-1.8,0.5-2.5,0.5c-0.9,0-1.6-0.1-1.9-0.4c0,0-0.4-0.4-1.1-1
			c-0.5-0.5-0.9-0.8-1.1-0.8c-0.2,0-0.4,0.2-0.6,0.5c-0.4,0.4-0.7,0.7-1,0.9c-0.5,0.3-1.1,0.5-1.8,0.5c-0.3,0-0.5-0.1-0.5-0.2
			c0-0.1,0.3-0.2,0.6-0.4c0.5-0.2,0.7-0.4,0.7-0.4c0.4-0.3,1.3-1.5,2.7-3.6c0.4-0.9,0.9-1.8,1.3-2.8c0.6-1.3,1.3-1.9,1.9-1.9
			c0.2,0,0.3,0.3,0.3,0.9c0,0.4,0,0.9-0.1,1.5c-0.1,0.8-0.2,1.3-0.3,1.5c-0.1,0.7-0.1,1.1-0.1,1.2c0,0.7,0.3,1.4,1,2.1
			c0.7,0.7,1.4,1,2.1,1c0.2,0,0.6-0.1,1.1-0.2c0.5-0.1,0.8-0.2,1.1-0.2c0.1,0,0.2,0,0.3,0c0.1,0,0.2,0,0.3,0
			C530.8,281.1,530.7,281.2,530.7,281.3z M528.1,268.5c0,0.4-0.2,0.7-0.5,0.9c-0.4,0.3-0.7,0.4-1.2,0.4c-0.3,0-0.6-0.1-0.9-0.2
			c-0.3-0.2-0.5-0.4-0.5-0.7c0-0.4,0.2-0.7,0.5-1c0.4-0.3,0.7-0.4,1.1-0.4c0.4,0,0.7,0.1,0.9,0.2C528,267.9,528.1,268.2,528.1,268.5
			z"/>
		<path class="st0" d="M536.5,283.4c-0.6,0-1.3-0.1-2.2-0.2c-0.5,0-1-0.1-1.5-0.1c-0.5-0.1-1-0.2-1.5-0.5c-0.5-0.3-0.8-0.6-0.9-1
			c-0.1-0.2-0.1-0.7-0.1-1.4c0-0.5,0-1,0.1-1.5c0-0.1,0.1-0.4,0.2-1c0.1-0.5,0.2-0.8,0.2-0.9s-0.2-0.2-0.5-0.3
			c-0.4-0.1-0.5-0.3-0.5-0.5c0-0.3,0.3-0.5,0.8-0.6c0.5-0.2,0.9-0.5,1-1c0.1-0.4,0.3-1.1,0.5-1.9c0,0,0.2-0.8,0.5-2.3
			c0.2-1,0.5-1.7,0.7-2.2c0.1-0.3,0.4-0.5,0.8-0.8c0.4-0.2,0.7-0.4,1-0.4c0.4,0,0.6,0.2,0.6,0.6c0,0-0.2,0.7-0.7,2
			c-0.1,0.3-0.3,1.1-0.5,2.4c-0.2,1.3-0.3,2.1-0.3,2.5c0,0.5,0.2,0.8,0.7,0.9c0.5,0,1.1,0.1,1.6,0.1c0.8,0.1,1.3,0.2,1.3,0.5
			c0,0.2-0.1,0.3-0.4,0.4l-2.5,0.2c-1.1,0.1-1.7,1.2-1.7,3.1c0,0.3,0,0.6,0.1,0.8c0.2,0.6,0.9,1.2,2,1.5c0.8,0.3,1.7,0.4,2.6,0.4
			c0.7,0,1.4-0.3,2.1-0.7c0.6-0.5,1-0.7,1.2-0.7c0,0,0.1,0,0.1,0c0.1,0.1,0.2,0.2,0.2,0.3c0,0.8-1.2,1.5-3.6,2.2
			C537.6,283.4,537.1,283.4,536.5,283.4z"/>
		<path class="st0" d="M555,282.1c0,0.3-0.5,0.6-1.5,1c-0.9,0.3-1.5,0.4-2,0.4c-0.9,0-1.8-0.2-2.7-0.6c-1.1-0.5-1.7-1.2-1.8-1.9
			c-0.1-0.4-0.3-1.3-0.5-2.7c-0.1-0.4-0.1-0.5-0.2-0.5c0,0-0.2,0.2-0.6,0.5c-0.5,0.5-1.3,1.3-2.3,2.4c-0.2,0.2-0.6,0.6-1.5,1.4
			c-0.2,0.1-0.4,0.4-0.7,0.6c-0.4,0.3-0.7,0.5-1.1,0.5c-0.2,0-0.5-0.1-1-0.2c-0.5-0.2-0.7-0.4-0.7-0.5c0,0,0.2-0.5,0.5-1.6
			c0.3-1,0.5-1.6,0.5-1.7c0-0.1,0.1-0.2,0.2-0.4c0,0,0.1-0.4,0.2-1.1l0.5-2.6c0-0.3,0.4-2,0.9-5.3c0.4-2.4,1.2-3.6,2.4-3.6
			c0.2,0,0.4,0.1,0.6,0.2c0.2,0.2,0.3,0.4,0.3,0.5v3.6c0,0.8-0.1,1.6-0.2,2.2c-0.1,0.4-0.3,1-0.6,2.1c-0.3,0.8-0.6,1.5-0.9,2
			c-0.3,0.4-0.6,0.8-0.9,1.3c-0.4,0.6-0.5,1-0.5,1.4c0,0.5,0.2,0.8,0.6,0.8c0.2,0,0.5-0.1,0.8-0.3c0,0,0.2-0.2,0.5-0.6
			c0.4-0.5,0.8-0.8,1.2-1.1c0.2-0.3,0.6-0.6,1.2-1.2c0.4-0.3,0.8-0.6,1.2-0.9c0.5-0.3,0.9-0.5,1.3-0.5c0.2,0,0.4,0.1,0.6,0.2
			c0.2,0.1,0.3,0.3,0.3,0.5l0.5,3.6c0.6,0.8,1.3,1.4,2.1,1.6c0.5,0.2,1.2,0.3,2,0.3C554.4,281.8,554.8,281.9,555,282.1z"/>
	</g>
</g>
<g id="great_for_you">
</g>
<g id="dr._shep">
</g>
<g id="ge">
</g>
<g id="aha">
</g>
<g id="diamond">
</g>
<g id="brown_foreman">
</g>
<g id="masterbrand">
</g>
<g id="aristokraft">
</g>
<g id="decora">
</g>
<g id="gaither">
</g>
<g id="unbridled_eve">
</g>
<g id="papa_johns">
</g>
<g id="dr_jan">
</g>
<g id="lawn_pro">
</g>
<g id="goo">
</g>
<g id="b__x26__b">
</g>
<g id="mindy_smith">
</g>
<g id="tesseract">
</g>
<g id="grandparents.com">
</g>
<g id="ican">
</g>
<g id="my_well_being">
</g>
<g id="apple_patch">
</g>
</svg>
