<?xml version="1.0" encoding="utf-8"?>
<!-- Generator: Adobe Illustrator 17.1.0, SVG Export Plug-In . SVG Version: 6.00 Build 0)  -->
<!DOCTYPE svg PUBLIC "-//W3C//DTD SVG 1.1//EN" "http://www.w3.org/Graphics/SVG/1.1/DTD/svg11.dtd">
<svg version="1.1" id="Layer_1" xmlns="http://www.w3.org/2000/svg" xmlns:xlink="http://www.w3.org/1999/xlink" x="0px" y="0px"
	 width="150px" height="34.2px" viewBox="404.7 262.6 150 34.2" style="enable-background:new 404.7 262.6 150 34.2;"
	 xml:space="preserve" preserveAspectRatio="XminYmin none">
<style type="text/css">
	.st0{fill:#1a1a10;}
</style>
<g id="humana">
</g>
<g id="humana_vitality">
</g>
<g id="jencare">
	<g>
		<path class="st0" d="M439.1,262.6c0,0.2,0,0.4,0,0.6c0,9,0,18,0,26.9c0,2-0.7,3.7-2.1,5c-1,0.9-2.1,1.5-3.5,1.7
			c-0.2,0-0.4,0-0.6,0c-7.3,0-14.6,0-21.9,0c-1.2,0-2.2-0.3-3.2-1c-1.6-1.1-2.6-2.5-3-4.5c0-0.1-0.1-0.2-0.1-0.2
			c0-7.5,0-15.1,0-22.8c0-0.1,0.1-0.1,0.1-0.2c0.4-2.7,2.6-4.9,5.2-5.4c0.1,0,0.2-0.1,0.2-0.1C419.8,262.6,429.5,262.6,439.1,262.6z
			 M424.2,286.7c0-0.2,0-0.4,0-0.6c0-2.8,0-5.5,0-8.3c0-0.5,0-1-0.1-1.4c-0.2-1.6-1.1-2.8-2.6-3.3c-1.4-0.5-2.8-0.4-4.2,0
			c-0.5,0.2-1,0.4-1.5,0.6c-0.5-0.2-1-0.5-1.6-0.6c-0.9-0.3-1.9-0.3-2.9-0.3s-1.9,0.2-2.9,0.4c-0.5,0.1-1.1,0.3-1.6,0.5
			c0,4.3,0,8.6,0,13c1,0,1.9,0,2.9,0c0.3-0.2,0.3-0.5,0.3-0.8c0-3.2,0-6.4,0-9.6c0-0.2,0-0.3,0-0.5c0.7-0.3,1.5-0.3,2.2-0.2
			c0.9,0.1,1.4,0.6,1.6,1.4c0.1,0.3,0.1,0.7,0.1,1c0,2.1,0,4.2,0,6.4c0,0.6,0,1.2,0,1.7c0,0.2,0,0.4,0.3,0.6c0.9,0,1.8,0,2.6,0
			c0.3-0.2,0.3-0.5,0.3-0.7c0-3.1,0-6.2,0-9.3c0-0.2,0-0.3,0-0.5c0.1-0.1,0.3-0.2,0.4-0.3c0.5-0.3,1.1-0.4,1.8-0.4
			c0.9,0,1.5,0.5,1.7,1.4c0.1,0.3,0.1,0.7,0.1,1c0,2.7,0,5.4,0,8c0,0.3,0,0.6,0.3,0.7C422.2,286.7,423.2,286.7,424.2,286.7z
			 M425.6,273.1c0,0.2,0,0.4,0,0.5c0,2.7,0,5.3,0,8c0,0.6,0.1,1.2,0.2,1.8c0.3,1.6,1.2,2.7,2.8,3.2c0.8,0.2,1.5,0.3,2.3,0.3
			c0.7,0,1.4-0.1,2.1-0.1c0.1,0,0.3,0,0.4,0c0,0.1,0,0.3,0,0.4c0,0.7,0,1.3,0,2s-0.3,1.3-0.8,1.7c-0.6,0.5-1.3,0.7-2,0.8
			c-0.5,0.1-0.7,0.2-0.7,0.8c0,0.5,0,1.1,0,1.6c0,0.1,0,0.2,0,0.3c0.1,0,0.1,0,0.1,0c1.7,0.1,3.3-0.3,4.7-1.4
			c1.2-0.9,1.9-2.1,1.9-3.7c0-2.9,0-5.8,0-8.7c0-2.4,0-4.7,0-7.1c0-0.1,0-0.3,0-0.4c-1,0-1.9,0-2.9,0c-0.1,0.1-0.2,0.2-0.3,0.3
			c0,0.2,0,0.4,0,0.5c0,3.1,0,6.3,0,9.4c0,0.2,0,0.4,0,0.5c-1,0.3-2.2,0.4-3.1,0.3c-0.9-0.1-1.5-0.6-1.6-1.5
			c-0.1-0.4-0.1-0.7-0.1-1.1c0-2.6,0-5.1,0-7.7c0-0.2,0-0.3,0-0.5c-0.1-0.1-0.2-0.2-0.3-0.3C427.5,273.1,426.6,273.1,425.6,273.1z"
			/>
		<path class="st0" d="M448,273.1c0.7-0.4,2.8-0.3,3.4,0c0.4,1.5,0.8,3,1.2,4.6c0.4,1.5,0.7,3.1,1.1,4.6c0.9-3,1.5-6.1,2-9.2
			c0.6-0.3,2.5-0.3,3,0c0.1,0.4-0.1,0.8-0.1,1.2c-0.6,3-1.4,6-2.4,8.9c-0.2,0.7-0.5,1.3-0.8,2c-0.1,0.3-0.3,0.4-0.6,0.4
			c-0.9,0-1.8,0-2.8,0c-0.2,0-0.3-0.1-0.4-0.1c-0.3-0.5-2-6.9-2.2-8.4c-0.2,0.9-0.4,1.9-0.6,2.8c-0.2,0.9-0.5,1.9-0.8,2.8
			s-0.5,1.8-0.8,2.8c-0.2,0.1-0.4,0.1-0.7,0.1c-0.8,0-1.6,0-2.3,0c-0.2,0-0.4-0.1-0.6-0.1c-0.2-0.3-3.5-12-3.6-12.4
			c0.1,0,0.2-0.1,0.4-0.2c0.8-0.1,1.7-0.1,2.5,0c0.3,0,0.5,0.2,0.5,0.5c0.6,2.3,1.2,4.6,1.7,7c0.1,0.5,0.2,1,0.3,1.6
			c0,0.1,0,0.1,0.1,0.2c0.4-1.6,0.8-3.1,1.2-4.6S447.6,274.6,448,273.1z"/>
		<path class="st0" d="M551.7,274c0.1-0.4,0.2-0.7,0.3-1c0.8-0.2,1.5-0.2,2.3-0.1c0.2,0,0.3,0.2,0.3,0.4c0.1,0.4,0.1,0.8,0.1,1.2
			c0,2.4,0,4.8,0,7.2c0,1.2,0,2.5,0,3.7c0,0.9-0.2,1.8-0.5,2.7c-0.6,1.5-1.7,2.5-3.3,2.9c-2,0.5-4,0.3-5.9-0.6
			c-0.2-0.1-0.3-0.2-0.4-0.3c-0.1-0.6,0.5-2.1,1-2.5c0.2,0.1,0.3,0.1,0.5,0.2c0.9,0.4,1.8,0.6,2.8,0.5c1.1-0.1,1.9-0.6,2.2-1.7
			c0.2-0.6,0.3-1.3,0.2-2.1c-0.2,0.1-0.3,0.2-0.4,0.2c-1,0.6-2.1,0.9-3.3,0.7c-0.5-0.1-1-0.2-1.5-0.4c-1.1-0.5-1.8-1.4-2.3-2.5
			c-0.4-1-0.6-2-0.6-3.1c0-1.3,0.1-2.6,0.6-3.8c0.4-1.1,1.1-2,2.2-2.7c1.6-1,3.9-1,5.5,0.5C551.6,273.9,551.6,273.9,551.7,274z
			 M551.5,279.2c0-0.6,0-1.1,0-1.7c0-0.5-0.1-0.8-0.4-1.2c-1.1-1.3-3.1-1-3.8,0.4c-0.1,0.3-0.2,0.6-0.3,0.8
			c-0.3,1.1-0.3,2.1-0.1,3.2c0.1,0.8,0.5,1.4,1.2,1.8c0.9,0.5,1.8,0.4,2.7-0.1c0.4-0.2,0.6-0.5,0.6-0.9c0-0.2,0.1-0.5,0.1-0.7
			C551.5,280.3,551.5,279.8,551.5,279.2z"/>
		<path class="st0" d="M496.5,284.6c0-0.3-0.1-0.5-0.1-0.8c0-5.3,0-10.5,0-15.8c0-0.2,0-0.4,0.1-0.7c0.9-0.2,1.8-0.1,2.7-0.1
			c0.2,0,0.4,0,0.6,0.2c0,2,0,4.1,0,6.2c0.1-0.1,0.2-0.1,0.2-0.1c0.8-0.6,1.7-0.9,2.7-0.9c0.8,0,1.7,0.1,2.4,0.5
			c1.1,0.6,1.8,1.5,2.3,2.6c0.3,0.9,0.5,1.8,0.6,2.7c0.1,1.1,0,2.2-0.3,3.2c-0.2,0.9-0.7,1.8-1.3,2.5c-0.8,0.9-1.8,1.3-2.9,1.5
			c-2.1,0.4-4.1,0.2-6-0.5C496.9,285,496.8,284.9,496.5,284.6z M499.8,282.8c0.2,0.1,0.3,0.1,0.4,0.1c0.5,0,1,0.1,1.5,0.1
			c1.3,0,2.1-0.6,2.5-1.8c0.1-0.2,0.1-0.4,0.2-0.6c0.1-0.3,0.1-0.6,0.1-0.9c0.1-0.9,0-1.8-0.2-2.6c-0.2-0.6-0.5-1.2-1.2-1.4
			c-0.9-0.3-1.7-0.3-2.6,0.1c-0.4,0.2-0.6,0.5-0.6,0.9c0,0.3-0.1,0.6-0.1,0.9c0,1.6,0,3.2,0,4.8
			C499.8,282.5,499.8,282.7,499.8,282.8z"/>
		<path class="st0" d="M521,280.4c-0.7,0.1-1.3,0-2,0c-0.7,0-1.3,0-2,0c-0.6,0-1.3,0-1.9,0s-1.3,0-2,0c0,0.2,0,0.3,0,0.4
			c0.3,1.2,1,1.9,2.2,2.1c1,0.2,2,0,2.9-0.2c0.4-0.1,0.8-0.3,1.1-0.4c0.1,0,0.2-0.1,0.3-0.1c0.4,0.3,0.9,1.8,0.9,2.4
			c-0.2,0.1-0.3,0.2-0.5,0.3c-1.6,0.7-3.2,1.1-5,1c-1.6-0.1-3.1-0.6-4.2-1.9c-0.6-0.7-1-1.6-1.3-2.5c-0.4-1.7-0.3-3.4,0.3-5.1
			c0.8-2.1,2.3-3.4,4.5-3.7c1.3-0.2,2.6-0.1,3.8,0.6c1,0.6,1.7,1.5,2.2,2.6c0.3,0.8,0.5,1.6,0.5,2.5c0,0.5,0,1.1,0,1.6
			C521.1,280.1,521.1,280.2,521,280.4z M517.8,278c-0.1-0.7-0.2-1.2-0.6-1.7c-0.5-0.7-1.2-0.9-2-0.8c-1.1,0.2-2,1.3-2,2.5
			C514.7,278,516.2,278,517.8,278z"/>
		<path class="st0" d="M470.9,280.4c-0.9,0-1.8,0-2.7,0s-1.7,0-2.6,0s-1.8,0-2.6,0c0.1,1.2,0.9,2.1,2,2.5c1,0.3,2,0.2,2.9-0.1
			c0.4-0.1,0.9-0.3,1.3-0.4c0.2-0.1,0.3-0.1,0.5-0.2c0.1,0.1,0.2,0.2,0.3,0.3c0.2,0.5,0.4,1.1,0.6,1.6c0.1,0.4,0.1,0.5-0.3,0.7
			c-1,0.6-2.1,0.9-3.3,1c-1.1,0.2-2.1,0.1-3.1-0.1c-2.3-0.6-3.7-2-4.2-4.3c-0.4-1.7-0.3-3.4,0.3-5c0.7-1.8,1.9-3.1,3.8-3.6
			c1.4-0.4,2.9-0.3,4.2,0.4c1,0.5,1.8,1.3,2.3,2.3c0.5,0.9,0.7,2,0.7,3c0,0.4,0,0.9,0,1.3C471,280,470.9,280.2,470.9,280.4z
			 M463,278c0.7,0.1,4.4,0.1,4.7,0c-0.1-0.5-0.2-1.1-0.5-1.5c-0.7-1.1-2-1.2-2.9-0.6C463.5,276.3,463.2,277.1,463,278z"/>
		<path class="st0" d="M530,285.4c0-0.1,0-0.3,0-0.4c0-2.6,0-5.2,0-7.9c0-1.1-0.1-2.1-0.1-3.2c0-0.3,0-0.5,0-0.8
			c0.3-0.3,0.7-0.2,1.1-0.2c0.7,0,1.3-0.1,2,0.2c0.1,0.3,0.1,0.6,0.2,1c0.2-0.2,0.4-0.3,0.6-0.5c0.8-0.6,1.7-0.9,2.7-0.9
			c0.6,0,1.1,0,1.7,0.2c1.4,0.4,2.3,1.3,2.7,2.7c0.2,0.6,0.3,1.2,0.3,1.8c0,2.6,0,5.2,0,7.7c0,0.1,0,0.3,0,0.4
			c-0.5,0.3-2.7,0.3-3.3,0c0-0.2,0-0.4,0-0.6c0-2.2,0-4.5,0-6.7c0-0.4,0-0.9-0.1-1.3c-0.1-0.6-0.5-1-1.1-1.2c-0.7-0.2-1.3-0.1-2,0.1
			c-0.7,0.2-1.1,0.7-1.1,1.4c0,0.4,0,0.7,0,1.1c0,2.2,0,4.4,0,6.5c0,0.2,0,0.4-0.1,0.6C532.8,285.7,530.5,285.7,530,285.4z"/>
		<path class="st0" d="M476.5,267.4c0.1,0.2,0.1,0.3,0.1,0.4c0,0.3,0.1,0.7,0.1,1c0,1.3,0.1,2.6,0.1,3.9c0,3.1,0,6.1,0,9.2
			c0,0.1,0,0.2,0,0.3c0,0.7,0.2,0.9,0.9,0.9c0.1,0,0.2,0,0.3,0c0.2,0.4,0.2,1.8,0,2.3c-0.2,0.1-0.4,0.1-0.7,0.2
			c-0.6,0.1-1.2,0.2-1.8,0.1c-1.1-0.2-1.8-1-2-2.2c-0.1-0.4-0.1-0.8-0.1-1.2c0-3.5,0-7,0-10.5c0-1.2-0.1-2.4-0.1-3.7
			c0-0.3,0-0.5,0-0.8c0.2-0.2,0.4-0.2,0.6-0.1C474.8,267.3,475.6,267.2,476.5,267.4z"/>
		<path class="st0" d="M485,283.1c0.2,0.7,0.2,1.6,0,2.3c-0.1,0-0.2,0.1-0.3,0.2c-0.8,0.3-1.7,0.3-2.5,0s-1.3-0.8-1.5-1.6
			c-0.1-0.4-0.2-0.9-0.2-1.4c0-3,0-5.9,0-8.9c0-1.3,0-2.6-0.1-3.9c0-0.7-0.1-1.5-0.1-2.2c0-0.1,0-0.2,0-0.3c0.2,0,0.3-0.1,0.5-0.1
			c1.6-0.1,2.3,0,2.7,0.1c0.2,0.3,0.2,0.6,0.2,1c0,1.8,0,3.6,0,5.3c0,2.8,0,5.6,0,8.4c0,0.1,0,0.3,0,0.4c0.1,0.5,0.3,0.7,0.7,0.7
			C484.6,283.1,484.8,283.1,485,283.1z"/>
		<path class="st0" d="M523.7,285.4c0-4.1,0-8.2,0-12.3c0.1-0.2,0.3-0.2,0.5-0.2c0.9-0.1,1.8-0.1,2.8,0.1c0,0.2,0.1,0.3,0.1,0.5
			c0,3.8,0,7.7,0,11.5c0,0.1,0,0.3,0,0.4C526.4,285.7,524.2,285.7,523.7,285.4z"/>
		<path class="st0" d="M494.2,277.3c0.2,0.9,0.2,1.8,0,2.7c-0.2,0-0.3,0.1-0.5,0.1c-2.2,0-4.4,0-6.7,0c-0.1,0-0.3,0-0.4,0
			c-0.2-0.9-0.2-1.8,0-2.7c0.2,0,0.4-0.1,0.5-0.1c2.2,0,4.3,0,6.5,0C493.8,277.2,494,277.3,494.2,277.3z"/>
		<path class="st0" d="M527.3,269c0.1,0.8-0.7,2-2,2c-1.1,0-2.1-0.9-2.1-2s0.9-2,2-2C526.4,266.9,527.3,267.8,527.3,269z"/>
		<path class="st0" d="M483.1,293c-0.2,0-0.3,0-0.4,0c0-1.1,0-2.1,0-3.2c0.1,0,0.2,0,0.4-0.1c0,0.1,0.1,0.2,0.1,0.3
			c0.8-0.5,1.4-0.5,2,0.1c0.3-0.4,0.8-0.5,1.3-0.5c0.6,0.1,1,0.4,1,1c0,0.7,0,1.5,0,2.2c0,0,0,0.1-0.1,0.1s-0.2,0-0.3,0
			c0-0.1-0.1-0.2-0.1-0.3c0-0.5,0-1,0-1.6c0-0.2,0-0.3,0-0.5c0-0.3-0.2-0.5-0.5-0.6c-0.5-0.2-1.2,0.2-1.1,0.7c0,0.5,0,1.1,0,1.6
			c0,0.2,0,0.3,0,0.5c-0.2,0-0.3,0-0.4,0c0-0.1-0.1-0.2-0.1-0.2c0-0.5,0-1,0-1.4c0-0.2,0-0.4,0-0.6c0-0.4-0.3-0.6-0.7-0.6
			s-0.8,0.2-0.9,0.6c0,0.2-0.1,0.4-0.1,0.6c0,0.4,0,0.8,0,1.3C483.1,292.7,483.1,292.9,483.1,293z"/>
		<path class="st0" d="M448.3,289.8c0.2,0,0.3,0,0.5,0c0.2,0.9,0.5,1.7,0.7,2.6c0,0,0,0,0.1,0c0.2-0.9,0.5-1.7,0.7-2.6
			c0.2,0,0.3,0,0.5,0c0.2,0.9,0.5,1.7,0.8,2.7c0.4-0.9,0.6-1.8,0.8-2.7c0.1,0,0.3,0,0.4,0c-0.2,1.1-0.5,2.2-1,3.2
			c-0.2,0-0.3,0-0.5,0c-0.2-0.9-0.5-1.7-0.8-2.6c-0.2,0.9-0.5,1.7-0.7,2.5c-0.2,0.2-0.4,0.2-0.6,0
			C448.9,291.9,448.6,290.9,448.3,289.8z"/>
		<path class="st0" d="M464.1,288.3c0.2,0,0.3,0,0.5,0c0,0.7,0,1.4,0,2.1s0,1.4,0,2.1c0.1,0.1,0.2,0.1,0.3,0.2c0,0.1,0,0.1,0,0.2
			c-0.3,0.2-0.5,0-0.7-0.2c-0.3,0.3-0.7,0.3-1.1,0.3c-0.5,0-0.8-0.3-1-0.7c-0.3-0.7-0.3-1.3,0.1-2c0.3-0.6,1-0.9,1.6-0.7
			c0.1,0,0.2,0.1,0.4,0.1c0.1-0.2,0-0.5,0.1-0.7C464.1,288.9,464.1,288.6,464.1,288.3z M464.1,290.4c-0.5-0.4-1.1-0.4-1.5,0.1
			c-0.4,0.4-0.4,1.4-0.1,1.9c0.2,0.3,0.6,0.4,0.9,0.3c0.4-0.1,0.6-0.3,0.6-0.6C464.1,291.5,464.1,290.9,464.1,290.4z"/>
		<path class="st0" d="M475.2,288.6c0.2,0,0.3,0,0.4,0c0.1,0.6,0,1.3,0,1.9c0.3,0.1,1.6,0.1,2.1,0c0-0.6,0-1.2,0-1.9
			c0.2,0,0.3,0,0.4,0c0.1,0.1,0.2,3.8,0.1,4.5c-0.1,0-0.2,0-0.4,0c-0.1-0.7,0-1.3,0-2c-0.7,0-1.4,0-2.1,0c0,0.7,0,1.3,0,2
			c-0.2,0-0.3,0-0.4,0C475.2,291.5,475.2,290.1,475.2,288.6z"/>
		<path class="st0" d="M467.1,292.9c0-1.5,0-3,0-4.5c0.1,0,0.2,0,0.4-0.1c0.1,0.6,0,1.1,0.1,1.7c0.2-0.1,0.3-0.2,0.5-0.2
			c0.7-0.2,1.4,0.1,1.6,0.7s0.2,1.2-0.1,1.8c-0.2,0.5-0.6,0.7-1.1,0.8C468,293.1,467.6,293.1,467.1,292.9z M467.6,292.6
			c0.2,0,0.4,0.1,0.6,0.1c0.5,0,0.9-0.2,1.1-0.6c0.2-0.5,0.2-0.9,0-1.4c-0.1-0.4-0.5-0.6-0.9-0.5c-0.4,0-0.7,0.3-0.7,0.7
			C467.5,291.4,467.6,292,467.6,292.6z"/>
		<path class="st0" d="M442.6,293c-0.1,0-0.3,0-0.4,0c0-1.5,0-2.9,0-4.5c0.6,0,1.3-0.1,1.9,0.1c0.4,0.2,0.7,0.5,0.7,1
			c0,0.2,0,0.5-0.1,0.7c-0.2,0.6-0.6,0.9-1.3,0.9c-0.2,0-0.5,0-0.8,0C442.6,291.9,442.7,292.5,442.6,293z M442.7,289
			c0,0.6,0,1.2,0,1.9c0.3,0,0.5,0,0.8,0c0.5,0,0.8-0.4,0.9-0.9c0-0.5-0.3-0.9-0.8-0.9C443.3,289,443,289,442.7,289z"/>
		<path class="st0" d="M490.4,290c0-0.1,0.1-0.1,0.1-0.2c0.1,0,0.2,0,0.3,0c0,1.1,0,2.1,0,3.2c-0.1,0-0.2,0-0.3,0
			c0-0.1-0.1-0.2-0.1-0.3c-0.1,0-0.1,0-0.1,0.1c-0.4,0.3-0.8,0.3-1.2,0.2s-0.6-0.3-0.8-0.7c-0.3-0.7-0.3-1.5,0.1-2.1
			s1.1-0.7,1.7-0.4C490.3,289.9,490.4,289.9,490.4,290z M490.5,290.5c-0.1-0.1-0.2-0.2-0.3-0.2c-0.4-0.3-1-0.2-1.3,0.2
			c-0.3,0.5-0.3,1.1-0.1,1.7c0.2,0.3,0.5,0.5,0.9,0.4s0.6-0.2,0.7-0.7C490.5,291.5,490.5,291.1,490.5,290.5z"/>
		<path class="st0" d="M497.4,290c0.1-0.1,0.1-0.1,0.1-0.2c0.1,0,0.2,0,0.3,0c0,1.1,0,2.1,0,3.2c-0.1,0-0.2,0-0.3,0.1
			c-0.1-0.1-0.1-0.2-0.1-0.3h-0.1c-1,0.6-2,0.2-2.2-1c-0.1-0.4,0-0.8,0.1-1.1C495.6,289.7,496.7,289.4,497.4,290z M497.5,290.6
			c-0.1-0.1-0.2-0.2-0.4-0.3c-0.4-0.3-0.9-0.2-1.2,0.2c-0.3,0.5-0.3,1.4,0,1.8c0.2,0.3,0.5,0.4,0.9,0.3c0.3-0.1,0.6-0.2,0.6-0.6
			S497.5,291.1,497.5,290.6z"/>
		<path class="st0" d="M456.1,291.5c-0.8,0-1.6,0-2.3,0c-0.1,0.7,0.4,1.2,1.1,1.1c0.3,0,0.5-0.1,0.8-0.2c0,0.1,0.1,0.2,0.1,0.3
			c-0.1,0.1-0.1,0.1-0.2,0.2c-0.5,0.2-0.9,0.2-1.4,0.1c-0.4-0.1-0.8-0.4-0.9-0.8c-0.2-0.6-0.2-1.3,0.2-1.8c0.3-0.5,0.8-0.7,1.4-0.7
			c0.5,0.1,0.9,0.4,1,0.9C456,290.9,456,291.2,456.1,291.5z M455.5,291.1c0-0.6-0.3-1-0.7-1c-0.6,0-0.9,0.3-1,1
			C454.3,291.1,454.9,291.1,455.5,291.1z"/>
		<path class="st0" d="M461.3,291.5c-0.8,0-1.5,0-2.2,0c-0.1,0.7,0.4,1.2,1.1,1.1c0.3,0,0.5-0.1,0.9-0.2c0,0.1,0.1,0.2,0.1,0.3
			c-0.6,0.3-1.2,0.3-1.8,0.2c-0.3-0.1-0.6-0.4-0.7-0.7c-0.2-0.7-0.2-1.3,0.1-1.9c0.5-0.8,1.6-0.9,2.2-0.3
			C461.3,290.5,461.4,291,461.3,291.5z M459.1,291.1c0.6,0,1.2,0,1.7,0c0-0.6-0.3-1-0.8-1S459.1,290.5,459.1,291.1z"/>
		<path class="st0" d="M469.9,294.4c0-0.1,0.1-0.2,0.1-0.3c1-0.1,1.1-0.2,1.4-1c-0.4-1.1-0.8-2.1-1.3-3.3c0.2,0,0.3,0,0.5,0
			c0.3,0.9,0.7,1.8,1,2.7c0.3-0.9,0.6-1.8,1-2.7c0.1,0,0.3,0,0.5,0c-0.1,0.3-0.2,0.5-0.3,0.7c-0.4,1-0.7,2-1.1,2.9
			c-0.1,0.3-0.3,0.5-0.5,0.8C471,294.6,470.5,294.6,469.9,294.4z"/>
		<path class="st0" d="M448,291.3c-0.1,0.3-0.1,0.7-0.2,1c-0.2,0.5-0.6,0.7-1.1,0.8c-1.3,0.1-1.7-0.7-1.7-1.7c0-0.3,0.1-0.7,0.2-1
			c0.3-0.6,1-0.8,1.6-0.7s1,0.6,1,1.3C447.9,291.1,447.9,291.2,448,291.3C447.9,291.3,448,291.3,448,291.3z M445.4,291.4
			c0,0.2,0.1,0.4,0.1,0.7c0.1,0.4,0.4,0.6,0.8,0.6s0.8-0.2,0.9-0.6c0.2-0.4,0.2-0.8,0.1-1.2c-0.1-0.5-0.4-0.7-0.8-0.7
			c-0.5,0-0.8,0.2-1,0.7C445.5,291,445.5,291.2,445.4,291.4z"/>
		<path class="st0" d="M492.3,290.1c0.3-0.3,0.7-0.4,1.1-0.4c0.6,0,1,0.4,1.1,1c0.1,0.8,0,1.5,0.1,2.3c-0.2,0-0.3,0-0.5,0
			c0-0.2,0-0.3,0-0.5c0-0.5,0-1.1,0-1.6c0-0.3,0-0.6-0.4-0.8s-0.8-0.1-1.1,0.1c-0.2,0.1-0.3,0.3-0.3,0.6c0,0.5,0,1,0,1.6
			c0,0.2,0,0.3,0,0.5c-0.1,0-0.3,0-0.4,0.1c0-0.1-0.1-0.1-0.1-0.2c0-0.6,0-1.2,0-1.9c0-0.4,0-0.8,0-1.2c0.1,0,0.2,0,0.3,0
			C492.2,289.9,492.2,290,492.3,290.1z"/>
		<path class="st0" d="M481.8,293c-0.1,0-0.2,0-0.4,0c0-0.1,0-0.2-0.1-0.3c0,0-0.1,0-0.1,0.1c-0.4,0.4-0.9,0.4-1.5,0.3
			c-0.4-0.1-0.6-0.4-0.6-0.8c0-0.8,0-1.6,0-2.4l0.1-0.1c0.1,0,0.2,0,0.3,0c0,0.1,0,0.3,0,0.4c0,0.6,0,1.1,0,1.7
			c0,0.5,0.2,0.7,0.6,0.8c0.6,0.1,1-0.2,1.1-0.6c0-0.2,0-0.5,0-0.7c0-0.5,0-0.9,0-1.5c0.2,0,0.3,0,0.4,0c0,0.1,0,0.2,0,0.2
			c0,0.7,0,1.5,0,2.2C481.8,292.5,481.8,292.7,481.8,293z"/>
		<path class="st0" d="M458.3,289.8c0,0.1,0,0.2,0,0.3l0,0c-0.8,0.3-1,0.5-1,1.4c0,0.4,0,0.7,0,1.1c0,0.1,0,0.3,0,0.4
			c-0.2,0-0.3,0-0.4,0c0-1.1,0-2.1,0-3.2c0.1,0,0.1,0,0.1,0c0.1,0,0.2,0,0.3,0c0,0.2,0,0.3,0.1,0.5
			C457.5,289.9,457.8,289.6,458.3,289.8z"/>
	</g>
</g>
<g id="great_for_you">
</g>
<g id="dr._shep">
</g>
<g id="ge">
</g>
<g id="aha">
</g>
<g id="diamond">
</g>
<g id="brown_foreman">
</g>
<g id="masterbrand">
</g>
<g id="aristokraft">
</g>
<g id="decora">
</g>
<g id="gaither">
</g>
<g id="unbridled_eve">
</g>
<g id="papa_johns">
</g>
<g id="dr_jan">
</g>
<g id="lawn_pro">
</g>
<g id="goo">
</g>
<g id="b__x26__b">
</g>
<g id="mindy_smith">
</g>
<g id="tesseract">
</g>
<g id="grandparents.com">
</g>
<g id="ican">
</g>
<g id="my_well_being">
</g>
<g id="apple_patch">
</g>
</svg>
