<?xml version="1.0" encoding="utf-8"?>
<!-- Generator: Adobe Illustrator 17.1.0, SVG Export Plug-In . SVG Version: 6.00 Build 0)  -->
<!DOCTYPE svg PUBLIC "-//W3C//DTD SVG 1.1//EN" "http://www.w3.org/Graphics/SVG/1.1/DTD/svg11.dtd">
<svg version="1.1" id="Layer_1" xmlns="http://www.w3.org/2000/svg" xmlns:xlink="http://www.w3.org/1999/xlink" x="0px" y="0px"
	 width="150px" height="61.9px" viewBox="405 248.6 150 61.9" style="enable-background:new 405 248.6 150 61.9;"
	 xml:space="preserve" preserveAspectRatio="XminYmin none">
<style type="text/css">
	.st0{fill:#1a1a10;}
</style>
<g id="humana">
</g>
<g id="humana_vitality">
</g>
<g id="jencare">
	<g>
		<path class="st0" d="M552.1,309.1c0-0.8,0.6-1.4,1.4-1.4c0.8,0,1.4,0.6,1.4,1.4c0,0.8-0.6,1.4-1.4,1.4
			C552.7,310.5,552.1,309.9,552.1,309.1z M554.7,309.1c0-0.6-0.5-1.1-1.1-1.1c-0.6,0-1.1,0.5-1.1,1.1c0,0.6,0.5,1.1,1.1,1.1
			S554.7,309.7,554.7,309.1z M554.2,309.8h-0.3l-0.3-0.6h-0.3v0.6h-0.3v-1.5h0.8c0.3,0,0.6,0.1,0.6,0.5c0,0.3-0.1,0.4-0.4,0.4
			L554.2,309.8z M553.7,308.9c0.1,0,0.3-0.1,0.3-0.2s-0.2-0.1-0.3-0.1h-0.3v0.4L553.7,308.9L553.7,308.9z"/>
		<g>
			<path class="st0" d="M416.3,302.1h-5.8v-4.9c0,0,0.6-0.3,0.6-1.5v-10.1c0-0.8-0.6-1.3-0.6-1.3v-3.6c3.2-1.3,5.8-2.1,5.8-2.1
				c2-0.3,3.7,0,4.7,1.1c0.6,0.7,1,1.9,0.9,3.4c0,0,0,6.5,0,6.7c0,2.5-1.4,4.6-3.6,4.7h-2.7v1.2c0,1.2,0.6,1.5,0.6,1.5
				S416.3,302.1,416.3,302.1z M415.6,282.7v8.6h0.6c0.9,0,1.2-1.3,1.2-1.9v-4.9c0-1.7-0.9-1.9-1.2-1.9H415.6z"/>
			<path class="st0" d="M488.5,275.4c0-6.8,5.5-8,8.4-8s8.2,1.6,8.2,8v18.9c0,7.2-4.9,8.8-8.2,8.8c-3.8,0-8.2-3.6-8.4-8V275.4z
				 M495.5,293.8c0,2.2,2.9,2.2,2.9,0v-17.3c0-2.4-2.9-2.4-2.9,0V293.8z"/>
			<path class="st0" d="M543.5,294.5h-4.6v5.5c1.8,2.5,3.7,3.1,6,3c2.3-0.1,5-2.8,5-5.2v-4.6c0-2.9-1.6-3.6-3.2-4.6
				c-1.5-0.9-3.2-0.5-3.2-2.9c0-1.9,2.3-2.7,2.3,1.3h4.1v-5c-3.4-3.2-5.3-2.8-6.9-2.5c-2.5,0.5-4.1,3.4-4.1,7.3c0,2.6,1,3.9,1.9,4.8
				c0.6,0.7,1.9,1.5,2.7,1.8c1,0.3,2.3,0.3,2.3,2.3c0,3.2-2.3,2.7-2.3,1.4L543.5,294.5L543.5,294.5z"/>
			<path class="st0" d="M539.2,280.3l0.3,0.5l1.1-1.1c1.2-1.2,0.7-2.7-0.8-2.7c-1.2,0-1.3,1.8-0.4,2.1c0.5,0.1,0.5,0.3,0.3,0.6
				C539.6,280,539.2,280.3,539.2,280.3z"/>
			<path class="st0" d="M422.3,295.8l3-20.5l7.2-1.9l2.4,22.4c0,1.2,0.5,1.5,0.5,1.5h0.1v4.9h-6.3v-4.9c0,0,0.5-0.3,0.5-1.5v-1.2
				h-2.4v1.2c0,1.2,0.5,1.5,0.5,1.5v4.9h-6.2v-4.9C421.7,297.3,422.3,297,422.3,295.8z M427.5,291h2.1l-1-9.7L427.5,291z"/>
			<path class="st0" d="M486.8,275.8c0-1.6,0.8-2.1,0.8-2.1v-6l-8.6-0.2v5.7c0,0,0.8,0.4,0.8,2.1v16.5c0,3.8-2.2,3.8-5.1,2.1v7.2
				c3.4,2.2,12.1,4.7,12.1-6.7L486.8,275.8L486.8,275.8z"/>
			<path class="st0" d="M523,297.3c0,0-0.8-0.4-0.8-2.1l-0.1-15.3c0-1.6,1-2.3,1-2.3v-5.4l-7.9-1.9v6.2c0,0,0.6,0.4,0.6,2.1v5.4
				h-2.7v-5.4c0-1.6,1-2.3,1-2.3v-6.3l-7.8-1.3v7c0,0,1,0.6,1,2.3v17.2c0,1.6-1,2.1-1,2.1v5h7.6v-5c0,0-0.8-0.4-0.8-2.1v-5.6h2.7
				v5.6c0,1.6-0.8,2.1-0.8,2.1v5h7.9L523,297.3"/>
			<path class="st0" d="M524.3,297.3c0,0,1-0.1,0.8-1.2v-15.9c0-1.6-0.8-2.3-0.8-2.3v-5.6l6.2,1.6l2.6,14.1l0.1-4.9
				c0-1.6-0.8-2.3-0.8-2.3v-6.1l5.7,1.9v4.9c0,0-1,0.6-1,2.3v18.5h-5.1l-2.8-11.2v4.6c0,1.6,0.5,1.5,0.5,1.5v4.9h-5.4L524.3,297.3"
				/>
			<path class="st0" d="M443.2,276.3v11.5h0.8c1.2,0,1.5-1.8,1.5-2.5v-6.5c0-2.3-1.2-2.5-1.5-2.5H443.2z M444,302.1h-7.5v-4.9
				c0,0,0.8-0.4,0.8-2.1v-15.7c0-1.1-0.8-1.8-0.8-1.8v-4.9c4.1-1.7,7.5-2.2,7.5-2.2c2.6-0.4,4.7,0,6.1,1.4c0.8,0.9,1.9,1.9,1.8,4.7
				c0,0,0,9.4,0,9.6c0.1,5.5-2.4,6.9-5.3,7.1h-3.4v1.6c0,1.6,0.8,2.1,0.8,2.1V302.1L444,302.1z"/>
			<path class="st0" d="M451.9,294.9l3.8-26l10.1-0.9l3.3,27.2c0,1.6,0.8,2.1,0.8,2.1v4.9h-8.6v-4.9c0,0,0.8-0.4,0.8-2.1v-1.6h-3.9
				v1.6c0,1.6,0.8,2.1,0.8,2.1v4.9h-7.9v-4.9c0,0,0.8-0.4,0.8-2.1 M458.5,288.7h3.1l-1.6-13.4L458.5,288.7z"/>
		</g>
		<g>
			<path class="st0" d="M462.3,260v-0.3l0.8-0.1l-0.6-6.5l-0.8,0.1V253l4.7-0.4c2.2-0.2,2.7,0.8,2.7,1.8c0.1,1-0.1,2.1-2.3,2.4
				l-1.4,0.1l0.3,2.6l1-0.1v0.3L462.3,260z M465.3,256.6l0.4-0.1c0.5-0.1,1.2-0.6,1.1-1.4l-0.1-1c-0.1-0.5-0.7-1.2-1.4-1.1H465
				L465.3,256.6z"/>
			<path class="st0" d="M470.4,259.3V259l0.8-0.1l-0.3-6.5l-0.8,0.1v-0.3l4.1-0.3v0.3l-0.8,0.1l0.3,6.5l0.8-0.1v0.3L470.4,259.3z"/>
			<path class="st0" d="M481.4,251.9v0.3l-3.3,6.5h0.6c1,0,2-0.8,2.3-2.5h0.3l-0.1,2.7l-5.9,0.1v-0.4l3.2-6.5h-0.3
				c-1.3,0-2.1,1-2.5,2.2h-0.3l0.1-2.5H481.4z"/>
			<path class="st0" d="M489.2,252.2v0.3l-3.6,6.3h0.6c1,0.1,2.1-0.6,2.5-2.3h0.3l-0.2,2.7L483,259v-0.4l3.6-6.2h-0.3
				c-1.3-0.1-2.2,0.9-2.5,2.1h-0.3l0.3-2.5L489.2,252.2z"/>
			<path class="st0" d="M489.8,259.4v-0.3h0.2c0.3,0,0.6-0.5,0.8-1l2.7-5.5l1.5,0.1l1.9,7l0.5,0.1v0.3l-3.8-0.3v-0.3l0.8,0.1
				l-0.5-2.1l-2.1-0.2l-0.5,1c-0.3,0.8,0,1,0.3,1h0.3v0.3L489.8,259.4z M493.1,254.4l-1.2,2.5l1.9,0.2L493.1,254.4z"/>
		</g>
		<path class="st0" d="M548.8,274.3c-9.3-5-29.2-10.1-40.9-11.7l-0.2-1.5l3.7-3.7l0.5-0.5l-0.8-0.3c0,0-6.7-1.7-8.6-1.7l0.5-2.5
			c0.3-1.5-8.6-3.8-23.3-3.8c-14.6,0.1-23.8,2.1-23.4,3.6l0.6,2.7c-1.9,0-8.6,1.7-8.6,1.7l-0.8,0.3l0.5,0.5l3.7,3.7l-0.2,1.5
			c-11.7,1.6-31.6,6.7-40.9,11.7c-4.9,2.7-5.5,4.6-5.5,10.8v16.1c0,1.3,0.1,3.2,1.6,4.7c1.6,1.6,3.8,1.6,6.3,1.6h0.2h133h0.2
			c2.5,0,4.7,0,6.3-1.6c1.4-1.4,1.6-3.4,1.6-4.7v-16.1C554.3,278.9,553.8,277,548.8,274.3z M502.3,255.7c1.6,0,7.6,1.4,7.8,1.4
			l0.4,0.1l-3.8,3.4l0.8,6.2l-0.3-0.1c-1-0.2-1.9-0.5-2.9-0.8c-1.1-0.3-2.1-0.5-3-0.8c-0.6-0.1-1.2-0.1-1.6-0.2h-0.3l-0.1-0.5
			l0.8-0.3l2-8.7L502.3,255.7z M457.6,252.4c0.8-1,10.4-2.8,22-2.8c11.4,0,21,2.1,21.9,3.2c0.1,0.1,0.1,0.3,0.1,0.3
			c-0.1,0.5-2.2,10.1-2.2,10.2l-0.1,0.5l-0.3-0.4c-0.5-0.6-10.2-1.9-18.4-1.9c-0.3,0-0.6,0-1,0c-0.3,0-0.6,0-1,0
			c-8.2,0-17.8,1.2-18.4,1.9l-0.3,0.3l-0.1-0.4c0-0.1-2.3-10-2.3-10.5C457.5,252.7,457.5,252.6,457.6,252.4z M448.8,257.2l0.4-0.1
			c0.3-0.1,6.2-1.4,7.8-1.4h0.3l1.9,8.6l0.8,0.3l-0.1,0.5h-0.3c-0.5,0-1,0.1-1.6,0.2c-0.9,0.2-1.9,0.5-3,0.8c-1,0.3-1.9,0.5-2.9,0.7
			l-0.3,0.1l0.8-6.2L448.8,257.2z M551.8,301.3c0,1.4-0.3,2.3-0.9,2.9c-1,1-2.4,1-4.6,1h-0.2h-133H413c-2.2,0-3.6,0-4.6-1
			c-0.6-0.6-0.9-1.5-0.9-2.9v-16.1c0-5.8,0.4-6.7,4.2-8.7c8.9-4.8,27.9-9.7,39.3-11.4l-0.2,2.3l-0.1,0.7l0.7-0.1
			c2.6-0.6,6.3-1.9,8.7-1.9c0,0,1.2,0,2.5-0.1c1.9-0.1-1-1.9-1-1.9c-0.1-0.7,11.3-1.6,18.1-1.6s18.2,1,18.1,1.6c0,0-3,1.7-1,1.9
			c1.2,0.1,2.5,0.1,2.5,0.1c2.4,0,6.1,1.3,8.7,1.9l0.7,0.1l-0.1-0.7l-0.3-2.3c11.5,1.7,30.5,6.6,39.4,11.4c3.8,2.1,4.2,2.9,4.2,8.7
			L551.8,301.3L551.8,301.3z"/>
	</g>
</g>
<g id="great_for_you">
</g>
<g id="dr._shep">
</g>
<g id="ge">
</g>
<g id="aha">
</g>
<g id="diamond">
</g>
<g id="brown_foreman">
</g>
<g id="masterbrand">
</g>
<g id="aristokraft">
</g>
<g id="decora">
</g>
<g id="gaither">
</g>
<g id="unbridled_eve">
</g>
<g id="papa_johns">
</g>
<g id="dr_jan">
</g>
<g id="lawn_pro">
</g>
<g id="goo">
</g>
<g id="b__x26__b">
</g>
<g id="mindy_smith">
</g>
<g id="tesseract">
</g>
<g id="grandparents.com">
</g>
<g id="ican">
</g>
<g id="my_well_being">
</g>
<g id="apple_patch">
</g>
</svg>
