<?xml version="1.0" encoding="utf-8"?>
<!-- Generator: Adobe Illustrator 19.2.1, SVG Export Plug-In . SVG Version: 6.00 Build 0)  -->
<svg version="1.1" id="Layer_1" xmlns="http://www.w3.org/2000/svg" xmlns:xlink="http://www.w3.org/1999/xlink" x="0px" y="0px"
	 viewBox="0 0 150 61.9" style="enable-background:new 0 0 150 61.9;" xml:space="preserve">
<style type="text/css">
	.st0{fill:#1a1a10;}
</style>
<g id="humana">
</g>
<g id="humana_vitality">
</g>
<g id="jencare">
	<g>
		<path class="st0" d="M147.2,60.5c0-0.8,0.6-1.4,1.4-1.4c0.8,0,1.4,0.6,1.4,1.4s-0.6,1.4-1.4,1.4C147.8,61.9,147.2,61.3,147.2,60.5
			z M149.8,60.5c0-0.6-0.5-1.1-1.1-1.1s-1.1,0.5-1.1,1.1s0.5,1.1,1.1,1.1S149.8,61.1,149.8,60.5z M149.3,61.2H149l-0.3-0.6h-0.3v0.6
			h-0.3v-1.5h0.8c0.3,0,0.6,0.1,0.6,0.5c0,0.3-0.1,0.4-0.4,0.4L149.3,61.2z M148.8,60.3c0.1,0,0.3-0.1,0.3-0.2s-0.2-0.1-0.3-0.1
			h-0.3v0.4L148.8,60.3L148.8,60.3z"/>
		<g>
			<path class="st0" d="M11.4,53.5H5.6v-4.9c0,0,0.6-0.3,0.6-1.5V37c0-0.8-0.6-1.3-0.6-1.3v-3.6c3.2-1.3,5.8-2.1,5.8-2.1
				c2-0.3,3.7,0,4.7,1.1c0.6,0.7,1,1.9,0.9,3.4c0,0,0,6.5,0,6.7c0,2.5-1.4,4.6-3.6,4.7h-2.7v1.2c0,1.2,0.6,1.5,0.6,1.5L11.4,53.5z
				 M10.7,34.1v8.6h0.6c0.9,0,1.2-1.3,1.2-1.9v-4.9c0-1.7-0.9-1.9-1.2-1.9L10.7,34.1L10.7,34.1z"/>
			<path class="st0" d="M83.6,26.8c0-6.8,5.5-8,8.4-8s8.2,1.6,8.2,8v18.9c0,7.2-4.9,8.8-8.2,8.8c-3.8,0-8.2-3.6-8.4-8V26.8z
				 M90.6,45.2c0,2.2,2.9,2.2,2.9,0V27.9c0-2.4-2.9-2.4-2.9,0V45.2z"/>
			<path class="st0" d="M138.6,45.9H134v5.5c1.8,2.5,3.7,3.1,6,3s5-2.8,5-5.2v-4.6c0-2.9-1.6-3.6-3.2-4.6c-1.5-0.9-3.2-0.5-3.2-2.9
				c0-1.9,2.3-2.7,2.3,1.3h4.1v-5c-3.4-3.2-5.3-2.8-6.9-2.5c-2.5,0.5-4.1,3.4-4.1,7.3c0,2.6,1,3.9,1.9,4.8c0.6,0.7,1.9,1.5,2.7,1.8
				c1,0.3,2.3,0.3,2.3,2.3c0,3.2-2.3,2.7-2.3,1.4V45.9L138.6,45.9z"/>
			<path class="st0" d="M134.3,31.7l0.3,0.5l1.1-1.1c1.2-1.2,0.7-2.7-0.8-2.7c-1.2,0-1.3,1.8-0.4,2.1c0.5,0.1,0.5,0.3,0.3,0.6
				C134.7,31.4,134.3,31.7,134.3,31.7z"/>
			<path class="st0" d="M17.4,47.2l3-20.5l7.2-1.9L30,47.2c0,1.2,0.5,1.5,0.5,1.5h0.1v4.9h-6.3v-4.9c0,0,0.5-0.3,0.5-1.5V46h-2.4
				v1.2c0,1.2,0.5,1.5,0.5,1.5v4.9h-6.2v-4.9C16.8,48.7,17.4,48.4,17.4,47.2z M22.6,42.4h2.1l-1-9.7L22.6,42.4z"/>
			<path class="st0" d="M81.9,27.2c0-1.6,0.8-2.1,0.8-2.1v-6l-8.6-0.2v5.7c0,0,0.8,0.4,0.8,2.1v16.5c0,3.8-2.2,3.8-5.1,2.1v7.2
				c3.4,2.2,12.1,4.7,12.1-6.7L81.9,27.2L81.9,27.2z"/>
			<path class="st0" d="M118.1,48.7c0,0-0.8-0.4-0.8-2.1l-0.1-15.3c0-1.6,1-2.3,1-2.3v-5.4l-7.9-1.9v6.2c0,0,0.6,0.4,0.6,2.1v5.4
				h-2.7V30c0-1.6,1-2.3,1-2.3v-6.3l-7.8-1.3v7c0,0,1,0.6,1,2.3v17.2c0,1.6-1,2.1-1,2.1v5h7.6v-5c0,0-0.8-0.4-0.8-2.1V41h2.7v5.6
				c0,1.6-0.8,2.1-0.8,2.1v5h7.9L118.1,48.7"/>
			<path class="st0" d="M119.4,48.7c0,0,1-0.1,0.8-1.2V31.6c0-1.6-0.8-2.3-0.8-2.3v-5.6l6.2,1.6l2.6,14.1l0.1-4.9
				c0-1.6-0.8-2.3-0.8-2.3v-6.1l5.7,1.9v4.9c0,0-1,0.6-1,2.3v18.5h-5.1l-2.8-11.2v4.6c0,1.6,0.5,1.5,0.5,1.5v4.9h-5.4V48.7"/>
			<path class="st0" d="M38.3,27.7v11.5h0.8c1.2,0,1.5-1.8,1.5-2.5v-6.5c0-2.3-1.2-2.5-1.5-2.5H38.3z M39.1,53.5h-7.5v-4.9
				c0,0,0.8-0.4,0.8-2.1V30.8c0-1.1-0.8-1.8-0.8-1.8v-4.9c4.1-1.7,7.5-2.2,7.5-2.2c2.6-0.4,4.7,0,6.1,1.4c0.8,0.9,1.9,1.9,1.8,4.7
				c0,0,0,9.4,0,9.6c0.1,5.5-2.4,6.9-5.3,7.1h-3.4v1.6c0,1.6,0.8,2.1,0.8,2.1V53.5L39.1,53.5z"/>
			<path class="st0" d="M47,46.3l3.8-26l10.1-0.9l3.3,27.2c0,1.6,0.8,2.1,0.8,2.1v4.9h-8.6v-4.9c0,0,0.8-0.4,0.8-2.1V45h-3.9v1.6
				c0,1.6,0.8,2.1,0.8,2.1v4.9h-7.9v-4.9c0,0,0.8-0.4,0.8-2.1 M53.6,40.1h3.1l-1.6-13.4L53.6,40.1z"/>
		</g>
		<g>
			<path class="st0" d="M57.4,11.4v-0.3l0.8-0.1l-0.6-6.5l-0.8,0.1V4.4L61.5,4c2.2-0.2,2.7,0.8,2.7,1.8c0.1,1-0.1,2.1-2.3,2.4
				l-1.4,0.1l0.3,2.6l1-0.1v0.3L57.4,11.4z M60.4,8l0.4-0.1c0.5-0.1,1.2-0.6,1.1-1.4l-0.1-1c-0.1-0.5-0.7-1.2-1.4-1.1h-0.3L60.4,8z"
				/>
			<path class="st0" d="M65.5,10.7v-0.3l0.8-0.1L66,3.8l-0.8,0.1V3.6l4.1-0.3v0.3l-0.8,0.1l0.3,6.5l0.8-0.1v0.3L65.5,10.7z"/>
			<path class="st0" d="M76.5,3.3v0.3l-3.3,6.5h0.6c1,0,2-0.8,2.3-2.5h0.3l-0.1,2.7l-5.9,0.1V10l3.2-6.5h-0.3c-1.3,0-2.1,1-2.5,2.2
				h-0.3l0.1-2.5L76.5,3.3L76.5,3.3z"/>
			<path class="st0" d="M84.3,3.6v0.3l-3.6,6.3h0.6c1,0.1,2.1-0.6,2.5-2.3h0.3l-0.2,2.7l-5.8-0.2V10l3.6-6.2h-0.3
				c-1.3-0.1-2.2,0.9-2.5,2.1h-0.3l0.3-2.5L84.3,3.6z"/>
			<path class="st0" d="M84.9,10.8v-0.3h0.2c0.3,0,0.6-0.5,0.8-1L88.6,4l1.5,0.1l1.9,7l0.5,0.1v0.3l-3.8-0.3v-0.3l0.8,0.1L89,8.9
				l-2.1-0.2l-0.5,1c-0.3,0.8,0,1,0.3,1H87V11L84.9,10.8z M88.2,5.8L87,8.3l1.9,0.2L88.2,5.8z"/>
		</g>
		<path class="st0" d="M143.9,25.7c-9.3-5-29.2-10.1-40.9-11.7l-0.2-1.5l3.7-3.7l0.5-0.5L106.2,8c0,0-6.7-1.7-8.6-1.7l0.5-2.5
			C98.4,2.3,89.5,0,74.8,0C60.2,0.1,51,2.1,51.4,3.6L52,6.3c-1.9,0-8.6,1.7-8.6,1.7l-0.8,0.3l0.5,0.5l3.7,3.7L46.6,14
			C34.9,15.6,15,20.7,5.7,25.7c-4.9,2.7-5.5,4.6-5.5,10.8v16.1c0,1.3,0.1,3.2,1.6,4.7c1.6,1.6,3.8,1.6,6.3,1.6h0.2h133h0.2
			c2.5,0,4.7,0,6.3-1.6c1.4-1.4,1.6-3.4,1.6-4.7V36.5C149.4,30.3,148.9,28.4,143.9,25.7z M97.4,7.1c1.6,0,7.6,1.4,7.8,1.4l0.4,0.1
			l-3.8,3.4l0.8,6.2l-0.3-0.1c-1-0.2-1.9-0.5-2.9-0.8c-1.1-0.3-2.1-0.5-3-0.8c-0.6-0.1-1.2-0.1-1.6-0.2h-0.3l-0.1-0.5l0.8-0.3l2-8.7
			L97.4,7.1z M52.7,3.8c0.8-1,10.4-2.8,22-2.8c11.4,0,21,2.1,21.9,3.2c0.1,0.1,0.1,0.3,0.1,0.3c-0.1,0.5-2.2,10.1-2.2,10.2l-0.1,0.5
			l-0.3-0.4c-0.5-0.6-10.2-1.9-18.4-1.9c-0.3,0-0.6,0-1,0c-0.3,0-0.6,0-1,0c-8.2,0-17.8,1.2-18.4,1.9L55,15.1l-0.1-0.4
			c0-0.1-2.3-10-2.3-10.5C52.6,4.1,52.6,4,52.7,3.8z M43.9,8.6l0.4-0.1c0.3-0.1,6.2-1.4,7.8-1.4h0.3l1.9,8.6l0.8,0.3L55,16.5h-0.3
			c-0.5,0-1,0.1-1.6,0.2c-0.9,0.2-1.9,0.5-3,0.8c-1,0.3-1.9,0.5-2.9,0.7l-0.3,0.1l0.8-6.2L43.9,8.6z M146.9,52.7
			c0,1.4-0.3,2.3-0.9,2.9c-1,1-2.4,1-4.6,1h-0.2H8.2H8.1c-2.2,0-3.6,0-4.6-1c-0.6-0.6-0.9-1.5-0.9-2.9V36.6c0-5.8,0.4-6.7,4.2-8.7
			c8.9-4.8,27.9-9.7,39.3-11.4l-0.2,2.3l-0.1,0.7l0.7-0.1c2.6-0.6,6.3-1.9,8.7-1.9c0,0,1.2,0,2.5-0.1c1.9-0.1-1-1.9-1-1.9
			c-0.1-0.7,11.3-1.6,18.1-1.6s18.2,1,18.1,1.6c0,0-3,1.7-1,1.9c1.2,0.1,2.5,0.1,2.5,0.1c2.4,0,6.1,1.3,8.7,1.9l0.7,0.1l-0.1-0.7
			l-0.3-2.3c11.5,1.7,30.5,6.6,39.4,11.4c3.8,2.1,4.2,2.9,4.2,8.7L146.9,52.7L146.9,52.7z"/>
	</g>
</g>
<g id="great_for_you">
</g>
<g id="dr._shep">
</g>
<g id="ge">
</g>
<g id="aha">
</g>
<g id="diamond">
</g>
<g id="brown_foreman">
</g>
<g id="masterbrand">
</g>
<g id="aristokraft">
</g>
<g id="decora">
</g>
<g id="gaither">
</g>
<g id="unbridled_eve">
</g>
<g id="papa_johns">
</g>
<g id="dr_jan">
</g>
<g id="lawn_pro">
</g>
<g id="goo">
</g>
<g id="b__x26__b">
</g>
<g id="mindy_smith">
</g>
<g id="tesseract">
</g>
<g id="grandparents.com">
</g>
<g id="ican">
</g>
<g id="my_well_being">
</g>
<g id="apple_patch">
</g>
</svg>
