<?xml version="1.0" encoding="utf-8"?>
<!-- Generator: Adobe Illustrator 17.1.0, SVG Export Plug-In . SVG Version: 6.00 Build 0)  -->
<!DOCTYPE svg PUBLIC "-//W3C//DTD SVG 1.1//EN" "http://www.w3.org/Graphics/SVG/1.1/DTD/svg11.dtd">
<svg version="1.1" id="Layer_1" xmlns="http://www.w3.org/2000/svg" xmlns:xlink="http://www.w3.org/1999/xlink" x="0px" y="0px"
	 width="150px" height="34.5px" viewBox="405 262.5 150 34.5" style="enable-background:new 405 262.5 150 34.5;"
	 xml:space="preserve" preserveAspectRatio="XminYmin none">
<style type="text/css">
	.st0{fill:#1a1a10;}
</style>
<g id="humana">
</g>
<g id="humana_vitality">
</g>
<g id="jencare">
	<g id="TAM_x5F_Display_x5F_SuckybySarah.psd_1_">
		<path class="st0" d="M455.2,263v4h-3.1v16H447v-16h-3.1v-4H455.2z"/>
		<path class="st0" d="M456.5,263h8.6v4h-3.4v3.8h3.3v3.8h-3.3v4.4h3.8v4h-9V263z"/>
		<path class="st0" d="M478.1,269h-4.8v-1.5c0-0.7-0.1-1.1-0.2-1.3c-0.1-0.2-0.3-0.3-0.6-0.3s-0.5,0.1-0.7,0.4s-0.2,0.7-0.2,1.2
			c0,0.7,0.1,1.2,0.3,1.5c0.2,0.3,0.7,0.7,1.5,1.2c2.3,1.4,3.8,2.5,4.4,3.4c0.6,0.9,0.9,2.3,0.9,4.3c0,1.4-0.2,2.5-0.5,3.1
			c-0.3,0.7-1,1.2-1.9,1.7s-2.1,0.7-3.3,0.7c-1.4,0-2.6-0.3-3.6-0.8c-1-0.5-1.6-1.2-1.9-2s-0.5-2-0.5-3.4v-1.3h4.8v2.4
			c0,0.7,0.1,1.2,0.2,1.4c0.2,0.2,0.4,0.3,0.7,0.3c0.3,0,0.6-0.2,0.8-0.4c0.2-0.3,0.3-0.7,0.3-1.2c0-1.2-0.2-1.9-0.5-2.3
			c-0.3-0.3-1.1-1-2.4-1.8c-1.3-0.9-2.1-1.5-2.6-1.9c-0.4-0.4-0.8-0.9-1-1.6c-0.3-0.7-0.4-1.5-0.4-2.6c0-1.5,0.2-2.6,0.6-3.4
			c0.4-0.7,1-1.3,1.9-1.7c0.9-0.4,1.9-0.6,3.1-0.6c1.4,0,2.5,0.2,3.4,0.7c0.9,0.4,1.6,1,1.9,1.6c0.3,0.7,0.5,1.8,0.5,3.4L478.1,269
			L478.1,269z"/>
		<path class="st0" d="M491.2,269h-4.8v-1.5c0-0.7-0.1-1.1-0.2-1.3s-0.3-0.3-0.6-0.3s-0.5,0.1-0.7,0.4s-0.2,0.7-0.2,1.2
			c0,0.7,0.1,1.2,0.3,1.5c0.2,0.3,0.7,0.7,1.5,1.2c2.3,1.4,3.8,2.5,4.4,3.4c0.6,0.9,0.9,2.3,0.9,4.3c0,1.4-0.2,2.5-0.5,3.1
			c-0.3,0.7-1,1.2-1.9,1.7s-2.1,0.7-3.3,0.7c-1.4,0-2.6-0.3-3.6-0.8c-1-0.5-1.6-1.2-1.9-2s-0.5-2-0.5-3.4v-1.3h4.8v2.4
			c0,0.7,0.1,1.2,0.2,1.4c0.2,0.2,0.4,0.3,0.7,0.3s0.6-0.2,0.8-0.4c0.2-0.3,0.3-0.7,0.3-1.2c0-1.2-0.2-1.9-0.5-2.3
			c-0.3-0.3-1.1-1-2.4-1.8c-1.3-0.9-2.1-1.5-2.6-1.9c-0.4-0.4-0.8-0.9-1-1.6c-0.3-0.7-0.4-1.5-0.4-2.6c0-1.5,0.2-2.6,0.6-3.4
			c0.4-0.7,1-1.3,1.9-1.7c0.9-0.4,1.9-0.6,3.1-0.6c1.4,0,2.5,0.2,3.4,0.7c0.9,0.4,1.6,1,1.9,1.6c0.3,0.7,0.5,1.8,0.5,3.4V269
			L491.2,269z"/>
		<path class="st0" d="M493.2,263h8.6v4h-3.4v3.8h3.3v3.8h-3.3v4.4h3.8v4h-9V263z"/>
		<path class="st0" d="M503.7,263h3.7c2.4,0,4.1,0.1,5,0.3s1.6,0.7,2.1,1.4s0.8,2,0.8,3.7c0,1.5-0.2,2.6-0.6,3.1
			c-0.4,0.5-1.2,0.9-2.3,1c1,0.3,1.7,0.6,2.1,1s0.6,0.8,0.7,1.2c0.1,0.3,0.1,1.4,0.1,2.9v5.3h-4.8v-6.6c0-1.1-0.1-1.7-0.3-2
			c-0.2-0.3-0.6-0.4-1.3-0.4v9h-5.2L503.7,263L503.7,263z M508.8,266.4v4.5c0.6,0,1-0.1,1.2-0.2c0.2-0.2,0.3-0.7,0.3-1.5V268
			c0-0.6-0.1-1-0.3-1.2C509.9,266.5,509.4,266.4,508.8,266.4z"/>
		<path class="st0" d="M526.5,263l3,20h-5.3l-0.3-3.6h-1.9l-0.3,3.6h-5.3l2.6-20C519,263,526.5,263,526.5,263z M523.8,275.8
			c-0.3-2.2-0.5-5-0.8-8.4c-0.5,3.8-0.9,6.6-1,8.4H523.8z"/>
		<path class="st0" d="M542.5,271.7h-5.2v-3.5c0-1,0-1.6-0.2-1.9c-0.1-0.2-0.3-0.4-0.7-0.4c-0.4,0-0.7,0.2-0.8,0.5
			c-0.1,0.3-0.2,1-0.2,2v9.3c0,1,0,1.6,0.2,1.9c0.1,0.3,0.4,0.4,0.8,0.4s0.6-0.2,0.8-0.4c0.1-0.3,0.2-1,0.2-2.1v-2.4h5.2v0.8
			c0,2.1-0.2,3.5-0.4,4.4c-0.3,0.9-0.9,1.6-1.9,2.3c-1,0.7-2.2,1-3.7,1c-1.5,0-2.8-0.3-3.8-0.8c-1-0.5-1.6-1.3-2-2.3
			c-0.3-1-0.5-2.4-0.5-4.4V270c0-1.4,0-2.5,0.2-3.3c0.1-0.7,0.4-1.4,0.9-2.1c0.5-0.7,1.2-1.2,2-1.6c0.9-0.4,1.9-0.6,3-0.6
			c1.5,0,2.8,0.3,3.8,0.9c1,0.6,1.6,1.3,2,2.2c0.3,0.9,0.5,2.2,0.5,4.1L542.5,271.7L542.5,271.7z"/>
		<path class="st0" d="M555,263v4h-3.1v16h-5.2v-16h-3.1v-4H555z"/>
		<path class="st0" d="M446.3,286.7h1.5l2.5,9.4h-1.2l-0.7-2.6h-3l-0.7,2.6h-1.2L446.3,286.7z M445.8,292.6h2.5l-1.2-4.5h0
			L445.8,292.6z"/>
		<path class="st0" d="M455.4,289.1c0-1-0.3-1.7-1.5-1.7c-1,0-1.5,0.5-1.5,1.5c0,2.6,4.4,1.1,4.4,4.5c0,2.2-1.6,2.8-2.9,2.8
			c-2.2,0-2.8-1.1-2.8-3.1h1.2c0,1,0.1,2.2,1.8,2.2c0.9,0,1.6-0.7,1.6-1.7c0-2.7-4.4-1.1-4.4-4.6c0-0.9,0.4-2.6,2.8-2.6
			c1.8,0,2.6,0.9,2.6,2.6L455.4,289.1L455.4,289.1z"/>
		<path class="st0" d="M462.3,289.1c0-1-0.3-1.7-1.5-1.7c-1,0-1.5,0.5-1.5,1.5c0,2.6,4.4,1.1,4.4,4.5c0,2.2-1.6,2.8-2.9,2.8
			c-2.2,0-2.8-1.1-2.8-3.1h1.2c0,1,0.1,2.2,1.8,2.2c0.9,0,1.6-0.7,1.6-1.7c0-2.7-4.4-1.1-4.4-4.6c0-0.9,0.4-2.6,2.8-2.6
			c1.8,0,2.6,0.9,2.6,2.6L462.3,289.1L462.3,289.1z"/>
		<path class="st0" d="M465.1,286.7h4.8v1h-3.7v2.9h3.5v1h-3.5v3.4h3.9v1h-5V286.7z"/>
		<path class="st0" d="M474.5,296.1h-1.2v-8.4H471v-1h5.9v1h-2.4V296.1L474.5,296.1z"/>
		<path class="st0" d="M481.1,286.7h1.9l1.9,7.4h0l1.9-7.4h1.9v9.4h-1.2v-8.2h0l-2.1,8.2h-1.2l-2.1-8.2h0v8.2h-1.2V286.7z"/>
		<path class="st0" d="M492.7,286.7h1.5l2.5,9.4h-1.2l-0.7-2.6h-3l-0.7,2.6H490L492.7,286.7z M492.1,292.6h2.5l-1.2-4.5h0
			L492.1,292.6z"/>
		<path class="st0" d="M497.8,286.7h1.5l3.1,7.9h0v-7.9h1.2v9.4H502l-3.1-7.6h0v7.6h-1.2L497.8,286.7L497.8,286.7z"/>
		<path class="st0" d="M507.4,286.7h1.5l2.5,9.4h-1.2l-0.7-2.6h-3l-0.7,2.6h-1.2L507.4,286.7z M506.8,292.6h2.5l-1.2-4.5h0
			L506.8,292.6z"/>
		<path class="st0" d="M516.7,289.3c-0.1-1-0.4-1.9-1.5-1.9c-1.6,0-1.8,1.8-1.8,4s0.2,4,1.8,4c1.6,0,1.7-1.9,1.7-3.2H515v-1h2.9v4.9
			h-0.9v-1.3H517c-0.2,0.8-1,1.5-2,1.5c-2.5,0-2.9-2.4-2.9-4.9c0-2.4,0.4-4.9,3-4.9c2.7,0,2.8,2.3,2.8,2.8H516.7z"/>
		<path class="st0" d="M519.5,286.7h4.8v1h-3.7v2.9h3.5v1h-3.5v3.4h3.9v1h-5L519.5,286.7L519.5,286.7z"/>
		<path class="st0" d="M525.8,286.7h1.9l1.9,7.4h0l1.9-7.4h1.9v9.4h-1.2v-8.2h0l-2.1,8.2h-1.2l-2.1-8.2h0v8.2h-1.2L525.8,286.7
			L525.8,286.7z"/>
		<path class="st0" d="M535.3,286.7h4.8v1h-3.7v2.9h3.5v1h-3.5v3.4h3.9v1h-5L535.3,286.7L535.3,286.7z"/>
		<path class="st0" d="M541.6,286.7h1.5l3.1,7.9h0v-7.9h1.2v9.4h-1.6l-3.1-7.6h0v7.6h-1.2L541.6,286.7L541.6,286.7z"/>
		<path class="st0" d="M552.1,296.1h-1.2v-8.4h-2.4v-1h5.9v1h-2.4V296.1z"/>
	</g>
	<g>
		<path class="st0" d="M429.5,288.5c1,0,2,0,2.9,0c0.5,0.9,1,1.8,1.5,2.7c-0.5,0.9-1,1.8-1.5,2.6c-1,0-2.1,0-3,0
			c-0.5-0.9-1-1.8-1.5-2.6c0.3-0.5,0.5-0.9,0.8-1.4C429,289.3,429.3,288.9,429.5,288.5z"/>
		<path class="st0" d="M432.5,287.5c-1,0-2,0-2.9,0c-0.1-0.1-0.2-0.2-0.2-0.3c-0.4-0.8-0.8-1.5-1.3-2.3c0,0,0-0.1,0-0.2
			c0.5-0.9,1-1.7,1.5-2.6c1,0,2,0,3,0c0.5,0.9,1,1.7,1.5,2.6C433.5,285.7,433,286.6,432.5,287.5z"/>
		<path class="st0" d="M438,290.7c-1,0-2.1,0-3.1,0c-0.5-0.8-0.9-1.6-1.4-2.4c-0.1-0.2,0-0.3,0.1-0.5c0.3-0.4,0.4-0.8,0.7-1.2
			c0.2-0.4,0.4-0.7,0.7-1.1c1,0,2,0,2.9,0c0.5,0.9,1,1.8,1.5,2.7C439,288.9,438.5,289.8,438,290.7z"/>
		<path class="st0" d="M435,279.1c1,0,2,0,3,0c0.5,0.9,1,1.8,1.5,2.6c-0.5,0.9-1,1.7-1.5,2.6c-1,0-2,0-3,0c-0.2-0.4-0.5-0.9-0.7-1.3
			c-0.3-0.5-0.5-0.9-0.8-1.4C434,280.9,434.5,280.1,435,279.1z"/>
		<path class="st0" d="M429.5,275.7c1,0,2,0,3,0c0.1,0.1,0.2,0.2,0.2,0.3c0.4,0.8,0.9,1.5,1.3,2.4c-0.5,0.9-1,1.8-1.5,2.7
			c-1,0-1.9,0-3,0c-0.5-0.9-1-1.7-1.5-2.6C428.4,277.5,429,276.6,429.5,275.7z"/>
		<path class="st0" d="M422.5,294.4c0.5-0.9,1-1.8,1.5-2.6c1,0,2,0,3,0c0.3,0.7,0.7,1.3,1.1,2c0.1,0.2,0.3,0.4,0.3,0.7
			c-0.5,0.9-1,1.7-1.5,2.6c-1,0-2,0-3,0C423.5,296.1,423,295.3,422.5,294.4z"/>
		<path class="st0" d="M438,272.6c0.5,0.9,1,1.7,1.5,2.6c-0.5,0.9-1,1.8-1.5,2.7c-1,0-1.9,0-2.9,0c-0.1-0.1-0.2-0.2-0.2-0.4
			c-0.2-0.3-0.3-0.7-0.6-1c-0.2-0.3-0.3-0.7-0.6-1c-0.2-0.2-0.2-0.4,0-0.6c0.2-0.2,0.3-0.4,0.4-0.7c0.3-0.5,0.6-1,0.9-1.6
			C436,272.6,437,272.6,438,272.6z"/>
		<path class="st0" d="M427,290.6c-1,0-2,0-3,0c-0.5-0.9-1-1.8-1.5-2.7c0.5-0.9,1-1.8,1.5-2.6c1,0,2.1,0,3,0c0.3,0.5,0.5,1,0.8,1.5
			c0,0,0,0.1,0.1,0.2c0.2,0.2,0.2,0.5,0.5,0.8c0.1,0.1,0.1,0.2,0.1,0.3C428,288.9,427.5,289.7,427,290.6z"/>
		<path class="st0" d="M427,284.2c-1,0-2,0-3,0c-0.5-0.9-1-1.7-1.5-2.6c0.5-0.9,1-1.8,1.5-2.7c1,0,1.9,0,2.9,0
			c0.1,0.1,0.2,0.2,0.2,0.3c0.3,0.7,0.8,1.3,1.1,2c0,0.1,0.1,0.2,0.2,0.3C428.1,282.4,427.6,283.2,427,284.2z"/>
		<path class="st0" d="M407.9,283.2c-0.7,0-1.3,0-1.9,0c-0.3-0.6-0.7-1.2-1-1.8c0.3-0.5,0.6-1.1,1-1.7c0.6,0,1.2,0,1.9,0
			c0.2,0.3,0.4,0.7,0.6,1c0.1,0.2,0.2,0.4,0.3,0.6c0.1,0.1,0,0.2,0.1,0.2C408.5,282,408.2,282.6,407.9,283.2z"/>
		<path class="st0" d="M417.7,296.6c-0.3-0.6-0.6-1.2-1-1.7c0.3-0.6,0.6-1.1,1-1.7c0.7,0,1.3,0,2,0c0.3,0.5,0.6,1.1,0.9,1.7
			c-0.3,0.6-0.6,1.1-0.9,1.7C419.1,296.6,418.4,296.6,417.7,296.6z"/>
		<path class="st0" d="M414.9,291.4c-0.3,0.6-0.6,1.1-0.9,1.7c-0.7,0-1.3,0-1.9,0c-0.3-0.5-0.6-1.1-1-1.7c0.3-0.6,0.7-1.2,1-1.7
			c0.7,0,1.3,0,1.9,0C414.3,290.3,414.6,290.8,414.9,291.4z"/>
		<path class="st0" d="M419.7,279.5c0.3,0.6,0.6,1.1,0.9,1.7c-0.3,0.6-0.6,1.1-0.9,1.7c-0.6,0-1.3,0-2,0c-0.3-0.5-0.6-1.1-0.9-1.7
			c0.3-0.5,0.6-1.1,0.9-1.7C418.4,279.5,419,279.5,419.7,279.5z"/>
		<path class="st0" d="M412,283c0.7,0,1.3,0,1.9,0c0.3,0.5,0.6,1.1,1,1.7c-0.3,0.6-0.6,1.2-0.9,1.7c-0.7,0-1.3,0-1.9,0
			c-0.3-0.5-0.6-1.1-1-1.7C411.3,284.1,411.7,283.5,412,283z"/>
		<path class="st0" d="M419.6,289.9c-0.7,0-1.3,0-1.9,0c-0.3-0.6-0.6-1.2-1-1.7c0.3-0.5,0.6-1.1,0.9-1.7c0.7,0,1.3,0,2,0
			c0.3,0.5,0.6,1,0.9,1.6c0,0,0,0.2,0,0.2C420.2,288.8,420,289.4,419.6,289.9z"/>
		<path class="st0" d="M412,276.1c0.7,0,1.3,0,1.9,0c0.3,0.5,0.6,1.1,0.9,1.7c-0.3,0.6-0.6,1.1-0.9,1.7c-0.6,0-1.2,0-1.9,0
			c-0.4-0.5-0.6-1.1-1-1.7C411.4,277.2,411.7,276.7,412,276.1z"/>
		<path class="st0" d="M405.9,272.8c0.7,0,1.4,0,2,0c0.3,0.6,0.6,1.1,0.9,1.7c-0.3,0.6-0.7,1.2-1,1.7c-0.7,0-1.3,0-1.9,0
			c-0.3-0.6-0.7-1.2-1-1.7C405.3,273.9,405.6,273.4,405.9,272.8z"/>
		<path class="st0" d="M408.8,288.1c-0.3,0.6-0.7,1.2-1,1.7c-0.7,0-1.3,0-1.9,0c-0.3-0.5-0.6-1.1-0.9-1.7c0.3-0.5,0.6-1.1,0.9-1.7
			c0.7,0,1.4,0,2,0C408.3,287,408.5,287.5,408.8,288.1z"/>
		<path class="st0" d="M421.1,276.3c0.4,0,0.7,0,1.1,0c0.3,0.3,0.4,0.8,0.7,1.1c-0.2,0.4-0.5,0.8-0.7,1.1c-0.4,0-0.8,0-1.2,0
			c-0.2-0.3-0.4-0.7-0.7-1.1C420.6,277,420.8,276.7,421.1,276.3z"/>
		<path class="st0" d="M417.1,273.9c-0.2,0.4-0.5,0.7-0.7,1.1c-0.4,0-0.8,0-1.2,0c-0.3-0.3-0.4-0.8-0.7-1.1c0.2-0.3,0.4-0.7,0.6-1
			c0.4,0,0.9,0,1.3,0C416.6,273.2,416.8,273.6,417.1,273.9z"/>
		<path class="st0" d="M428.2,272.9c0.2,0.3,0.4,0.7,0.6,1c-0.2,0.3-0.4,0.7-0.6,1.1c-0.4,0-0.8,0-1.2,0c-0.2-0.3-0.4-0.7-0.6-1.1
			c0.2-0.3,0.4-0.7,0.6-1C427.3,272.9,427.7,272.9,428.2,272.9z"/>
		<path class="st0" d="M434.7,270.5c-0.2,0.4-0.4,0.7-0.6,1.1c-0.4,0-0.8,0-1.2,0c-0.2-0.3-0.4-0.7-0.6-1.1c0.2-0.3,0.4-0.7,0.6-1
			c0.4,0,0.9,0,1.3,0C434.3,269.8,434.4,270.1,434.7,270.5z"/>
		<path class="st0" d="M422.3,269.4c0.2,0.3,0.4,0.7,0.6,1c-0.2,0.3-0.4,0.7-0.6,1.1c-0.4,0-0.8,0-1.2,0c-0.3-0.3-0.4-0.7-0.7-1
			c0.2-0.3,0.4-0.7,0.6-1.1C421.4,269.4,421.9,269.4,422.3,269.4z"/>
		<path class="st0" d="M426.9,268.1c-0.2-0.3-0.4-0.7-0.6-1c0.2-0.3,0.4-0.7,0.6-1c0.4,0,0.9,0,1.3,0c0.2,0.3,0.4,0.7,0.6,1
			c-0.2,0.3-0.4,0.7-0.6,1.1C427.8,268.1,427.4,268.1,426.9,268.1z"/>
		<path class="st0" d="M420.8,262.5c0.5,0,0.9,0,1.3,0c0.2,0.3,0.4,0.7,0.6,1c-0.2,0.3-0.4,0.7-0.6,1.1c-0.4,0-0.9,0-1.3,0
			c-0.2-0.3-0.4-0.7-0.6-1C420.5,263.2,420.7,262.9,420.8,262.5z"/>
		<path class="st0" d="M409.1,271.6c-0.2-0.3-0.4-0.7-0.6-1.1c0.2-0.3,0.4-0.7,0.6-1c0.4,0,0.9,0,1.3,0c0.2,0.3,0.4,0.7,0.6,1
			c-0.2,0.3-0.4,0.7-0.6,1.1C410,271.6,409.6,271.6,409.1,271.6z"/>
		<path class="st0" d="M416.9,267.1c-0.2,0.4-0.4,0.7-0.6,1c-0.4,0-0.9,0-1.3,0c-0.2-0.3-0.4-0.7-0.6-1c0.2-0.3,0.4-0.7,0.6-1
			c0.4,0,0.9,0,1.3,0C416.5,266.3,416.7,266.7,416.9,267.1z"/>
	</g>
</g>
<g id="great_for_you">
</g>
<g id="dr._shep">
</g>
<g id="ge">
</g>
<g id="aha">
</g>
<g id="diamond">
</g>
<g id="brown_foreman">
</g>
<g id="masterbrand">
</g>
<g id="aristokraft">
</g>
<g id="decora">
</g>
<g id="gaither">
</g>
<g id="unbridled_eve">
</g>
<g id="papa_johns">
</g>
<g id="dr_jan">
</g>
<g id="lawn_pro">
</g>
<g id="goo">
</g>
<g id="b__x26__b">
</g>
<g id="mindy_smith">
</g>
<g id="tesseract">
</g>
<g id="grandparents.com">
</g>
<g id="ican">
</g>
<g id="my_well_being">
</g>
<g id="apple_patch">
</g>
</svg>
