<?xml version="1.0" encoding="utf-8"?>
<!-- Generator: Adobe Illustrator 19.2.1, SVG Export Plug-In . SVG Version: 6.00 Build 0)  -->
<svg version="1.1" id="Layer_1" xmlns="http://www.w3.org/2000/svg" xmlns:xlink="http://www.w3.org/1999/xlink" x="0px" y="0px"
	 viewBox="0 0 257 90" style="enable-background:new 0 0 257 90;" xml:space="preserve">
<style type="text/css">
	.st0{fill:#1a1a10;}
</style>
<path class="st0" d="M37.4,24.3c-2,0-3.8-0.1-5.2-0.2H32c0.2,7.2,2.3,12.1,5.1,12.1c2.6,0,4.7-5.1,4.9-12.1
	C40.3,24.3,39.7,24.3,37.4,24.3 M41.4,18.8C40.5,13.7,39,11,36.8,11c-2,0-3.8,3-4.6,7.9l0.3,0.1c1.3,0.1,2.8,0.2,4.4,0.2
	c1.5,0,2.9-0.2,4.2-0.2h0.4L41.4,18.8z M9,23.1c0,10.2,10.6,18.3,25.3,19.5c-3.5-3.4-5.4-9.4-5.4-18.3v-0.6l-0.4-0.1
	c-9.6-1.9-15.8-5.4-15.8-9.8c0-0.1,0-0.2,0.1-0.4C10.3,16.3,9,19.7,9,23.1 M64.6,23.2c0-3.4-1.3-6.7-3.7-9.6v0.5
	c0,4.3-6.6,8.3-15.8,9.6l-0.2,0.1V24c0,8.9-1.9,15-5.5,18.6C53.7,41.7,64.6,33.3,64.6,23.2 M55.6,12.4c0-3.6-8.6-6.6-19.1-6.6
	c-10.3,0-18.4,3-18.4,6.8c0,2.4,3.9,4.8,10.8,6l0.5,0.1c1.1-7.6,4.2-12.5,7.7-12.5c3.2,0,6.3,5.4,7.4,12.5
	C51.4,17.6,55.6,15.2,55.6,12.4 M37.1,45.1c-18.3,0-32.8-9.5-32.8-21.3c0-11.5,14.4-20.7,32.4-20.7c18.4,0,32.5,9.2,32.5,21.1
	C69.3,35.7,54.8,45.1,37.1,45.1"/>
<polygon class="st0" points="100.5,15.2 91.2,15.2 91.2,39 84.5,39 84.5,15.2 75.4,15.2 75.4,9.5 100.5,9.5 "/>
<path class="st0" d="M117.8,14.6c-5.2,0-8.7,3.9-8.7,9.8c-0.1,6,3.4,9.8,8.5,9.8s8.5-3.9,8.5-9.9C126.1,18.5,122.7,14.6,117.8,14.6
	 M117.5,40.2c-8.6,0-15.5-6.9-15.5-15.6c0-8.8,7.1-15.9,15.7-15.9c8.5,0,15.6,7.1,15.6,15.6C133.3,33.1,126.3,40.2,117.5,40.2"/>
<polygon class="st0" points="152,28.2 152,39 145.2,39 145.2,28.1 133.6,9.5 141.3,9.5 148.6,21.9 156.2,9.5 163.9,9.5 "/>
<path class="st0" d="M179.6,14.6c-5.2,0-8.7,3.9-8.7,9.8c-0.1,6,3.4,9.8,8.5,9.8s8.5-3.9,8.5-9.9C187.9,18.5,184.6,14.6,179.6,14.6
	 M179.4,40.2c-8.6,0-15.5-6.9-15.5-15.6c0-8.8,7.1-15.9,15.7-15.9c8.5,0,15.6,7.1,15.6,15.6C195.1,33.1,188.2,40.2,179.4,40.2"/>
<polygon class="st0" points="221.7,15.2 212.4,15.2 212.4,39 205.7,39 205.7,15.2 196.6,15.2 196.6,9.5 221.7,9.5 "/>
<path class="st0" d="M231.2,27.2h8.5l-4.2-11.3L231.2,27.2z M251.5,39h-7.2l-2.5-6.5h-12.5l-2.4,6.5h-7.2l11.8-29.5h8.2L251.5,39z"
	/>
<path class="st0" d="M181.6,64.3h-2.3v3.3h2.3c1.1,0,1.8-0.4,1.8-1.6C183.4,64.8,182.6,64.3,181.6,64.3"/>
<path class="st0" d="M146.9,64.7c-0.9,0.8-1,1.9-1.2,3.1c-0.1,1.5,0.1,2.9,1.4,3.9c1.4-0.8,2.9,0,4.3,0.2c1.9-1.5,1.7-4,1.2-6.1
	C151.3,63.6,148.8,63.3,146.9,64.7"/>
<polygon class="st0" points="108.1,65.2 106.6,69.7 109.5,69.7 "/>
<path class="st0" d="M90.8,64.3h-2.7v2.9h2.8c1,0,1.6-0.5,1.6-1.5C92.5,64.7,91.7,64.3,90.8,64.3"/>
<path class="st0" d="M4.7,85.1H252V51.3H4.7V85.1z M20.2,74.5h-3.4v-13h3.4V74.5z M33.4,74.5h-3.5l-4.5-8.1l0,0v8.1h-3.2v-13h3.5
	l4.5,8l0,0v-8h3.2V74.5z M40.9,74.5h-5.6v-13h5.6c4,0,6.4,2.4,6.4,6.4C47.3,72.3,44.8,74.5,40.9,74.5 M59.6,69.2
	c0,3.8-1.7,5.6-5.7,5.6c-3.9,0-5.7-1.9-5.7-5.6v-7.6h3.4v7.8c0,1.7,0.6,2.5,2.3,2.5s2.3-0.9,2.3-2.5v-7.8h3.4V69.2z M66.4,74.8
	c-3,0-5.6-1.3-5.6-4.6h3.4c0.1,1.5,1,2,2.5,2c1,0,2.1-0.4,2.1-1.3c0-1.1-1.9-1.4-3.7-1.9c-1.9-0.5-3.8-1.4-3.8-3.7
	c0-2.8,2.9-3.9,5.3-3.9c2.6,0,5.2,1.3,5.2,4.2h-3.4c0.1-1.2-1.1-1.6-2.1-1.6c-0.7,0-1.6,0.3-1.6,1.1c0,1,1.9,1.2,3.8,1.7
	c1.9,0.5,3.8,1.4,3.8,3.7C72.1,73.8,69.2,74.8,66.4,74.8 M83.6,64.5h-3.9v10.1h-3.4V64.5h-3.9v-2.9h11.1L83.6,64.5L83.6,64.5z
	 M92.9,74.5c-0.3-0.4-0.3-1.7-0.4-2.1c-0.1-1.3-0.3-2.7-1.9-2.7H88v4.7h-3.4v-13h6.6c2.3,0,4.5,1,4.5,3.7c0,1.4-0.7,2.7-2,3.3l0,0
	c1.4,0.3,1.8,1.9,1.9,3.1c0,0.5,0.1,2.5,0.5,2.9h-3.2V74.5z M100.9,74.5h-3.4v-13h3.4V74.5z M111.1,74.5l-0.8-2.3h-4.5l-0.8,2.3
	h-3.5l4.9-13h3.4l4.9,13H111.1z M124.7,74.5h-9.4v-13h3.4v10.1h6.1v2.9H124.7z M141.9,74.5h-10.5v-13h10.4v2.7h-7v2.3h6.4v2.6h-6.4
	v2.5h7.1V74.5z M156.4,75.3c-1.5,0-3.2,0.1-4.5-0.7c-2.4,0.9-5.4,0.1-7.4-1.5c-1.7-1.8-2.6-4.1-2-6.6c0.5-2.2,2.5-4.3,4.6-5
	c2.6-0.8,5.5-0.2,7.6,2.1c1.8,2.1,2.1,4.7,1.1,7.3c-0.4,0.7-0.8,1.3-1.4,1.8c0.7,0.6,2,0.3,2.7,0.2C156.8,73.7,157,74.8,156.4,75.3
	 M168.6,69.2c0,3.8-1.7,5.6-5.7,5.6c-3.9,0-5.7-1.9-5.7-5.6v-7.6h3.4v7.8c0,1.7,0.6,2.5,2.3,2.5c1.7,0,2.3-0.9,2.3-2.5v-7.8h3.4
	L168.6,69.2L168.6,69.2z M173.9,74.5h-3.4v-13h3.4V74.5z M182.1,70.2h-2.8v4.3h-3.4v-13h6.2c2.4,0,4.7,1.1,4.7,4.2
	C186.8,69,184.9,70.2,182.1,70.2 M202.1,74.5h-3.2v-9.9l0,0l-2.7,9.9h-2.6l-2.7-9.9l0,0v9.9h-3.2v-13h5l2.2,8.7l0,0l2.2-8.7h5
	L202.1,74.5L202.1,74.5z M214.6,74.5h-10.5v-13h10.4v2.7h-7v2.3h6.4v2.6h-6.4v2.5h7.2v2.9H214.6z M227.4,74.5h-3.5l-4.5-8.1l0,0v8.1
	h-3.2v-13h3.5l4.5,8l0,0v-8h3.2V74.5z M239.6,64.5h-3.9v10.1h-3.4V64.5h-3.9v-2.9h11.1L239.6,64.5L239.6,64.5z"/>
<path class="st0" d="M40.3,64.5h-1.6v7.2h1.6c2.6-0.1,3.6-1.1,3.6-3.7C43.9,65.6,42.6,64.5,40.3,64.5"/>
</svg>
