<?xml version="1.0" encoding="utf-8"?>
<!-- Generator: Adobe Illustrator 17.1.0, SVG Export Plug-In . SVG Version: 6.00 Build 0)  -->
<!DOCTYPE svg PUBLIC "-//W3C//DTD SVG 1.1//EN" "http://www.w3.org/Graphics/SVG/1.1/DTD/svg11.dtd">
<svg version="1.1" id="Layer_1" xmlns="http://www.w3.org/2000/svg" xmlns:xlink="http://www.w3.org/1999/xlink" x="0px" y="0px"
	 width="150px" height="68.3px" viewBox="404.5 245.7 150 68.3" style="enable-background:new 404.5 245.7 150 68.3;"
	 xml:space="preserve" preserveAspectRatio="XminYmin none">
<style type="text/css">
	.st0{fill:#1a1a10;}
</style>
<g id="humana">
</g>
<g id="humana_vitality">
</g>
<g id="jencare">
	<g>
		<path class="st0" d="M459.8,288.4c3.3-15.6,17-28.3,31-34.7c-6.2,5.8-12.9,11.2-18.1,17.9c-2.3,3-4.4,5.9-6.4,9.2
			c-1.2,2.1-2.6,7.2-5.4,7.1"/>
		<path class="st0" d="M495.3,272.3c-6.8,1.1-6.2,16-3.2,20.1c-0.6-6.8,1.2-12.2,2.4-18.6"/>
		<path class="st0" d="M488,253.4c-7.7-0.5-12.3,2.5-16.3,8.9c-2.6,4.1-6.6,3.4-10.5,1.4c5.9,2.8,8.5-7.2,12-10.3
			c4.6-4.1,9.4-2.9,13.8-0.1"/>
		<path class="st0" d="M491.1,251.2c-4.3,0.8-6.6-2.7-10.1-4.4c-3.8-1.8-8.4-1.1-12,1c-4.2,2.4-7.3,6.6-11.4,9.3
			c-4,2.7-7.4,3-12.1,3.6c9.3,7.2,16.2-4.7,23-8.9c3-1.8,7.5-2.9,11.1-2.6c3.4,0.3,7.3,3.9,10.9,2.7"/>
		<path class="st0" d="M497.4,251.1c7.6,2,15.2,6.4,20.8,10.6c2.9,2.2,5.5,4.3,8.4,6.5c2.4,1.8,5,4.8,7.8,6.2
			c-1.7,1.2-3.2,3.4-5.2,4.1c-1.6,0.5-3.3,0-4.9,0.3c-1.2,0.2-2.4,1.1-3.7,1.3c-6.2-4.2-13.1-5.2-20.8-7.2c-5.8-1.5-9.1-3.4-10-8.1
			c-0.5-2.7,0.8-7.2,5.8-6.9c-3.2,2.4-1.3,6.9,1.1,9.2c3.3,3,7.8,3.9,12,5.4c2.4,0.8,4.6,1.6,6.8,2.8c1.4,0.8,3.2,2.7,4.8,3.1
			c1.7,0.5,1.4-0.2,3.3-0.4c1.3-0.2,2.5,0.6,3.7,0.5c2.3-0.2,4-2.1,5.2-3.5c-1.7-2.5-6.5-4.4-9.3-6.2c-3.5-2.2-6.8-4.5-10.3-6.8
			c-3-2-6.5-3.6-9.1-5.8c-1.8-1.4-4.1-3.9-6.5-4.4"/>
		<path class="st0" d="M492,254c-0.9-4.6,6.4-7.2,9.3-7.8c-2,2.1-2.6,8-5.2,8.6c0.1-2.3,1.5-4.8,3-6.2c-2.4,0-5.1,4.3-6.5,6.2"/>
		<path class="st0" d="M504.2,260.2c3.1,0,6,1.6,6.3,3.3c-2.6-0.5-5.9-1.4-5.9-3.3"/>
		<path class="st0" d="M443,277.4c0.5-1.3,1.2-2.4,1.4-3.9c0.2-1.4,0.3-3,0.2-4.4c-0.2-2.4-2.3-6.1-5.3-5.1c-2.7,0.9-5,6.1-3,8.4
			c0.5-2.8,3.1-4,5-1.4c1.2,1.5,1.3,4.5,0.8,6.4c0.3,0.1,0.7,0.2,0.9,0.2"/>
		<path class="st0" d="M445.2,279.9c1.4-0.4,2.4-1.1,4-1.1c1.5-0.1,3-0.2,4.4,0.1c2.4,0.3,5.9,2.6,4.8,5.5c-1,2.6-6.3,4.7-8.6,2.5
			c2.8-0.3,4.1-2.9,1.7-4.9c-1.4-1.3-4.5-1.5-6.3-1.1C445.2,280.5,445.2,280.1,445.2,279.9"/>
		<path class="st0" d="M440.4,278.7c1.2,1.2,2.7,2.2,3.3,3.8c0.4-0.3,1.1-0.8,1.1-1.3c0-0.4-0.8-1.1-1-1.3c-0.8-0.9-1.7-1.4-2.5-2.2
			C440.9,278,440.7,278.4,440.4,278.7"/>
		<path class="st0" d="M439.8,278.8c-0.8,0.6-1.7,0.5-2.5-0.2c-0.8-0.8-0.5-1.7-0.5-2.7c-2,0.6-3.1,2.7-1.6,4.4
			c1.6,1.8,3.9,0.6,5.2-0.8C440.2,279.4,440,279,439.8,278.8"/>
		<path class="st0" d="M443.7,282.8c-0.6,0.8-0.7,1.7,0.1,2.5c0.8,0.8,1.7,0.6,2.7,0.6c-0.7,1.9-2.9,3-4.5,1.4
			c-1.7-1.7-0.5-3.9,1.1-5.2C443.2,282.3,443.5,282.5,443.7,282.8"/>
		<path class="st0" d="M454.4,274.9c1.4-1.4,1.5-2.8,2.1-4.7c0.2-0.9,0.6-1.8,0.9-2.7c0.2-0.4,1.2-2.3,1.1-2.5c0,0,0-0.2,0-0.2
			c0-0.1,0.1-0.1,0.1-0.2h-0.2c-0.2-0.1-2.2,0.9-2.6,1.1c-0.9,0.3-1.8,0.6-2.7,0.8c-1.9,0.4-3.3,0.4-4.8,1.7
			c-1.6,1.5-2.2,2.7-2.8,4.7c-0.5,1.6-0.8,3.9-2.2,4.9h0.1c-0.1,0.1-0.2,0.2-0.2,0.2l0,0c0.5,0.5,1.1,0.9,1.4,1.5
			c0.1-0.1,0.1-0.2,0.2-0.2l-0.1,0.2c1.1-1.3,3.4-1.5,5-2C451.6,277,452.8,276.4,454.4,274.9"/>
		<path class="st0" d="M436.6,282.6c-0.6,0.6-0.6,1.3-0.8,2.1c-0.1,0.5-0.2,0.8-0.3,1.2c-0.1,0.2-0.5,1-0.5,1.1v0.1c0,0,0,0,0,0.1
			h0.1c0.1,0.1,1-0.3,1.1-0.4c0.4-0.1,0.8-0.2,1.2-0.2c0.8-0.1,1.5-0.1,2.1-0.6c0.7-0.6,0.9-1.2,1.1-2.1c0.2-0.7,0.2-1.7,0.8-2.2
			h-0.1l0.1-0.1l0,0c-0.2-0.2-0.5-0.5-0.7-0.8c0,0.1-0.1,0.1-0.1,0.1v-0.1c-0.5,0.6-1.5,0.6-2.2,0.8
			C437.8,281.8,437.3,281.9,436.6,282.6"/>
		<path class="st0" d="M406.3,304.7c0-3,0-3.6-0.1-4.2c-0.1-0.7-0.2-1-0.8-1.1c-0.2-0.1-0.5-0.1-0.7-0.1c-0.1,0-0.2,0-0.2-0.2
			s0.1-0.2,0.3-0.2c0.8,0,2.1,0.1,2.2,0.1s1.4-0.1,1.9-0.1c0.2,0,0.3,0.1,0.3,0.2s-0.1,0.2-0.2,0.2c-0.2,0-0.2,0-0.5,0.1
			c-0.5,0.1-0.7,0.5-0.7,1.1c-0.1,0.6-0.1,1.1-0.1,4.2v2.7c0,2.8,0.6,4,1.4,4.8c1,0.9,1.8,1.1,3,1.1c1.2,0,2.4-0.5,3-1.4
			c0.9-1.1,1.1-2.7,1.1-4.8v-2.4c0-3,0-3.6-0.1-4.2c-0.1-0.7-0.2-1-0.8-1.1c-0.2-0.1-0.5-0.1-0.7-0.1c-0.1,0-0.2,0-0.2-0.2
			s0.1-0.2,0.3-0.2c0.8,0,2,0.1,2.1,0.1c0.2,0,1.1-0.1,1.6-0.1c0.2,0,0.3,0.1,0.3,0.2s-0.1,0.2-0.2,0.2c-0.2,0-0.2,0-0.5,0.1
			c-0.5,0.2-0.7,0.5-0.7,1.1c-0.1,0.6-0.1,1.1-0.1,4.2v2.1c0,2.1-0.2,4.4-1.8,5.8c-1.4,1.2-2.9,1.4-4,1.4c-0.7,0-2.7-0.1-4-1.4
			c-1-0.9-1.7-2.3-1.7-5.1v-2.8H406.3z"/>
		<path class="st0" d="M422.7,311.6c0.1,1.4,0.2,1.7,0.7,1.9c0.3,0.1,0.7,0.1,0.8,0.1c0.1,0,0.2,0.1,0.2,0.2s-0.2,0.2-0.3,0.2
			c-1,0-1.7-0.1-1.8-0.1s-0.9,0.1-1.7,0.1c-0.2,0-0.3,0-0.3-0.2c0-0.1,0.1-0.2,0.2-0.2c0.2,0,0.5,0,0.7-0.1c0.5-0.2,0.5-0.5,0.5-2.1
			v-9.5c0-0.7,0.1-0.8,0.2-0.8c0.2,0,0.5,0.3,0.7,0.5c0.3,0.3,2.7,2.9,5.4,5.6c1.7,1.7,3.5,3.7,4,4.3l-0.2-8.3
			c0-1.1-0.2-1.4-0.6-1.5c-0.3-0.1-0.7-0.1-0.8-0.1s-0.2-0.1-0.2-0.2s0.2-0.2,0.3-0.2c0.8,0,1.6,0.1,1.8,0.1s0.8-0.1,1.4-0.1
			c0.2,0,0.3,0,0.3,0.2c0,0.1-0.1,0.2-0.2,0.2c-0.1,0-0.2,0-0.4,0.1c-0.5,0.2-0.6,0.5-0.6,1.4l-0.1,9.7c0,1.1,0,1.2-0.2,1.2
			s-0.4-0.2-1.3-1c-0.2-0.2-2.7-2.6-4.5-4.5c-2-2.1-3.9-4.1-4.4-4.7L422.7,311.6z"/>
		<path class="st0" d="M438.6,308.3c0,1.3,0,3.3,0,3.5c0.1,0.8,0.1,1,0.6,1.2c0.5,0.2,1.2,0.2,1.5,0.2c1.1,0,2.5-0.5,2.5-2.6
			c0-0.8-0.3-2.1-1.6-3c-0.6-0.4-1.1-0.4-1.5-0.5c-0.3,0.1-1.1,0.1-1.4,0.1c-0.1,0-0.1,0.1-0.1,0.2V308.3L438.6,308.3z M438.6,306.4
			c0,0.2,0.1,0.2,0.2,0.2s0.4,0.1,1.1,0.1c1,0,1.3-0.1,1.7-0.5s0.7-1,0.7-1.7c0-1.3-0.7-2.7-2.4-2.7c-0.2,0-0.6,0-0.9,0.1
			c-0.2,0-0.2,0.1-0.2,0.2V306.4L438.6,306.4z M437.1,306.1c0-2.6,0-3-0.1-3.6c-0.1-0.5-0.2-0.9-0.7-1c-0.2,0-0.5-0.1-0.6-0.1
			c-0.1,0-0.2-0.1-0.2-0.1c0-0.1,0.1-0.2,0.3-0.2c0.8,0,1.9,0.1,2,0.1c0.4,0,1.2-0.1,2-0.1c2.9,0,3.6,1.7,3.6,2.5
			c0,1.3-0.8,2.1-1.7,2.9c1.3,0.4,3,1.6,3,3.4c0,1.8-1.4,3.6-4.3,3.6c-0.3,0-0.9,0-1.4-0.1c-0.5,0-1.1-0.1-1.1-0.1s-0.4,0-0.7,0
			c-0.4,0-0.8,0.1-1.1,0.1c-0.2,0-0.3-0.1-0.3-0.2c0-0.1,0.1-0.1,0.2-0.1c0.2,0,0.4-0.1,0.5-0.1c0.3-0.1,0.4-0.5,0.5-0.9
			c0.1-0.7,0.1-2,0.1-3.6v-2.7H437.1z"/>
		<path class="st0" d="M449.4,307.5c0,0.1,0.1,0.2,0.2,0.2c0.2,0.2,1.1,0.2,1.9,0.2c0.4,0,0.8,0,1.3-0.3c0.6-0.4,1.1-1.3,1.1-2.5
			c0-2.1-1.1-3.3-3-3.3c-0.5,0-1.1,0.1-1.2,0.1c-0.2,0.1-0.2,0.2-0.2,0.3V307.5z M447.9,306.1c0-2.6,0-3-0.1-3.6
			c-0.1-0.5-0.2-0.8-0.7-0.9c-0.2,0-0.5-0.1-0.6-0.1c-0.1,0-0.2-0.1-0.2-0.2s0.1-0.2,0.3-0.2c0.8,0,1.9,0.1,2.1,0.1s1.6-0.1,2.1-0.1
			c1.1,0,2.3,0.1,3.2,0.7c0.5,0.3,1.2,1.1,1.2,2.3c0,1.2-0.5,2.4-2.1,3.8c1.4,1.7,2.6,3.3,3.6,4.3c0.9,0.9,1.4,1.1,1.9,1.1
			c0.3,0.1,0.5,0.1,0.6,0.1s0.2,0.1,0.2,0.2s-0.1,0.2-0.4,0.2h-1.1c-1,0-1.4-0.1-1.8-0.3c-0.8-0.4-1.4-1.2-2.4-2.4
			c-0.7-0.9-1.4-2-1.8-2.4c-0.1-0.1-0.2-0.1-0.2-0.1h-2.2c-0.1,0-0.2,0-0.2,0.2v0.4c0,1.6,0,2.9,0.1,3.6c0.1,0.5,0.2,0.8,0.7,0.8
			c0.2,0.1,0.6,0.1,0.8,0.1s0.2,0.1,0.2,0.2s-0.1,0.2-0.3,0.2c-0.9,0-2.1-0.1-2.1-0.1c0,0-1.1,0.1-1.7,0.1c-0.2,0-0.3-0.1-0.3-0.2
			s0.1-0.2,0.2-0.2c0.2,0,0.4-0.1,0.5-0.1c0.3-0.1,0.4-0.4,0.5-0.8c0.1-0.7,0.1-2,0.1-3.6L447.9,306.1L447.9,306.1z"/>
		<path class="st0" d="M462,309c0,1.6,0,2.9,0.1,3.6c0.1,0.5,0.2,0.8,0.6,0.9c0.2,0.1,0.6,0.1,0.8,0.1c0.1,0,0.2,0.1,0.2,0.2
			s-0.1,0.2-0.3,0.2c-1,0-2.1-0.1-2.1-0.1s-1.1,0.1-1.7,0.1c-0.2,0-0.3-0.1-0.3-0.2s0.1-0.2,0.2-0.2c0.2,0,0.4-0.1,0.5-0.1
			c0.3-0.1,0.4-0.4,0.5-0.9c0.1-0.7,0.1-2,0.1-3.6v-2.9c0-2.6,0-3-0.1-3.6c-0.1-0.5-0.2-0.8-0.5-0.9c-0.2-0.1-0.4-0.1-0.5-0.1
			c-0.1,0-0.2-0.1-0.2-0.2s0.1-0.2,0.3-0.2c0.5,0,1.6,0,1.7,0c0.1,0,1.2,0,1.7,0c0.2,0,0.3,0,0.3,0.2c0,0.1-0.1,0.2-0.2,0.2
			c-0.2,0-0.2,0-0.5,0.1c-0.5,0.1-0.5,0.3-0.6,0.9c0,0.5,0,1,0,3.6V309L462,309z"/>
		<path class="st0" d="M468.6,307.8c0,1.7,0,3.3,0,3.6c0,0.4,0.1,1,0.2,1.2c0.2,0.3,0.8,0.7,2.8,0.7c1.6,0,3-0.5,4-1.5
			c0.9-0.8,1.4-2.4,1.4-4c0-2.1-0.9-3.4-1.6-4.1c-1.7-1.6-3.6-1.8-5.6-1.8c-0.3,0-0.9,0.1-1.1,0.2c-0.2,0.1-0.2,0.2-0.2,0.3
			L468.6,307.8L468.6,307.8z M467,306.1c0-2.6,0-3-0.1-3.6c-0.1-0.5-0.2-0.8-0.7-0.9c-0.2,0-0.5-0.1-0.6-0.1c-0.1,0-0.2-0.1-0.2-0.2
			s0.1-0.2,0.3-0.2c0.8,0,1.9,0.1,2,0.1c0.2,0,1.3-0.1,2.3-0.1c1.7,0,4.9-0.2,6.8,1.9c0.8,0.8,1.7,2.2,1.7,4.2
			c0,2.1-0.9,3.6-1.8,4.6c-0.8,0.8-2.3,1.9-5.2,1.9c-0.8,0-1.7-0.1-2.4-0.1c-0.8-0.1-1.3-0.1-1.4-0.1c-0.1,0-0.4,0-0.7,0
			c-0.4,0-0.8,0.1-1.1,0.1c-0.2,0-0.3-0.1-0.3-0.2s0.1-0.2,0.2-0.2c0.2,0,0.4-0.1,0.5-0.1c0.3-0.1,0.4-0.4,0.5-0.8
			c0.1-0.7,0.1-2,0.1-3.6L467,306.1L467,306.1z"/>
		<path class="st0" d="M483.5,309.1c0,2.4,0.1,3.4,0.4,3.7s0.9,0.4,2.3,0.4c0.9,0,1.7,0,2.1-0.5c0.2-0.2,0.4-0.6,0.4-0.9
			c0-0.2,0.1-0.2,0.2-0.2s0.2,0.1,0.2,0.2s-0.2,1.1-0.2,1.7c-0.2,0.4-0.2,0.5-1.1,0.5c-1.2,0-2.2,0-3-0.1c-0.8,0-1.4-0.1-1.9-0.1
			c-0.1,0-0.4,0-0.7,0c-0.4,0-0.7,0.1-1,0.1c-0.2,0-0.3-0.1-0.3-0.2s0.1-0.2,0.2-0.2c0.2,0,0.4-0.1,0.5-0.1c0.3-0.1,0.4-0.4,0.5-0.9
			c0.1-0.7,0.1-2,0.1-3.6V306c0-2.6,0-3-0.1-3.6s-0.2-0.8-0.7-0.9c-0.2,0-0.5-0.1-0.6-0.1c-0.1,0-0.2-0.1-0.2-0.2
			c0-0.1,0.1-0.2,0.3-0.2c0.8,0,1.8,0.1,2,0.1c0.1,0,1.4-0.1,1.9-0.1c0.2,0,0.3,0.1,0.3,0.2c0,0.1-0.1,0.2-0.2,0.2
			c-0.2,0-0.4,0-0.5,0.1c-0.5,0.1-0.6,0.4-0.6,0.9s0,1,0,3.6v3H483.5z"/>
		<path class="st0" d="M491.7,306.1c0-2.6,0-3-0.1-3.6c-0.1-0.5-0.2-0.8-0.7-0.9c-0.2,0-0.5-0.1-0.6-0.1c-0.1,0-0.2-0.1-0.2-0.2
			s0.1-0.2,0.3-0.2c0.8,0,1.9,0.1,2,0.1c0.2,0,3.7,0,4.1,0c0.3,0,0.6-0.1,0.8-0.1c0.1,0,0.2-0.1,0.2-0.1s0.1,0.1,0.1,0.2
			c0,0.2-0.1,0.3-0.2,0.8c0,0.2-0.1,0.9-0.1,1.1c0,0.1-0.1,0.2-0.2,0.2s-0.2-0.1-0.2-0.2s0-0.4-0.1-0.6c-0.2-0.3-0.3-0.4-1.2-0.5
			c-0.3,0-2.3-0.1-2.4-0.1c-0.1,0-0.1,0.1-0.1,0.2v4.5c0,0.2,0,0.2,0.1,0.2c0.2,0,2.4,0,2.9-0.1c0.4-0.1,0.7-0.1,0.8-0.2
			s0.2-0.2,0.2-0.2s0.1,0.1,0.1,0.2s-0.1,0.4-0.2,0.9c-0.1,0.3-0.1,1-0.1,1.1c0,0.2-0.1,0.3-0.2,0.3s-0.2-0.1-0.2-0.2
			c0-0.2,0-0.3-0.1-0.5s-0.2-0.5-0.9-0.5c-0.5-0.1-2.3-0.1-2.6-0.1c-0.1,0-0.2,0.1-0.2,0.2v1.4c0,0.5,0,2.5,0,2.8
			c0.1,1.1,0.4,1.3,2.1,1.3c0.5,0,1.3,0,1.7-0.2c0.5-0.2,0.7-0.5,0.8-1.1c0.1-0.2,0.1-0.2,0.2-0.2s0.2,0.2,0.2,0.2
			c0,0.2-0.2,1.2-0.2,1.6c-0.2,0.5-0.3,0.5-1,0.5c-1.3,0-2.3-0.1-3-0.1c-0.7,0-1.1,0-1.4,0c-0.1,0-0.4,0-0.8,0c-0.3,0-0.7,0.1-1,0.1
			c-0.2,0-0.3-0.1-0.3-0.2s0-0.2,0.2-0.2s0.4-0.1,0.5-0.1c0.3-0.1,0.4-0.4,0.5-0.8c0.1-0.7,0.1-2,0.1-3.6v-2.7H491.7z"/>
		<path class="st0" d="M503.4,307.8c0,1.7,0,3.3,0,3.6c0,0.4,0.1,1,0.2,1.2c0.2,0.3,0.8,0.7,2.8,0.7c1.6,0,3-0.5,4-1.5
			c0.9-0.8,1.4-2.4,1.4-4c0-2.1-0.9-3.4-1.6-4.1c-1.6-1.6-3.5-1.8-5.5-1.8c-0.3,0-0.9,0.1-1.1,0.2c-0.2,0.1-0.2,0.2-0.2,0.3V307.8z
			 M501.9,306.1c0-2.6,0-3-0.1-3.6c0-0.5-0.2-0.8-0.7-0.9c-0.2,0-0.5-0.1-0.6-0.1c-0.1,0-0.2-0.1-0.2-0.2s0.1-0.2,0.3-0.2
			c0.8,0,1.9,0.1,2,0.1c0.2,0,1.3-0.1,2.3-0.1c1.7,0,4.9-0.2,6.8,1.9c0.8,0.8,1.7,2.2,1.7,4.2c0,2.1-0.9,3.6-1.8,4.6
			c-0.8,0.8-2.3,1.9-5.2,1.9c-0.8,0-1.7-0.1-2.4-0.1c-0.8-0.1-1.3-0.1-1.4-0.1c-0.1,0-0.4,0-0.7,0c-0.4,0-0.8,0.1-1.1,0.1
			c-0.2,0-0.3-0.1-0.3-0.2s0.1-0.2,0.2-0.2c0.2,0,0.4-0.1,0.5-0.1c0.3-0.1,0.4-0.4,0.5-0.8c0.1-0.7,0.1-2,0.1-3.6V306.1L501.9,306.1
			z"/>
		<path class="st0" d="M523.6,304.7c0-3,0-3.6-0.1-4.2c-0.1-0.7-0.2-1-0.8-1.1c-0.2-0.1-0.5-0.1-0.7-0.1c-0.1,0-0.2,0-0.2-0.2
			s0.1-0.2,0.3-0.2c0.5,0,1,0,1.4,0l0.8,0.1c0.2,0,4,0,4.5,0c0.4,0,0.7-0.1,0.8-0.1c0.1,0,0.2-0.1,0.3-0.1c0.1,0,0.1,0.1,0.1,0.2
			c0,0.2-0.1,0.4-0.2,0.9c0,0.2-0.1,1.1-0.1,1.3c0,0.1-0.1,0.2-0.2,0.2c-0.2,0-0.2-0.1-0.2-0.2s0-0.5-0.2-0.7
			c-0.2-0.3-0.3-0.5-1.4-0.7c-0.3-0.1-2.4-0.1-2.7-0.1c-0.1,0-0.2,0.1-0.2,0.2v5.4c0,0.2,0,0.2,0.2,0.2c0.2,0,2.7,0,3.1-0.1
			s0.8-0.1,0.9-0.3c0.2-0.2,0.2-0.2,0.3-0.2c0.1,0,0.1,0.1,0.1,0.2c0,0.2-0.1,0.5-0.2,1.1c-0.1,0.4-0.1,1.1-0.1,1.2
			c0,0.2,0,0.4-0.2,0.4c-0.1,0-0.2-0.1-0.2-0.2c0-0.2,0-0.4-0.1-0.6c-0.1-0.3-0.2-0.6-1-0.7c-0.5-0.1-2.4-0.1-2.8-0.1
			c-0.1,0-0.2,0.1-0.2,0.2v1.7c0,0.7,0,2.9,0,3.3c0.1,1.4,0.4,1.6,2.3,1.6c0.5,0,1.4,0,1.9-0.2c0.5-0.2,0.8-0.6,0.9-1.4
			c0.1-0.2,0.1-0.3,0.2-0.3c0.2,0,0.2,0.2,0.2,0.3s-0.2,1.4-0.2,1.9c-0.2,0.5-0.3,0.5-1.1,0.5c-1.4,0-2.5-0.1-3.3-0.1
			c-0.8-0.1-1.2-0.1-1.5-0.1c-0.1,0-0.4,0-0.8,0s-0.8,0.1-1.1,0.1c-0.2,0-0.3-0.1-0.3-0.2c0-0.1,0.1-0.2,0.2-0.2
			c0.2,0,0.4-0.1,0.6-0.1c0.4-0.1,0.5-0.5,0.5-1.1c0.1-0.8,0.1-2.4,0.1-4.2V304.7z"/>
		<path class="st0" d="M539.3,311.6c1-2.2,3.2-7.8,3.6-9c0.1-0.2,0.2-0.5,0.2-0.6s-0.1-0.3-0.2-0.4c-0.2-0.1-0.4-0.1-0.6-0.1
			c-0.1,0-0.2-0.1-0.2-0.2s0.2-0.2,0.4-0.2c0.7,0,1.4,0.1,1.7,0.1c0.1,0,0.8-0.1,1.4-0.1c0.2,0,0.3,0.1,0.3,0.2s-0.1,0.2-0.2,0.2
			s-0.5,0-0.8,0.2c-0.2,0.2-0.5,0.4-1,1.5c-0.2,0.5-1.1,2.4-1.9,4.5c-1.1,2.4-1.8,4.2-2.2,5c-0.5,1-0.5,1.2-0.8,1.2s-0.3-0.2-0.6-1
			l-4.2-10.1c-0.4-0.9-0.6-1.1-1.2-1.2c-0.3-0.1-0.5-0.1-0.7-0.1c-0.1,0-0.2-0.1-0.2-0.2s0.2-0.2,0.5-0.2c0.8,0,1.8,0.1,2,0.1
			s0.9-0.1,1.6-0.1c0.3,0,0.5,0.1,0.5,0.2s-0.1,0.2-0.2,0.2c-0.2,0-0.5,0-0.6,0.1s-0.2,0.2-0.2,0.3c0,0.2,0.2,0.7,0.5,1.4
			L539.3,311.6z"/>
		<path class="st0" d="M548.2,306.1c0-2.6,0-3-0.1-3.6c-0.1-0.5-0.2-0.8-0.7-0.9c-0.2,0-0.5-0.1-0.6-0.1c-0.1,0-0.2-0.1-0.2-0.2
			s0.1-0.2,0.3-0.2c0.8,0,1.9,0.1,2,0.1c0.2,0,3.7,0,4.1,0c0.3,0,0.6-0.1,0.8-0.1c0.1,0,0.2-0.1,0.2-0.1c0.1,0,0.1,0.1,0.1,0.2
			c0,0.2-0.1,0.3-0.2,0.8c0,0.2-0.1,0.9-0.1,1.1c0,0.1-0.1,0.2-0.2,0.2s-0.2-0.1-0.2-0.2s0-0.4-0.1-0.6c-0.2-0.3-0.3-0.4-1.2-0.5
			c-0.3,0-2.3-0.1-2.4-0.1c-0.1,0-0.1,0.1-0.1,0.2v4.5c0,0.2,0,0.2,0.1,0.2c0.2,0,2.4,0,2.9-0.1c0.4-0.1,0.7-0.1,0.8-0.2
			s0.2-0.2,0.2-0.2c0.1,0,0.1,0.1,0.1,0.2s-0.1,0.4-0.2,0.9c-0.1,0.3-0.1,1-0.1,1.1c0,0.2-0.1,0.3-0.2,0.3s-0.2-0.1-0.2-0.2
			c0-0.2,0-0.3-0.1-0.5s-0.2-0.5-0.8-0.5c-0.5-0.1-2.3-0.1-2.6-0.1c-0.1,0-0.2,0.1-0.2,0.2v1.4c0,0.5,0,2.5,0,2.8
			c0.1,1.1,0.4,1.3,2.1,1.3c0.5,0,1.3,0,1.7-0.2c0.5-0.2,0.7-0.5,0.8-1.1c0.1-0.2,0.1-0.2,0.2-0.2s0.2,0.2,0.2,0.2
			c0,0.2-0.2,1.2-0.2,1.6c-0.2,0.5-0.3,0.5-1,0.5c-1.3,0-2.3-0.1-3-0.1c-0.7,0-1.1,0-1.4,0c-0.1,0-0.4,0-0.8,0c-0.3,0-0.7,0.1-1,0.1
			c-0.2,0-0.3-0.1-0.3-0.2s0-0.2,0.2-0.2s0.4-0.1,0.5-0.1c0.3-0.1,0.4-0.4,0.5-0.8c0.1-0.7,0.1-2,0.1-3.6v-2.7H548.2z"/>
	</g>
</g>
<g id="great_for_you">
</g>
<g id="dr._shep">
</g>
<g id="ge">
</g>
<g id="aha">
</g>
<g id="diamond">
</g>
<g id="brown_foreman">
</g>
<g id="masterbrand">
</g>
<g id="aristokraft">
</g>
<g id="decora">
</g>
<g id="gaither">
</g>
<g id="unbridled_eve">
</g>
<g id="papa_johns">
</g>
<g id="dr_jan">
</g>
<g id="lawn_pro">
</g>
<g id="goo">
</g>
<g id="b__x26__b">
</g>
<g id="mindy_smith">
</g>
<g id="tesseract">
</g>
<g id="grandparents.com">
</g>
<g id="ican">
</g>
<g id="my_well_being">
</g>
<g id="apple_patch">
</g>
</svg>
