<?xml version="1.0" encoding="iso-8859-1"?>
<!-- Generator: Adobe Illustrator 16.0.0, SVG Export Plug-In . SVG Version: 6.00 Build 0)  -->
<!DOCTYPE svg PUBLIC "-//W3C//DTD SVG 1.1//EN" "http://www.w3.org/Graphics/SVG/1.1/DTD/svg11.dtd">
<svg xmlns="http://www.w3.org/2000/svg" xmlns:xlink="http://www.w3.org/1999/xlink" version="1.1" id="Capa_1" x="0px" y="0px" width="512px" height="512px" viewBox="0 0 429.157 429.157" style="enable-background:new 0 0 429.157 429.157;" xml:space="preserve">
<g>
	<g>
		<path d="M39.251,381.69h350.653c21.673,0,39.253-11.108,39.253-24.822c0-13.709-17.58-24.826-39.253-24.826H39.251    C17.575,332.042,0,343.151,0,356.868C0,370.574,17.575,381.69,39.251,381.69z M132.804,352.941h163.547    c2.16,0,3.923,1.755,3.923,3.927c0,2.16-1.763,3.924-3.923,3.924H132.804c-2.17,0-3.925-1.764-3.925-3.924    C128.879,354.696,130.626,352.941,132.804,352.941z" fill="#288d72"/>
		<path d="M264.043,116.143V78.799c-4.752,2.707-8.936,5.987-12.387,9.993c-6.916,8.017-10.655,17.905-12.651,27.358h25.038V116.143    z" fill="#288d72"/>
		<path d="M66.397,318.053H362.75c21.673,0,39.253-17.581,39.253-39.253V114.413c0-21.672-17.58-39.25-39.253-39.25h-18.891v40.98    h19.22v160.935H66.068V116.143h141.078c2.042-13.183,6.484-27.836,15.533-40.98H66.397c-21.676,0-39.251,17.579-39.251,39.25    V278.8C27.146,300.472,44.721,318.053,66.397,318.053z" fill="#288d72"/>
		<path d="M229.011,80.809c-19.692,22.81-21.125,53.828-20.36,69.617c-27.252-2.074-48.907,3.114-64.436,15.495    c-9.027,7.191-14.3,15.57-17.402,22.569c-10.891,4.913-18.473,15.451-18.473,27.754c0,16.987,0,30.749,0,30.749h64.113v-30.749    c0-15.012-11.227-27.471-26.06-30.168c2.023-2.687,4.464-5.39,7.596-7.887c10.067-8.015,23.896-12.143,41.208-12.457    c-3.178,6.099-5.087,13.298-5.087,21.063v60.206h64.115v-60.189c0-20.781-13.225-37.62-29.924-38.984    c-0.421-13.872,1.259-39.057,16.651-56.823c8.059-9.31,19.135-15.573,32.921-18.721c-1.459,4.474-2.309,9.325-2.309,14.437V247.65    h64.106V86.72c0-21.674-14.351-39.252-32.055-39.252c-6.938,0-13.329,2.771-18.575,7.364    C261.122,56.98,242.167,65.571,229.011,80.809z" fill="#288d72"/>
	</g>
</g>
<g>
</g>
<g>
</g>
<g>
</g>
<g>
</g>
<g>
</g>
<g>
</g>
<g>
</g>
<g>
</g>
<g>
</g>
<g>
</g>
<g>
</g>
<g>
</g>
<g>
</g>
<g>
</g>
<g>
</g>
</svg>
