<?xml version="1.0" encoding="iso-8859-1"?>
<!-- Generator: Adobe Illustrator 16.0.0, SVG Export Plug-In . SVG Version: 6.00 Build 0)  -->
<!DOCTYPE svg PUBLIC "-//W3C//DTD SVG 1.1//EN" "http://www.w3.org/Graphics/SVG/1.1/DTD/svg11.dtd">
<svg xmlns="http://www.w3.org/2000/svg" xmlns:xlink="http://www.w3.org/1999/xlink" version="1.1" id="Capa_1" x="0px" y="0px" width="512px" height="512px" viewBox="0 0 75.262 75.262" style="enable-background:new 0 0 75.262 75.262;" xml:space="preserve">
<g>
	<g>
		<path d="M68.096,50.848V14.559c0-1.568-1.345-2.688-2.689-2.688H9.631c-1.568,0-2.688,1.345-2.688,2.688v36.289L0,59.135    c0,2.24,1.792,4.256,4.256,4.256h66.75c2.24,0,4.256-1.791,4.256-4.256L68.096,50.848z M43.007,62.047H31.806    c-0.448,0-0.672-0.225-0.672-0.672s0.224-0.672,0.672-0.672h11.201c0.447,0,0.673,0.225,0.673,0.672    C43.68,61.6,43.454,62.047,43.007,62.047z M25.983,59.135L28,56.672h18.591l2.017,2.463H25.983z M61.6,48.383h-2.912l0,0H14.783    l0,0h-1.792c-1.344,0-2.464-1.119-2.464-2.463V16.8c0-1.345,1.12-2.465,2.464-2.465H61.6c1.344,0,2.465,1.12,2.465,2.465v29.121    l0,0C64.064,47.264,62.943,48.383,61.6,48.383z" fill="#d67d00"/>
		<path d="M56.446,48.607l-0.673-2.016c-0.448-0.896-0.896-0.896-1.567-1.121c-3.358-1.344-6.271-1.791-9.406-2.912    c-0.227-0.225-1.12-0.672-1.12-2.24c0-0.672-0.226-1.118-0.896-1.118c-0.225,0-0.225,0-0.225-0.447    c-0.226-1.568-0.226-2.24-0.226-2.464s0.226-0.447,0.226-0.447c1.119-1.568,1.344-3.359,1.344-4.257c0,0,0.227,0.225,0.447-0.447    c0.225-0.672,0.225-0.896,0.448-1.792c0.226-0.672,0.226-1.792-0.448-1.792c-0.447,0.224-0.224,0-0.224-0.448V22.85    c-0.226-1.568-1.121-2.464-1.793-2.912c-1.117-0.673-1.344-0.897-1.789-1.345c-0.448-0.448-0.448-0.896,0-1.345    c0.224-0.224,0.445-0.447,0.672-0.447l0,0l0,0h-0.227l0,0c-0.226,0-2.688,0.447-3.583,0.672c-1.792,0.448-3.584,1.12-5.151,2.24    c-1.12,0.896-2.017,1.792-2.017,3.136c0,0.672,0,3.137,0,4.256c0,0.225,0,0.672-0.447,0.448c-0.896,0-0.448,1.566-0.448,1.792    c0.224,0.896,0.448,1.12,0.672,1.792c0.224,0.447,0.448,0.447,0.448,0.447c0.224,1.119,0.672,3.137,1.567,4.257    c0.225,0.225,0.225,0.447,0.225,0.672c-0.225,0.896-0.225,1.792-0.225,2.463c0,0.225-0.224,0.448-0.447,0.448    c-0.673,0-0.896,0.447-0.896,1.119c0,1.119-0.672,2.017-1.12,2.24c-1.567,0.672-7.392,2.463-9.184,2.912    c-1.344,0.446-1.568,0.896-1.792,1.344l-0.672,1.791h38.528L56.446,48.607L56.446,48.607z" fill="#d67d00"/>
	</g>
</g>
<g>
</g>
<g>
</g>
<g>
</g>
<g>
</g>
<g>
</g>
<g>
</g>
<g>
</g>
<g>
</g>
<g>
</g>
<g>
</g>
<g>
</g>
<g>
</g>
<g>
</g>
<g>
</g>
<g>
</g>
</svg>
