<svg id="Layer_1" data-name="Layer 1" xmlns="http://www.w3.org/2000/svg" viewBox="0 0 266.89 266.89"><defs><style>.cls-1{fill:#fff;}</style></defs><title>fb</title><path id="White" class="cls-1" d="M254.84,0.84H17.41A14.73,14.73,0,0,0,2.68,15.57V253a14.73,14.73,0,0,0,14.73,14.73H145.23V164.38H110.45V124.1h34.78V94.39c0-34.47,21.05-53.24,51.81-53.24a285.37,285.37,0,0,1,31.08,1.59v36H206.79c-16.72,0-20,7.95-20,19.61V124.1h39.89l-5.19,40.28H186.83V267.73h68A14.73,14.73,0,0,0,269.57,253V15.57A14.73,14.73,0,0,0,254.84.84Z" transform="translate(-2.68 -0.84)"/></svg>