<?xml version="1.0" encoding="utf-8"?>
<!-- Generator: Adobe Illustrator 19.2.1, SVG Export Plug-In . SVG Version: 6.00 Build 0)  -->
<svg version="1.1" xmlns="http://www.w3.org/2000/svg" xmlns:xlink="http://www.w3.org/1999/xlink" x="0px" y="0px"
	 viewBox="0 0 125.4 88.2" style="enable-background:new 0 0 125.4 88.2;" xml:space="preserve">
<style type="text/css">
	.st0{fill:#DFDFDF;}
	.st1{display:none;}
	.st2{display:inline;}
</style>
<g id="Layer_1">
	<g>
		<path class="st0" d="M80,26.8c0-3.9,0.9-7.3,2.7-10.3s4.3-5.2,7.3-6.7c3.1-1.5,6.3-2.3,9.7-2.3c3.8,0,7.7,1.2,11.7,3.7
			c3.9,2.5,7.3,6.3,9.9,11.4s4,11.2,4,18.3c0,12.5-3.8,23-11.4,31.6c-7.6,8.6-18.4,13.8-32.3,15.6V76.9c9-1.7,16.2-4.9,21.9-9.5
			c5.6-4.6,8.4-10.4,8.4-17.5c0-4-1.4-6-4.3-6c-4.5,0.8-7.8,1.2-10,1.2c-2.8,0-5.7-0.8-8.4-2.4c-2.8-1.6-5-3.8-6.7-6.5
			C80.9,33.5,80,30.3,80,26.8z M10.9,26.8c0-3.9,0.9-7.3,2.7-10.3s4.3-5.2,7.3-6.7c3.1-1.5,6.3-2.3,9.7-2.3c6.2,0,12,2.9,17.5,8.8
			s8.2,14.1,8.2,24.7c0,12.5-3.8,23-11.4,31.6c-7.6,8.6-18.4,13.8-32.3,15.6V76.9c9-1.7,16.2-4.9,21.9-9.5C40.2,62.9,43,57,43,49.9
			c0-4-1.4-6-4.3-6c-0.7,0-1.2,0.1-1.6,0.2c-0.4,0.1-1.6,0.3-3.4,0.6c-1.8,0.3-3.5,0.4-4.9,0.4c-4.6,0-8.8-1.8-12.4-5.2
			C12.7,36.4,10.9,32,10.9,26.8z"/>
	</g>
</g>
<g id="Layer_2" class="st1">
	<g class="st2">
		<path class="st0" d="M46.4,62.4c0,3.9-0.9,7.3-2.7,10.3s-4.3,5.2-7.3,6.7c-3.1,1.5-6.3,2.3-9.7,2.3c-3.8,0-7.7-1.2-11.7-3.7
			C11,75.5,7.7,71.7,5,66.6S1,55.3,1,48.2c0-12.5,3.8-23,11.4-31.6C20,8,30.8,2.8,44.7,1v11.2c-9,1.7-16.2,4.9-21.9,9.5
			c-5.6,4.6-8.4,10.4-8.4,17.5c0,4,1.4,6,4.3,6c4.5-0.8,7.8-1.2,10-1.2c2.8,0,5.7,0.8,8.4,2.4c2.8,1.6,5,3.8,6.7,6.5
			C45.6,55.6,46.4,58.8,46.4,62.4z M115.5,62.4c0,3.9-0.9,7.3-2.7,10.3s-4.3,5.2-7.3,6.7c-3.1,1.5-6.3,2.3-9.7,2.3
			c-6.2,0-12-2.9-17.5-8.8S70,58.8,70,48.2c0-12.5,3.8-23,11.4-31.6C89,8,99.8,2.8,113.7,1v11.2c-9,1.7-16.2,4.9-21.9,9.5
			c-5.6,4.6-8.4,10.4-8.4,17.5c0,4,1.4,6,4.3,6c0.7,0,1.2-0.1,1.6-0.2c0.4-0.1,1.6-0.3,3.4-0.6c1.8-0.3,3.5-0.4,4.9-0.4
			c4.6,0,8.8,1.8,12.4,5.2C113.7,52.7,115.5,57.1,115.5,62.4z"/>
	</g>
</g>
</svg>
