<?xml version="1.0" encoding="iso-8859-1"?>
<!-- Generator: Adobe Illustrator 18.1.1, SVG Export Plug-In . SVG Version: 6.00 Build 0)  -->
<svg xmlns="http://www.w3.org/2000/svg" xmlns:xlink="http://www.w3.org/1999/xlink" version="1.1" id="Capa_1" x="0px" y="0px" viewBox="0 0 612.002 612.002" style="enable-background:new 0 0 612.002 612.002;" xml:space="preserve" width="512px" height="512px">
<g>
	<path d="M401.271,260.922c3.373-2.727,5.535-6.895,5.535-11.571v-51.909c0-8.216-6.661-14.879-14.879-14.879h-5.237L569.252,0   H405.138l-99.139,99.141L206.86,0H42.75l182.564,182.564h-5.237c-8.218,0-14.879,6.661-14.879,14.879v51.909   c0,4.676,2.162,8.842,5.535,11.571c-55.75,32.731-93.189,93.299-93.189,162.621c0,104.085,84.382,188.457,188.459,188.457   s188.455-84.372,188.455-188.457C494.456,354.223,457.019,293.653,401.271,260.922z M234.954,212.321h142.093v22.152H234.954   L234.954,212.321L234.954,212.321z M417.464,29.756h79.948L367.016,160.154l-39.977-39.973L417.464,29.756z M362.308,552.485   c44.417-25.799,74.287-73.88,74.287-128.945c0-55.067-29.872-103.148-74.287-128.945c55.199,16.88,95.351,68.219,95.351,128.945   C457.657,484.268,417.507,535.608,362.308,552.485z" fill="#e91853"/>
</g>
<g>
</g>
<g>
</g>
<g>
</g>
<g>
</g>
<g>
</g>
<g>
</g>
<g>
</g>
<g>
</g>
<g>
</g>
<g>
</g>
<g>
</g>
<g>
</g>
<g>
</g>
<g>
</g>
<g>
</g>
</svg>
